G04 #@! TF.GenerationSoftware,KiCad,Pcbnew,6.0.0-d3dd2cf0fa~116~ubuntu20.04.1*
G04 #@! TF.CreationDate,2022-01-05T21:32:06-05:00*
G04 #@! TF.ProjectId,30,33302e6b-6963-4616-945f-706362585858,0.1*
G04 #@! TF.SameCoordinates,Original*
G04 #@! TF.FileFunction,Soldermask,Bot*
G04 #@! TF.FilePolarity,Negative*
%FSLAX46Y46*%
G04 Gerber Fmt 4.6, Leading zero omitted, Abs format (unit mm)*
G04 Created by KiCad (PCBNEW 6.0.0-d3dd2cf0fa~116~ubuntu20.04.1) date 2022-01-05 21:32:06*
%MOMM*%
%LPD*%
G01*
G04 APERTURE LIST*
G04 Aperture macros list*
%AMHorizOval*
0 Thick line with rounded ends*
0 $1 width*
0 $2 $3 position (X,Y) of the first rounded end (center of the circle)*
0 $4 $5 position (X,Y) of the second rounded end (center of the circle)*
0 Add line between two ends*
20,1,$1,$2,$3,$4,$5,0*
0 Add two circle primitives to create the rounded ends*
1,1,$1,$2,$3*
1,1,$1,$4,$5*%
%AMFreePoly0*
4,1,6,0.600000,0.200000,0.000000,-0.400000,-0.600000,0.200000,-0.600000,0.400000,0.600000,0.400000,0.600000,0.200000,0.600000,0.200000,$1*%
%AMFreePoly1*
4,1,6,0.600000,-0.250000,-0.600000,-0.250000,-0.600000,1.000000,0.000000,0.400000,0.600000,1.000000,0.600000,-0.250000,0.600000,-0.250000,$1*%
G04 Aperture macros list end*
%ADD10C,0.100000*%
%ADD11C,1.701800*%
%ADD12C,3.429000*%
%ADD13HorizOval,2.000000X0.244074X0.054110X-0.244074X-0.054110X0*%
%ADD14HorizOval,2.000000X0.249049X0.021789X-0.249049X-0.021789X0*%
%ADD15O,2.500000X2.000000*%
%ADD16HorizOval,2.000000X0.249049X-0.021789X-0.249049X0.021789X0*%
%ADD17HorizOval,2.000000X-0.021789X-0.249049X0.021789X0.249049X0*%
%ADD18C,1.600000*%
%ADD19FreePoly0,270.000000*%
%ADD20FreePoly0,90.000000*%
%ADD21FreePoly1,90.000000*%
%ADD22FreePoly1,270.000000*%
%ADD23C,0.900000*%
G04 APERTURE END LIST*
D10*
X132523000Y-69866000D02*
X132523000Y-71866000D01*
X132523000Y-71866000D02*
X133923000Y-71866000D01*
X133923000Y-71866000D02*
X133923000Y-69866000D01*
X133923000Y-69866000D02*
X132523000Y-69866000D01*
G36*
X133923000Y-71866000D02*
G01*
X132523000Y-71866000D01*
X132523000Y-69866000D01*
X133923000Y-69866000D01*
X133923000Y-71866000D01*
G37*
X133923000Y-71866000D02*
X132523000Y-71866000D01*
X132523000Y-69866000D01*
X133923000Y-69866000D01*
X133923000Y-71866000D01*
X134723000Y-69866000D02*
X134723000Y-71866000D01*
X134723000Y-71866000D02*
X136123000Y-71866000D01*
X136123000Y-71866000D02*
X136123000Y-69866000D01*
X136123000Y-69866000D02*
X134723000Y-69866000D01*
G36*
X136123000Y-71866000D02*
G01*
X134723000Y-71866000D01*
X134723000Y-69866000D01*
X136123000Y-69866000D01*
X136123000Y-71866000D01*
G37*
X136123000Y-71866000D02*
X134723000Y-71866000D01*
X134723000Y-69866000D01*
X136123000Y-69866000D01*
X136123000Y-71866000D01*
X129059009Y-66366446D02*
X129059009Y-67382446D01*
X129059009Y-67382446D02*
X128043009Y-67382446D01*
X128043009Y-67382446D02*
X128043009Y-66366446D01*
X128043009Y-66366446D02*
X129059009Y-66366446D01*
G36*
X129059009Y-67382446D02*
G01*
X128043009Y-67382446D01*
X128043009Y-66366446D01*
X129059009Y-66366446D01*
X129059009Y-67382446D01*
G37*
X129059009Y-67382446D02*
X128043009Y-67382446D01*
X128043009Y-66366446D01*
X129059009Y-66366446D01*
X129059009Y-67382446D01*
X129059009Y-73986446D02*
X129059009Y-75002446D01*
X129059009Y-75002446D02*
X128043009Y-75002446D01*
X128043009Y-75002446D02*
X128043009Y-73986446D01*
X128043009Y-73986446D02*
X129059009Y-73986446D01*
G36*
X129059009Y-75002446D02*
G01*
X128043009Y-75002446D01*
X128043009Y-73986446D01*
X129059009Y-73986446D01*
X129059009Y-75002446D01*
G37*
X129059009Y-75002446D02*
X128043009Y-75002446D01*
X128043009Y-73986446D01*
X129059009Y-73986446D01*
X129059009Y-75002446D01*
X129059009Y-91766446D02*
X129059009Y-92782446D01*
X129059009Y-92782446D02*
X128043009Y-92782446D01*
X128043009Y-92782446D02*
X128043009Y-91766446D01*
X128043009Y-91766446D02*
X129059009Y-91766446D01*
G36*
X129059009Y-92782446D02*
G01*
X128043009Y-92782446D01*
X128043009Y-91766446D01*
X129059009Y-91766446D01*
X129059009Y-92782446D01*
G37*
X129059009Y-92782446D02*
X128043009Y-92782446D01*
X128043009Y-91766446D01*
X129059009Y-91766446D01*
X129059009Y-92782446D01*
X129059009Y-76526446D02*
X129059009Y-77542446D01*
X129059009Y-77542446D02*
X128043009Y-77542446D01*
X128043009Y-77542446D02*
X128043009Y-76526446D01*
X128043009Y-76526446D02*
X129059009Y-76526446D01*
G36*
X129059009Y-77542446D02*
G01*
X128043009Y-77542446D01*
X128043009Y-76526446D01*
X129059009Y-76526446D01*
X129059009Y-77542446D01*
G37*
X129059009Y-77542446D02*
X128043009Y-77542446D01*
X128043009Y-76526446D01*
X129059009Y-76526446D01*
X129059009Y-77542446D01*
X139219009Y-75002446D02*
X139219009Y-73986446D01*
X139219009Y-73986446D02*
X140235009Y-73986446D01*
X140235009Y-73986446D02*
X140235009Y-75002446D01*
X140235009Y-75002446D02*
X139219009Y-75002446D01*
G36*
X140235009Y-75002446D02*
G01*
X139219009Y-75002446D01*
X139219009Y-73986446D01*
X140235009Y-73986446D01*
X140235009Y-75002446D01*
G37*
X140235009Y-75002446D02*
X139219009Y-75002446D01*
X139219009Y-73986446D01*
X140235009Y-73986446D01*
X140235009Y-75002446D01*
X139219009Y-67382446D02*
X139219009Y-66366446D01*
X139219009Y-66366446D02*
X140235009Y-66366446D01*
X140235009Y-66366446D02*
X140235009Y-67382446D01*
X140235009Y-67382446D02*
X139219009Y-67382446D01*
G36*
X140235009Y-67382446D02*
G01*
X139219009Y-67382446D01*
X139219009Y-66366446D01*
X140235009Y-66366446D01*
X140235009Y-67382446D01*
G37*
X140235009Y-67382446D02*
X139219009Y-67382446D01*
X139219009Y-66366446D01*
X140235009Y-66366446D01*
X140235009Y-67382446D01*
X129059009Y-63826446D02*
X129059009Y-64842446D01*
X129059009Y-64842446D02*
X128043009Y-64842446D01*
X128043009Y-64842446D02*
X128043009Y-63826446D01*
X128043009Y-63826446D02*
X129059009Y-63826446D01*
G36*
X129059009Y-64842446D02*
G01*
X128043009Y-64842446D01*
X128043009Y-63826446D01*
X129059009Y-63826446D01*
X129059009Y-64842446D01*
G37*
X129059009Y-64842446D02*
X128043009Y-64842446D01*
X128043009Y-63826446D01*
X129059009Y-63826446D01*
X129059009Y-64842446D01*
X129059009Y-68906446D02*
X129059009Y-69922446D01*
X129059009Y-69922446D02*
X128043009Y-69922446D01*
X128043009Y-69922446D02*
X128043009Y-68906446D01*
X128043009Y-68906446D02*
X129059009Y-68906446D01*
G36*
X129059009Y-69922446D02*
G01*
X128043009Y-69922446D01*
X128043009Y-68906446D01*
X129059009Y-68906446D01*
X129059009Y-69922446D01*
G37*
X129059009Y-69922446D02*
X128043009Y-69922446D01*
X128043009Y-68906446D01*
X129059009Y-68906446D01*
X129059009Y-69922446D01*
X139219009Y-92782446D02*
X139219009Y-91766446D01*
X139219009Y-91766446D02*
X140235009Y-91766446D01*
X140235009Y-91766446D02*
X140235009Y-92782446D01*
X140235009Y-92782446D02*
X139219009Y-92782446D01*
G36*
X140235009Y-92782446D02*
G01*
X139219009Y-92782446D01*
X139219009Y-91766446D01*
X140235009Y-91766446D01*
X140235009Y-92782446D01*
G37*
X140235009Y-92782446D02*
X139219009Y-92782446D01*
X139219009Y-91766446D01*
X140235009Y-91766446D01*
X140235009Y-92782446D01*
X129059009Y-81606446D02*
X129059009Y-82622446D01*
X129059009Y-82622446D02*
X128043009Y-82622446D01*
X128043009Y-82622446D02*
X128043009Y-81606446D01*
X128043009Y-81606446D02*
X129059009Y-81606446D01*
G36*
X129059009Y-82622446D02*
G01*
X128043009Y-82622446D01*
X128043009Y-81606446D01*
X129059009Y-81606446D01*
X129059009Y-82622446D01*
G37*
X129059009Y-82622446D02*
X128043009Y-82622446D01*
X128043009Y-81606446D01*
X129059009Y-81606446D01*
X129059009Y-82622446D01*
X139219009Y-77542446D02*
X139219009Y-76526446D01*
X139219009Y-76526446D02*
X140235009Y-76526446D01*
X140235009Y-76526446D02*
X140235009Y-77542446D01*
X140235009Y-77542446D02*
X139219009Y-77542446D01*
G36*
X140235009Y-77542446D02*
G01*
X139219009Y-77542446D01*
X139219009Y-76526446D01*
X140235009Y-76526446D01*
X140235009Y-77542446D01*
G37*
X140235009Y-77542446D02*
X139219009Y-77542446D01*
X139219009Y-76526446D01*
X140235009Y-76526446D01*
X140235009Y-77542446D01*
X139219009Y-90242446D02*
X139219009Y-89226446D01*
X139219009Y-89226446D02*
X140235009Y-89226446D01*
X140235009Y-89226446D02*
X140235009Y-90242446D01*
X140235009Y-90242446D02*
X139219009Y-90242446D01*
G36*
X140235009Y-90242446D02*
G01*
X139219009Y-90242446D01*
X139219009Y-89226446D01*
X140235009Y-89226446D01*
X140235009Y-90242446D01*
G37*
X140235009Y-90242446D02*
X139219009Y-90242446D01*
X139219009Y-89226446D01*
X140235009Y-89226446D01*
X140235009Y-90242446D01*
X139219009Y-69922446D02*
X139219009Y-68906446D01*
X139219009Y-68906446D02*
X140235009Y-68906446D01*
X140235009Y-68906446D02*
X140235009Y-69922446D01*
X140235009Y-69922446D02*
X139219009Y-69922446D01*
G36*
X140235009Y-69922446D02*
G01*
X139219009Y-69922446D01*
X139219009Y-68906446D01*
X140235009Y-68906446D01*
X140235009Y-69922446D01*
G37*
X140235009Y-69922446D02*
X139219009Y-69922446D01*
X139219009Y-68906446D01*
X140235009Y-68906446D01*
X140235009Y-69922446D01*
X129059009Y-71446446D02*
X129059009Y-72462446D01*
X129059009Y-72462446D02*
X128043009Y-72462446D01*
X128043009Y-72462446D02*
X128043009Y-71446446D01*
X128043009Y-71446446D02*
X129059009Y-71446446D01*
G36*
X129059009Y-72462446D02*
G01*
X128043009Y-72462446D01*
X128043009Y-71446446D01*
X129059009Y-71446446D01*
X129059009Y-72462446D01*
G37*
X129059009Y-72462446D02*
X128043009Y-72462446D01*
X128043009Y-71446446D01*
X129059009Y-71446446D01*
X129059009Y-72462446D01*
X139219009Y-80082446D02*
X139219009Y-79066446D01*
X139219009Y-79066446D02*
X140235009Y-79066446D01*
X140235009Y-79066446D02*
X140235009Y-80082446D01*
X140235009Y-80082446D02*
X139219009Y-80082446D01*
G36*
X140235009Y-80082446D02*
G01*
X139219009Y-80082446D01*
X139219009Y-79066446D01*
X140235009Y-79066446D01*
X140235009Y-80082446D01*
G37*
X140235009Y-80082446D02*
X139219009Y-80082446D01*
X139219009Y-79066446D01*
X140235009Y-79066446D01*
X140235009Y-80082446D01*
X139219009Y-72462446D02*
X139219009Y-71446446D01*
X139219009Y-71446446D02*
X140235009Y-71446446D01*
X140235009Y-71446446D02*
X140235009Y-72462446D01*
X140235009Y-72462446D02*
X139219009Y-72462446D01*
G36*
X140235009Y-72462446D02*
G01*
X139219009Y-72462446D01*
X139219009Y-71446446D01*
X140235009Y-71446446D01*
X140235009Y-72462446D01*
G37*
X140235009Y-72462446D02*
X139219009Y-72462446D01*
X139219009Y-71446446D01*
X140235009Y-71446446D01*
X140235009Y-72462446D01*
X139219009Y-87702446D02*
X139219009Y-86686446D01*
X139219009Y-86686446D02*
X140235009Y-86686446D01*
X140235009Y-86686446D02*
X140235009Y-87702446D01*
X140235009Y-87702446D02*
X139219009Y-87702446D01*
G36*
X140235009Y-87702446D02*
G01*
X139219009Y-87702446D01*
X139219009Y-86686446D01*
X140235009Y-86686446D01*
X140235009Y-87702446D01*
G37*
X140235009Y-87702446D02*
X139219009Y-87702446D01*
X139219009Y-86686446D01*
X140235009Y-86686446D01*
X140235009Y-87702446D01*
X139219009Y-64842446D02*
X139219009Y-63826446D01*
X139219009Y-63826446D02*
X140235009Y-63826446D01*
X140235009Y-63826446D02*
X140235009Y-64842446D01*
X140235009Y-64842446D02*
X139219009Y-64842446D01*
G36*
X140235009Y-64842446D02*
G01*
X139219009Y-64842446D01*
X139219009Y-63826446D01*
X140235009Y-63826446D01*
X140235009Y-64842446D01*
G37*
X140235009Y-64842446D02*
X139219009Y-64842446D01*
X139219009Y-63826446D01*
X140235009Y-63826446D01*
X140235009Y-64842446D01*
X129059009Y-79066446D02*
X129059009Y-80082446D01*
X129059009Y-80082446D02*
X128043009Y-80082446D01*
X128043009Y-80082446D02*
X128043009Y-79066446D01*
X128043009Y-79066446D02*
X129059009Y-79066446D01*
G36*
X129059009Y-80082446D02*
G01*
X128043009Y-80082446D01*
X128043009Y-79066446D01*
X129059009Y-79066446D01*
X129059009Y-80082446D01*
G37*
X129059009Y-80082446D02*
X128043009Y-80082446D01*
X128043009Y-79066446D01*
X129059009Y-79066446D01*
X129059009Y-80082446D01*
X129059009Y-86686446D02*
X129059009Y-87702446D01*
X129059009Y-87702446D02*
X128043009Y-87702446D01*
X128043009Y-87702446D02*
X128043009Y-86686446D01*
X128043009Y-86686446D02*
X129059009Y-86686446D01*
G36*
X129059009Y-87702446D02*
G01*
X128043009Y-87702446D01*
X128043009Y-86686446D01*
X129059009Y-86686446D01*
X129059009Y-87702446D01*
G37*
X129059009Y-87702446D02*
X128043009Y-87702446D01*
X128043009Y-86686446D01*
X129059009Y-86686446D01*
X129059009Y-87702446D01*
X139219009Y-82622446D02*
X139219009Y-81606446D01*
X139219009Y-81606446D02*
X140235009Y-81606446D01*
X140235009Y-81606446D02*
X140235009Y-82622446D01*
X140235009Y-82622446D02*
X139219009Y-82622446D01*
G36*
X140235009Y-82622446D02*
G01*
X139219009Y-82622446D01*
X139219009Y-81606446D01*
X140235009Y-81606446D01*
X140235009Y-82622446D01*
G37*
X140235009Y-82622446D02*
X139219009Y-82622446D01*
X139219009Y-81606446D01*
X140235009Y-81606446D01*
X140235009Y-82622446D01*
X129059009Y-89226446D02*
X129059009Y-90242446D01*
X129059009Y-90242446D02*
X128043009Y-90242446D01*
X128043009Y-90242446D02*
X128043009Y-89226446D01*
X128043009Y-89226446D02*
X129059009Y-89226446D01*
G36*
X129059009Y-90242446D02*
G01*
X128043009Y-90242446D01*
X128043009Y-89226446D01*
X129059009Y-89226446D01*
X129059009Y-90242446D01*
G37*
X129059009Y-90242446D02*
X128043009Y-90242446D01*
X128043009Y-89226446D01*
X129059009Y-89226446D01*
X129059009Y-90242446D01*
X129059009Y-84146446D02*
X129059009Y-85162446D01*
X129059009Y-85162446D02*
X128043009Y-85162446D01*
X128043009Y-85162446D02*
X128043009Y-84146446D01*
X128043009Y-84146446D02*
X129059009Y-84146446D01*
G36*
X129059009Y-85162446D02*
G01*
X128043009Y-85162446D01*
X128043009Y-84146446D01*
X129059009Y-84146446D01*
X129059009Y-85162446D01*
G37*
X129059009Y-85162446D02*
X128043009Y-85162446D01*
X128043009Y-84146446D01*
X129059009Y-84146446D01*
X129059009Y-85162446D01*
X139219009Y-85162446D02*
X139219009Y-84146446D01*
X139219009Y-84146446D02*
X140235009Y-84146446D01*
X140235009Y-84146446D02*
X140235009Y-85162446D01*
X140235009Y-85162446D02*
X139219009Y-85162446D01*
G36*
X140235009Y-85162446D02*
G01*
X139219009Y-85162446D01*
X139219009Y-84146446D01*
X140235009Y-84146446D01*
X140235009Y-85162446D01*
G37*
X140235009Y-85162446D02*
X139219009Y-85162446D01*
X139219009Y-84146446D01*
X140235009Y-84146446D01*
X140235009Y-85162446D01*
X136097486Y-63491256D02*
X136097486Y-64891256D01*
X136097486Y-64891256D02*
X136697486Y-64891256D01*
X136697486Y-64891256D02*
X136697486Y-63491256D01*
X136697486Y-63491256D02*
X136097486Y-63491256D01*
G36*
X136697486Y-64891256D02*
G01*
X136097486Y-64891256D01*
X136097486Y-63491256D01*
X136697486Y-63491256D01*
X136697486Y-64891256D01*
G37*
X136697486Y-64891256D02*
X136097486Y-64891256D01*
X136097486Y-63491256D01*
X136697486Y-63491256D01*
X136697486Y-64891256D01*
X131597486Y-63491256D02*
X131597486Y-64891256D01*
X131597486Y-64891256D02*
X132197486Y-64891256D01*
X132197486Y-64891256D02*
X132197486Y-63491256D01*
X132197486Y-63491256D02*
X131597486Y-63491256D01*
G36*
X132197486Y-64891256D02*
G01*
X131597486Y-64891256D01*
X131597486Y-63491256D01*
X132197486Y-63491256D01*
X132197486Y-64891256D01*
G37*
X132197486Y-64891256D02*
X131597486Y-64891256D01*
X131597486Y-63491256D01*
X132197486Y-63491256D01*
X132197486Y-64891256D01*
X137347486Y-60991256D02*
X137347486Y-61691256D01*
X137347486Y-61691256D02*
X138247486Y-61691256D01*
X138247486Y-61691256D02*
X138247486Y-60991256D01*
X138247486Y-60991256D02*
X137347486Y-60991256D01*
G36*
X138247486Y-61691256D02*
G01*
X137347486Y-61691256D01*
X137347486Y-60991256D01*
X138247486Y-60991256D01*
X138247486Y-61691256D01*
G37*
X138247486Y-61691256D02*
X137347486Y-61691256D01*
X137347486Y-60991256D01*
X138247486Y-60991256D01*
X138247486Y-61691256D01*
X134597486Y-63491256D02*
X134597486Y-64891256D01*
X134597486Y-64891256D02*
X135197486Y-64891256D01*
X135197486Y-64891256D02*
X135197486Y-63491256D01*
X135197486Y-63491256D02*
X134597486Y-63491256D01*
G36*
X135197486Y-64891256D02*
G01*
X134597486Y-64891256D01*
X134597486Y-63491256D01*
X135197486Y-63491256D01*
X135197486Y-64891256D01*
G37*
X135197486Y-64891256D02*
X134597486Y-64891256D01*
X134597486Y-63491256D01*
X135197486Y-63491256D01*
X135197486Y-64891256D01*
X130047486Y-60991256D02*
X130047486Y-61691256D01*
X130047486Y-61691256D02*
X130947486Y-61691256D01*
X130947486Y-61691256D02*
X130947486Y-60991256D01*
X130947486Y-60991256D02*
X130047486Y-60991256D01*
G36*
X130947486Y-61691256D02*
G01*
X130047486Y-61691256D01*
X130047486Y-60991256D01*
X130947486Y-60991256D01*
X130947486Y-61691256D01*
G37*
X130947486Y-61691256D02*
X130047486Y-61691256D01*
X130047486Y-60991256D01*
X130947486Y-60991256D01*
X130947486Y-61691256D01*
X137347486Y-63191256D02*
X137347486Y-63891256D01*
X137347486Y-63891256D02*
X138247486Y-63891256D01*
X138247486Y-63891256D02*
X138247486Y-63191256D01*
X138247486Y-63191256D02*
X137347486Y-63191256D01*
G36*
X138247486Y-63891256D02*
G01*
X137347486Y-63891256D01*
X137347486Y-63191256D01*
X138247486Y-63191256D01*
X138247486Y-63891256D01*
G37*
X138247486Y-63891256D02*
X137347486Y-63891256D01*
X137347486Y-63191256D01*
X138247486Y-63191256D01*
X138247486Y-63891256D01*
X130047486Y-63191256D02*
X130047486Y-63891256D01*
X130047486Y-63891256D02*
X130947486Y-63891256D01*
X130947486Y-63891256D02*
X130947486Y-63191256D01*
X130947486Y-63191256D02*
X130047486Y-63191256D01*
G36*
X130947486Y-63891256D02*
G01*
X130047486Y-63891256D01*
X130047486Y-63191256D01*
X130947486Y-63191256D01*
X130947486Y-63891256D01*
G37*
X130947486Y-63891256D02*
X130047486Y-63891256D01*
X130047486Y-63191256D01*
X130947486Y-63191256D01*
X130947486Y-63891256D01*
D11*
X31674953Y-77114146D03*
X42414209Y-74733310D03*
D12*
X37044581Y-75923728D03*
D13*
X32909586Y-80835124D03*
X38321575Y-81683874D03*
D12*
X57238860Y-60190585D03*
D11*
X51759789Y-60669942D03*
X62717931Y-59711228D03*
D14*
X52498174Y-64520239D03*
X57753079Y-66068134D03*
D11*
X73744393Y-57058851D03*
X84744393Y-57058851D03*
D12*
X79244393Y-57058851D03*
D15*
X74144393Y-60958851D03*
X79244393Y-62958851D03*
D12*
X97233086Y-60427567D03*
D11*
X91733086Y-60427567D03*
X102733086Y-60427567D03*
D15*
X92133086Y-64327567D03*
X97233086Y-66327567D03*
D11*
X120733089Y-68927570D03*
D12*
X115233089Y-68927570D03*
D11*
X109733089Y-68927570D03*
D15*
X110133089Y-72827570D03*
X115233089Y-74827570D03*
D11*
X46093685Y-91330336D03*
D12*
X40724057Y-92520754D03*
D11*
X35354429Y-93711172D03*
D13*
X36589062Y-97432150D03*
X42001051Y-98280900D03*
D11*
X53241431Y-77605258D03*
X64199573Y-76646544D03*
D12*
X58720502Y-77125901D03*
D14*
X53979816Y-81455555D03*
X59234721Y-83003450D03*
D12*
X79244389Y-74058851D03*
D11*
X84744389Y-74058851D03*
X73744389Y-74058851D03*
D15*
X74144389Y-77958851D03*
X79244389Y-79958851D03*
D11*
X102733093Y-77427564D03*
X91733093Y-77427564D03*
D12*
X97233093Y-77427564D03*
D15*
X92133093Y-81327564D03*
X97233093Y-83327564D03*
D11*
X109733093Y-85927569D03*
X120733093Y-85927569D03*
D12*
X115233093Y-85927569D03*
D15*
X110133093Y-89827569D03*
X115233093Y-91827569D03*
D12*
X60202150Y-94061209D03*
D11*
X54723079Y-94540566D03*
X65681221Y-93581852D03*
D14*
X55461464Y-98390863D03*
X60716369Y-99938758D03*
D12*
X79244382Y-91058862D03*
D11*
X84744382Y-91058862D03*
X73744382Y-91058862D03*
D15*
X74144382Y-94958862D03*
X79244382Y-96958862D03*
D11*
X91733093Y-94427566D03*
D12*
X97233093Y-94427566D03*
D11*
X102733093Y-94427566D03*
D15*
X92133093Y-98327566D03*
X97233093Y-100327566D03*
D11*
X111302935Y-114125535D03*
X100344793Y-113166821D03*
D12*
X105823864Y-113646178D03*
D16*
X100403364Y-117086843D03*
X105309645Y-119523727D03*
D17*
X122220681Y-110312378D03*
X124657565Y-105406097D03*
D11*
X127618873Y-116305668D03*
D12*
X128098230Y-110826597D03*
D11*
X128577587Y-105347526D03*
D18*
X126519009Y-64334446D03*
X141759009Y-74494446D03*
D19*
X139981009Y-87194446D03*
D20*
X128297009Y-84654446D03*
D18*
X141759009Y-69414446D03*
D19*
X139981009Y-79574446D03*
D18*
X126519009Y-71954446D03*
X126519009Y-77034446D03*
D20*
X128297009Y-87194446D03*
X128297009Y-74494446D03*
D18*
X141759009Y-79574446D03*
D19*
X139981009Y-66874446D03*
D18*
X141759009Y-92274446D03*
D19*
X139981009Y-84654446D03*
D20*
X128297009Y-79574446D03*
X128297009Y-69414446D03*
D18*
X126519009Y-66874446D03*
X141759009Y-84654446D03*
D20*
X128297009Y-92274446D03*
D19*
X139981009Y-89734446D03*
D18*
X141759009Y-77034446D03*
D20*
X128297009Y-89734446D03*
D18*
X141759009Y-64334446D03*
D20*
X128297009Y-66874446D03*
D18*
X141759009Y-82114446D03*
X141759009Y-71954446D03*
X126519009Y-69414446D03*
X126519009Y-89734446D03*
D20*
X128297009Y-82114446D03*
D18*
X126519009Y-79574446D03*
D19*
X139981009Y-92274446D03*
D20*
X128297009Y-77034446D03*
D18*
X126519009Y-87194446D03*
D19*
X139981009Y-64334446D03*
D18*
X141759009Y-66874446D03*
D19*
X139981009Y-82114446D03*
X139981009Y-77034446D03*
X139981009Y-74494446D03*
D18*
X126519009Y-74494446D03*
D19*
X139981009Y-69414446D03*
D18*
X126519009Y-84654446D03*
X126519009Y-92274446D03*
X126519009Y-82114446D03*
D20*
X128297009Y-71954446D03*
D18*
X141759009Y-89734446D03*
D20*
X128297009Y-64334446D03*
D18*
X141759009Y-87194446D03*
D19*
X139981009Y-71954446D03*
D21*
X129313009Y-64334446D03*
X129313009Y-66874446D03*
X129313009Y-69414446D03*
X129313009Y-71954446D03*
X129313009Y-74494446D03*
X129313009Y-77034446D03*
X129313009Y-79574446D03*
X129313009Y-82114446D03*
X129313009Y-84654446D03*
X129313009Y-87194446D03*
X129313009Y-89734446D03*
X129313009Y-92274446D03*
D22*
X138965009Y-92274446D03*
X138965009Y-89734446D03*
X138965009Y-87194446D03*
X138965009Y-84654446D03*
X138965009Y-82114446D03*
X138965009Y-79574446D03*
X138965009Y-77034446D03*
X138965009Y-74494446D03*
X138965009Y-71954446D03*
X138965009Y-69414446D03*
X138965009Y-66874446D03*
X138965009Y-64334446D03*
D23*
X135647486Y-62441256D03*
X132647486Y-62441256D03*
X135647486Y-62441256D03*
X132647486Y-62441256D03*
M02*
