G04 #@! TF.GenerationSoftware,KiCad,Pcbnew,6.0.0-d3dd2cf0fa~116~ubuntu20.04.1*
G04 #@! TF.CreationDate,2022-01-06T00:01:31-05:00*
G04 #@! TF.ProjectId,30,33302e6b-6963-4616-945f-706362585858,0.1*
G04 #@! TF.SameCoordinates,Original*
G04 #@! TF.FileFunction,Copper,L1,Top*
G04 #@! TF.FilePolarity,Positive*
%FSLAX46Y46*%
G04 Gerber Fmt 4.6, Leading zero omitted, Abs format (unit mm)*
G04 Created by KiCad (PCBNEW 6.0.0-d3dd2cf0fa~116~ubuntu20.04.1) date 2022-01-06 00:01:31*
%MOMM*%
%LPD*%
G01*
G04 APERTURE LIST*
G04 Aperture macros list*
%AMHorizOval*
0 Thick line with rounded ends*
0 $1 width*
0 $2 $3 position (X,Y) of the first rounded end (center of the circle)*
0 $4 $5 position (X,Y) of the second rounded end (center of the circle)*
0 Add line between two ends*
20,1,$1,$2,$3,$4,$5,0*
0 Add two circle primitives to create the rounded ends*
1,1,$1,$2,$3*
1,1,$1,$4,$5*%
%AMFreePoly0*
4,1,6,0.600000,0.200000,0.000000,-0.400000,-0.600000,0.200000,-0.600000,0.400000,0.600000,0.400000,0.600000,0.200000,0.600000,0.200000,$1*%
%AMFreePoly1*
4,1,5,0.125000,-0.500000,-0.125000,-0.500000,-0.125000,0.500000,0.125000,0.500000,0.125000,-0.500000,0.125000,-0.500000,$1*%
%AMFreePoly2*
4,1,6,0.600000,-0.250000,-0.600000,-0.250000,-0.600000,1.000000,0.000000,0.400000,0.600000,1.000000,0.600000,-0.250000,0.600000,-0.250000,$1*%
G04 Aperture macros list end*
G04 #@! TA.AperFunction,ComponentPad*
%ADD10HorizOval,2.000000X0.244074X0.054110X-0.244074X-0.054110X0*%
G04 #@! TD*
G04 #@! TA.AperFunction,ComponentPad*
%ADD11HorizOval,2.000000X0.249049X0.021789X-0.249049X-0.021789X0*%
G04 #@! TD*
G04 #@! TA.AperFunction,ComponentPad*
%ADD12O,2.500000X2.000000*%
G04 #@! TD*
G04 #@! TA.AperFunction,ComponentPad*
%ADD13HorizOval,2.000000X0.249049X-0.021789X-0.249049X0.021789X0*%
G04 #@! TD*
G04 #@! TA.AperFunction,ComponentPad*
%ADD14HorizOval,2.000000X-0.021789X-0.249049X0.021789X0.249049X0*%
G04 #@! TD*
G04 #@! TA.AperFunction,SMDPad,CuDef*
%ADD15R,1.500000X2.100000*%
G04 #@! TD*
G04 #@! TA.AperFunction,ComponentPad*
%ADD16C,1.600000*%
G04 #@! TD*
G04 #@! TA.AperFunction,SMDPad,CuDef*
%ADD17FreePoly0,90.000000*%
G04 #@! TD*
G04 #@! TA.AperFunction,SMDPad,CuDef*
%ADD18FreePoly0,270.000000*%
G04 #@! TD*
G04 #@! TA.AperFunction,SMDPad,CuDef*
%ADD19FreePoly1,270.000000*%
G04 #@! TD*
G04 #@! TA.AperFunction,SMDPad,CuDef*
%ADD20FreePoly1,90.000000*%
G04 #@! TD*
G04 #@! TA.AperFunction,SMDPad,CuDef*
%ADD21FreePoly2,270.000000*%
G04 #@! TD*
G04 #@! TA.AperFunction,SMDPad,CuDef*
%ADD22FreePoly2,90.000000*%
G04 #@! TD*
G04 #@! TA.AperFunction,SMDPad,CuDef*
%ADD23R,1.000000X0.800000*%
G04 #@! TD*
G04 #@! TA.AperFunction,SMDPad,CuDef*
%ADD24R,0.700000X1.500000*%
G04 #@! TD*
G04 #@! TA.AperFunction,ViaPad*
%ADD25C,0.800000*%
G04 #@! TD*
G04 #@! TA.AperFunction,Conductor*
%ADD26C,0.250000*%
G04 #@! TD*
G04 #@! TA.AperFunction,Conductor*
%ADD27C,0.400000*%
G04 #@! TD*
G04 APERTURE END LIST*
D10*
X32909586Y-80835124D03*
X42867805Y-78627440D03*
X38321575Y-81683874D03*
D11*
X52498174Y-64520239D03*
X62659360Y-63631250D03*
X57753079Y-66068134D03*
D12*
X74130000Y-60958851D03*
X84330000Y-60958851D03*
X79230000Y-62958851D03*
X102333086Y-64327567D03*
X92133086Y-64327567D03*
X97233086Y-66327567D03*
X120333089Y-72827570D03*
X110133089Y-72827570D03*
X115233089Y-74827570D03*
D10*
X36589062Y-97432150D03*
X46547281Y-95224466D03*
X42001051Y-98280900D03*
D11*
X64141002Y-80566566D03*
X53979816Y-81455555D03*
X59234721Y-83003450D03*
D12*
X74130000Y-77958851D03*
X84330000Y-77958851D03*
X79230000Y-79958851D03*
X102333086Y-81327564D03*
X92133086Y-81327564D03*
X97233086Y-83327564D03*
X110133089Y-89827569D03*
X120333089Y-89827569D03*
X115233089Y-91827569D03*
D11*
X55461464Y-98390863D03*
X65622650Y-97501874D03*
X60716369Y-99938758D03*
D12*
X74130000Y-94958862D03*
X84330000Y-94958862D03*
X79230000Y-96958862D03*
X92133086Y-98327566D03*
X102333086Y-98327566D03*
X97233086Y-100327566D03*
D13*
X110564550Y-117975832D03*
X100403364Y-117086843D03*
X105309645Y-119523727D03*
D14*
X123768576Y-115567283D03*
X124657565Y-105406097D03*
X122220681Y-110312378D03*
D15*
X135423000Y-70866000D03*
X133223000Y-70866000D03*
D16*
X126519009Y-64334446D03*
X141759009Y-74494446D03*
D17*
X128297009Y-71954446D03*
D18*
X139981009Y-82114446D03*
D16*
X141759009Y-69414446D03*
X126519009Y-71954446D03*
X126519009Y-77034446D03*
D17*
X128297009Y-87194446D03*
D19*
X140489009Y-71954446D03*
D17*
X128297009Y-92274446D03*
D16*
X141759009Y-79574446D03*
D17*
X128297009Y-84654446D03*
D16*
X141759009Y-92274446D03*
D19*
X140489009Y-77034446D03*
D18*
X139981009Y-87194446D03*
D17*
X128297009Y-77034446D03*
X128297009Y-79574446D03*
D16*
X126519009Y-66874446D03*
D19*
X140489009Y-69414446D03*
D16*
X141759009Y-84654446D03*
D19*
X140489009Y-87194446D03*
D17*
X128297009Y-64334446D03*
D16*
X141759009Y-77034446D03*
D19*
X140489009Y-82114446D03*
D20*
X127789009Y-89734446D03*
D16*
X141759009Y-64334446D03*
D17*
X128297009Y-66874446D03*
X128297009Y-89734446D03*
D18*
X139981009Y-89734446D03*
D20*
X127789009Y-69414446D03*
D16*
X141759009Y-82114446D03*
D19*
X140489009Y-89734446D03*
X140489009Y-79574446D03*
D16*
X141759009Y-71954446D03*
D19*
X140489009Y-84654446D03*
D16*
X126519009Y-69414446D03*
D20*
X127789009Y-74494446D03*
D17*
X128297009Y-74494446D03*
D18*
X139981009Y-79574446D03*
D16*
X126519009Y-89734446D03*
X126519009Y-79574446D03*
D17*
X128297009Y-69414446D03*
D19*
X140489009Y-92274446D03*
D20*
X127789009Y-66874446D03*
X127789009Y-87194446D03*
D16*
X126519009Y-87194446D03*
D18*
X139981009Y-74494446D03*
D20*
X127789009Y-84654446D03*
X127789009Y-77034446D03*
D19*
X140489009Y-74494446D03*
D16*
X141759009Y-66874446D03*
D20*
X127789009Y-64334446D03*
D18*
X139981009Y-69414446D03*
D20*
X127789009Y-79574446D03*
X127789009Y-71954446D03*
X127789009Y-82114446D03*
D16*
X126519009Y-74494446D03*
D18*
X139981009Y-71954446D03*
D16*
X126519009Y-84654446D03*
D18*
X139981009Y-66874446D03*
D19*
X140489009Y-66874446D03*
D16*
X126519009Y-92274446D03*
D18*
X139981009Y-64334446D03*
D16*
X126519009Y-82114446D03*
D19*
X140489009Y-64334446D03*
D18*
X139981009Y-84654446D03*
D16*
X141759009Y-89734446D03*
D18*
X139981009Y-92274446D03*
D17*
X128297009Y-82114446D03*
D18*
X139981009Y-77034446D03*
D20*
X127789009Y-92274446D03*
D16*
X141759009Y-87194446D03*
D21*
X138965009Y-64334446D03*
X138965009Y-66874446D03*
X138965009Y-69414446D03*
X138965009Y-71954446D03*
X138965009Y-74494446D03*
X138965009Y-77034446D03*
X138965009Y-79574446D03*
X138965009Y-82114446D03*
X138965009Y-84654446D03*
X138965009Y-87194446D03*
X138965009Y-89734446D03*
X138965009Y-92274446D03*
D22*
X129313009Y-92274446D03*
X129313009Y-89734446D03*
X129313009Y-87194446D03*
X129313009Y-84654446D03*
X129313009Y-82114446D03*
X129313009Y-79574446D03*
X129313009Y-77034446D03*
X129313009Y-74494446D03*
X129313009Y-71954446D03*
X129313009Y-69414446D03*
X129313009Y-66874446D03*
X129313009Y-64334446D03*
D23*
X130497486Y-63541256D03*
X137797486Y-61341256D03*
X137797486Y-63541256D03*
X130497486Y-61341256D03*
D24*
X136397486Y-64191256D03*
X133397486Y-64191256D03*
X131897486Y-64191256D03*
D25*
X134147489Y-61641258D03*
X137965009Y-73859446D03*
X130313007Y-82749441D03*
X130313009Y-85289444D03*
X130313007Y-87829443D03*
X130313005Y-92909447D03*
X137965007Y-86559444D03*
X137965009Y-76399444D03*
X130813009Y-76399446D03*
X130313006Y-77669446D03*
X130313007Y-80209443D03*
X130313008Y-90369445D03*
X137965005Y-84019446D03*
X137965011Y-81479447D03*
X137965007Y-78939446D03*
X137965007Y-89099443D03*
X137922000Y-91694000D03*
X130313008Y-71319445D03*
X137465008Y-68779446D03*
X136965009Y-66874444D03*
X130813008Y-69414444D03*
X138023600Y-70459600D03*
X134147491Y-63041258D03*
X132313009Y-73224443D03*
X133153388Y-70866000D03*
X135419174Y-65864289D03*
X135423001Y-70866001D03*
X135382000Y-67691000D03*
X131313008Y-67509445D03*
X130313007Y-75129443D03*
D26*
X131897489Y-62318221D02*
X131897489Y-64191257D01*
X132220901Y-61787703D02*
X132043936Y-61964667D01*
X134147489Y-61641258D02*
X132574454Y-61641257D01*
X132043936Y-61964667D02*
G75*
G03*
X131897489Y-62318221I353550J-353553D01*
G01*
X132220901Y-61787703D02*
G75*
G02*
X132574454Y-61641257I353553J-353556D01*
G01*
X134151765Y-95317575D02*
X131213094Y-98256246D01*
X46342869Y-78627440D02*
X42867805Y-78627440D01*
X67131029Y-84937600D02*
X53315771Y-84937600D01*
X69330906Y-83069094D02*
X67696714Y-84703286D01*
X105374165Y-87518683D02*
X104637636Y-86782154D01*
X93373290Y-86313525D02*
X90128858Y-83069093D01*
X42867805Y-78627440D02*
X32909586Y-80835124D01*
X130647409Y-98490560D02*
X112787629Y-98490560D01*
X52750085Y-84703285D02*
X46908554Y-78861754D01*
X138453559Y-74347997D02*
X137965009Y-73859446D01*
X89563173Y-82834779D02*
X69896592Y-82834779D01*
X104071951Y-86547840D02*
X93938976Y-86547840D01*
X138965009Y-74494444D02*
X138807113Y-74494444D01*
X137965009Y-73859446D02*
X134587798Y-77236657D01*
X112221943Y-98256245D02*
X105842794Y-91877096D01*
X105608480Y-91311411D02*
X105608480Y-88084369D01*
X134353484Y-77802342D02*
X134353484Y-94984679D01*
X134151764Y-95317574D02*
G75*
G03*
X134353483Y-94984679I-592386J586521D01*
G01*
X105608480Y-91311411D02*
G75*
G03*
X105842794Y-91877096I800000J0D01*
G01*
X89563173Y-82834779D02*
G75*
G02*
X90128858Y-83069093I0J-800000D01*
G01*
X46342869Y-78627440D02*
G75*
G02*
X46908554Y-78861754I0J-800000D01*
G01*
X93373290Y-86313525D02*
G75*
G03*
X93938976Y-86547840I565684J565680D01*
G01*
X67131029Y-84937600D02*
G75*
G03*
X67696714Y-84703286I0J800000D01*
G01*
X130647409Y-98490560D02*
G75*
G03*
X131213094Y-98256246I0J800000D01*
G01*
X104071951Y-86547840D02*
G75*
G02*
X104637636Y-86782154I0J-800000D01*
G01*
X138453559Y-74347997D02*
G75*
G03*
X138807113Y-74494444I353553J353550D01*
G01*
X105374165Y-87518683D02*
G75*
G02*
X105608480Y-88084369I-565692J-565689D01*
G01*
X69330906Y-83069094D02*
G75*
G02*
X69896592Y-82834779I565689J-565692D01*
G01*
X134353484Y-77802342D02*
G75*
G02*
X134587798Y-77236657I800000J0D01*
G01*
X52750085Y-84703285D02*
G75*
G03*
X53315771Y-84937600I565684J565680D01*
G01*
X112221943Y-98256245D02*
G75*
G03*
X112787629Y-98490560I565684J565680D01*
G01*
X129313008Y-82114446D02*
X129470904Y-82114446D01*
X129824459Y-82260893D02*
X130313007Y-82749441D01*
X132353685Y-94572785D02*
X130468304Y-96458166D01*
X68193285Y-65246885D02*
X66811964Y-63865564D01*
X107172245Y-70673163D02*
X106220116Y-69721034D01*
X107406560Y-90566623D02*
X107406560Y-71238849D01*
X129902619Y-96692480D02*
X113532417Y-96692480D01*
X66246279Y-63631250D02*
X62659360Y-63631250D01*
X89863311Y-65481200D02*
X68758971Y-65481200D01*
X112966731Y-96458165D02*
X107640874Y-91132308D01*
X132588000Y-85355805D02*
X132588000Y-94007099D01*
X93965887Y-69252405D02*
X90428996Y-65715514D01*
X62659360Y-63631250D02*
X52498174Y-64520239D01*
X105654431Y-69486720D02*
X94531573Y-69486720D01*
X130313007Y-82749441D02*
X132353686Y-84790120D01*
X68193285Y-65246885D02*
G75*
G03*
X68758971Y-65481200I565689J565692D01*
G01*
X105654431Y-69486720D02*
G75*
G02*
X106220116Y-69721034I0J-800000D01*
G01*
X132588000Y-94007099D02*
G75*
G02*
X132353685Y-94572785I-799995J-2D01*
G01*
X93965887Y-69252405D02*
G75*
G03*
X94531573Y-69486720I565689J565692D01*
G01*
X90428996Y-65715514D02*
G75*
G03*
X89863311Y-65481200I-565685J-565686D01*
G01*
X66811964Y-63865564D02*
G75*
G03*
X66246279Y-63631250I-565685J-565686D01*
G01*
X132588000Y-85355805D02*
G75*
G03*
X132353686Y-84790120I-800000J0D01*
G01*
X129824459Y-82260893D02*
G75*
G03*
X129470904Y-82114446I-353553J-353550D01*
G01*
X129902619Y-96692480D02*
G75*
G03*
X130468304Y-96458166I0J800000D01*
G01*
X107640874Y-91132308D02*
G75*
G02*
X107406560Y-90566623I565686J565685D01*
G01*
X112966731Y-96458165D02*
G75*
G03*
X113532417Y-96692480I565689J565692D01*
G01*
X107172245Y-70673163D02*
G75*
G02*
X107406560Y-71238849I-565692J-565689D01*
G01*
X107856080Y-90380426D02*
X107856080Y-71052651D01*
X94152085Y-68802885D02*
X86542365Y-61193165D01*
X131845685Y-94445067D02*
X130282106Y-96008646D01*
X129716421Y-96242960D02*
X113718614Y-96242960D01*
X107621765Y-70486965D02*
X106406314Y-69271514D01*
X130313009Y-85289444D02*
X131845686Y-86822121D01*
X129824454Y-84800891D02*
X130313009Y-85289444D01*
X85976680Y-60958851D02*
X84344393Y-60958851D01*
X105840629Y-69037200D02*
X94717771Y-69037200D01*
X84344393Y-60958851D02*
X74144393Y-60958851D01*
X132080000Y-87387806D02*
X132080000Y-93879381D01*
X113152928Y-96008645D02*
X108090394Y-90946111D01*
X129313008Y-84654447D02*
X129470896Y-84654445D01*
X113718614Y-96242960D02*
G75*
G02*
X113152928Y-96008645I-2J799995D01*
G01*
X129824454Y-84800891D02*
G75*
G03*
X129470896Y-84654445I-353553J-353554D01*
G01*
X131845686Y-86822121D02*
G75*
G02*
X132080000Y-87387806I-565686J-565685D01*
G01*
X132080000Y-93879381D02*
G75*
G02*
X131845685Y-94445067I-799995J-2D01*
G01*
X106406314Y-69271514D02*
G75*
G03*
X105840629Y-69037200I-565685J-565686D01*
G01*
X86542365Y-61193165D02*
G75*
G03*
X85976680Y-60958851I-565685J-565686D01*
G01*
X129716421Y-96242960D02*
G75*
G03*
X130282106Y-96008646I0J800000D01*
G01*
X94152085Y-68802885D02*
G75*
G03*
X94717771Y-69037200I565689J565692D01*
G01*
X107856080Y-71052651D02*
G75*
G03*
X107621765Y-70486965I-799995J2D01*
G01*
X107856080Y-90380426D02*
G75*
G03*
X108090394Y-90946111I800000J0D01*
G01*
X113339125Y-95559125D02*
X108539914Y-90759914D01*
X108305600Y-90194229D02*
X108305600Y-67641371D01*
X104991796Y-64327567D02*
X102333086Y-64327567D01*
X131572000Y-89419807D02*
X131572000Y-93751664D01*
X130313007Y-87829443D02*
X131337686Y-88854122D01*
X129313007Y-87194443D02*
X129470902Y-87194443D01*
X129824454Y-87340890D02*
X130313007Y-87829443D01*
X131337685Y-94317350D02*
X130095909Y-95559126D01*
X92133086Y-64327566D02*
X102333090Y-64327569D01*
X108071285Y-67075685D02*
X105557481Y-64561881D01*
X129530224Y-95793440D02*
X113904811Y-95793440D01*
X108071285Y-67075685D02*
G75*
G02*
X108305600Y-67641371I-565692J-565689D01*
G01*
X105557481Y-64561881D02*
G75*
G03*
X104991796Y-64327567I-565685J-565686D01*
G01*
X113339125Y-95559125D02*
G75*
G03*
X113904811Y-95793440I565689J565692D01*
G01*
X131337685Y-94317350D02*
G75*
G03*
X131572000Y-93751664I-565692J565689D01*
G01*
X130095909Y-95559126D02*
G75*
G02*
X129530224Y-95793440I-565685J565686D01*
G01*
X108305600Y-90194229D02*
G75*
G03*
X108539914Y-90759914I800000J0D01*
G01*
X129824454Y-87340890D02*
G75*
G03*
X129470902Y-87194443I-353551J-353545D01*
G01*
X131337686Y-88854122D02*
G75*
G02*
X131572000Y-89419807I-565686J-565685D01*
G01*
X129824454Y-92420891D02*
X130313005Y-92909447D01*
X130313005Y-92909447D02*
X130313005Y-93656381D01*
X122705356Y-72827570D02*
X120333089Y-72827570D01*
X129313004Y-92274443D02*
X129470899Y-92274443D01*
X124663200Y-93718186D02*
X124663200Y-74785414D01*
X120333090Y-72827570D02*
X120333092Y-72827572D01*
X129074986Y-94894400D02*
X125839414Y-94894400D01*
X130020112Y-94363488D02*
X129782093Y-94601507D01*
X110133089Y-72827570D02*
X120333092Y-72827572D01*
X125132307Y-94601507D02*
X124956093Y-94425293D01*
X120333089Y-72827570D02*
X120333090Y-72827570D01*
X124370307Y-74078307D02*
X123412463Y-73120463D01*
X130313004Y-93656381D02*
G75*
G02*
X130020111Y-94363487I-999993J-3D01*
G01*
X124663201Y-93718186D02*
G75*
G03*
X124956094Y-94425292I999993J-3D01*
G01*
X129074986Y-94894399D02*
G75*
G03*
X129782092Y-94601506I3J999993D01*
G01*
X122705356Y-72827571D02*
G75*
G02*
X123412462Y-73120464I3J-999993D01*
G01*
X125839414Y-94894399D02*
G75*
G02*
X125132308Y-94601506I-3J999993D01*
G01*
X124663199Y-74785414D02*
G75*
G03*
X124370306Y-74078308I-999993J3D01*
G01*
X129470899Y-92274443D02*
G75*
G02*
X129824454Y-92420891I3J-499992D01*
G01*
X137965007Y-86559444D02*
X136185875Y-88338576D01*
X131399007Y-100088640D02*
X112954743Y-100088640D01*
X92348403Y-102184409D02*
X89932080Y-99768086D01*
X46547281Y-95224466D02*
X36589062Y-97432150D01*
X135951561Y-88904261D02*
X135951561Y-95536086D01*
X67564000Y-101854000D02*
X56465371Y-101854000D01*
X69615685Y-99768086D02*
X67564000Y-101819771D01*
X112389057Y-100322955D02*
X110527602Y-102184410D01*
X138453561Y-87048000D02*
X137965007Y-86559444D01*
X55899685Y-101619685D02*
X49322982Y-95042982D01*
X48604213Y-94823451D02*
X46547281Y-95224466D01*
X109961917Y-102418724D02*
X92914089Y-102418724D01*
X67564000Y-101819771D02*
X67564000Y-101854000D01*
X138965008Y-87194447D02*
X138807114Y-87194447D01*
X135717246Y-96101772D02*
X131964692Y-99854326D01*
X89366395Y-99533772D02*
X70181371Y-99533771D01*
X135951561Y-88904261D02*
G75*
G02*
X136185875Y-88338576I800000J0D01*
G01*
X69615685Y-99768086D02*
G75*
G02*
X70181371Y-99533771I565689J-565692D01*
G01*
X131399007Y-100088640D02*
G75*
G03*
X131964692Y-99854326I0J800000D01*
G01*
X49322982Y-95042982D02*
G75*
G03*
X48604213Y-94823451I-565686J-565688D01*
G01*
X92348403Y-102184409D02*
G75*
G03*
X92914089Y-102418724I565689J565692D01*
G01*
X110527602Y-102184410D02*
G75*
G02*
X109961917Y-102418724I-565685J565686D01*
G01*
X55899685Y-101619685D02*
G75*
G03*
X56465371Y-101854000I565689J565692D01*
G01*
X138453561Y-87048000D02*
G75*
G03*
X138807114Y-87194447I353555J353557D01*
G01*
X135717246Y-96101772D02*
G75*
G03*
X135951561Y-95536086I-565680J565684D01*
G01*
X89366395Y-99533772D02*
G75*
G02*
X89932080Y-99768086I0J-800000D01*
G01*
X112389057Y-100322955D02*
G75*
G02*
X112954743Y-100088640I565689J-565692D01*
G01*
X89749370Y-82385259D02*
X69915030Y-82385259D01*
X138453558Y-76887996D02*
X137965009Y-76399444D01*
X104258148Y-86098320D02*
X94125174Y-86098320D01*
X69349344Y-82150944D02*
X67999280Y-80800880D01*
X133936560Y-79854368D02*
X133936560Y-94565691D01*
X67433595Y-80566566D02*
X64141002Y-80566566D01*
X105823685Y-87332486D02*
X104823833Y-86332634D01*
X93559489Y-85864006D02*
X90315055Y-82619573D01*
X138965008Y-77034444D02*
X138807114Y-77034444D01*
X130461211Y-98041040D02*
X112973824Y-98041040D01*
X133702245Y-95131377D02*
X131026896Y-97806726D01*
X112408138Y-97806725D02*
X106292314Y-91690899D01*
X130813009Y-76399446D02*
X133702246Y-79288683D01*
X106058000Y-91125214D02*
X106058000Y-87898172D01*
X64141002Y-80566566D02*
X53979816Y-81455555D01*
X67433595Y-80566566D02*
G75*
G02*
X67999280Y-80800880I0J-800000D01*
G01*
X69915030Y-82385259D02*
G75*
G02*
X69349344Y-82150944I-2J799995D01*
G01*
X133936560Y-94565691D02*
G75*
G02*
X133702245Y-95131377I-799995J-2D01*
G01*
X133702246Y-79288683D02*
G75*
G02*
X133936560Y-79854368I-565686J-565685D01*
G01*
X130461211Y-98041040D02*
G75*
G03*
X131026896Y-97806726I0J800000D01*
G01*
X90315055Y-82619573D02*
G75*
G03*
X89749370Y-82385259I-565685J-565686D01*
G01*
X138453558Y-76887996D02*
G75*
G03*
X138807114Y-77034444I353554J353549D01*
G01*
X106292314Y-91690899D02*
G75*
G02*
X106058000Y-91125214I565686J565685D01*
G01*
X106058000Y-87898172D02*
G75*
G03*
X105823685Y-87332486I-799995J2D01*
G01*
X93559489Y-85864006D02*
G75*
G03*
X94125174Y-86098320I565685J565686D01*
G01*
X104258148Y-86098320D02*
G75*
G02*
X104823833Y-86332634I0J-800000D01*
G01*
X112973824Y-98041040D02*
G75*
G02*
X112408138Y-97806725I-2J799995D01*
G01*
X93745685Y-85414485D02*
X86524365Y-78193165D01*
X129313008Y-77034445D02*
X129470900Y-77034445D01*
X129824456Y-77180893D02*
X130313006Y-77669446D01*
X130313006Y-77669446D02*
X133252726Y-80609166D01*
X106273205Y-87212701D02*
X104943618Y-85883114D01*
X133487040Y-81174851D02*
X133487040Y-94379494D01*
X104377933Y-85648800D02*
X94311371Y-85648800D01*
X112594336Y-97357205D02*
X106741834Y-91504702D01*
X130275014Y-97591520D02*
X113160022Y-97591520D01*
X84344389Y-77958851D02*
X74144389Y-77958851D01*
X133252725Y-94945180D02*
X130840699Y-97357206D01*
X106507520Y-90939017D02*
X106507520Y-87778387D01*
X85958680Y-77958851D02*
X84344389Y-77958851D01*
X106507520Y-90939017D02*
G75*
G03*
X106741834Y-91504702I800000J0D01*
G01*
X133487040Y-94379494D02*
G75*
G02*
X133252725Y-94945180I-799995J-2D01*
G01*
X86524365Y-78193165D02*
G75*
G03*
X85958680Y-77958851I-565685J-565686D01*
G01*
X133252726Y-80609166D02*
G75*
G02*
X133487040Y-81174851I-565686J-565685D01*
G01*
X129824456Y-77180893D02*
G75*
G03*
X129470900Y-77034445I-353554J-353549D01*
G01*
X93745685Y-85414485D02*
G75*
G03*
X94311371Y-85648800I565689J565692D01*
G01*
X104377933Y-85648800D02*
G75*
G02*
X104943618Y-85883114I0J-800000D01*
G01*
X112594336Y-97357205D02*
G75*
G03*
X113160022Y-97591520I565689J565692D01*
G01*
X130275014Y-97591520D02*
G75*
G03*
X130840699Y-97357206I0J800000D01*
G01*
X106507520Y-87778387D02*
G75*
G03*
X106273205Y-87212701I-799995J2D01*
G01*
X129824454Y-79720891D02*
X130313007Y-80209443D01*
X105200033Y-81327564D02*
X102333093Y-81327564D01*
X106722725Y-82518885D02*
X105765718Y-81561878D01*
X112780534Y-96907685D02*
X107191354Y-91318505D01*
X133037520Y-94089280D02*
X133037520Y-94193297D01*
X133037520Y-85210632D02*
X133037520Y-94089280D01*
X130088817Y-97142000D02*
X113346220Y-97142000D01*
X106957040Y-90752820D02*
X106957040Y-83084571D01*
X130313007Y-80209443D02*
X132803206Y-82699642D01*
X132803205Y-94758983D02*
X130654502Y-96907686D01*
X133037520Y-83265327D02*
X133037520Y-85210632D01*
X129313006Y-79574444D02*
X129470902Y-79574444D01*
X92133084Y-81327568D02*
X102333101Y-81327570D01*
X113346220Y-97142000D02*
G75*
G02*
X112780534Y-96907685I-2J799995D01*
G01*
X130654502Y-96907686D02*
G75*
G02*
X130088817Y-97142000I-565685J565686D01*
G01*
X129824454Y-79720891D02*
G75*
G03*
X129470902Y-79574444I-353551J-353545D01*
G01*
X106722725Y-82518885D02*
G75*
G02*
X106957040Y-83084571I-565692J-565689D01*
G01*
X132803205Y-94758983D02*
G75*
G03*
X133037520Y-94193297I-565692J565689D01*
G01*
X105765718Y-81561878D02*
G75*
G03*
X105200033Y-81327564I-565685J-565686D01*
G01*
X132803206Y-82699642D02*
G75*
G02*
X133037520Y-83265327I-565686J-565685D01*
G01*
X106957040Y-90752820D02*
G75*
G03*
X107191354Y-91318505I800000J0D01*
G01*
X123920787Y-91451907D02*
X122589342Y-90120462D01*
X130313008Y-90369445D02*
X130771107Y-90827544D01*
X110133096Y-89827567D02*
X120333090Y-89827568D01*
X131064000Y-91534651D02*
X131064000Y-93541104D01*
X130771107Y-94248211D02*
X129968290Y-95051027D01*
X129261184Y-95343920D02*
X125653217Y-95343920D01*
X124946110Y-95051027D02*
X124506573Y-94611490D01*
X124213680Y-93904383D02*
X124213680Y-92159014D01*
X129313009Y-89734443D02*
X129470902Y-89734443D01*
X121882235Y-89827569D02*
X120333093Y-89827569D01*
X129824455Y-89880890D02*
X130313008Y-90369445D01*
X121882235Y-89827570D02*
G75*
G02*
X122589341Y-90120463I3J-999993D01*
G01*
X129824455Y-89880890D02*
G75*
G03*
X129470902Y-89734443I-353555J-353557D01*
G01*
X129968290Y-95051027D02*
G75*
G02*
X129261184Y-95343920I-707104J707101D01*
G01*
X123920787Y-91451907D02*
G75*
G02*
X124213680Y-92159014I-707106J-707106D01*
G01*
X124946110Y-95051027D02*
G75*
G03*
X125653217Y-95343920I707106J707106D01*
G01*
X124506573Y-94611490D02*
G75*
G02*
X124213680Y-93904383I707106J707106D01*
G01*
X131063999Y-91534651D02*
G75*
G03*
X130771106Y-90827545I-999993J3D01*
G01*
X130771107Y-94248211D02*
G75*
G03*
X131064000Y-93541104I-707106J707106D01*
G01*
X135552044Y-86763778D02*
X135552043Y-95370600D01*
X131466398Y-99656814D02*
X131312154Y-99687495D01*
X135372181Y-95879533D02*
X135317728Y-95936284D01*
X109796430Y-102019205D02*
X93079576Y-102019205D01*
X112223571Y-99923435D02*
X110362115Y-101784891D01*
X89531881Y-99134252D02*
X67586399Y-99134252D01*
X137965005Y-84019446D02*
X135786358Y-86198093D01*
X92513890Y-101784890D02*
X90097566Y-99368566D01*
X138453561Y-84508000D02*
X137965005Y-84019446D01*
X131233521Y-99689120D02*
X112789257Y-99689120D01*
X135552043Y-95370600D02*
X135550418Y-95449233D01*
X135553669Y-86685145D02*
X135552044Y-86763778D01*
X67020713Y-98899937D02*
X65622650Y-97501874D01*
X131312154Y-99687495D02*
X131233521Y-99689120D01*
X131742455Y-99509259D02*
X131611693Y-99596631D01*
X135786358Y-86198093D02*
X135731905Y-86254844D01*
X131611693Y-99596631D02*
X131466398Y-99656814D01*
X135731905Y-86254844D02*
X135644533Y-86385606D01*
X135317728Y-95936284D02*
X131799206Y-99454806D01*
X135519736Y-95603477D02*
X135459553Y-95748771D01*
X65622650Y-97501874D02*
X55461464Y-98390863D01*
X135459553Y-95748771D02*
X135372181Y-95879533D01*
X131799206Y-99454806D02*
X131742455Y-99509259D01*
X135584350Y-86530901D02*
X135553669Y-86685145D01*
X135644533Y-86385606D02*
X135584350Y-86530901D01*
X138965007Y-84654447D02*
X138807110Y-84654446D01*
X135550418Y-95449233D02*
X135519736Y-95603477D01*
X112789257Y-99689120D02*
G75*
G03*
X112223571Y-99923435I-2J-799995D01*
G01*
X110362115Y-101784891D02*
G75*
G02*
X109796430Y-102019205I-565685J565686D01*
G01*
X67586399Y-99134252D02*
G75*
G02*
X67020713Y-98899937I-2J799995D01*
G01*
X90097566Y-99368566D02*
G75*
G03*
X89531881Y-99134252I-565685J-565686D01*
G01*
X93079576Y-102019205D02*
G75*
G02*
X92513890Y-101784890I-2J799995D01*
G01*
X138453561Y-84508000D02*
G75*
G03*
X138807110Y-84654446I353554J353558D01*
G01*
X131068036Y-99289599D02*
X112623772Y-99289599D01*
X134918208Y-95770798D02*
X131633721Y-99055285D01*
X112058086Y-99523914D02*
X110214228Y-101367772D01*
X92661777Y-101367771D02*
X86487182Y-95193176D01*
X138965008Y-82114444D02*
X138807116Y-82114444D01*
X138453563Y-81967998D02*
X137965011Y-81479447D01*
X137965011Y-81479447D02*
X135386838Y-84057620D01*
X85921497Y-94958862D02*
X84344382Y-94958862D01*
X109648543Y-101602086D02*
X93227463Y-101602086D01*
X84344382Y-94958862D02*
X74144382Y-94958862D01*
X135152524Y-84623305D02*
X135152524Y-94336476D01*
X135152524Y-94336476D02*
X135152523Y-95205113D01*
X135152524Y-84623305D02*
G75*
G02*
X135386838Y-84057620I800000J0D01*
G01*
X92661777Y-101367771D02*
G75*
G03*
X93227463Y-101602086I565689J565692D01*
G01*
X112623772Y-99289599D02*
G75*
G03*
X112058086Y-99523914I-2J-799995D01*
G01*
X134918208Y-95770798D02*
G75*
G03*
X135152523Y-95205113I-565687J565687D01*
G01*
X138453563Y-81967998D02*
G75*
G03*
X138807116Y-82114444I353553J353556D01*
G01*
X131068036Y-99289599D02*
G75*
G03*
X131633721Y-99055285I0J800000D01*
G01*
X85921497Y-94958862D02*
G75*
G02*
X86487182Y-95193176I0J-800000D01*
G01*
X109648543Y-101602086D02*
G75*
G03*
X110214228Y-101367772I0J800000D01*
G01*
X111990765Y-98655765D02*
X111896880Y-98561880D01*
X138453560Y-79427998D02*
X137965007Y-78939446D01*
X92133086Y-98327574D02*
X102333085Y-98327565D01*
X134753004Y-82482820D02*
X134753004Y-95039625D01*
X137965007Y-78939446D02*
X134987318Y-81917135D01*
X134518689Y-95605311D02*
X131468234Y-98655766D01*
X111331195Y-98327566D02*
X102333093Y-98327566D01*
X138965007Y-79574444D02*
X138807114Y-79574444D01*
X130902549Y-98890080D02*
X112556451Y-98890080D01*
X111331195Y-98327566D02*
G75*
G02*
X111896880Y-98561880I0J-800000D01*
G01*
X134753004Y-82482820D02*
G75*
G02*
X134987318Y-81917135I800000J0D01*
G01*
X138807114Y-79574443D02*
G75*
G02*
X138453560Y-79427998I-1J500001D01*
G01*
X130902549Y-98890080D02*
G75*
G03*
X131468234Y-98655766I0J800000D01*
G01*
X112556451Y-98890080D02*
G75*
G02*
X111990765Y-98655765I-2J799995D01*
G01*
X134518689Y-95605311D02*
G75*
G03*
X134753004Y-95039625I-565692J565689D01*
G01*
X118931887Y-117308075D02*
X117571854Y-118214764D01*
X137965007Y-89099443D02*
X136585395Y-90479055D01*
X138965009Y-89734442D02*
X138807116Y-89734443D01*
X131564493Y-100488160D02*
X122347211Y-100488160D01*
X121781525Y-100722475D02*
X120729992Y-101774008D01*
X138453559Y-89587996D02*
X137965007Y-89099443D01*
X110564550Y-117975832D02*
X100403364Y-117086843D01*
X120498487Y-102272702D02*
X119285317Y-116709426D01*
X136116765Y-96267259D02*
X132130178Y-100253846D01*
X117079459Y-118347644D02*
X110564550Y-117975832D01*
X136351081Y-91044740D02*
X136351080Y-95701573D01*
X117079459Y-118347643D02*
G75*
G03*
X117571854Y-118214763I48633J798525D01*
G01*
X131564493Y-100488160D02*
G75*
G03*
X132130178Y-100253846I0J800000D01*
G01*
X138453559Y-89587996D02*
G75*
G03*
X138807116Y-89734443I353554J353555D01*
G01*
X120498487Y-102272702D02*
G75*
G02*
X120729992Y-101774008I797195J-66994D01*
G01*
X136116765Y-96267259D02*
G75*
G03*
X136351080Y-95701573I-565680J565684D01*
G01*
X136351081Y-91044740D02*
G75*
G02*
X136585395Y-90479055I800000J0D01*
G01*
X121781525Y-100722475D02*
G75*
G02*
X122347211Y-100488160I565689J-565692D01*
G01*
X118931887Y-117308074D02*
G75*
G03*
X119285316Y-116709426I-443758J665638D01*
G01*
X125185656Y-102328647D02*
X124657565Y-105406097D01*
X138833817Y-92274446D02*
X138965006Y-92274446D01*
X137668000Y-91694000D02*
X136984915Y-92377085D01*
X137922000Y-91694000D02*
X137668000Y-91694000D01*
X127225044Y-100957482D02*
X125656501Y-101659527D01*
X123768576Y-115567283D02*
X124657565Y-105406097D01*
X136516286Y-96432744D02*
X132295664Y-100653366D01*
X136750601Y-92942770D02*
X136750601Y-95867058D01*
X131729979Y-100887680D02*
X127551864Y-100887680D01*
X137922000Y-91694000D02*
X138268132Y-92040132D01*
X136750601Y-95867058D02*
G75*
G02*
X136516286Y-96432744I-799995J-2D01*
G01*
X125185657Y-102328647D02*
G75*
G02*
X125656501Y-101659528I797663J-61077D01*
G01*
X138268132Y-92040132D02*
G75*
G03*
X138833817Y-92274446I565685J565686D01*
G01*
X136750601Y-92942770D02*
G75*
G02*
X136984915Y-92377085I800000J0D01*
G01*
X131729979Y-100887680D02*
G75*
G03*
X132295664Y-100653366I0J800000D01*
G01*
X127225044Y-100957482D02*
G75*
G02*
X127551864Y-100887680I326820J-730202D01*
G01*
X129459455Y-70465891D02*
X130313008Y-71319445D01*
X129313008Y-69414445D02*
X129313009Y-70112339D01*
X129313009Y-70112339D02*
G75*
G03*
X129459455Y-70465891I499997J0D01*
G01*
X138965008Y-67072337D02*
X138965008Y-66874448D01*
X137465008Y-68779446D02*
X138818562Y-67425890D01*
X138818562Y-67425890D02*
G75*
G03*
X138965008Y-67072337I-353556J353553D01*
G01*
X138965009Y-64667337D02*
X138965010Y-64334446D01*
X136965009Y-66874444D02*
X138818563Y-65020889D01*
X138818563Y-65020889D02*
G75*
G03*
X138965009Y-64667337I-353551J353552D01*
G01*
D27*
X133543937Y-63644811D02*
X134147491Y-63041258D01*
X129459456Y-68060894D02*
X130813008Y-69414444D01*
X129313008Y-66874446D02*
X129313009Y-67707340D01*
X132037727Y-68189723D02*
X130813008Y-69414444D01*
X133397491Y-64191258D02*
X133397490Y-63998368D01*
X138965008Y-69477338D02*
X138965008Y-69414446D01*
X133251039Y-64842422D02*
X132330619Y-65762842D01*
X138965008Y-69414446D02*
X138965007Y-71954443D01*
X138023600Y-70459600D02*
X138188417Y-70459600D01*
X132184173Y-66116395D02*
X132184173Y-67836170D01*
X138188417Y-70459600D02*
X138864295Y-69783722D01*
X133397486Y-64191255D02*
X133397486Y-64488868D01*
X132184172Y-67836170D02*
G75*
G02*
X132037727Y-68189723I-500001J0D01*
G01*
X133397486Y-64488868D02*
G75*
G02*
X133251039Y-64842422I-499997J-1D01*
G01*
X132184174Y-66116395D02*
G75*
G02*
X132330619Y-65762842I500001J0D01*
G01*
X133543937Y-63644811D02*
G75*
G03*
X133397490Y-63998368I353555J-353554D01*
G01*
X138965007Y-69477338D02*
G75*
G02*
X138864294Y-69783722I-532926J5436D01*
G01*
X129459456Y-68060894D02*
G75*
G02*
X129313009Y-67707340I353550J353553D01*
G01*
X130621387Y-73055717D02*
X131937176Y-73055717D01*
X132290730Y-73202164D02*
X132313009Y-73224443D01*
X130267833Y-72909270D02*
X129313009Y-71954446D01*
X130621387Y-73055717D02*
G75*
G02*
X130267833Y-72909270I-1J499997D01*
G01*
X132290730Y-73202164D02*
G75*
G03*
X131937176Y-73055717I-353553J-353550D01*
G01*
D26*
X136397486Y-64191255D02*
X136397486Y-64678869D01*
X136251040Y-65032422D02*
X135419174Y-65864289D01*
X133153388Y-68461446D02*
X133153388Y-70866000D01*
X135419174Y-65864289D02*
X133387702Y-67895761D01*
X133387702Y-67895761D02*
G75*
G03*
X133153388Y-68461446I565686J-565685D01*
G01*
X136251040Y-65032422D02*
G75*
G03*
X136397486Y-64678869I-353556J353553D01*
G01*
D27*
X129313007Y-65302340D02*
X129313008Y-64334444D01*
X131313008Y-67509445D02*
X129459454Y-65655894D01*
X135382000Y-70825000D02*
X135423000Y-70866000D01*
X135382000Y-67691000D02*
X135382000Y-70825000D01*
X129459454Y-65655894D02*
G75*
G02*
X129313007Y-65302340I353550J353553D01*
G01*
D26*
X129824448Y-74640890D02*
X130313007Y-75129443D01*
X129313008Y-74494443D02*
X129470902Y-74494445D01*
X129470902Y-74494446D02*
G75*
G02*
X129824447Y-74640891I-5J-499998D01*
G01*
M02*
