M48
; DRILL file {KiCad 6.0.0-d3dd2cf0fa~116~ubuntu20.04.1} date Wed 05 Jan 2022 09:32:03 PM EST
; FORMAT={-:-/ absolute / inch / decimal}
; #@! TF.CreationDate,2022-01-05T21:32:03-05:00
; #@! TF.GenerationSoftware,Kicad,Pcbnew,6.0.0-d3dd2cf0fa~116~ubuntu20.04.1
; #@! TF.FileFunction,NonPlated,1,2,NPTH
FMAT,2
INCH
; #@! TA.AperFunction,NonPlated,NPTH,ComponentDrill
T1C0.0354
; #@! TA.AperFunction,NonPlated,NPTH,ComponentDrill
T2C0.0670
; #@! TA.AperFunction,NonPlated,NPTH,ComponentDrill
T3C0.1350
%
G90
G05
T1
X5.2223Y-2.4583
X5.2223Y-2.4583
X5.3405Y-2.4583
X5.3405Y-2.4583
T2
X1.247Y-3.036
X1.3919Y-3.6894
X1.6699Y-2.9423
X1.8147Y-3.5957
X2.0378Y-2.3886
X2.0961Y-3.0553
X2.1545Y-3.7221
X2.4692Y-2.3508
X2.5275Y-3.0176
X2.5859Y-3.6843
X2.9033Y-3.585
X2.9033Y-2.9157
X2.9033Y-2.2464
X3.3364Y-3.585
X3.3364Y-2.9157
X3.3364Y-2.2464
X3.6115Y-2.379
X3.6115Y-3.0483
X3.6115Y-3.7176
X3.9506Y-4.4554
X4.0446Y-2.379
X4.0446Y-3.0483
X4.0446Y-3.7176
X4.3202Y-2.7137
X4.3202Y-3.383
X4.382Y-4.4931
X4.7533Y-2.7137
X4.7533Y-3.383
X5.0244Y-4.579
X5.0621Y-4.1475
T3
X1.4584Y-2.9891
X1.6033Y-3.6425
X2.2535Y-2.3697
X2.3118Y-3.0365
X2.3702Y-3.7032
X3.1199Y-3.585
X3.1199Y-2.9157
X3.1199Y-2.2464
X3.8281Y-2.379
X3.8281Y-3.0483
X3.8281Y-3.7176
X4.1663Y-4.4743
X4.5367Y-2.7137
X4.5367Y-3.383
X5.0432Y-4.3633
T0
M30
