M48
; DRILL file {KiCad 6.0.0-d3dd2cf0fa~116~ubuntu20.04.1} date Wed 05 Jan 2022 07:48:51 PM EST
; FORMAT={-:-/ absolute / inch / decimal}
; #@! TF.CreationDate,2022-01-05T19:48:51-05:00
; #@! TF.GenerationSoftware,Kicad,Pcbnew,6.0.0-d3dd2cf0fa~116~ubuntu20.04.1
; #@! TF.FileFunction,Plated,1,2,PTH
FMAT,2
INCH
; #@! TA.AperFunction,Plated,PTH,ViaDrill
T1C0.0157
; #@! TA.AperFunction,Plated,PTH,ComponentDrill
T2C0.0315
; #@! TA.AperFunction,Plated,PTH,ComponentDrill
T3C0.0320
%
G90
G05
T1
X5.1304Y-3.6579
X5.1304Y-3.0579
X5.1304Y-2.9579
X5.1304Y-3.1579
X5.1304Y-3.2579
X5.1304Y-3.4579
X5.1304Y-2.8079
X5.1304Y-3.5579
X5.1304Y-3.3579
X5.1501Y-2.7329
X5.1501Y-3.0079
X5.1698Y-2.6579
X5.2092Y-2.8829
X5.2423Y-2.79
X5.2814Y-2.4268
X5.2814Y-2.4819
X5.33Y-2.665
X5.3315Y-2.5931
X5.3316Y-2.79
X5.3923Y-2.6329
X5.412Y-2.7079
X5.43Y-3.61
X5.4317Y-3.3079
X5.4317Y-3.1079
X5.4317Y-3.4079
X5.4317Y-3.5079
X5.4317Y-2.9079
X5.4317Y-3.0079
X5.4317Y-3.2079
X5.434Y-2.774
T3
X4.9811Y-2.5329
X4.9811Y-2.6329
X4.9811Y-2.7329
X4.9811Y-2.8329
X4.9811Y-2.9329
X4.9811Y-3.0329
X4.9811Y-3.1329
X4.9811Y-3.2329
X4.9811Y-3.3329
X4.9811Y-3.4329
X4.9811Y-3.5329
X4.9811Y-3.6329
X5.5811Y-2.5329
X5.5811Y-2.6329
X5.5811Y-2.7329
X5.5811Y-2.8329
X5.5811Y-2.9329
X5.5811Y-3.0329
X5.5811Y-3.1329
X5.5811Y-3.2329
X5.5811Y-3.3329
X5.5811Y-3.4329
X5.5811Y-3.5329
X5.5811Y-3.6329
T2
G00X1.288Y-3.1842
M15
G01X1.3033Y-3.1808
M16
G05
G00X1.4328Y-3.8376
M15
G01X1.4482Y-3.8342
M16
G05
G00X1.501Y-3.2176
M15
G01X1.5164Y-3.2142
M16
G05
G00X1.6459Y-3.871
M15
G01X1.6613Y-3.8676
M16
G05
G00X1.68Y-3.0973
M15
G01X1.6954Y-3.0939
M16
G05
G00X1.8249Y-3.7507
M15
G01X1.8403Y-3.7473
M16
G05
G00X2.059Y-2.5409
M15
G01X2.0747Y-2.5395
M16
G05
G00X2.1173Y-3.2076
M15
G01X2.133Y-3.2062
M16
G05
G00X2.1757Y-3.8743
M15
G01X2.1914Y-3.873
M16
G05
G00X2.2659Y-2.6018
M15
G01X2.2816Y-2.6004
M16
G05
G00X2.3242Y-3.2685
M15
G01X2.3399Y-3.2672
M16
G05
G00X2.3826Y-3.9353
M15
G01X2.3983Y-3.9339
M16
G05
G00X2.4591Y-2.5059
M15
G01X2.4747Y-2.5045
M16
G05
G00X2.5174Y-3.1726
M15
G01X2.5331Y-3.1712
M16
G05
G00X2.5757Y-3.8393
M15
G01X2.5914Y-3.838
M16
G05
G00X2.9112Y-3.7385
M15
G01X2.9269Y-3.7385
M16
G05
G00X2.9112Y-3.0692
M15
G01X2.9269Y-3.0692
M16
G05
G00X2.9112Y-2.4
M15
G01X2.9269Y-2.4
M16
G05
G00X3.112Y-3.8173
M15
G01X3.1277Y-3.8173
M16
G05
G00X3.112Y-3.148
M15
G01X3.1277Y-3.148
M16
G05
G00X3.112Y-2.4787
M15
G01X3.1277Y-2.4787
M16
G05
G00X3.3128Y-3.7385
M15
G01X3.3285Y-3.7385
M16
G05
G00X3.3128Y-3.0692
M15
G01X3.3285Y-3.0692
M16
G05
G00X3.3128Y-2.4
M15
G01X3.3285Y-2.4
M16
G05
G00X3.6194Y-2.5326
M15
G01X3.6352Y-2.5326
M16
G05
G00X3.6194Y-3.2019
M15
G01X3.6352Y-3.2019
M16
G05
G00X3.6194Y-3.8712
M15
G01X3.6352Y-3.8712
M16
G05
G00X3.8202Y-2.6113
M15
G01X3.8359Y-2.6113
M16
G05
G00X3.8202Y-3.2806
M15
G01X3.8359Y-3.2806
M16
G05
G00X3.8202Y-3.9499
M15
G01X3.8359Y-3.9499
M16
G05
G00X3.949Y-4.6089
M15
G01X3.9647Y-4.6102
M16
G05
G00X4.021Y-2.5326
M15
G01X4.0367Y-2.5326
M16
G05
G00X4.021Y-3.2019
M15
G01X4.0367Y-3.2019
M16
G05
G00X4.021Y-3.8712
M15
G01X4.0367Y-3.8712
M16
G05
G00X4.1422Y-4.7048
M15
G01X4.1579Y-4.7062
M16
G05
G00X4.3281Y-2.8672
M15
G01X4.3438Y-2.8672
M16
G05
G00X4.3281Y-3.5365
M15
G01X4.3438Y-3.5365
M16
G05
G00X4.3491Y-4.6439
M15
G01X4.3647Y-4.6452
M16
G05
G00X4.5289Y-2.946
M15
G01X4.5446Y-2.946
M16
G05
G00X4.5289Y-3.6153
M15
G01X4.5446Y-3.6153
M16
G05
G00X4.7296Y-2.8672
M15
G01X4.7454Y-2.8672
M16
G05
G00X4.7296Y-3.5365
M15
G01X4.7454Y-3.5365
M16
G05
G00X4.8165Y-4.3346
M15
G01X4.8151Y-4.3503
M16
G05
G00X4.8775Y-4.5415
M15
G01X4.8761Y-4.5572
M16
G05
G00X4.9125Y-4.1415
M15
G01X4.9111Y-4.1572
M16
G05
T0
M30
