G04 #@! TF.GenerationSoftware,KiCad,Pcbnew,6.0.0-d3dd2cf0fa~116~ubuntu20.04.1*
G04 #@! TF.CreationDate,2022-01-06T00:03:11-05:00*
G04 #@! TF.ProjectId,34,33342e6b-6963-4616-945f-706362585858,0.1*
G04 #@! TF.SameCoordinates,Original*
G04 #@! TF.FileFunction,Copper,L2,Bot*
G04 #@! TF.FilePolarity,Positive*
%FSLAX46Y46*%
G04 Gerber Fmt 4.6, Leading zero omitted, Abs format (unit mm)*
G04 Created by KiCad (PCBNEW 6.0.0-d3dd2cf0fa~116~ubuntu20.04.1) date 2022-01-06 00:03:11*
%MOMM*%
%LPD*%
G01*
G04 APERTURE LIST*
G04 Aperture macros list*
%AMHorizOval*
0 Thick line with rounded ends*
0 $1 width*
0 $2 $3 position (X,Y) of the first rounded end (center of the circle)*
0 $4 $5 position (X,Y) of the second rounded end (center of the circle)*
0 Add line between two ends*
20,1,$1,$2,$3,$4,$5,0*
0 Add two circle primitives to create the rounded ends*
1,1,$1,$2,$3*
1,1,$1,$4,$5*%
%AMFreePoly0*
4,1,5,0.125000,-0.500000,-0.125000,-0.500000,-0.125000,0.500000,0.125000,0.500000,0.125000,-0.500000,0.125000,-0.500000,$1*%
%AMFreePoly1*
4,1,6,0.600000,0.200000,0.000000,-0.400000,-0.600000,0.200000,-0.600000,0.400000,0.600000,0.400000,0.600000,0.200000,0.600000,0.200000,$1*%
%AMFreePoly2*
4,1,6,0.600000,-0.250000,-0.600000,-0.250000,-0.600000,1.000000,0.000000,0.400000,0.600000,1.000000,0.600000,-0.250000,0.600000,-0.250000,$1*%
G04 Aperture macros list end*
G04 #@! TA.AperFunction,ComponentPad*
%ADD10HorizOval,2.000000X0.244074X0.054110X-0.244074X-0.054110X0*%
G04 #@! TD*
G04 #@! TA.AperFunction,ComponentPad*
%ADD11HorizOval,2.000000X0.249049X0.021789X-0.249049X-0.021789X0*%
G04 #@! TD*
G04 #@! TA.AperFunction,ComponentPad*
%ADD12O,2.500000X2.000000*%
G04 #@! TD*
G04 #@! TA.AperFunction,ComponentPad*
%ADD13O,2.000000X2.500000*%
G04 #@! TD*
G04 #@! TA.AperFunction,SMDPad,CuDef*
%ADD14R,1.500000X2.100000*%
G04 #@! TD*
G04 #@! TA.AperFunction,SMDPad,CuDef*
%ADD15FreePoly0,90.000000*%
G04 #@! TD*
G04 #@! TA.AperFunction,ComponentPad*
%ADD16C,1.600000*%
G04 #@! TD*
G04 #@! TA.AperFunction,SMDPad,CuDef*
%ADD17FreePoly0,270.000000*%
G04 #@! TD*
G04 #@! TA.AperFunction,SMDPad,CuDef*
%ADD18FreePoly1,270.000000*%
G04 #@! TD*
G04 #@! TA.AperFunction,SMDPad,CuDef*
%ADD19FreePoly1,90.000000*%
G04 #@! TD*
G04 #@! TA.AperFunction,SMDPad,CuDef*
%ADD20FreePoly2,90.000000*%
G04 #@! TD*
G04 #@! TA.AperFunction,SMDPad,CuDef*
%ADD21FreePoly2,270.000000*%
G04 #@! TD*
G04 #@! TA.AperFunction,SMDPad,CuDef*
%ADD22R,1.000000X0.800000*%
G04 #@! TD*
G04 #@! TA.AperFunction,SMDPad,CuDef*
%ADD23R,0.700000X1.500000*%
G04 #@! TD*
G04 #@! TA.AperFunction,ViaPad*
%ADD24C,0.800000*%
G04 #@! TD*
G04 #@! TA.AperFunction,Conductor*
%ADD25C,0.250000*%
G04 #@! TD*
G04 #@! TA.AperFunction,Conductor*
%ADD26C,0.500000*%
G04 #@! TD*
G04 #@! TA.AperFunction,Conductor*
%ADD27C,0.400000*%
G04 #@! TD*
G04 APERTURE END LIST*
D10*
X31174529Y-77214371D03*
X41132748Y-75006687D03*
X36586518Y-78063121D03*
D11*
X52498174Y-64520239D03*
X62659360Y-63631250D03*
X57753079Y-66068134D03*
D12*
X74130000Y-60958851D03*
X84330000Y-60958851D03*
X79230000Y-62958851D03*
X102333086Y-64327567D03*
X92133086Y-64327567D03*
X97233086Y-66327567D03*
X120325000Y-64325000D03*
X110125000Y-64325000D03*
X115225000Y-66325000D03*
D10*
X34854005Y-93811396D03*
X44812224Y-91603712D03*
X40265994Y-94660146D03*
D11*
X64141002Y-80566566D03*
X53979816Y-81455555D03*
X59234721Y-83003450D03*
D12*
X74130000Y-77958851D03*
X84330000Y-77958851D03*
X79230000Y-79958851D03*
X102333086Y-81327564D03*
X92133086Y-81327564D03*
X97233086Y-83327564D03*
X110125000Y-81324999D03*
X120325000Y-81324999D03*
X115225000Y-83324999D03*
D11*
X55461464Y-98390863D03*
X65622650Y-97501874D03*
X60716369Y-99938758D03*
D12*
X74130000Y-94958862D03*
X84330000Y-94958862D03*
X79230000Y-96958862D03*
X92133086Y-98327566D03*
X102333086Y-98327566D03*
X97233086Y-100327566D03*
X105890000Y-115825000D03*
X116090000Y-115825000D03*
X110990000Y-117825000D03*
D13*
X130125000Y-102075000D03*
X130125000Y-112275000D03*
X128125000Y-107175000D03*
D14*
X134329702Y-62386557D03*
X132129702Y-62386557D03*
D15*
X127642099Y-81255003D03*
D16*
X126372099Y-55855003D03*
D17*
X140342099Y-83795003D03*
D16*
X141612099Y-66015003D03*
D18*
X139834099Y-78715003D03*
D19*
X128150099Y-76175003D03*
D16*
X141612099Y-60935003D03*
D18*
X139834099Y-71095003D03*
D17*
X140342099Y-78715003D03*
D16*
X126372099Y-63475003D03*
X126372099Y-68555003D03*
D19*
X128150099Y-78715003D03*
X128150099Y-66015003D03*
D16*
X141612099Y-71095003D03*
D18*
X139834099Y-58395003D03*
D16*
X141612099Y-83795003D03*
D17*
X140342099Y-66015003D03*
D18*
X139834099Y-76175003D03*
D19*
X128150099Y-71095003D03*
X128150099Y-60935003D03*
D16*
X126372099Y-58395003D03*
X141612099Y-76175003D03*
D19*
X128150099Y-83795003D03*
D15*
X127642099Y-66015003D03*
D18*
X139834099Y-81255003D03*
D17*
X140342099Y-68555003D03*
D16*
X141612099Y-68555003D03*
D19*
X128150099Y-81255003D03*
D16*
X141612099Y-55855003D03*
D19*
X128150099Y-58395003D03*
D16*
X141612099Y-73635003D03*
D17*
X140342099Y-55855003D03*
D16*
X141612099Y-63475003D03*
D15*
X127642099Y-60935003D03*
D16*
X126372099Y-60935003D03*
D15*
X127642099Y-76175003D03*
D17*
X140342099Y-58395003D03*
D16*
X126372099Y-81255003D03*
D19*
X128150099Y-73635003D03*
D16*
X126372099Y-71095003D03*
D17*
X140342099Y-63475003D03*
D18*
X139834099Y-83795003D03*
D15*
X127642099Y-73635003D03*
X127642099Y-78715003D03*
D19*
X128150099Y-68555003D03*
D16*
X126372099Y-78715003D03*
D18*
X139834099Y-55855003D03*
D16*
X141612099Y-58395003D03*
D18*
X139834099Y-73635003D03*
D15*
X127642099Y-68555003D03*
D18*
X139834099Y-68555003D03*
D17*
X140342099Y-73635003D03*
D18*
X139834099Y-66015003D03*
D16*
X126372099Y-66015003D03*
D15*
X127642099Y-55855003D03*
D18*
X139834099Y-60935003D03*
D16*
X126372099Y-76175003D03*
D17*
X140342099Y-71095003D03*
D16*
X126372099Y-83795003D03*
X126372099Y-73635003D03*
D19*
X128150099Y-63475003D03*
D17*
X140342099Y-60935003D03*
D16*
X141612099Y-81255003D03*
D17*
X140342099Y-76175003D03*
D15*
X127642099Y-83795003D03*
X127642099Y-63475003D03*
D19*
X128150099Y-55855003D03*
D16*
X141612099Y-78715003D03*
D15*
X127642099Y-71095003D03*
D18*
X139834099Y-63475003D03*
D15*
X127642099Y-58395003D03*
D17*
X140342099Y-81255003D03*
D20*
X129166099Y-55855003D03*
X129166099Y-58395003D03*
X129166099Y-60935003D03*
X129166099Y-63475003D03*
X129166099Y-66015003D03*
X129166099Y-68555003D03*
X129166099Y-71095003D03*
X129166099Y-73635003D03*
X129166099Y-76175003D03*
X129166099Y-78715003D03*
X129166099Y-81255003D03*
X129166099Y-83795003D03*
D21*
X138818099Y-83795003D03*
X138818099Y-81255003D03*
X138818099Y-78715003D03*
X138818099Y-76175003D03*
X138818099Y-73635003D03*
X138818099Y-71095003D03*
X138818099Y-68555003D03*
X138818099Y-66015003D03*
X138818099Y-63475003D03*
X138818099Y-60935003D03*
X138818099Y-58395003D03*
X138818099Y-55855003D03*
D10*
X48487367Y-108201359D03*
X38529148Y-110409043D03*
X43941137Y-111257793D03*
D22*
X137650576Y-52861813D03*
X130350576Y-52861813D03*
X130350576Y-55061813D03*
X137650576Y-55061813D03*
D23*
X131750576Y-55711813D03*
X134750576Y-55711813D03*
X136250576Y-55711813D03*
D12*
X110125000Y-98322430D03*
X120325000Y-98322430D03*
X115225000Y-100322430D03*
D24*
X134000579Y-53161815D03*
X130166097Y-74269998D03*
X130166099Y-76810001D03*
X130166097Y-79350000D03*
X130166098Y-81890002D03*
X130025000Y-84450000D03*
X137818099Y-65380003D03*
X136818099Y-58395001D03*
X130166097Y-66650000D03*
X130166096Y-69190003D03*
X130166097Y-71730000D03*
X137818097Y-78080001D03*
X137818095Y-75540003D03*
X137818101Y-73000004D03*
X137818097Y-70460003D03*
X137818099Y-67920001D03*
X130166098Y-62840002D03*
X137318098Y-60300003D03*
X130666098Y-60935001D03*
X137876690Y-61980157D03*
X134000581Y-54561815D03*
X132166099Y-64745000D03*
X132060090Y-62386557D03*
X135272264Y-57384846D03*
X134329703Y-62386558D03*
X135235090Y-59211557D03*
X131166098Y-59030002D03*
X137775090Y-83087557D03*
X137818097Y-80620000D03*
D25*
X136250578Y-53825947D02*
X136250581Y-55711815D01*
X135940002Y-53308264D02*
X136104133Y-53472397D01*
X134000579Y-53161815D02*
X135586446Y-53161815D01*
X136104133Y-53472397D02*
G75*
G02*
X136250578Y-53825947I-353552J-353551D01*
G01*
X135586446Y-53161816D02*
G75*
G02*
X135940002Y-53308264I-1J-500003D01*
G01*
X138329546Y-74123554D02*
X138818098Y-73635001D01*
X130166097Y-74269998D02*
X137975992Y-74270001D01*
X137975992Y-74270001D02*
G75*
G03*
X138329546Y-74123554I1J499997D01*
G01*
X138329545Y-76663555D02*
X138818097Y-76175004D01*
X130166099Y-76810001D02*
X137975992Y-76810001D01*
X137975992Y-76810000D02*
G75*
G03*
X138329545Y-76663555I0J500001D01*
G01*
X130166097Y-79350000D02*
X137975991Y-79350002D01*
X138329544Y-79203556D02*
X138818098Y-78715004D01*
X138329544Y-79203556D02*
G75*
G02*
X137975991Y-79350002I-353553J353556D01*
G01*
X130166098Y-81890002D02*
X137975991Y-81890005D01*
X138329546Y-81743557D02*
X138818099Y-81254999D01*
X138329546Y-81743557D02*
G75*
G02*
X137975991Y-81890005I-353556J353556D01*
G01*
X130044997Y-84430003D02*
X137975988Y-84430003D01*
X130025000Y-84450000D02*
X130044997Y-84430003D01*
X138329541Y-84283557D02*
X138818096Y-83795003D01*
X138329541Y-84283557D02*
G75*
G02*
X137975988Y-84430003I-353553J353556D01*
G01*
X129166099Y-66015003D02*
X129337153Y-65843949D01*
X137647046Y-65551056D02*
X137818099Y-65380003D01*
X131166099Y-65697503D02*
X137293492Y-65697503D01*
X129690706Y-65697503D02*
X131166099Y-65697503D01*
X137647046Y-65551056D02*
G75*
G02*
X137293492Y-65697503I-353553J353550D01*
G01*
X129337153Y-65843949D02*
G75*
G02*
X129690706Y-65697503I353553J-353556D01*
G01*
X136818099Y-58395001D02*
X136728585Y-58305490D01*
X136728585Y-58305490D02*
X131823695Y-58305493D01*
X131470141Y-58159046D02*
X129166098Y-55855001D01*
X131823695Y-58305493D02*
G75*
G02*
X131470141Y-58159046I-1J499997D01*
G01*
X130166097Y-66650000D02*
X137975993Y-66650003D01*
X138329547Y-66503555D02*
X138818099Y-66015001D01*
X138329547Y-66503555D02*
G75*
G02*
X137975993Y-66650003I-353556J353556D01*
G01*
X130166096Y-69190003D02*
X137975989Y-69190003D01*
X138329543Y-69043556D02*
X138818098Y-68555001D01*
X138329543Y-69043556D02*
G75*
G02*
X137975989Y-69190003I-353553J353550D01*
G01*
X138329545Y-71583556D02*
X138818097Y-71095001D01*
X130166097Y-71730000D02*
X137975990Y-71730004D01*
X138329545Y-71583556D02*
G75*
G02*
X137975990Y-71730004I-353556J353556D01*
G01*
X129654650Y-78226448D02*
X129166097Y-78715000D01*
X137818097Y-78080001D02*
X130008203Y-78080002D01*
X130008203Y-78080003D02*
G75*
G03*
X129654650Y-78226448I0J-500001D01*
G01*
X129654650Y-75686450D02*
X129166098Y-76175004D01*
X137818095Y-75540003D02*
X130008204Y-75540003D01*
X130008204Y-75540003D02*
G75*
G03*
X129654650Y-75686450I-1J-499997D01*
G01*
X129654652Y-73146450D02*
X129166096Y-73635004D01*
X137818101Y-73000004D02*
X130008205Y-73000004D01*
X130008205Y-73000005D02*
G75*
G03*
X129654652Y-73146450I0J-500001D01*
G01*
X129654653Y-70606447D02*
X129166096Y-71095001D01*
X137818097Y-70460003D02*
X130008205Y-70460002D01*
X130008205Y-70460003D02*
G75*
G03*
X129654653Y-70606447I0J-500001D01*
G01*
X130666099Y-67920003D02*
X130008206Y-67920003D01*
X130666101Y-67920001D02*
X130666099Y-67920003D01*
X137818099Y-67920001D02*
X130666101Y-67920001D01*
X129654652Y-68066450D02*
X129166099Y-68555003D01*
X129654652Y-68066450D02*
G75*
G02*
X130008206Y-67920003I353553J-353550D01*
G01*
X137261509Y-63549242D02*
X138818098Y-61992653D01*
X131441024Y-63783557D02*
X136695823Y-63783557D01*
X130166098Y-62840002D02*
X130875339Y-63549243D01*
X138818098Y-61992653D02*
X138818098Y-60935003D01*
X137261509Y-63549242D02*
G75*
G02*
X136695823Y-63783557I-565689J565692D01*
G01*
X130875339Y-63549243D02*
G75*
G03*
X131441024Y-63783557I565685J565686D01*
G01*
X130835139Y-60064045D02*
X129166098Y-58395003D01*
X137228587Y-60210490D02*
X131188693Y-60210492D01*
X137318098Y-60300003D02*
X137228587Y-60210490D01*
X131188693Y-60210492D02*
G75*
G02*
X130835139Y-60064045I-1J499997D01*
G01*
D26*
X128125000Y-107096575D02*
X128125000Y-116028680D01*
X97285653Y-66275000D02*
X97233086Y-66327567D01*
X72224565Y-97559820D02*
X71457875Y-98597800D01*
X107511217Y-99434022D02*
X107137200Y-99060000D01*
D27*
X137876690Y-61980157D02*
X137542322Y-61980157D01*
X129166098Y-61435002D02*
X129166099Y-63475004D01*
D26*
X129976016Y-60266343D02*
X130644674Y-60935001D01*
X126328680Y-117825000D02*
X110925000Y-117825000D01*
X53788705Y-101365542D02*
X51409366Y-108745524D01*
X60716369Y-99938758D02*
X55112027Y-100329449D01*
X89347226Y-99888226D02*
X86857202Y-97398202D01*
X128125000Y-107096575D02*
X128125000Y-106396320D01*
D27*
X135803402Y-60862557D02*
X130738542Y-60862557D01*
D26*
X70365488Y-99202248D02*
X60716369Y-99938758D01*
X102857362Y-66275000D02*
X97285653Y-66275000D01*
X127685660Y-117089340D02*
X127389340Y-117385660D01*
D27*
X137542322Y-61980157D02*
X136864062Y-61301897D01*
D26*
X59234721Y-83003450D02*
X53667591Y-83470861D01*
X97148719Y-66243200D02*
X90486520Y-66243200D01*
X79244389Y-79958851D02*
X79295538Y-80010000D01*
D27*
X130738542Y-60862557D02*
X130666098Y-60935001D01*
D26*
X79244382Y-96958862D02*
X73433137Y-96951023D01*
X85796542Y-96958862D02*
X79244382Y-96958862D01*
D27*
X130666098Y-60935001D02*
X129666098Y-60935002D01*
D26*
X79244393Y-62958851D02*
X73081103Y-62950881D01*
X115200000Y-66350000D02*
X115225000Y-66325000D01*
D27*
X130666098Y-60935001D02*
X130644674Y-60935001D01*
D26*
X105359200Y-99085400D02*
X104985178Y-99459417D01*
X102878684Y-66296322D02*
X102857362Y-66275000D01*
X97285786Y-100380800D02*
X97233093Y-100433493D01*
X87180340Y-80449340D02*
X89619224Y-82888224D01*
X48515436Y-92778915D02*
X40265994Y-94660146D01*
X123829215Y-60801395D02*
X125010491Y-59959192D01*
X125881276Y-59680557D02*
X128561803Y-59680557D01*
X115225000Y-66325000D02*
X121337536Y-66325000D01*
X126278680Y-104550000D02*
X107554614Y-104550000D01*
X102853319Y-100327566D02*
X97233093Y-100327566D01*
X102856393Y-83327564D02*
X97233093Y-83327564D01*
D27*
X137876690Y-61980157D02*
X137993416Y-61980157D01*
D26*
X107128737Y-67578758D02*
X107477787Y-67229705D01*
X79244389Y-79958851D02*
X73094224Y-79973523D01*
X106242972Y-69707161D02*
X106250096Y-69700037D01*
X45074618Y-76193273D02*
X36586518Y-78063121D01*
X72037141Y-80412859D02*
X70882464Y-81567536D01*
D27*
X137993416Y-61980157D02*
X138082589Y-61890984D01*
D26*
X122387429Y-65896319D02*
X122749893Y-65541105D01*
X102863855Y-83320102D02*
X102856393Y-83327564D01*
X97233093Y-100327566D02*
X90407886Y-100327566D01*
X123200000Y-64469785D02*
X123200000Y-62022760D01*
X109632533Y-100312700D02*
X109642263Y-100322430D01*
X109600136Y-66350000D02*
X115200000Y-66350000D01*
D27*
X134604133Y-55165367D02*
X134000581Y-54561815D01*
D26*
X109586640Y-83324999D02*
X115225004Y-83324999D01*
X69834111Y-65218323D02*
X57753079Y-66068134D01*
D27*
X138264055Y-58949042D02*
X138818098Y-58395005D01*
D26*
X69961464Y-82000360D02*
X59234721Y-83003450D01*
X109642263Y-100322430D02*
X115241911Y-100322430D01*
X106493954Y-104110660D02*
X106333476Y-103950182D01*
X97233086Y-66327567D02*
X97148719Y-66243200D01*
X105374017Y-67549022D02*
X105000000Y-67175000D01*
X102863855Y-100338102D02*
X102853319Y-100327566D01*
X105359200Y-82067400D02*
X104985178Y-82441417D01*
X50327512Y-109744849D02*
X43941137Y-111257793D01*
X107111800Y-82092800D02*
X107460853Y-82441850D01*
X85959531Y-62958851D02*
X79244393Y-62958851D01*
X90679884Y-83327564D02*
X97233093Y-83327564D01*
X109582132Y-83320491D02*
X109586640Y-83324999D01*
X71951083Y-63462226D02*
X70856937Y-64710675D01*
X109599113Y-66351023D02*
X109600136Y-66350000D01*
X52390193Y-84434672D02*
X49584828Y-91847389D01*
X97233093Y-100433493D02*
X97233093Y-100327566D01*
X50708878Y-67310828D02*
X46054921Y-75471487D01*
X79295538Y-80010000D02*
X86119680Y-80010000D01*
D27*
X138117609Y-61698383D02*
X138117607Y-59302597D01*
D26*
X57753079Y-66068134D02*
X51886767Y-66559147D01*
X127685660Y-105335660D02*
X127339340Y-104989340D01*
X106242972Y-103437035D02*
X106242972Y-69707161D01*
X89425860Y-65803860D02*
X87020191Y-63398191D01*
D27*
X134750581Y-55711813D02*
X134750580Y-55518918D01*
D26*
X50327512Y-109744849D02*
G75*
G03*
X51409366Y-108745524I-345783J1459601D01*
G01*
X126328680Y-117824999D02*
G75*
G03*
X127389339Y-117385659I-1J1500001D01*
G01*
X72037141Y-80412859D02*
G75*
G02*
X73094224Y-79973523I1060660J-1060659D01*
G01*
X129976016Y-60266343D02*
G75*
G03*
X128561803Y-59680557I-1414213J-1414214D01*
G01*
X89347226Y-99888226D02*
G75*
G03*
X90407886Y-100327566I1060661J1060662D01*
G01*
X70365488Y-99202247D02*
G75*
G03*
X71457875Y-98597800I-114162J1495649D01*
G01*
X48515436Y-92778914D02*
G75*
G03*
X49584827Y-91847389I-333505J1462457D01*
G01*
X107137200Y-99060000D02*
G75*
G02*
X106258515Y-96938677I2121265J2121305D01*
G01*
X104985178Y-99459417D02*
G75*
G02*
X102863855Y-100338102I-2121305J2121265D01*
G01*
X90486520Y-66243199D02*
G75*
G02*
X89425861Y-65803859I1J1500001D01*
G01*
X125010491Y-59959192D02*
G75*
G02*
X125881276Y-59680557I870785J-1221363D01*
G01*
X102878684Y-66296322D02*
G75*
G02*
X105000000Y-67175000I30J-2999921D01*
G01*
X106242973Y-103437035D02*
G75*
G03*
X106333477Y-103950182I1499970J-4D01*
G01*
X70856937Y-64710675D02*
G75*
G02*
X69834111Y-65218323I-1128082J988661D01*
G01*
X107511217Y-99434022D02*
G75*
G03*
X109632533Y-100312700I2121286J2121243D01*
G01*
X50708879Y-67310828D02*
G75*
G02*
X51886767Y-66559148I1302999J-743089D01*
G01*
D27*
X129666098Y-60935002D02*
G75*
G03*
X129166098Y-61435002I1J-500001D01*
G01*
D26*
X89619224Y-82888224D02*
G75*
G03*
X90679884Y-83327564I1060661J1060662D01*
G01*
X53667591Y-83470861D02*
G75*
G03*
X52390193Y-84434672I125497J-1494741D01*
G01*
X55112027Y-100329450D02*
G75*
G03*
X53788706Y-101365542I104317J-1496370D01*
G01*
X87180340Y-80449340D02*
G75*
G03*
X86119680Y-80010000I-1060661J-1060662D01*
G01*
D27*
X138117608Y-61698383D02*
G75*
G02*
X138082588Y-61890984I-602824J10125D01*
G01*
D26*
X46054921Y-75471487D02*
G75*
G02*
X45074618Y-76193273I-1303000J743088D01*
G01*
X126278680Y-104550001D02*
G75*
G02*
X127339339Y-104989341I-1J-1500001D01*
G01*
X122387429Y-65896319D02*
G75*
G02*
X121337536Y-66325000I-1049891J1071314D01*
G01*
X109582132Y-83320491D02*
G75*
G02*
X107460853Y-82441850I-37J2999904D01*
G01*
X105374017Y-67549022D02*
G75*
G02*
X106252702Y-69670345I-2121265J-2121305D01*
G01*
X107128737Y-67578758D02*
G75*
G03*
X106250096Y-69700037I2121263J-2121242D01*
G01*
X106493954Y-104110660D02*
G75*
G03*
X107554614Y-104550000I1060661J1060662D01*
G01*
X70882464Y-81567536D02*
G75*
G02*
X69961464Y-82000360I-1060663J1060667D01*
G01*
X72224565Y-97559820D02*
G75*
G02*
X73433137Y-96951023I1206549J-891202D01*
G01*
X127685660Y-105335660D02*
G75*
G02*
X128125000Y-106396320I-1060662J-1060661D01*
G01*
D27*
X134750579Y-55518918D02*
G75*
G03*
X134604133Y-55165367I-500003J-4D01*
G01*
D26*
X122749893Y-65541105D02*
G75*
G03*
X123200000Y-64469785I-1049891J1071318D01*
G01*
X105359200Y-99085400D02*
G75*
G03*
X106237878Y-96964084I-2121243J2121286D01*
G01*
X86857202Y-97398202D02*
G75*
G03*
X85796542Y-96958862I-1060661J-1060662D01*
G01*
X109599113Y-66351024D02*
G75*
G03*
X107477788Y-67229706I-13J-2999976D01*
G01*
X85959531Y-62958852D02*
G75*
G02*
X87020190Y-63398192I-1J-1500001D01*
G01*
D27*
X135803402Y-60862558D02*
G75*
G02*
X136864061Y-61301898I-1J-1500001D01*
G01*
D26*
X71951083Y-63462226D02*
G75*
G02*
X73081103Y-62950881I1128080J-988655D01*
G01*
X105359200Y-82067400D02*
G75*
G03*
X106237878Y-79946084I-2121243J2121286D01*
G01*
X102863855Y-83320102D02*
G75*
G03*
X104985178Y-82441417I18J2999950D01*
G01*
X128124999Y-116028680D02*
G75*
G02*
X127685659Y-117089339I-1500001J1D01*
G01*
X107111800Y-82092800D02*
G75*
G02*
X106233118Y-79971474I2121295J2121313D01*
G01*
X123829215Y-60801395D02*
G75*
G03*
X123200000Y-62022760I870783J-1221364D01*
G01*
D27*
X138264055Y-58949042D02*
G75*
G03*
X138117607Y-59302597I353544J-353552D01*
G01*
X137505499Y-64580491D02*
X132537715Y-64580491D01*
X137859053Y-64434044D02*
X138818097Y-63475000D01*
X132184161Y-64726938D02*
X132166099Y-64745000D01*
X132184161Y-64726938D02*
G75*
G02*
X132537715Y-64580491I353553J-353550D01*
G01*
X137505499Y-64580491D02*
G75*
G03*
X137859053Y-64434044I1J499997D01*
G01*
D25*
X131750576Y-55711813D02*
X133277163Y-57238400D01*
X133630716Y-57384846D02*
X135272264Y-57384846D01*
X133630716Y-57384845D02*
G75*
G02*
X133277163Y-57238400I0J500001D01*
G01*
D27*
X137300771Y-59048069D02*
X137905552Y-58443284D01*
X136947214Y-59194516D02*
X134671933Y-59194516D01*
X138051997Y-58089732D02*
X138051997Y-56828212D01*
X138198444Y-56474658D02*
X138818100Y-55855003D01*
X131184161Y-59048065D02*
X131166098Y-59030002D01*
X134671930Y-59194513D02*
X131537716Y-59194513D01*
X138051996Y-58089732D02*
G75*
G02*
X137905552Y-58443284I-500001J0D01*
G01*
X138198444Y-56474658D02*
G75*
G03*
X138051997Y-56828212I353550J-353553D01*
G01*
X136947214Y-59194515D02*
G75*
G03*
X137300770Y-59048068I7J499990D01*
G01*
X131537716Y-59194513D02*
G75*
G02*
X131184161Y-59048065I-3J499992D01*
G01*
D25*
X137648090Y-83214557D02*
X129953644Y-83214557D01*
X129600090Y-83361004D02*
X129166094Y-83795000D01*
X137775090Y-83087557D02*
X137648090Y-83214557D01*
X129600090Y-83361004D02*
G75*
G02*
X129953644Y-83214557I353553J-353550D01*
G01*
X137818097Y-80620000D02*
X130008205Y-80620002D01*
X129654652Y-80766448D02*
X129166099Y-81255000D01*
X129654652Y-80766448D02*
G75*
G02*
X130008205Y-80620002I353553J-353556D01*
G01*
M02*
