G04 #@! TF.GenerationSoftware,KiCad,Pcbnew,6.0.0-d3dd2cf0fa~116~ubuntu20.04.1*
G04 #@! TF.CreationDate,2022-01-06T00:06:37-05:00*
G04 #@! TF.ProjectId,34,33342e6b-6963-4616-945f-706362585858,0.1*
G04 #@! TF.SameCoordinates,Original*
G04 #@! TF.FileFunction,Profile,NP*
%FSLAX46Y46*%
G04 Gerber Fmt 4.6, Leading zero omitted, Abs format (unit mm)*
G04 Created by KiCad (PCBNEW 6.0.0-d3dd2cf0fa~116~ubuntu20.04.1) date 2022-01-06 00:06:37*
%MOMM*%
%LPD*%
G01*
G04 APERTURE LIST*
G04 #@! TA.AperFunction,Profile*
%ADD10C,0.150000*%
G04 #@! TD*
G04 APERTURE END LIST*
D10*
X123950000Y-123700000D02*
G75*
G03*
X143525000Y-120425000I8386871J10009200D01*
G01*
X49525000Y-116525000D02*
G75*
G03*
X42900000Y-115650000I-3798185J-3239826D01*
G01*
X71125000Y-118725000D02*
G75*
G03*
X83200000Y-119200000I6482290J11069540D01*
G01*
X35650000Y-115450000D02*
G75*
G03*
X35900000Y-115950000I839101J107051D01*
G01*
X35650000Y-115450000D02*
X24750000Y-66200000D01*
X143525000Y-92675000D02*
X143510000Y-52933556D01*
X70231000Y-48514000D02*
G75*
G03*
X47498000Y-52451000I1237825J-74748313D01*
G01*
X143525000Y-120425000D02*
X143525000Y-92675000D01*
X143510001Y-52933556D02*
G75*
G03*
X142175000Y-51700000I-1379985J-154299D01*
G01*
X95275000Y-121150000D02*
G75*
G03*
X83200000Y-119200000I-7992245J-11129381D01*
G01*
X24825000Y-65750000D02*
G75*
G03*
X24750000Y-66200000I395512J-297169D01*
G01*
X47498000Y-52450999D02*
G75*
G03*
X24825000Y-65750000I38783589J-92097487D01*
G01*
X95275000Y-121150000D02*
G75*
G03*
X109150000Y-121900000I7497986J9993995D01*
G01*
X88265000Y-48514000D02*
G75*
G03*
X124225000Y-51700000I34699633J187119497D01*
G01*
X35900000Y-115950000D02*
G75*
G03*
X42900000Y-115650000I3294262J4950551D01*
G01*
X49525000Y-116525000D02*
G75*
G03*
X59675000Y-117975000I6177726J6994083D01*
G01*
X123950000Y-123700000D02*
G75*
G03*
X109150000Y-121900000I-8857436J-11083361D01*
G01*
X88265000Y-48514000D02*
G75*
G03*
X70231000Y-48514000I-9017000J-225334830D01*
G01*
X71125000Y-118725000D02*
G75*
G03*
X59675000Y-117975000I-6450536J-10701513D01*
G01*
X124225000Y-51700000D02*
X142175000Y-51700000D01*
M02*
