M48
; DRILL file {KiCad 6.0.0-d3dd2cf0fa~116~ubuntu20.04.1} date Wed 05 Jan 2022 09:36:21 PM EST
; FORMAT={-:-/ absolute / inch / decimal}
; #@! TF.CreationDate,2022-01-05T21:36:21-05:00
; #@! TF.GenerationSoftware,Kicad,Pcbnew,6.0.0-d3dd2cf0fa~116~ubuntu20.04.1
; #@! TF.FileFunction,NonPlated,1,2,NPTH
FMAT,2
INCH
; #@! TA.AperFunction,NonPlated,NPTH,ComponentDrill
T1C0.0354
; #@! TA.AperFunction,NonPlated,NPTH,ComponentDrill
T2C0.0670
; #@! TA.AperFunction,NonPlated,NPTH,ComponentDrill
T3C0.1350
%
G90
G05
T1
X5.2166Y-2.1245
X5.2166Y-2.1245
X5.3347Y-2.1245
X5.3347Y-2.1245
T2
X1.1787Y-2.8934
X1.3236Y-3.5469
X1.4683Y-4.2003
X1.6015Y-2.7997
X1.7464Y-3.4531
X1.8911Y-4.1066
X2.0378Y-2.3886
X2.0961Y-3.0553
X2.1545Y-3.7221
X2.4692Y-2.3508
X2.5275Y-3.0176
X2.5859Y-3.6843
X2.9033Y-3.585
X2.9033Y-2.9157
X2.9033Y-2.2464
X3.3364Y-3.585
X3.3364Y-2.9157
X3.3364Y-2.2464
X3.6115Y-2.379
X3.6115Y-3.0483
X3.6115Y-3.7176
X4.0446Y-2.379
X4.0446Y-3.0483
X4.0446Y-3.7176
X4.1531Y-4.4065
X4.3199Y-2.3789
X4.3199Y-3.0482
X4.3205Y-3.7174
X4.5862Y-4.4065
X4.753Y-2.3789
X4.753Y-3.0482
X4.7536Y-3.7174
X5.2766Y-4.003
X5.2766Y-4.436
T3
X1.3901Y-2.8466
X1.535Y-3.5
X1.6797Y-4.1535
X2.2535Y-2.3697
X2.3118Y-3.0365
X2.3702Y-3.7032
X3.1199Y-3.585
X3.1199Y-2.9157
X3.1199Y-2.2464
X3.8281Y-2.379
X3.8281Y-3.0483
X3.8281Y-3.7176
X4.3697Y-4.4065
X4.5364Y-2.3789
X4.5364Y-3.0482
X4.5371Y-3.7174
X5.2766Y-4.2195
T0
M30
