M48
; DRILL file {KiCad 6.0.0-d3dd2cf0fa~116~ubuntu20.04.1} date Wed 05 Jan 2022 07:50:50 PM EST
; FORMAT={-:-/ absolute / inch / decimal}
; #@! TF.CreationDate,2022-01-05T19:50:50-05:00
; #@! TF.GenerationSoftware,Kicad,Pcbnew,6.0.0-d3dd2cf0fa~116~ubuntu20.04.1
; #@! TF.FileFunction,Plated,1,2,PTH
FMAT,2
INCH
; #@! TA.AperFunction,Plated,PTH,ViaDrill
T1C0.0157
; #@! TA.AperFunction,Plated,PTH,ComponentDrill
T2C0.0315
; #@! TA.AperFunction,Plated,PTH,ComponentDrill
T3C0.0320
%
G90
G05
T1
X5.1191Y-3.3248
X5.1246Y-2.724
X5.1246Y-2.624
X5.1246Y-2.824
X5.1246Y-2.924
X5.1246Y-3.124
X5.1246Y-2.474
X5.1246Y-3.224
X5.1246Y-3.024
X5.1443Y-2.399
X5.164Y-2.324
X5.1992Y-2.4562
X5.2034Y-2.549
X5.2756Y-2.093
X5.2756Y-2.1481
X5.2886Y-2.4562
X5.3242Y-2.3312
X5.3257Y-2.2592
X5.3865Y-2.299
X5.4062Y-2.374
X5.4242Y-3.2712
X5.4259Y-2.974
X5.4259Y-2.774
X5.4259Y-3.074
X5.4259Y-3.174
X5.4259Y-2.574
X5.4259Y-2.674
X5.4259Y-2.874
X5.4282Y-2.4402
T3
X4.9753Y-2.199
X4.9753Y-2.299
X4.9753Y-2.399
X4.9753Y-2.499
X4.9753Y-2.599
X4.9753Y-2.699
X4.9753Y-2.799
X4.9753Y-2.899
X4.9753Y-2.999
X4.9753Y-3.099
X4.9753Y-3.199
X4.9753Y-3.299
X5.5753Y-2.199
X5.5753Y-2.299
X5.5753Y-2.399
X5.5753Y-2.499
X5.5753Y-2.599
X5.5753Y-2.699
X5.5753Y-2.799
X5.5753Y-2.899
X5.5753Y-2.999
X5.5753Y-3.099
X5.5753Y-3.199
X5.5753Y-3.299
T2
G00X1.2197Y-3.0416
M15
G01X1.235Y-3.0382
M16
G05
G00X1.3645Y-3.6951
M15
G01X1.3799Y-3.6917
M16
G05
G00X1.4327Y-3.0751
M15
G01X1.4481Y-3.0716
M16
G05
G00X1.5092Y-4.3485
M15
G01X1.5246Y-4.3451
M16
G05
G00X1.5776Y-3.7285
M15
G01X1.593Y-3.7251
M16
G05
G00X1.6117Y-2.9547
M15
G01X1.6271Y-2.9513
M16
G05
G00X1.7223Y-4.3819
M15
G01X1.7377Y-4.3785
M16
G05
G00X1.7566Y-3.6081
M15
G01X1.7719Y-3.6047
M16
G05
G00X1.9013Y-4.2616
M15
G01X1.9166Y-4.2582
M16
G05
G00X2.059Y-2.5409
M15
G01X2.0747Y-2.5395
M16
G05
G00X2.1173Y-3.2076
M15
G01X2.133Y-3.2062
M16
G05
G00X2.1757Y-3.8743
M15
G01X2.1914Y-3.873
M16
G05
G00X2.2659Y-2.6018
M15
G01X2.2816Y-2.6004
M16
G05
G00X2.3242Y-3.2685
M15
G01X2.3399Y-3.2672
M16
G05
G00X2.3826Y-3.9353
M15
G01X2.3983Y-3.9339
M16
G05
G00X2.4591Y-2.5059
M15
G01X2.4747Y-2.5045
M16
G05
G00X2.5174Y-3.1726
M15
G01X2.5331Y-3.1712
M16
G05
G00X2.5757Y-3.8393
M15
G01X2.5914Y-3.838
M16
G05
G00X2.9112Y-3.7385
M15
G01X2.9269Y-3.7385
M16
G05
G00X2.9112Y-3.0692
M15
G01X2.9269Y-3.0692
M16
G05
G00X2.9112Y-2.4
M15
G01X2.9269Y-2.4
M16
G05
G00X3.112Y-3.8173
M15
G01X3.1277Y-3.8173
M16
G05
G00X3.112Y-3.148
M15
G01X3.1277Y-3.148
M16
G05
G00X3.112Y-2.4787
M15
G01X3.1277Y-2.4787
M16
G05
G00X3.3128Y-3.7385
M15
G01X3.3285Y-3.7385
M16
G05
G00X3.3128Y-3.0692
M15
G01X3.3285Y-3.0692
M16
G05
G00X3.3128Y-2.4
M15
G01X3.3285Y-2.4
M16
G05
G00X3.6194Y-2.5326
M15
G01X3.6352Y-2.5326
M16
G05
G00X3.6194Y-3.2019
M15
G01X3.6352Y-3.2019
M16
G05
G00X3.6194Y-3.8712
M15
G01X3.6352Y-3.8712
M16
G05
G00X3.8202Y-2.6113
M15
G01X3.8359Y-2.6113
M16
G05
G00X3.8202Y-3.2806
M15
G01X3.8359Y-3.2806
M16
G05
G00X3.8202Y-3.9499
M15
G01X3.8359Y-3.9499
M16
G05
G00X4.021Y-2.5326
M15
G01X4.0367Y-2.5326
M16
G05
G00X4.021Y-3.2019
M15
G01X4.0367Y-3.2019
M16
G05
G00X4.021Y-3.8712
M15
G01X4.0367Y-3.8712
M16
G05
G00X4.1585Y-4.56
M15
G01X4.1742Y-4.56
M16
G05
G00X4.3278Y-2.5325
M15
G01X4.3435Y-2.5325
M16
G05
G00X4.3278Y-3.2018
M15
G01X4.3435Y-3.2018
M16
G05
G00X4.3284Y-3.871
M15
G01X4.3442Y-3.871
M16
G05
G00X4.3593Y-4.6388
M15
G01X4.375Y-4.6388
M16
G05
G00X4.5285Y-2.6112
M15
G01X4.5443Y-2.6112
M16
G05
G00X4.5285Y-3.2805
M15
G01X4.5443Y-3.2805
M16
G05
G00X4.5292Y-3.9497
M15
G01X4.545Y-3.9497
M16
G05
G00X4.56Y-4.56
M15
G01X4.5758Y-4.56
M16
G05
G00X4.7293Y-2.5325
M15
G01X4.7451Y-2.5325
M16
G05
G00X4.7293Y-3.2018
M15
G01X4.7451Y-3.2018
M16
G05
G00X4.73Y-3.871
M15
G01X4.7457Y-3.871
M16
G05
G00X5.0443Y-4.2085
M15
G01X5.0443Y-4.2243
M16
G05
G00X5.123Y-4.0077
M15
G01X5.123Y-4.0235
M16
G05
G00X5.123Y-4.4093
M15
G01X5.123Y-4.4251
M16
G05
T0
M30
