G04 #@! TF.GenerationSoftware,KiCad,Pcbnew,6.0.0-d3dd2cf0fa~116~ubuntu20.04.1*
G04 #@! TF.CreationDate,2022-01-05T19:49:39-05:00*
G04 #@! TF.ProjectId,30_hs,33305f68-732e-46b6-9963-61645f706362,0.1*
G04 #@! TF.SameCoordinates,Original*
G04 #@! TF.FileFunction,Soldermask,Top*
G04 #@! TF.FilePolarity,Negative*
%FSLAX46Y46*%
G04 Gerber Fmt 4.6, Leading zero omitted, Abs format (unit mm)*
G04 Created by KiCad (PCBNEW 6.0.0-d3dd2cf0fa~116~ubuntu20.04.1) date 2022-01-05 19:49:39*
%MOMM*%
%LPD*%
G01*
G04 APERTURE LIST*
G04 Aperture macros list*
%AMRotRect*
0 Rectangle, with rotation*
0 The origin of the aperture is its center*
0 $1 length*
0 $2 width*
0 $3 Rotation angle, in degrees counterclockwise*
0 Add horizontal line*
21,1,$1,$2,0,0,$3*%
%AMFreePoly0*
4,1,6,0.600000,0.200000,0.000000,-0.400000,-0.600000,0.200000,-0.600000,0.400000,0.600000,0.400000,0.600000,0.200000,0.600000,0.200000,$1*%
%AMFreePoly1*
4,1,6,0.600000,-0.250000,-0.600000,-0.250000,-0.600000,1.000000,0.000000,0.400000,0.600000,1.000000,0.600000,-0.250000,0.600000,-0.250000,$1*%
G04 Aperture macros list end*
%ADD10C,0.100000*%
%ADD11C,3.000000*%
%ADD12C,1.701800*%
%ADD13C,3.429000*%
%ADD14RotRect,2.600000X2.600000X12.500000*%
%ADD15C,2.032000*%
%ADD16RotRect,2.600000X2.600000X5.000000*%
%ADD17R,2.600000X2.600000*%
%ADD18RotRect,2.600000X2.600000X355.000000*%
%ADD19RotRect,2.600000X2.600000X265.000000*%
%ADD20C,1.600000*%
%ADD21FreePoly0,90.000000*%
%ADD22FreePoly0,270.000000*%
%ADD23FreePoly1,270.000000*%
%ADD24FreePoly1,90.000000*%
%ADD25C,0.900000*%
G04 APERTURE END LIST*
D10*
X133923000Y-69866000D02*
X133923000Y-71866000D01*
X133923000Y-71866000D02*
X132523000Y-71866000D01*
X132523000Y-71866000D02*
X132523000Y-69866000D01*
X132523000Y-69866000D02*
X133923000Y-69866000D01*
G36*
X133923000Y-71866000D02*
G01*
X132523000Y-71866000D01*
X132523000Y-69866000D01*
X133923000Y-69866000D01*
X133923000Y-71866000D01*
G37*
X133923000Y-71866000D02*
X132523000Y-71866000D01*
X132523000Y-69866000D01*
X133923000Y-69866000D01*
X133923000Y-71866000D01*
X136121558Y-69866000D02*
X136121558Y-71866000D01*
X136121558Y-71866000D02*
X134721558Y-71866000D01*
X134721558Y-71866000D02*
X134721558Y-69866000D01*
X134721558Y-69866000D02*
X136121558Y-69866000D01*
G36*
X136121558Y-71866000D02*
G01*
X134721558Y-71866000D01*
X134721558Y-69866000D01*
X136121558Y-69866000D01*
X136121558Y-71866000D01*
G37*
X136121558Y-71866000D02*
X134721558Y-71866000D01*
X134721558Y-69866000D01*
X136121558Y-69866000D01*
X136121558Y-71866000D01*
X129059009Y-63826446D02*
X129059009Y-64842446D01*
X129059009Y-64842446D02*
X128043009Y-64842446D01*
X128043009Y-64842446D02*
X128043009Y-63826446D01*
X128043009Y-63826446D02*
X129059009Y-63826446D01*
G36*
X129059009Y-64842446D02*
G01*
X128043009Y-64842446D01*
X128043009Y-63826446D01*
X129059009Y-63826446D01*
X129059009Y-64842446D01*
G37*
X129059009Y-64842446D02*
X128043009Y-64842446D01*
X128043009Y-63826446D01*
X129059009Y-63826446D01*
X129059009Y-64842446D01*
X129059009Y-76526446D02*
X129059009Y-77542446D01*
X129059009Y-77542446D02*
X128043009Y-77542446D01*
X128043009Y-77542446D02*
X128043009Y-76526446D01*
X128043009Y-76526446D02*
X129059009Y-76526446D01*
G36*
X129059009Y-77542446D02*
G01*
X128043009Y-77542446D01*
X128043009Y-76526446D01*
X129059009Y-76526446D01*
X129059009Y-77542446D01*
G37*
X129059009Y-77542446D02*
X128043009Y-77542446D01*
X128043009Y-76526446D01*
X129059009Y-76526446D01*
X129059009Y-77542446D01*
X129059009Y-71446446D02*
X129059009Y-72462446D01*
X129059009Y-72462446D02*
X128043009Y-72462446D01*
X128043009Y-72462446D02*
X128043009Y-71446446D01*
X128043009Y-71446446D02*
X129059009Y-71446446D01*
G36*
X129059009Y-72462446D02*
G01*
X128043009Y-72462446D01*
X128043009Y-71446446D01*
X129059009Y-71446446D01*
X129059009Y-72462446D01*
G37*
X129059009Y-72462446D02*
X128043009Y-72462446D01*
X128043009Y-71446446D01*
X129059009Y-71446446D01*
X129059009Y-72462446D01*
X139219009Y-64842446D02*
X139219009Y-63826446D01*
X139219009Y-63826446D02*
X140235009Y-63826446D01*
X140235009Y-63826446D02*
X140235009Y-64842446D01*
X140235009Y-64842446D02*
X139219009Y-64842446D01*
G36*
X140235009Y-64842446D02*
G01*
X139219009Y-64842446D01*
X139219009Y-63826446D01*
X140235009Y-63826446D01*
X140235009Y-64842446D01*
G37*
X140235009Y-64842446D02*
X139219009Y-64842446D01*
X139219009Y-63826446D01*
X140235009Y-63826446D01*
X140235009Y-64842446D01*
X139219009Y-80082446D02*
X139219009Y-79066446D01*
X139219009Y-79066446D02*
X140235009Y-79066446D01*
X140235009Y-79066446D02*
X140235009Y-80082446D01*
X140235009Y-80082446D02*
X139219009Y-80082446D01*
G36*
X140235009Y-80082446D02*
G01*
X139219009Y-80082446D01*
X139219009Y-79066446D01*
X140235009Y-79066446D01*
X140235009Y-80082446D01*
G37*
X140235009Y-80082446D02*
X139219009Y-80082446D01*
X139219009Y-79066446D01*
X140235009Y-79066446D01*
X140235009Y-80082446D01*
X129059009Y-79066446D02*
X129059009Y-80082446D01*
X129059009Y-80082446D02*
X128043009Y-80082446D01*
X128043009Y-80082446D02*
X128043009Y-79066446D01*
X128043009Y-79066446D02*
X129059009Y-79066446D01*
G36*
X129059009Y-80082446D02*
G01*
X128043009Y-80082446D01*
X128043009Y-79066446D01*
X129059009Y-79066446D01*
X129059009Y-80082446D01*
G37*
X129059009Y-80082446D02*
X128043009Y-80082446D01*
X128043009Y-79066446D01*
X129059009Y-79066446D01*
X129059009Y-80082446D01*
X139219009Y-85162446D02*
X139219009Y-84146446D01*
X139219009Y-84146446D02*
X140235009Y-84146446D01*
X140235009Y-84146446D02*
X140235009Y-85162446D01*
X140235009Y-85162446D02*
X139219009Y-85162446D01*
G36*
X140235009Y-85162446D02*
G01*
X139219009Y-85162446D01*
X139219009Y-84146446D01*
X140235009Y-84146446D01*
X140235009Y-85162446D01*
G37*
X140235009Y-85162446D02*
X139219009Y-85162446D01*
X139219009Y-84146446D01*
X140235009Y-84146446D01*
X140235009Y-85162446D01*
X139219009Y-77542446D02*
X139219009Y-76526446D01*
X139219009Y-76526446D02*
X140235009Y-76526446D01*
X140235009Y-76526446D02*
X140235009Y-77542446D01*
X140235009Y-77542446D02*
X139219009Y-77542446D01*
G36*
X140235009Y-77542446D02*
G01*
X139219009Y-77542446D01*
X139219009Y-76526446D01*
X140235009Y-76526446D01*
X140235009Y-77542446D01*
G37*
X140235009Y-77542446D02*
X139219009Y-77542446D01*
X139219009Y-76526446D01*
X140235009Y-76526446D01*
X140235009Y-77542446D01*
X129059009Y-84146446D02*
X129059009Y-85162446D01*
X129059009Y-85162446D02*
X128043009Y-85162446D01*
X128043009Y-85162446D02*
X128043009Y-84146446D01*
X128043009Y-84146446D02*
X129059009Y-84146446D01*
G36*
X129059009Y-85162446D02*
G01*
X128043009Y-85162446D01*
X128043009Y-84146446D01*
X129059009Y-84146446D01*
X129059009Y-85162446D01*
G37*
X129059009Y-85162446D02*
X128043009Y-85162446D01*
X128043009Y-84146446D01*
X129059009Y-84146446D01*
X129059009Y-85162446D01*
X129059009Y-66366446D02*
X129059009Y-67382446D01*
X129059009Y-67382446D02*
X128043009Y-67382446D01*
X128043009Y-67382446D02*
X128043009Y-66366446D01*
X128043009Y-66366446D02*
X129059009Y-66366446D01*
G36*
X129059009Y-67382446D02*
G01*
X128043009Y-67382446D01*
X128043009Y-66366446D01*
X129059009Y-66366446D01*
X129059009Y-67382446D01*
G37*
X129059009Y-67382446D02*
X128043009Y-67382446D01*
X128043009Y-66366446D01*
X129059009Y-66366446D01*
X129059009Y-67382446D01*
X139219009Y-69922446D02*
X139219009Y-68906446D01*
X139219009Y-68906446D02*
X140235009Y-68906446D01*
X140235009Y-68906446D02*
X140235009Y-69922446D01*
X140235009Y-69922446D02*
X139219009Y-69922446D01*
G36*
X140235009Y-69922446D02*
G01*
X139219009Y-69922446D01*
X139219009Y-68906446D01*
X140235009Y-68906446D01*
X140235009Y-69922446D01*
G37*
X140235009Y-69922446D02*
X139219009Y-69922446D01*
X139219009Y-68906446D01*
X140235009Y-68906446D01*
X140235009Y-69922446D01*
X129059009Y-81606446D02*
X129059009Y-82622446D01*
X129059009Y-82622446D02*
X128043009Y-82622446D01*
X128043009Y-82622446D02*
X128043009Y-81606446D01*
X128043009Y-81606446D02*
X129059009Y-81606446D01*
G36*
X129059009Y-82622446D02*
G01*
X128043009Y-82622446D01*
X128043009Y-81606446D01*
X129059009Y-81606446D01*
X129059009Y-82622446D01*
G37*
X129059009Y-82622446D02*
X128043009Y-82622446D01*
X128043009Y-81606446D01*
X129059009Y-81606446D01*
X129059009Y-82622446D01*
X139219009Y-75002446D02*
X139219009Y-73986446D01*
X139219009Y-73986446D02*
X140235009Y-73986446D01*
X140235009Y-73986446D02*
X140235009Y-75002446D01*
X140235009Y-75002446D02*
X139219009Y-75002446D01*
G36*
X140235009Y-75002446D02*
G01*
X139219009Y-75002446D01*
X139219009Y-73986446D01*
X140235009Y-73986446D01*
X140235009Y-75002446D01*
G37*
X140235009Y-75002446D02*
X139219009Y-75002446D01*
X139219009Y-73986446D01*
X140235009Y-73986446D01*
X140235009Y-75002446D01*
X129059009Y-68906446D02*
X129059009Y-69922446D01*
X129059009Y-69922446D02*
X128043009Y-69922446D01*
X128043009Y-69922446D02*
X128043009Y-68906446D01*
X128043009Y-68906446D02*
X129059009Y-68906446D01*
G36*
X129059009Y-69922446D02*
G01*
X128043009Y-69922446D01*
X128043009Y-68906446D01*
X129059009Y-68906446D01*
X129059009Y-69922446D01*
G37*
X129059009Y-69922446D02*
X128043009Y-69922446D01*
X128043009Y-68906446D01*
X129059009Y-68906446D01*
X129059009Y-69922446D01*
X129059009Y-89226446D02*
X129059009Y-90242446D01*
X129059009Y-90242446D02*
X128043009Y-90242446D01*
X128043009Y-90242446D02*
X128043009Y-89226446D01*
X128043009Y-89226446D02*
X129059009Y-89226446D01*
G36*
X129059009Y-90242446D02*
G01*
X128043009Y-90242446D01*
X128043009Y-89226446D01*
X129059009Y-89226446D01*
X129059009Y-90242446D01*
G37*
X129059009Y-90242446D02*
X128043009Y-90242446D01*
X128043009Y-89226446D01*
X129059009Y-89226446D01*
X129059009Y-90242446D01*
X139219009Y-67382446D02*
X139219009Y-66366446D01*
X139219009Y-66366446D02*
X140235009Y-66366446D01*
X140235009Y-66366446D02*
X140235009Y-67382446D01*
X140235009Y-67382446D02*
X139219009Y-67382446D01*
G36*
X140235009Y-67382446D02*
G01*
X139219009Y-67382446D01*
X139219009Y-66366446D01*
X140235009Y-66366446D01*
X140235009Y-67382446D01*
G37*
X140235009Y-67382446D02*
X139219009Y-67382446D01*
X139219009Y-66366446D01*
X140235009Y-66366446D01*
X140235009Y-67382446D01*
X139219009Y-87702446D02*
X139219009Y-86686446D01*
X139219009Y-86686446D02*
X140235009Y-86686446D01*
X140235009Y-86686446D02*
X140235009Y-87702446D01*
X140235009Y-87702446D02*
X139219009Y-87702446D01*
G36*
X140235009Y-87702446D02*
G01*
X139219009Y-87702446D01*
X139219009Y-86686446D01*
X140235009Y-86686446D01*
X140235009Y-87702446D01*
G37*
X140235009Y-87702446D02*
X139219009Y-87702446D01*
X139219009Y-86686446D01*
X140235009Y-86686446D01*
X140235009Y-87702446D01*
X139219009Y-92782446D02*
X139219009Y-91766446D01*
X139219009Y-91766446D02*
X140235009Y-91766446D01*
X140235009Y-91766446D02*
X140235009Y-92782446D01*
X140235009Y-92782446D02*
X139219009Y-92782446D01*
G36*
X140235009Y-92782446D02*
G01*
X139219009Y-92782446D01*
X139219009Y-91766446D01*
X140235009Y-91766446D01*
X140235009Y-92782446D01*
G37*
X140235009Y-92782446D02*
X139219009Y-92782446D01*
X139219009Y-91766446D01*
X140235009Y-91766446D01*
X140235009Y-92782446D01*
X139219009Y-82622446D02*
X139219009Y-81606446D01*
X139219009Y-81606446D02*
X140235009Y-81606446D01*
X140235009Y-81606446D02*
X140235009Y-82622446D01*
X140235009Y-82622446D02*
X139219009Y-82622446D01*
G36*
X140235009Y-82622446D02*
G01*
X139219009Y-82622446D01*
X139219009Y-81606446D01*
X140235009Y-81606446D01*
X140235009Y-82622446D01*
G37*
X140235009Y-82622446D02*
X139219009Y-82622446D01*
X139219009Y-81606446D01*
X140235009Y-81606446D01*
X140235009Y-82622446D01*
X129059009Y-91766446D02*
X129059009Y-92782446D01*
X129059009Y-92782446D02*
X128043009Y-92782446D01*
X128043009Y-92782446D02*
X128043009Y-91766446D01*
X128043009Y-91766446D02*
X129059009Y-91766446D01*
G36*
X129059009Y-92782446D02*
G01*
X128043009Y-92782446D01*
X128043009Y-91766446D01*
X129059009Y-91766446D01*
X129059009Y-92782446D01*
G37*
X129059009Y-92782446D02*
X128043009Y-92782446D01*
X128043009Y-91766446D01*
X129059009Y-91766446D01*
X129059009Y-92782446D01*
X139219009Y-90242446D02*
X139219009Y-89226446D01*
X139219009Y-89226446D02*
X140235009Y-89226446D01*
X140235009Y-89226446D02*
X140235009Y-90242446D01*
X140235009Y-90242446D02*
X139219009Y-90242446D01*
G36*
X140235009Y-90242446D02*
G01*
X139219009Y-90242446D01*
X139219009Y-89226446D01*
X140235009Y-89226446D01*
X140235009Y-90242446D01*
G37*
X140235009Y-90242446D02*
X139219009Y-90242446D01*
X139219009Y-89226446D01*
X140235009Y-89226446D01*
X140235009Y-90242446D01*
X139219009Y-72462446D02*
X139219009Y-71446446D01*
X139219009Y-71446446D02*
X140235009Y-71446446D01*
X140235009Y-71446446D02*
X140235009Y-72462446D01*
X140235009Y-72462446D02*
X139219009Y-72462446D01*
G36*
X140235009Y-72462446D02*
G01*
X139219009Y-72462446D01*
X139219009Y-71446446D01*
X140235009Y-71446446D01*
X140235009Y-72462446D01*
G37*
X140235009Y-72462446D02*
X139219009Y-72462446D01*
X139219009Y-71446446D01*
X140235009Y-71446446D01*
X140235009Y-72462446D01*
X129059009Y-86686446D02*
X129059009Y-87702446D01*
X129059009Y-87702446D02*
X128043009Y-87702446D01*
X128043009Y-87702446D02*
X128043009Y-86686446D01*
X128043009Y-86686446D02*
X129059009Y-86686446D01*
G36*
X129059009Y-87702446D02*
G01*
X128043009Y-87702446D01*
X128043009Y-86686446D01*
X129059009Y-86686446D01*
X129059009Y-87702446D01*
G37*
X129059009Y-87702446D02*
X128043009Y-87702446D01*
X128043009Y-86686446D01*
X129059009Y-86686446D01*
X129059009Y-87702446D01*
X129059009Y-73986446D02*
X129059009Y-75002446D01*
X129059009Y-75002446D02*
X128043009Y-75002446D01*
X128043009Y-75002446D02*
X128043009Y-73986446D01*
X128043009Y-73986446D02*
X129059009Y-73986446D01*
G36*
X129059009Y-75002446D02*
G01*
X128043009Y-75002446D01*
X128043009Y-73986446D01*
X129059009Y-73986446D01*
X129059009Y-75002446D01*
G37*
X129059009Y-75002446D02*
X128043009Y-75002446D01*
X128043009Y-73986446D01*
X129059009Y-73986446D01*
X129059009Y-75002446D01*
X136697486Y-63491256D02*
X136697486Y-64891256D01*
X136697486Y-64891256D02*
X136097486Y-64891256D01*
X136097486Y-64891256D02*
X136097486Y-63491256D01*
X136097486Y-63491256D02*
X136697486Y-63491256D01*
G36*
X136697486Y-64891256D02*
G01*
X136097486Y-64891256D01*
X136097486Y-63491256D01*
X136697486Y-63491256D01*
X136697486Y-64891256D01*
G37*
X136697486Y-64891256D02*
X136097486Y-64891256D01*
X136097486Y-63491256D01*
X136697486Y-63491256D01*
X136697486Y-64891256D01*
X130947486Y-60991256D02*
X130947486Y-61691256D01*
X130947486Y-61691256D02*
X130047486Y-61691256D01*
X130047486Y-61691256D02*
X130047486Y-60991256D01*
X130047486Y-60991256D02*
X130947486Y-60991256D01*
G36*
X130947486Y-61691256D02*
G01*
X130047486Y-61691256D01*
X130047486Y-60991256D01*
X130947486Y-60991256D01*
X130947486Y-61691256D01*
G37*
X130947486Y-61691256D02*
X130047486Y-61691256D01*
X130047486Y-60991256D01*
X130947486Y-60991256D01*
X130947486Y-61691256D01*
X133697486Y-63491256D02*
X133697486Y-64891256D01*
X133697486Y-64891256D02*
X133097486Y-64891256D01*
X133097486Y-64891256D02*
X133097486Y-63491256D01*
X133097486Y-63491256D02*
X133697486Y-63491256D01*
G36*
X133697486Y-64891256D02*
G01*
X133097486Y-64891256D01*
X133097486Y-63491256D01*
X133697486Y-63491256D01*
X133697486Y-64891256D01*
G37*
X133697486Y-64891256D02*
X133097486Y-64891256D01*
X133097486Y-63491256D01*
X133697486Y-63491256D01*
X133697486Y-64891256D01*
X138247486Y-63191256D02*
X138247486Y-63891256D01*
X138247486Y-63891256D02*
X137347486Y-63891256D01*
X137347486Y-63891256D02*
X137347486Y-63191256D01*
X137347486Y-63191256D02*
X138247486Y-63191256D01*
G36*
X138247486Y-63891256D02*
G01*
X137347486Y-63891256D01*
X137347486Y-63191256D01*
X138247486Y-63191256D01*
X138247486Y-63891256D01*
G37*
X138247486Y-63891256D02*
X137347486Y-63891256D01*
X137347486Y-63191256D01*
X138247486Y-63191256D01*
X138247486Y-63891256D01*
X138247486Y-60991256D02*
X138247486Y-61691256D01*
X138247486Y-61691256D02*
X137347486Y-61691256D01*
X137347486Y-61691256D02*
X137347486Y-60991256D01*
X137347486Y-60991256D02*
X138247486Y-60991256D01*
G36*
X138247486Y-61691256D02*
G01*
X137347486Y-61691256D01*
X137347486Y-60991256D01*
X138247486Y-60991256D01*
X138247486Y-61691256D01*
G37*
X138247486Y-61691256D02*
X137347486Y-61691256D01*
X137347486Y-60991256D01*
X138247486Y-60991256D01*
X138247486Y-61691256D01*
X132197486Y-63491256D02*
X132197486Y-64891256D01*
X132197486Y-64891256D02*
X131597486Y-64891256D01*
X131597486Y-64891256D02*
X131597486Y-63491256D01*
X131597486Y-63491256D02*
X132197486Y-63491256D01*
G36*
X132197486Y-64891256D02*
G01*
X131597486Y-64891256D01*
X131597486Y-63491256D01*
X132197486Y-63491256D01*
X132197486Y-64891256D01*
G37*
X132197486Y-64891256D02*
X131597486Y-64891256D01*
X131597486Y-63491256D01*
X132197486Y-63491256D01*
X132197486Y-64891256D01*
X130947486Y-63191256D02*
X130947486Y-63891256D01*
X130947486Y-63891256D02*
X130047486Y-63891256D01*
X130047486Y-63891256D02*
X130047486Y-63191256D01*
X130047486Y-63191256D02*
X130947486Y-63191256D01*
G36*
X130947486Y-63891256D02*
G01*
X130047486Y-63891256D01*
X130047486Y-63191256D01*
X130947486Y-63191256D01*
X130947486Y-63891256D01*
G37*
X130947486Y-63891256D02*
X130047486Y-63891256D01*
X130047486Y-63191256D01*
X130947486Y-63191256D01*
X130947486Y-63891256D01*
D11*
X35756765Y-70114767D03*
D12*
X42414209Y-74733310D03*
D11*
X41114412Y-71180420D03*
D12*
X31674953Y-77114146D03*
D11*
X31351452Y-73344816D03*
D13*
X37044581Y-75923728D03*
D14*
X38954135Y-69405927D03*
D15*
X38321575Y-81683874D03*
X32985571Y-80715851D03*
X42748532Y-78551455D03*
D14*
X28154083Y-74053656D03*
D12*
X51759789Y-60669942D03*
D11*
X61892999Y-56019076D03*
X51931052Y-56890634D03*
D13*
X57238860Y-60190585D03*
D11*
X56720283Y-54263227D03*
D12*
X62717931Y-59711228D03*
D15*
X57753079Y-66068134D03*
D16*
X59982821Y-53977791D03*
D15*
X62551025Y-63540346D03*
X52589078Y-64411904D03*
D16*
X48668515Y-57176069D03*
D11*
X74244393Y-53308851D03*
D13*
X79244393Y-57058851D03*
D12*
X73744393Y-57058851D03*
D11*
X84244393Y-53308851D03*
D12*
X84744393Y-57058851D03*
D11*
X79244393Y-51108851D03*
D17*
X82519393Y-51108851D03*
D15*
X79244393Y-62958851D03*
X74244393Y-60858851D03*
X84244393Y-60858851D03*
D17*
X70969393Y-53308851D03*
D12*
X102733086Y-60427567D03*
D11*
X102233086Y-56677567D03*
D13*
X97233086Y-60427567D03*
D11*
X97233086Y-54477567D03*
D12*
X91733086Y-60427567D03*
D11*
X92233086Y-56677567D03*
D15*
X97233086Y-66327567D03*
D17*
X100508086Y-54477567D03*
D15*
X102233086Y-64227567D03*
X92233086Y-64227567D03*
D17*
X88958086Y-56677567D03*
D12*
X109733089Y-68927570D03*
D11*
X120233089Y-65177570D03*
D13*
X115233089Y-68927570D03*
D11*
X110233089Y-65177570D03*
X115233089Y-62977570D03*
D12*
X120733089Y-68927570D03*
D17*
X118508089Y-62977570D03*
D15*
X115233089Y-74827570D03*
X120233089Y-72727570D03*
X110233089Y-72727570D03*
D17*
X106958089Y-65177570D03*
D12*
X46093685Y-91330336D03*
X35354429Y-93711172D03*
D11*
X39436241Y-86711793D03*
X35030928Y-89941842D03*
D13*
X40724057Y-92520754D03*
D11*
X44793888Y-87777446D03*
D15*
X42001051Y-98280900D03*
D14*
X42633611Y-86002953D03*
D15*
X46428008Y-95148481D03*
D14*
X31833559Y-90650682D03*
D15*
X36665047Y-97312877D03*
D11*
X63374641Y-72954392D03*
X58201925Y-71198543D03*
D12*
X53241431Y-77605258D03*
D11*
X53412694Y-73825950D03*
D12*
X64199573Y-76646544D03*
D13*
X58720502Y-77125901D03*
D15*
X59234721Y-83003450D03*
D16*
X61464463Y-70913107D03*
D15*
X64032667Y-80475662D03*
X54070720Y-81347220D03*
D16*
X50150157Y-74111385D03*
D11*
X74244389Y-70308851D03*
D12*
X84744389Y-74058851D03*
X73744389Y-74058851D03*
D13*
X79244389Y-74058851D03*
D11*
X84244389Y-70308851D03*
X79244389Y-68108851D03*
D17*
X82519389Y-68108851D03*
D15*
X79244389Y-79958851D03*
X74244389Y-77858851D03*
D17*
X70969389Y-70308851D03*
D15*
X84244389Y-77858851D03*
D13*
X97233093Y-77427564D03*
D12*
X102733093Y-77427564D03*
D11*
X97233093Y-71477564D03*
D12*
X91733093Y-77427564D03*
D11*
X92233093Y-73677564D03*
X102233093Y-73677564D03*
D15*
X97233093Y-83327564D03*
D17*
X100508093Y-71477564D03*
X88958093Y-73677564D03*
D15*
X92233093Y-81227564D03*
X102233093Y-81227564D03*
D13*
X115233093Y-85927569D03*
D11*
X110233093Y-82177569D03*
D12*
X120733093Y-85927569D03*
X109733093Y-85927569D03*
D11*
X115233093Y-79977569D03*
X120233093Y-82177569D03*
D17*
X118508093Y-79977569D03*
D15*
X115233093Y-91827569D03*
X110233093Y-89727569D03*
X120233093Y-89727569D03*
D17*
X106958093Y-82177569D03*
D12*
X54723079Y-94540566D03*
D11*
X59683573Y-88133851D03*
X54894342Y-90761258D03*
D12*
X65681221Y-93581852D03*
D11*
X64856289Y-89889700D03*
D13*
X60202150Y-94061209D03*
D15*
X60716369Y-99938758D03*
D16*
X62946111Y-87848415D03*
D15*
X65514315Y-97410970D03*
X55552368Y-98282528D03*
D16*
X51631805Y-91046693D03*
D11*
X84244382Y-87308862D03*
D12*
X73744382Y-91058862D03*
D11*
X74244382Y-87308862D03*
D13*
X79244382Y-91058862D03*
D11*
X79244382Y-85108862D03*
D12*
X84744382Y-91058862D03*
D15*
X79244382Y-96958862D03*
D17*
X82519382Y-85108862D03*
X70969382Y-87308862D03*
D15*
X84244382Y-94858862D03*
X74244382Y-94858862D03*
D11*
X102233093Y-90677566D03*
D12*
X102733093Y-94427566D03*
D11*
X92233093Y-90677566D03*
D13*
X97233093Y-94427566D03*
D12*
X91733093Y-94427566D03*
D11*
X97233093Y-88477566D03*
D17*
X100508093Y-88477566D03*
D15*
X97233093Y-100327566D03*
D17*
X88958093Y-90677566D03*
D15*
X102233093Y-98227566D03*
X92233093Y-98227566D03*
D12*
X111404071Y-114004357D03*
D13*
X105925000Y-113525000D03*
D12*
X100445929Y-113045643D03*
D11*
X111232808Y-110225049D03*
X106443577Y-107597642D03*
X101270861Y-109353491D03*
D18*
X109706114Y-107883077D03*
D15*
X105410781Y-119402549D03*
X110574782Y-117746319D03*
X100612835Y-116874761D03*
D18*
X98008323Y-109068056D03*
D11*
X134101143Y-111221245D03*
X131473736Y-116010476D03*
X132345294Y-106048529D03*
D12*
X128653142Y-105223597D03*
X127694428Y-116181739D03*
D13*
X128173785Y-110702668D03*
D15*
X122296236Y-110188449D03*
D19*
X133815708Y-114483782D03*
D15*
X123952466Y-115352450D03*
X124824024Y-105390503D03*
D19*
X132630729Y-102785991D03*
D20*
X126519009Y-64334446D03*
X141759009Y-74494446D03*
D21*
X128297009Y-71954446D03*
D22*
X139981009Y-82114446D03*
D20*
X141759009Y-69414446D03*
X126519009Y-71954446D03*
X126519009Y-77034446D03*
D21*
X128297009Y-87194446D03*
X128297009Y-92274446D03*
D20*
X141759009Y-79574446D03*
D21*
X128297009Y-84654446D03*
D20*
X141759009Y-92274446D03*
D22*
X139981009Y-87194446D03*
D21*
X128297009Y-77034446D03*
X128297009Y-79574446D03*
D20*
X126519009Y-66874446D03*
X141759009Y-84654446D03*
D21*
X128297009Y-64334446D03*
D20*
X141759009Y-77034446D03*
X141759009Y-64334446D03*
D21*
X128297009Y-66874446D03*
X128297009Y-89734446D03*
D22*
X139981009Y-89734446D03*
D20*
X141759009Y-82114446D03*
X141759009Y-71954446D03*
X126519009Y-69414446D03*
D21*
X128297009Y-74494446D03*
D22*
X139981009Y-79574446D03*
D20*
X126519009Y-89734446D03*
X126519009Y-79574446D03*
D21*
X128297009Y-69414446D03*
D20*
X126519009Y-87194446D03*
D22*
X139981009Y-74494446D03*
D20*
X141759009Y-66874446D03*
D22*
X139981009Y-69414446D03*
D20*
X126519009Y-74494446D03*
D22*
X139981009Y-71954446D03*
D20*
X126519009Y-84654446D03*
D22*
X139981009Y-66874446D03*
D20*
X126519009Y-92274446D03*
D22*
X139981009Y-64334446D03*
D20*
X126519009Y-82114446D03*
D22*
X139981009Y-84654446D03*
D20*
X141759009Y-89734446D03*
D22*
X139981009Y-92274446D03*
D21*
X128297009Y-82114446D03*
D22*
X139981009Y-77034446D03*
D20*
X141759009Y-87194446D03*
D23*
X138965009Y-64334446D03*
X138965009Y-66874446D03*
X138965009Y-69414446D03*
X138965009Y-71954446D03*
X138965009Y-74494446D03*
X138965009Y-77034446D03*
X138965009Y-79574446D03*
X138965009Y-82114446D03*
X138965009Y-84654446D03*
X138965009Y-87194446D03*
X138965009Y-89734446D03*
X138965009Y-92274446D03*
D24*
X129313009Y-92274446D03*
X129313009Y-89734446D03*
X129313009Y-87194446D03*
X129313009Y-84654446D03*
X129313009Y-82114446D03*
X129313009Y-79574446D03*
X129313009Y-77034446D03*
X129313009Y-74494446D03*
X129313009Y-71954446D03*
X129313009Y-69414446D03*
X129313009Y-66874446D03*
X129313009Y-64334446D03*
D25*
X135647486Y-62441256D03*
X132647486Y-62441256D03*
X135647486Y-62441256D03*
X132647486Y-62441256D03*
M02*
