M48
; DRILL file {KiCad 6.0.0-d3dd2cf0fa~116~ubuntu20.04.1} date Wed 05 Jan 2022 07:49:36 PM EST
; FORMAT={-:-/ absolute / inch / decimal}
; #@! TF.CreationDate,2022-01-05T19:49:36-05:00
; #@! TF.GenerationSoftware,Kicad,Pcbnew,6.0.0-d3dd2cf0fa~116~ubuntu20.04.1
; #@! TF.FileFunction,NonPlated,1,2,NPTH
FMAT,2
INCH
; #@! TA.AperFunction,NonPlated,NPTH,ComponentDrill
T1C0.0354
; #@! TA.AperFunction,NonPlated,NPTH,ComponentDrill
T2C0.0670
; #@! TA.AperFunction,NonPlated,NPTH,ComponentDrill
T3C0.1181
; #@! TA.AperFunction,NonPlated,NPTH,ComponentDrill
T4C0.1350
%
G90
G05
T1
X5.2223Y-2.4583
X5.2223Y-2.4583
X5.3405Y-2.4583
X5.3405Y-2.4583
T2
X1.247Y-3.036
X1.3919Y-3.6894
X1.6699Y-2.9423
X1.8147Y-3.5957
X2.0378Y-2.3886
X2.0961Y-3.0553
X2.1545Y-3.7221
X2.4692Y-2.3508
X2.5275Y-3.0176
X2.5859Y-3.6843
X2.9033Y-3.585
X2.9033Y-2.9157
X2.9033Y-2.2464
X3.3364Y-3.585
X3.3364Y-2.9157
X3.3364Y-2.2464
X3.6115Y-2.379
X3.6115Y-3.0483
X3.6115Y-3.7176
X3.9546Y-4.4506
X4.0446Y-2.379
X4.0446Y-3.0483
X4.0446Y-3.7176
X4.3202Y-2.7137
X4.3202Y-3.383
X4.386Y-4.4884
X4.7533Y-2.7137
X4.7533Y-3.383
X5.0273Y-4.5741
X5.0651Y-4.1427
T3
X1.2343Y-2.8876
X1.3792Y-3.541
X1.4077Y-2.7604
X1.5526Y-3.4139
X1.6187Y-2.8024
X1.7635Y-3.4558
X2.0445Y-2.2398
X2.1029Y-2.9065
X2.1612Y-3.5733
X2.2331Y-2.1363
X2.2914Y-2.8031
X2.3497Y-3.4698
X2.4367Y-2.2055
X2.4951Y-2.8722
X2.5534Y-3.539
X2.923Y-3.4374
X2.923Y-2.7681
X2.923Y-2.0988
X3.1199Y-3.3507
X3.1199Y-2.6815
X3.1199Y-2.0122
X3.3167Y-3.4374
X3.3167Y-2.7681
X3.3167Y-2.0988
X3.6312Y-2.2314
X3.6312Y-2.9007
X3.6312Y-3.57
X3.8281Y-2.1448
X3.8281Y-2.8141
X3.8281Y-3.4834
X3.987Y-4.3053
X4.0249Y-2.2314
X4.0249Y-2.9007
X4.0249Y-3.57
X4.1907Y-4.2361
X4.3399Y-2.566
X4.3399Y-3.2353
X4.3792Y-4.3396
X4.5367Y-2.4794
X4.5367Y-3.1487
X4.7336Y-2.566
X4.7336Y-3.2353
X5.1761Y-4.5673
X5.2104Y-4.1751
X5.2796Y-4.3788
T4
X1.4584Y-2.9891
X1.6033Y-3.6425
X2.2535Y-2.3697
X2.3118Y-3.0365
X2.3702Y-3.7032
X3.1199Y-3.585
X3.1199Y-2.9157
X3.1199Y-2.2464
X3.8281Y-2.379
X3.8281Y-3.0483
X3.8281Y-3.7176
X4.1703Y-4.4695
X4.5367Y-2.7137
X4.5367Y-3.383
X5.0462Y-4.3584
T0
M30
