G04 #@! TF.GenerationSoftware,KiCad,Pcbnew,6.0.0-d3dd2cf0fa~116~ubuntu20.04.1*
G04 #@! TF.CreationDate,2022-01-05T19:49:38-05:00*
G04 #@! TF.ProjectId,30_hs,33305f68-732e-46b6-9963-61645f706362,0.1*
G04 #@! TF.SameCoordinates,Original*
G04 #@! TF.FileFunction,Copper,L1,Top*
G04 #@! TF.FilePolarity,Positive*
%FSLAX46Y46*%
G04 Gerber Fmt 4.6, Leading zero omitted, Abs format (unit mm)*
G04 Created by KiCad (PCBNEW 6.0.0-d3dd2cf0fa~116~ubuntu20.04.1) date 2022-01-05 19:49:38*
%MOMM*%
%LPD*%
G01*
G04 APERTURE LIST*
G04 Aperture macros list*
%AMRotRect*
0 Rectangle, with rotation*
0 The origin of the aperture is its center*
0 $1 length*
0 $2 width*
0 $3 Rotation angle, in degrees counterclockwise*
0 Add horizontal line*
21,1,$1,$2,0,0,$3*%
%AMFreePoly0*
4,1,6,0.600000,0.200000,0.000000,-0.400000,-0.600000,0.200000,-0.600000,0.400000,0.600000,0.400000,0.600000,0.200000,0.600000,0.200000,$1*%
%AMFreePoly1*
4,1,5,0.125000,-0.500000,-0.125000,-0.500000,-0.125000,0.500000,0.125000,0.500000,0.125000,-0.500000,0.125000,-0.500000,$1*%
%AMFreePoly2*
4,1,6,0.600000,-0.250000,-0.600000,-0.250000,-0.600000,1.000000,0.000000,0.400000,0.600000,1.000000,0.600000,-0.250000,0.600000,-0.250000,$1*%
G04 Aperture macros list end*
G04 #@! TA.AperFunction,SMDPad,CuDef*
%ADD10RotRect,2.600000X2.600000X12.500000*%
G04 #@! TD*
G04 #@! TA.AperFunction,ComponentPad*
%ADD11C,2.032000*%
G04 #@! TD*
G04 #@! TA.AperFunction,SMDPad,CuDef*
%ADD12RotRect,2.600000X2.600000X5.000000*%
G04 #@! TD*
G04 #@! TA.AperFunction,SMDPad,CuDef*
%ADD13R,2.600000X2.600000*%
G04 #@! TD*
G04 #@! TA.AperFunction,SMDPad,CuDef*
%ADD14RotRect,2.600000X2.600000X355.000000*%
G04 #@! TD*
G04 #@! TA.AperFunction,SMDPad,CuDef*
%ADD15RotRect,2.600000X2.600000X265.000000*%
G04 #@! TD*
G04 #@! TA.AperFunction,SMDPad,CuDef*
%ADD16R,1.500000X2.100000*%
G04 #@! TD*
G04 #@! TA.AperFunction,ComponentPad*
%ADD17C,1.600000*%
G04 #@! TD*
G04 #@! TA.AperFunction,SMDPad,CuDef*
%ADD18FreePoly0,90.000000*%
G04 #@! TD*
G04 #@! TA.AperFunction,SMDPad,CuDef*
%ADD19FreePoly0,270.000000*%
G04 #@! TD*
G04 #@! TA.AperFunction,SMDPad,CuDef*
%ADD20FreePoly1,270.000000*%
G04 #@! TD*
G04 #@! TA.AperFunction,SMDPad,CuDef*
%ADD21FreePoly1,90.000000*%
G04 #@! TD*
G04 #@! TA.AperFunction,SMDPad,CuDef*
%ADD22FreePoly2,270.000000*%
G04 #@! TD*
G04 #@! TA.AperFunction,SMDPad,CuDef*
%ADD23FreePoly2,90.000000*%
G04 #@! TD*
G04 #@! TA.AperFunction,SMDPad,CuDef*
%ADD24R,1.000000X0.800000*%
G04 #@! TD*
G04 #@! TA.AperFunction,SMDPad,CuDef*
%ADD25R,0.700000X1.500000*%
G04 #@! TD*
G04 #@! TA.AperFunction,ViaPad*
%ADD26C,0.800000*%
G04 #@! TD*
G04 #@! TA.AperFunction,Conductor*
%ADD27C,0.250000*%
G04 #@! TD*
G04 #@! TA.AperFunction,Conductor*
%ADD28C,0.500000*%
G04 #@! TD*
G04 #@! TA.AperFunction,Conductor*
%ADD29C,0.400000*%
G04 #@! TD*
G04 APERTURE END LIST*
D10*
X38954135Y-69405927D03*
D11*
X38321575Y-81683874D03*
X32985571Y-80715851D03*
X42748532Y-78551455D03*
D10*
X28154083Y-74053656D03*
D11*
X57753079Y-66068134D03*
D12*
X59982821Y-53977791D03*
D11*
X62551025Y-63540346D03*
X52589078Y-64411904D03*
D12*
X48668515Y-57176069D03*
D13*
X82519393Y-51108851D03*
D11*
X79244393Y-62958851D03*
X74244393Y-60858851D03*
X84244393Y-60858851D03*
D13*
X70969393Y-53308851D03*
D11*
X97233086Y-66327567D03*
D13*
X100508086Y-54477567D03*
D11*
X102233086Y-64227567D03*
X92233086Y-64227567D03*
D13*
X88958086Y-56677567D03*
X118508089Y-62977570D03*
D11*
X115233089Y-74827570D03*
X120233089Y-72727570D03*
X110233089Y-72727570D03*
D13*
X106958089Y-65177570D03*
D11*
X42001051Y-98280900D03*
D10*
X42633611Y-86002953D03*
D11*
X46428008Y-95148481D03*
D10*
X31833559Y-90650682D03*
D11*
X36665047Y-97312877D03*
X59234721Y-83003450D03*
D12*
X61464463Y-70913107D03*
D11*
X64032667Y-80475662D03*
X54070720Y-81347220D03*
D12*
X50150157Y-74111385D03*
D13*
X82519389Y-68108851D03*
D11*
X79244389Y-79958851D03*
X74244389Y-77858851D03*
D13*
X70969389Y-70308851D03*
D11*
X84244389Y-77858851D03*
X97233093Y-83327564D03*
D13*
X100508093Y-71477564D03*
X88958093Y-73677564D03*
D11*
X92233093Y-81227564D03*
X102233093Y-81227564D03*
D13*
X118508093Y-79977569D03*
D11*
X115233093Y-91827569D03*
X110233093Y-89727569D03*
X120233093Y-89727569D03*
D13*
X106958093Y-82177569D03*
D11*
X60716369Y-99938758D03*
D12*
X62946111Y-87848415D03*
D11*
X65514315Y-97410970D03*
X55552368Y-98282528D03*
D12*
X51631805Y-91046693D03*
D11*
X79244382Y-96958862D03*
D13*
X82519382Y-85108862D03*
X70969382Y-87308862D03*
D11*
X84244382Y-94858862D03*
X74244382Y-94858862D03*
D13*
X100508093Y-88477566D03*
D11*
X97233093Y-100327566D03*
D13*
X88958093Y-90677566D03*
D11*
X102233093Y-98227566D03*
X92233093Y-98227566D03*
D14*
X109706114Y-107883077D03*
D11*
X105410781Y-119402549D03*
X110574782Y-117746319D03*
X100612835Y-116874761D03*
D14*
X98008323Y-109068056D03*
D11*
X122296236Y-110188449D03*
D15*
X133815708Y-114483782D03*
D11*
X123952466Y-115352450D03*
X124824024Y-105390503D03*
D15*
X132630729Y-102785991D03*
D16*
X135423000Y-70866000D03*
X133223000Y-70866000D03*
D17*
X126519009Y-64334446D03*
X141759009Y-74494446D03*
D18*
X128297009Y-71954446D03*
D19*
X139981009Y-82114446D03*
D17*
X141759009Y-69414446D03*
X126519009Y-71954446D03*
X126519009Y-77034446D03*
D18*
X128297009Y-87194446D03*
D20*
X140489009Y-71954446D03*
D18*
X128297009Y-92274446D03*
D17*
X141759009Y-79574446D03*
D18*
X128297009Y-84654446D03*
D17*
X141759009Y-92274446D03*
D20*
X140489009Y-77034446D03*
D19*
X139981009Y-87194446D03*
D18*
X128297009Y-77034446D03*
X128297009Y-79574446D03*
D17*
X126519009Y-66874446D03*
D20*
X140489009Y-69414446D03*
D17*
X141759009Y-84654446D03*
D20*
X140489009Y-87194446D03*
D18*
X128297009Y-64334446D03*
D17*
X141759009Y-77034446D03*
D20*
X140489009Y-82114446D03*
D21*
X127789009Y-89734446D03*
D17*
X141759009Y-64334446D03*
D18*
X128297009Y-66874446D03*
X128297009Y-89734446D03*
D19*
X139981009Y-89734446D03*
D21*
X127789009Y-69414446D03*
D17*
X141759009Y-82114446D03*
D20*
X140489009Y-89734446D03*
X140489009Y-79574446D03*
D17*
X141759009Y-71954446D03*
D20*
X140489009Y-84654446D03*
D17*
X126519009Y-69414446D03*
D21*
X127789009Y-74494446D03*
D18*
X128297009Y-74494446D03*
D19*
X139981009Y-79574446D03*
D17*
X126519009Y-89734446D03*
X126519009Y-79574446D03*
D18*
X128297009Y-69414446D03*
D20*
X140489009Y-92274446D03*
D21*
X127789009Y-66874446D03*
X127789009Y-87194446D03*
D17*
X126519009Y-87194446D03*
D19*
X139981009Y-74494446D03*
D21*
X127789009Y-84654446D03*
X127789009Y-77034446D03*
D20*
X140489009Y-74494446D03*
D17*
X141759009Y-66874446D03*
D21*
X127789009Y-64334446D03*
D19*
X139981009Y-69414446D03*
D21*
X127789009Y-79574446D03*
X127789009Y-71954446D03*
X127789009Y-82114446D03*
D17*
X126519009Y-74494446D03*
D19*
X139981009Y-71954446D03*
D17*
X126519009Y-84654446D03*
D19*
X139981009Y-66874446D03*
D20*
X140489009Y-66874446D03*
D17*
X126519009Y-92274446D03*
D19*
X139981009Y-64334446D03*
D17*
X126519009Y-82114446D03*
D20*
X140489009Y-64334446D03*
D19*
X139981009Y-84654446D03*
D17*
X141759009Y-89734446D03*
D19*
X139981009Y-92274446D03*
D18*
X128297009Y-82114446D03*
D19*
X139981009Y-77034446D03*
D21*
X127789009Y-92274446D03*
D17*
X141759009Y-87194446D03*
D22*
X138965009Y-64334446D03*
X138965009Y-66874446D03*
X138965009Y-69414446D03*
X138965009Y-71954446D03*
X138965009Y-74494446D03*
X138965009Y-77034446D03*
X138965009Y-79574446D03*
X138965009Y-82114446D03*
X138965009Y-84654446D03*
X138965009Y-87194446D03*
X138965009Y-89734446D03*
X138965009Y-92274446D03*
D23*
X129313009Y-92274446D03*
X129313009Y-89734446D03*
X129313009Y-87194446D03*
X129313009Y-84654446D03*
X129313009Y-82114446D03*
X129313009Y-79574446D03*
X129313009Y-77034446D03*
X129313009Y-74494446D03*
X129313009Y-71954446D03*
X129313009Y-69414446D03*
X129313009Y-66874446D03*
X129313009Y-64334446D03*
D24*
X130497486Y-63541256D03*
X137797486Y-61341256D03*
X137797486Y-63541256D03*
X130497486Y-61341256D03*
D25*
X136397486Y-64191256D03*
X133397486Y-64191256D03*
X131897486Y-64191256D03*
D26*
X134147489Y-61641258D03*
X137965009Y-73859446D03*
X130313009Y-85289444D03*
X130313007Y-87829443D03*
X130313008Y-90369445D03*
X130313005Y-92909447D03*
X137965007Y-86559444D03*
X137965009Y-76399444D03*
X130813009Y-76399446D03*
X130313006Y-77669446D03*
X130313007Y-80209443D03*
X130313007Y-82749441D03*
X137965005Y-84019446D03*
X137965011Y-81479447D03*
X137965007Y-78939446D03*
X137965007Y-89099443D03*
X137922000Y-91694000D03*
X130313008Y-71319445D03*
X137465008Y-68779446D03*
X136965009Y-66874444D03*
X130813008Y-69414444D03*
X138023600Y-70459600D03*
X134147491Y-63041258D03*
X132313009Y-73224443D03*
X133153388Y-70866000D03*
X135419174Y-65864289D03*
X135423001Y-70866001D03*
X135382000Y-67691000D03*
X131313008Y-67509445D03*
X130313007Y-75129443D03*
D27*
X131897489Y-62318221D02*
X131897489Y-64191257D01*
X132220901Y-61787703D02*
X132043936Y-61964667D01*
X134147489Y-61641258D02*
X132574454Y-61641257D01*
X132043936Y-61964667D02*
G75*
G03*
X131897489Y-62318221I353550J-353553D01*
G01*
X132220901Y-61787703D02*
G75*
G02*
X132574454Y-61641257I353553J-353556D01*
G01*
X85233140Y-82669523D02*
X64586848Y-82669523D01*
X42748532Y-78551455D02*
X32985571Y-80715851D01*
X137965009Y-73859446D02*
X134587798Y-77236657D01*
X134355109Y-77723709D02*
X134353484Y-77802342D01*
X134445973Y-77424170D02*
X134385790Y-77569465D01*
X61093629Y-85500000D02*
X47906371Y-85500000D01*
X112236224Y-97956242D02*
X105060754Y-90780772D01*
X47340685Y-85265685D02*
X43630246Y-81555246D01*
X88409711Y-85514723D02*
X85798825Y-82903837D01*
X43420744Y-81187258D02*
X42748532Y-78551455D01*
X134533345Y-77293408D02*
X134445973Y-77424170D01*
X39233542Y-75113781D02*
X38954135Y-69405927D01*
X134219377Y-95246041D02*
X134151765Y-95317575D01*
X138453559Y-74347997D02*
X137965009Y-73859446D01*
X138965009Y-74494444D02*
X138807113Y-74494444D01*
X134353484Y-94984679D02*
X134321369Y-95077723D01*
X134587798Y-77236657D02*
X134533345Y-77293408D01*
X104826440Y-90215087D02*
X104826440Y-88972817D01*
X134321369Y-95077723D02*
X134219377Y-95246041D01*
X64021162Y-82903838D02*
X61659314Y-85265686D01*
X42748532Y-78551455D02*
X39501893Y-75673303D01*
X130947412Y-98190557D02*
X112801910Y-98190557D01*
X134353484Y-77802342D02*
X134353484Y-94984679D01*
X134151765Y-95317575D02*
X131513097Y-97956243D01*
X101602663Y-85749040D02*
X88975397Y-85749038D01*
X134385790Y-77569465D02*
X134355109Y-77723709D01*
X104592125Y-88407131D02*
X102168348Y-85983354D01*
X64021162Y-82903838D02*
G75*
G02*
X64586848Y-82669523I565689J-565692D01*
G01*
X104826440Y-90215087D02*
G75*
G03*
X105060754Y-90780772I800000J0D01*
G01*
X102168348Y-85983354D02*
G75*
G03*
X101602663Y-85749040I-565685J-565686D01*
G01*
X39233543Y-75113781D02*
G75*
G03*
X39501893Y-75673302I799050J39118D01*
G01*
X61093629Y-85500000D02*
G75*
G03*
X61659314Y-85265686I0J800000D01*
G01*
X47906371Y-85500000D02*
G75*
G02*
X47340685Y-85265685I-2J799995D01*
G01*
X85233140Y-82669523D02*
G75*
G02*
X85798825Y-82903837I0J-800000D01*
G01*
X88975397Y-85749038D02*
G75*
G02*
X88409711Y-85514723I-2J799995D01*
G01*
X112236224Y-97956242D02*
G75*
G03*
X112801910Y-98190557I565684J565680D01*
G01*
X43630247Y-81555245D02*
G75*
G02*
X43420745Y-81187258I565690J565687D01*
G01*
X131513097Y-97956243D02*
G75*
G02*
X130947412Y-98190557I-565685J565686D01*
G01*
X104592125Y-88407131D02*
G75*
G02*
X104826440Y-88972817I-565680J-565684D01*
G01*
X138453559Y-74347997D02*
G75*
G03*
X138807113Y-74494444I353553J353550D01*
G01*
X105125960Y-72949601D02*
X105125960Y-69362343D01*
X90637218Y-68252224D02*
X88601811Y-66216817D01*
X59550038Y-59670652D02*
X59982821Y-53977791D01*
X108784711Y-76939723D02*
X105360274Y-73515286D01*
X104891645Y-68796657D02*
X104815842Y-68720854D01*
X123180325Y-77271657D02*
X123141286Y-77232618D01*
X62551025Y-63540346D02*
X52589078Y-64411904D01*
X129777822Y-96100490D02*
X125001884Y-96100490D01*
X131915685Y-94293998D02*
X130343507Y-95866176D01*
X122999865Y-77174040D02*
X121850000Y-77174040D01*
X123414641Y-94513247D02*
X123414641Y-93700000D01*
X62551025Y-63540346D02*
X59739605Y-60251080D01*
X129824454Y-84800891D02*
X130313009Y-85289444D01*
X123414641Y-93700000D02*
X123414640Y-77837343D01*
X104250157Y-68486540D02*
X91202904Y-68486539D01*
X132150000Y-87457806D02*
X132150000Y-93728312D01*
X63248188Y-65748188D02*
X63031724Y-65531724D01*
X88036126Y-65982503D02*
X63813874Y-65982503D01*
X121850000Y-77174040D02*
X109350397Y-77174038D01*
X130313009Y-85289444D02*
X131915686Y-86892121D01*
X124436198Y-95866175D02*
X123648955Y-95078932D01*
X62808109Y-65096440D02*
X62551025Y-63540346D01*
X129313008Y-84654447D02*
X129470896Y-84654445D01*
X124436198Y-95866175D02*
G75*
G03*
X125001884Y-96100490I565684J565680D01*
G01*
X104891645Y-68796657D02*
G75*
G02*
X105125960Y-69362343I-565692J-565689D01*
G01*
X105360274Y-73515286D02*
G75*
G02*
X105125960Y-72949601I565686J565685D01*
G01*
X129824454Y-84800891D02*
G75*
G03*
X129470896Y-84654445I-353553J-353554D01*
G01*
X129777822Y-96100490D02*
G75*
G03*
X130343507Y-95866176I0J800000D01*
G01*
X62808110Y-65096440D02*
G75*
G03*
X63031725Y-65531723I789294J130398D01*
G01*
X63248188Y-65748188D02*
G75*
G03*
X63813874Y-65982503I565689J565692D01*
G01*
X88601811Y-66216817D02*
G75*
G03*
X88036126Y-65982503I-565685J-565686D01*
G01*
X132150000Y-87457806D02*
G75*
G03*
X131915686Y-86892121I-800000J0D01*
G01*
X131915685Y-94293998D02*
G75*
G03*
X132150000Y-93728312I-565692J565689D01*
G01*
X104250157Y-68486540D02*
G75*
G02*
X104815842Y-68720854I0J-800000D01*
G01*
X108784711Y-76939723D02*
G75*
G03*
X109350397Y-77174038I565689J565692D01*
G01*
X123141286Y-77232618D02*
G75*
G03*
X122999865Y-77174040I-141422J-141425D01*
G01*
X123414641Y-94513247D02*
G75*
G03*
X123648955Y-95078932I800000J0D01*
G01*
X91202904Y-68486539D02*
G75*
G02*
X90637218Y-68252224I-2J799995D01*
G01*
X123180325Y-77271657D02*
G75*
G02*
X123414640Y-77837343I-565692J-565689D01*
G01*
X59739606Y-60251079D02*
G75*
G02*
X59550039Y-59670652I608130J519784D01*
G01*
X108950198Y-76540204D02*
X105759795Y-73349801D01*
X84244393Y-60858851D02*
X74244393Y-60858851D01*
X123579845Y-77106171D02*
X123351036Y-76877362D01*
X105291165Y-68631171D02*
X104981328Y-68321334D01*
X129541602Y-95700980D02*
X125167358Y-95700980D01*
X129313007Y-87194443D02*
X129470902Y-87194443D01*
X84244393Y-60858851D02*
X81753679Y-57188317D01*
X105525481Y-72784116D02*
X105525480Y-69196857D01*
X90802705Y-67852705D02*
X87134314Y-64184314D01*
X129824454Y-87340890D02*
X130313007Y-87829443D01*
X124601672Y-95466665D02*
X124048474Y-94913467D01*
X84244393Y-62713022D02*
X84244393Y-60858851D01*
X81626002Y-56610897D02*
X82519393Y-51108851D01*
X123102754Y-76774520D02*
X109515884Y-76774519D01*
X86568629Y-63950000D02*
X85481371Y-63950000D01*
X104415643Y-68087020D02*
X91368391Y-68087020D01*
X84915685Y-63715685D02*
X84478707Y-63278707D01*
X131515685Y-94058268D02*
X130107287Y-95466666D01*
X123814160Y-94347782D02*
X123814160Y-77671857D01*
X130313007Y-87829443D02*
X131515686Y-89032122D01*
X131750000Y-89597807D02*
X131750000Y-93492582D01*
X105525480Y-69196857D02*
G75*
G03*
X105291165Y-68631171I-799995J2D01*
G01*
X104415643Y-68087020D02*
G75*
G02*
X104981328Y-68321334I0J-800000D01*
G01*
X129541602Y-95700980D02*
G75*
G03*
X130107287Y-95466666I0J800000D01*
G01*
X123814160Y-77671857D02*
G75*
G03*
X123579845Y-77106171I-799995J2D01*
G01*
X124601672Y-95466665D02*
G75*
G03*
X125167358Y-95700980I565689J565692D01*
G01*
X123814160Y-94347782D02*
G75*
G03*
X124048474Y-94913467I800000J0D01*
G01*
X123351036Y-76877362D02*
G75*
G03*
X123102754Y-76774520I-248284J-248285D01*
G01*
X81753680Y-57188316D02*
G75*
G02*
X81626003Y-56610897I661980J449200D01*
G01*
X131515685Y-94058268D02*
G75*
G03*
X131750000Y-93492582I-565692J565689D01*
G01*
X84915685Y-63715685D02*
G75*
G03*
X85481371Y-63950000I565689J565692D01*
G01*
X87134314Y-64184314D02*
G75*
G03*
X86568629Y-63950000I-565685J-565686D01*
G01*
X105525481Y-72784116D02*
G75*
G03*
X105759795Y-73349801I800000J0D01*
G01*
X129824454Y-87340890D02*
G75*
G03*
X129470902Y-87194443I-353551J-353545D01*
G01*
X131750000Y-89597807D02*
G75*
G03*
X131515686Y-89032122I-800000J0D01*
G01*
X109515884Y-76774519D02*
G75*
G02*
X108950198Y-76540204I-2J799995D01*
G01*
X90802705Y-67852705D02*
G75*
G03*
X91368391Y-68087020I565689J565692D01*
G01*
X84244393Y-62713022D02*
G75*
G03*
X84478707Y-63278707I800000J0D01*
G01*
X105690685Y-68465685D02*
X105146814Y-67921814D01*
X124213680Y-94182309D02*
X124213680Y-77506371D01*
X123979365Y-76940685D02*
X123582847Y-76544167D01*
X123174442Y-76375000D02*
X109681371Y-76375000D01*
X102628185Y-67453185D02*
X102467400Y-67292400D01*
X109115685Y-76140685D02*
X106159314Y-73184314D01*
X102233086Y-66726715D02*
X102233086Y-64227567D01*
X131325000Y-91712808D02*
X131325000Y-93305975D01*
X131090686Y-93871660D02*
X129895188Y-95067158D01*
X130313008Y-90369445D02*
X131090685Y-91147122D01*
X99464251Y-60009496D02*
X100508086Y-54477567D01*
X104581129Y-67687500D02*
X103193871Y-67687500D01*
X102233086Y-64227567D02*
X99604424Y-60629790D01*
X124767159Y-95067159D02*
X124447995Y-94747995D01*
X92133086Y-64327566D02*
X102333090Y-64327569D01*
X129313009Y-89734443D02*
X129470902Y-89734443D01*
X105925000Y-72618629D02*
X105925000Y-69031371D01*
X129329502Y-95301473D02*
X125332844Y-95301473D01*
X129824455Y-89880890D02*
X130313008Y-90369445D01*
X123174442Y-76375001D02*
G75*
G02*
X123582846Y-76544168I0J-577571D01*
G01*
X106159314Y-73184314D02*
G75*
G02*
X105925000Y-72618629I565686J565685D01*
G01*
X124213680Y-94182309D02*
G75*
G03*
X124447995Y-94747995I800007J3D01*
G01*
X109115685Y-76140685D02*
G75*
G03*
X109681371Y-76375000I565689J565692D01*
G01*
X129824455Y-89880890D02*
G75*
G03*
X129470902Y-89734443I-353555J-353557D01*
G01*
X99604425Y-60629789D02*
G75*
G02*
X99464252Y-60009496I645949J471955D01*
G01*
X124213680Y-77506371D02*
G75*
G03*
X123979365Y-76940685I-799995J2D01*
G01*
X102628185Y-67453185D02*
G75*
G03*
X103193871Y-67687500I565689J565692D01*
G01*
X131325000Y-91712808D02*
G75*
G03*
X131090685Y-91147122I-800007J-3D01*
G01*
X105146814Y-67921814D02*
G75*
G03*
X104581129Y-67687500I-565685J-565686D01*
G01*
X105690685Y-68465685D02*
G75*
G02*
X105925000Y-69031371I-565692J-565689D01*
G01*
X129329502Y-95301473D02*
G75*
G03*
X129895188Y-95067158I2J799995D01*
G01*
X102467400Y-67292400D02*
G75*
G02*
X102233086Y-66726715I565686J565685D01*
G01*
X131090686Y-93871660D02*
G75*
G03*
X131325000Y-93305975I-565686J565685D01*
G01*
X124767159Y-95067159D02*
G75*
G03*
X125332844Y-95301473I565685J565686D01*
G01*
X129824454Y-92420891D02*
X130313005Y-92909447D01*
X130313005Y-92909447D02*
X130313005Y-93656381D01*
X122705356Y-72827570D02*
X120333089Y-72827570D01*
X117579205Y-68408100D02*
X118508089Y-62977570D01*
X129313004Y-92274443D02*
X129470899Y-92274443D01*
X124663200Y-93718186D02*
X124663200Y-74785414D01*
X120333090Y-72827570D02*
X120333092Y-72827572D01*
X129074986Y-94894400D02*
X125839414Y-94894400D01*
X130020112Y-94363488D02*
X129782093Y-94601507D01*
X110133089Y-72827570D02*
X120333092Y-72827572D01*
X125132307Y-94601507D02*
X124956093Y-94425293D01*
X120333089Y-72827570D02*
X120333090Y-72827570D01*
X120233089Y-72727570D02*
X117705162Y-68991281D01*
X124370307Y-74078307D02*
X123412463Y-73120463D01*
X117705162Y-68991281D02*
G75*
G02*
X117579205Y-68408100I662596J448302D01*
G01*
X130313004Y-93656381D02*
G75*
G02*
X130020111Y-94363487I-999993J-3D01*
G01*
X124663201Y-93718186D02*
G75*
G03*
X124956094Y-94425292I999993J-3D01*
G01*
X129074986Y-94894399D02*
G75*
G03*
X129782092Y-94601506I3J999993D01*
G01*
X122705356Y-72827571D02*
G75*
G02*
X123412462Y-73120464I3J-999993D01*
G01*
X125839414Y-94894399D02*
G75*
G02*
X125132308Y-94601506I-3J999993D01*
G01*
X124663199Y-74785414D02*
G75*
G03*
X124370306Y-74078308I-999993J3D01*
G01*
X129470899Y-92274443D02*
G75*
G02*
X129824454Y-92420891I3J-499992D01*
G01*
X47341667Y-98134365D02*
X46428008Y-95148481D01*
X135953186Y-88825628D02*
X135951561Y-88904261D01*
X42837650Y-91563427D02*
X42633611Y-86002953D01*
X113802049Y-100022951D02*
X111584314Y-102240686D01*
X137965007Y-86559444D02*
X136185875Y-88338576D01*
X111018629Y-102475000D02*
X51881371Y-102475000D01*
X131699011Y-99788636D02*
X114367735Y-99788636D01*
X46428008Y-95148481D02*
X43099359Y-92126394D01*
X136131422Y-88395327D02*
X136044050Y-88526089D01*
X46428008Y-95148481D02*
X36665047Y-97312877D01*
X136185875Y-88338576D02*
X136131422Y-88395327D01*
X135951561Y-88904261D02*
X135951561Y-95536086D01*
X51315685Y-102240685D02*
X47540969Y-98465969D01*
X136044050Y-88526089D02*
X135983867Y-88671384D01*
X138453561Y-87048000D02*
X137965007Y-86559444D01*
X135951561Y-95536086D02*
X135950082Y-95614734D01*
X135919396Y-95769006D02*
X135859202Y-95914328D01*
X135983867Y-88671384D02*
X135953186Y-88825628D01*
X135859202Y-95914328D02*
X135771813Y-96045114D01*
X138965008Y-87194447D02*
X138807114Y-87194447D01*
X135950082Y-95614734D02*
X135919396Y-95769006D01*
X135717246Y-96101772D02*
X132264696Y-99554322D01*
X135771813Y-96045114D02*
X135717246Y-96101772D01*
X47341668Y-98134365D02*
G75*
G03*
X47540970Y-98465968I764989J234083D01*
G01*
X111584314Y-102240686D02*
G75*
G02*
X111018629Y-102475000I-565685J565686D01*
G01*
X51881371Y-102475000D02*
G75*
G02*
X51315685Y-102240685I-2J799995D01*
G01*
X42837650Y-91563427D02*
G75*
G03*
X43099359Y-92126394I799463J29336D01*
G01*
X138453561Y-87048000D02*
G75*
G03*
X138807114Y-87194447I353555J353557D01*
G01*
X113802049Y-100022951D02*
G75*
G02*
X114367735Y-99788636I565689J-565692D01*
G01*
X131699011Y-99788636D02*
G75*
G03*
X132264696Y-99554322I0J800000D01*
G01*
X101768149Y-85349520D02*
X89140884Y-85349519D01*
X138453558Y-76887996D02*
X137965009Y-76399444D01*
X105225960Y-90049601D02*
X105225960Y-88807331D01*
X130813009Y-76399446D02*
X133903965Y-79490402D01*
X112401710Y-97556722D02*
X105460274Y-90615286D01*
X64032667Y-81451296D02*
X64032667Y-80475662D01*
X60978837Y-76422822D02*
X61464463Y-70913107D01*
X104991645Y-88241645D02*
X102333834Y-85583834D01*
X130665115Y-97791038D02*
X112967396Y-97791037D01*
X64032667Y-80475662D02*
X54070720Y-81347220D01*
X138965008Y-77034444D02*
X138807114Y-77034444D01*
X64285688Y-82035688D02*
X64266981Y-82016981D01*
X85398626Y-82270003D02*
X64851374Y-82270003D01*
X88575198Y-85115204D02*
X85964311Y-82504317D01*
X133669650Y-95117874D02*
X131230800Y-97556724D01*
X64032667Y-80475662D02*
X61159380Y-77003054D01*
X133903965Y-79490402D02*
X133903965Y-94552188D01*
X85964311Y-82504317D02*
G75*
G03*
X85398626Y-82270003I-565685J-565686D01*
G01*
X64285688Y-82035688D02*
G75*
G03*
X64851374Y-82270003I565684J565680D01*
G01*
X64032667Y-81451296D02*
G75*
G03*
X64266981Y-82016981I800000J0D01*
G01*
X88575198Y-85115204D02*
G75*
G03*
X89140884Y-85349519I565689J565692D01*
G01*
X102333834Y-85583834D02*
G75*
G03*
X101768149Y-85349520I-565685J-565686D01*
G01*
X112401710Y-97556722D02*
G75*
G03*
X112967396Y-97791037I565684J565680D01*
G01*
X138453558Y-76887996D02*
G75*
G03*
X138807114Y-77034444I353554J353549D01*
G01*
X130665115Y-97791038D02*
G75*
G03*
X131230800Y-97556724I0J800000D01*
G01*
X104991645Y-88241645D02*
G75*
G02*
X105225960Y-88807331I-565692J-565689D01*
G01*
X105225960Y-90049601D02*
G75*
G03*
X105460274Y-90615286I800000J0D01*
G01*
X133669650Y-95117874D02*
G75*
G03*
X133903965Y-94552188I-565692J565689D01*
G01*
X60978838Y-76422822D02*
G75*
G03*
X61159380Y-77003054I796909J-70241D01*
G01*
X133307292Y-94888522D02*
X133252725Y-94945180D01*
X133487040Y-94379494D02*
X133485561Y-94458142D01*
X84244389Y-77858851D02*
X81668719Y-74223425D01*
X105625480Y-89884116D02*
X105625479Y-88621856D01*
X133485415Y-81096218D02*
X133487040Y-81174851D01*
X133485561Y-94458142D02*
X133454875Y-94612414D01*
X129313008Y-77034445D02*
X129470900Y-77034445D01*
X130553648Y-97389894D02*
X130475015Y-97391519D01*
X133252725Y-94945180D02*
X131040700Y-97157205D01*
X129824456Y-77180893D02*
X130313006Y-77669446D01*
X130983949Y-97211658D02*
X130853187Y-97299030D01*
X81533979Y-73620136D02*
X82519389Y-68108851D01*
X131040700Y-97157205D02*
X130983949Y-97211658D01*
X130475015Y-97391519D02*
X113132883Y-97391518D01*
X133394551Y-80796679D02*
X133454734Y-80941974D01*
X133252726Y-80609166D02*
X133307179Y-80665917D01*
X133487040Y-81174851D02*
X133487040Y-94379494D01*
X133307179Y-80665917D02*
X133394551Y-80796679D01*
X133394681Y-94757736D02*
X133307292Y-94888522D01*
X101953623Y-84950000D02*
X89306371Y-84950000D01*
X105391164Y-88056170D02*
X102519308Y-85184314D01*
X84244389Y-79888018D02*
X84244389Y-77858851D01*
X130707892Y-97359213D02*
X130553648Y-97389894D01*
X88740685Y-84715685D02*
X84478703Y-80453703D01*
X130853187Y-97299030D02*
X130707892Y-97359213D01*
X133454875Y-94612414D02*
X133394681Y-94757736D01*
X130313006Y-77669446D02*
X133252726Y-80609166D01*
X133454734Y-80941974D02*
X133485415Y-81096218D01*
X112567197Y-97157203D02*
X105859794Y-90449800D01*
X84244389Y-77858851D02*
X74244389Y-77858851D01*
X81533979Y-73620136D02*
G75*
G03*
X81668719Y-74223425I787512J-140806D01*
G01*
X102519308Y-85184314D02*
G75*
G03*
X101953623Y-84950000I-565685J-565686D01*
G01*
X105391164Y-88056170D02*
G75*
G02*
X105625479Y-88621856I-565692J-565689D01*
G01*
X129824456Y-77180893D02*
G75*
G03*
X129470900Y-77034445I-353554J-353549D01*
G01*
X88740685Y-84715685D02*
G75*
G03*
X89306371Y-84950000I565689J565692D01*
G01*
X105625480Y-89884116D02*
G75*
G03*
X105859794Y-90449800I799995J-1D01*
G01*
X84478703Y-80453703D02*
G75*
G02*
X84244389Y-79888018I565686J565685D01*
G01*
X112567197Y-97157203D02*
G75*
G03*
X113132883Y-97391518I565684J565680D01*
G01*
X129824454Y-79720891D02*
X130313007Y-80209443D01*
X112732684Y-96757684D02*
X106259314Y-90284314D01*
X130313007Y-80209443D02*
X132803206Y-82699642D01*
X133005214Y-83032450D02*
X133035895Y-83186694D01*
X133035895Y-83186694D02*
X133037520Y-83265327D01*
X99441334Y-77029752D02*
X100508093Y-71477564D01*
X132803206Y-82699642D02*
X132857659Y-82756393D01*
X132857659Y-82756393D02*
X132945031Y-82887155D01*
X106025000Y-89718629D02*
X106025000Y-88456371D01*
X130193129Y-96991999D02*
X113298370Y-96991999D01*
X102233093Y-81227564D02*
X99584465Y-77657348D01*
X132803205Y-94713294D02*
X130758814Y-96757685D01*
X133037520Y-83265327D02*
X133037520Y-94147608D01*
X102233093Y-84001722D02*
X102233093Y-81227564D01*
X132945031Y-82887155D02*
X133005214Y-83032450D01*
X105790685Y-87890685D02*
X102467407Y-84567407D01*
X129313006Y-79574444D02*
X129470902Y-79574444D01*
X92133084Y-81327568D02*
X102333101Y-81327570D01*
X130193129Y-96991999D02*
G75*
G03*
X130758814Y-96757685I0J800000D01*
G01*
X129824454Y-79720891D02*
G75*
G03*
X129470902Y-79574444I-353551J-353545D01*
G01*
X106025000Y-89718629D02*
G75*
G03*
X106259314Y-90284314I800000J0D01*
G01*
X102233093Y-84001722D02*
G75*
G03*
X102467407Y-84567407I800000J0D01*
G01*
X132803205Y-94713294D02*
G75*
G03*
X133037520Y-94147608I-565680J565684D01*
G01*
X99584465Y-77657348D02*
G75*
G02*
X99441334Y-77029752I642506J476651D01*
G01*
X112732684Y-96757684D02*
G75*
G03*
X113298370Y-96991999I565684J565680D01*
G01*
X106025000Y-88456371D02*
G75*
G03*
X105790685Y-87890685I-799995J2D01*
G01*
X129313008Y-82114446D02*
X129470904Y-82114446D01*
X132408252Y-94516127D02*
X132383873Y-94516127D01*
X129824459Y-82260893D02*
X130313007Y-82749441D01*
X132586521Y-94085747D02*
X132555835Y-94240019D01*
X132555694Y-85122928D02*
X132586375Y-85277172D01*
X132495511Y-84977633D02*
X132555694Y-85122928D01*
X132588000Y-94007099D02*
X132586521Y-94085747D01*
X110133096Y-89827567D02*
X120333090Y-89827568D01*
X130313007Y-82749441D02*
X132353686Y-84790120D01*
X132588000Y-85355805D02*
X132588000Y-94007099D01*
X132383873Y-94516127D02*
X130609314Y-96290686D01*
X132408139Y-84846871D02*
X132495511Y-84977633D01*
X124290685Y-96290685D02*
X120467407Y-92467407D01*
X120233093Y-89727569D02*
X117797160Y-86082609D01*
X117671268Y-85518633D02*
X118508093Y-79977569D01*
X132353686Y-84790120D02*
X132408139Y-84846871D01*
X130043629Y-96525000D02*
X124856371Y-96525000D01*
X132495641Y-94385341D02*
X132408252Y-94516127D01*
X132555835Y-94240019D02*
X132495641Y-94385341D01*
X132586375Y-85277172D02*
X132588000Y-85355805D01*
X120233093Y-91901722D02*
X120233093Y-89727569D01*
X120467407Y-92467407D02*
G75*
G02*
X120233093Y-91901722I565686J565685D01*
G01*
X130043629Y-96525000D02*
G75*
G03*
X130609314Y-96290686I0J800000D01*
G01*
X117671268Y-85518633D02*
G75*
G03*
X117797160Y-86082609I791028J-119464D01*
G01*
X129824459Y-82260893D02*
G75*
G03*
X129470904Y-82114446I-353553J-353550D01*
G01*
X124290685Y-96290685D02*
G75*
G03*
X124856371Y-96525000I565684J565680D01*
G01*
X135644533Y-86385606D02*
X135584350Y-86530901D01*
X135553669Y-86685145D02*
X135552044Y-86763778D01*
X135731905Y-86254844D02*
X135644533Y-86385606D01*
X138453561Y-84508000D02*
X137965005Y-84019446D01*
X131911554Y-99296360D02*
X131766314Y-99356521D01*
X135550418Y-95449233D02*
X135519736Y-95603477D01*
X110853143Y-102075480D02*
X67931851Y-102075480D01*
X113636562Y-99623432D02*
X111418828Y-101841166D01*
X65841443Y-100076562D02*
X65514315Y-97410970D01*
X135552043Y-95370600D02*
X135550418Y-95449233D01*
X131612128Y-99387190D02*
X131533525Y-99389116D01*
X62547630Y-93503829D02*
X62946111Y-87848415D01*
X131766314Y-99356521D02*
X131612128Y-99387190D01*
X135786358Y-86198093D02*
X135731905Y-86254844D01*
X135459553Y-95748771D02*
X135372181Y-95879533D01*
X135519736Y-95603477D02*
X135459553Y-95748771D01*
X135317727Y-95936285D02*
X132099210Y-99154802D01*
X135584350Y-86530901D02*
X135553669Y-86685145D01*
X132042267Y-99209021D02*
X131911554Y-99296360D01*
X65514315Y-97410970D02*
X55552368Y-98282528D01*
X135372181Y-95879533D02*
X135317727Y-95936285D01*
X132099210Y-99154802D02*
X132042267Y-99209021D01*
X137965005Y-84019446D02*
X135786358Y-86198093D01*
X138965007Y-84654447D02*
X138807110Y-84654446D01*
X131533525Y-99389116D02*
X114202248Y-99389117D01*
X135552044Y-86763778D02*
X135552043Y-95370600D01*
X65514315Y-97410970D02*
X62731159Y-94072307D01*
X67366165Y-101841165D02*
X66069800Y-100544800D01*
X114202248Y-99389117D02*
G75*
G03*
X113636562Y-99623432I-2J-799995D01*
G01*
X111418828Y-101841166D02*
G75*
G02*
X110853143Y-102075480I-565685J565686D01*
G01*
X62731159Y-94072307D02*
G75*
G02*
X62547631Y-93503829I614494J512249D01*
G01*
X65841444Y-100076562D02*
G75*
G03*
X66069801Y-100544799I794043J97447D01*
G01*
X67931851Y-102075480D02*
G75*
G02*
X67366165Y-101841165I-2J799995D01*
G01*
X138453561Y-84508000D02*
G75*
G03*
X138807110Y-84654446I353554J353558D01*
G01*
X135154149Y-84544672D02*
X135152524Y-84623305D01*
X131446672Y-98987971D02*
X131368039Y-98989596D01*
X131933724Y-98755282D02*
X131876973Y-98809735D01*
X135245013Y-84245133D02*
X135184830Y-84390428D01*
X137965011Y-81479447D02*
X135386838Y-84057620D01*
X134918208Y-95770798D02*
X131933724Y-98755282D01*
X110687657Y-101675960D02*
X85632331Y-101675960D01*
X113471075Y-99223913D02*
X111253342Y-101441646D01*
X84244382Y-94858862D02*
X74244382Y-94858862D01*
X138965008Y-82114444D02*
X138807116Y-82114444D01*
X135332385Y-84114371D02*
X135245013Y-84245133D01*
X135386838Y-84057620D02*
X135332385Y-84114371D01*
X138453563Y-81967998D02*
X137965011Y-81479447D01*
X131600916Y-98957290D02*
X131446672Y-98987971D01*
X135060033Y-95583285D02*
X134972661Y-95714047D01*
X85066645Y-101441645D02*
X84478696Y-100853696D01*
X135152524Y-84623305D02*
X135152523Y-95205113D01*
X131368039Y-98989596D02*
X114036761Y-98989598D01*
X134972661Y-95714047D02*
X134918208Y-95770798D01*
X84244382Y-100288011D02*
X84244382Y-94858862D01*
X135152523Y-95205113D02*
X135150898Y-95283746D01*
X131746211Y-98897107D02*
X131600916Y-98957290D01*
X81534301Y-90500432D02*
X82519382Y-85108862D01*
X84244382Y-94858862D02*
X81661743Y-91097008D01*
X135184830Y-84390428D02*
X135154149Y-84544672D01*
X135150898Y-95283746D02*
X135120216Y-95437990D01*
X135120216Y-95437990D02*
X135060033Y-95583285D01*
X131876973Y-98809735D02*
X131746211Y-98897107D01*
X84478696Y-100853696D02*
G75*
G02*
X84244382Y-100288011I565686J565685D01*
G01*
X138453563Y-81967998D02*
G75*
G03*
X138807116Y-82114444I353553J353556D01*
G01*
X81534302Y-90500432D02*
G75*
G03*
X81661744Y-91097008I786979J-143784D01*
G01*
X114036761Y-98989598D02*
G75*
G03*
X113471075Y-99223913I-2J-799995D01*
G01*
X111253342Y-101441646D02*
G75*
G02*
X110687657Y-101675960I-565685J565686D01*
G01*
X85066645Y-101441645D02*
G75*
G03*
X85632331Y-101675960I565689J565692D01*
G01*
X134987318Y-81917135D02*
X134932865Y-81973886D01*
X134753004Y-95039625D02*
X134751379Y-95118258D01*
X102233093Y-98227566D02*
X99795813Y-94557229D01*
X134518689Y-95605311D02*
X131768238Y-98355762D01*
X138453560Y-79427998D02*
X137965007Y-78939446D01*
X113305591Y-98824391D02*
X111087856Y-101042126D01*
X134845493Y-82104648D02*
X134785310Y-82249943D01*
X134573142Y-95548560D02*
X134518689Y-95605311D01*
X134932865Y-81973886D02*
X134845493Y-82104648D01*
X99671303Y-93994713D02*
X100508093Y-88477566D01*
X102892125Y-101042125D02*
X102467407Y-100617407D01*
X134720697Y-95272502D02*
X134660514Y-95417797D01*
X131202553Y-98590076D02*
X113871277Y-98590076D01*
X134751379Y-95118258D02*
X134720697Y-95272502D01*
X92133086Y-98327574D02*
X102333085Y-98327565D01*
X102233093Y-100051722D02*
X102233093Y-98227566D01*
X134753004Y-82482820D02*
X134753004Y-95039625D01*
X134660514Y-95417797D02*
X134573142Y-95548560D01*
X134785310Y-82249943D02*
X134754629Y-82404187D01*
X110522171Y-101276440D02*
X103457811Y-101276440D01*
X137965007Y-78939446D02*
X134987318Y-81917135D01*
X134754629Y-82404187D02*
X134753004Y-82482820D01*
X138965007Y-79574444D02*
X138807114Y-79574444D01*
X111087856Y-101042126D02*
G75*
G02*
X110522171Y-101276440I-565685J565686D01*
G01*
X102233093Y-100051722D02*
G75*
G03*
X102467407Y-100617407I800000J0D01*
G01*
X131202553Y-98590076D02*
G75*
G03*
X131768238Y-98355762I0J800000D01*
G01*
X138807114Y-79574443D02*
G75*
G02*
X138453560Y-79427998I-1J500001D01*
G01*
X113871277Y-98590076D02*
G75*
G03*
X113305591Y-98824391I-2J-799995D01*
G01*
X99671304Y-93994713D02*
G75*
G03*
X99795813Y-94557229I790959J-119963D01*
G01*
X102892125Y-101042125D02*
G75*
G03*
X103457811Y-101276440I565689J565692D01*
G01*
X136352706Y-90966107D02*
X136351081Y-91044740D01*
X120143514Y-102042724D02*
X120054238Y-102194300D01*
X116262850Y-118234457D02*
X116184878Y-118229326D01*
X118251190Y-117253897D02*
X116636582Y-118134591D01*
X138965009Y-89734442D02*
X138807116Y-89734443D01*
X116418169Y-118217430D02*
X116262850Y-118234457D01*
X118439568Y-117114624D02*
X118319210Y-117214975D01*
X110574782Y-117746319D02*
X108356639Y-113733382D01*
X120263656Y-101914227D02*
X120143514Y-102042724D01*
X136318915Y-95934493D02*
X136258721Y-96079815D01*
X136351081Y-91044740D02*
X136351080Y-95701573D01*
X136383387Y-90811863D02*
X136352706Y-90966107D01*
X116567242Y-118170618D02*
X116418169Y-118217430D01*
X136116765Y-96267259D02*
X132430182Y-99953842D01*
X120335202Y-101863029D02*
X120263656Y-101914227D01*
X136171332Y-96210601D02*
X136116765Y-96267259D01*
X110574782Y-117746319D02*
X100612835Y-116874761D01*
X138453559Y-89587996D02*
X137965007Y-89099443D01*
X118655751Y-116703910D02*
X118611111Y-116854122D01*
X136351080Y-95701573D02*
X136349601Y-95780221D01*
X119990028Y-102449078D02*
X118664635Y-116626047D01*
X120054238Y-102194300D02*
X120000113Y-102361680D01*
X136585395Y-90479055D02*
X136530942Y-90535806D01*
X116636582Y-118134591D02*
X116567242Y-118170618D01*
X136530942Y-90535806D02*
X136443570Y-90666568D01*
X118319210Y-117214975D02*
X118251190Y-117253897D01*
X136258721Y-96079815D02*
X136171332Y-96210601D01*
X116184878Y-118229326D02*
X110574782Y-117746319D01*
X118664635Y-116626047D02*
X118655751Y-116703910D01*
X136443570Y-90666568D02*
X136383387Y-90811863D01*
X120000113Y-102361680D02*
X119990028Y-102449078D01*
X136349601Y-95780221D02*
X136318915Y-95934493D01*
X118538122Y-116992790D02*
X118439568Y-117114624D01*
X108284561Y-113137445D02*
X109706114Y-107883077D01*
X118611111Y-116854122D02*
X118538122Y-116992790D01*
X121775760Y-100422471D02*
X120335202Y-101863029D01*
X131864497Y-100188156D02*
X122341446Y-100188156D01*
X137965007Y-89099443D02*
X136585395Y-90479055D01*
X138453559Y-89587996D02*
G75*
G03*
X138807116Y-89734443I353554J353555D01*
G01*
X121775760Y-100422471D02*
G75*
G02*
X122341446Y-100188156I565689J-565692D01*
G01*
X108284562Y-113137445D02*
G75*
G03*
X108356640Y-113733382I772237J-208926D01*
G01*
X132430182Y-99953842D02*
G75*
G02*
X131864497Y-100188156I-565685J565686D01*
G01*
X136930462Y-92433836D02*
X136843090Y-92564598D01*
X120758821Y-115352450D02*
X123952466Y-115352450D01*
X136752226Y-92864137D02*
X136750601Y-92942770D01*
X124824024Y-105390503D02*
X123952466Y-115352450D01*
X119325000Y-114001472D02*
X119326754Y-114080233D01*
X120380649Y-115259961D02*
X120525944Y-115320144D01*
X128434412Y-113104316D02*
X133815708Y-114483782D01*
X138833817Y-92274446D02*
X138965006Y-92274446D01*
X132029983Y-100587676D02*
X122543695Y-100587676D01*
X137668000Y-91694000D02*
X136984915Y-92377085D01*
X136782907Y-92709893D02*
X136752226Y-92864137D01*
X121978009Y-100821991D02*
X120411247Y-102388753D01*
X119325000Y-113854568D02*
X119325000Y-114001472D01*
X123952466Y-115352450D02*
X127846047Y-113180601D01*
X136718436Y-96099978D02*
X136658242Y-96245300D01*
X119500736Y-114425736D02*
X120193136Y-115118136D01*
X120249887Y-115172589D02*
X120380649Y-115259961D01*
X120680188Y-115350825D02*
X120758821Y-115352450D01*
X120193136Y-115118136D02*
X120249887Y-115172589D01*
X136749122Y-95945706D02*
X136718436Y-96099978D01*
X120392453Y-102446872D02*
X120387411Y-102490566D01*
X120411247Y-102388753D02*
X120392453Y-102446872D01*
X119326754Y-114080233D02*
X119367524Y-114232386D01*
X136750601Y-95867058D02*
X136749122Y-95945706D01*
X120525944Y-115320144D02*
X120680188Y-115350825D01*
X119367524Y-114232386D02*
X119446284Y-114368803D01*
X136843090Y-92564598D02*
X136782907Y-92709893D01*
X136984915Y-92377085D02*
X136930462Y-92433836D01*
X136658242Y-96290788D02*
X132595668Y-100353362D01*
X137922000Y-91694000D02*
X138268132Y-92040132D01*
X136658242Y-96245300D02*
X136658242Y-96290788D01*
X136750601Y-92942770D02*
X136750601Y-95867058D01*
X120387411Y-102490566D02*
X119325000Y-113854568D01*
X119446284Y-114368803D02*
X119500736Y-114425736D01*
X137922000Y-91694000D02*
X137668000Y-91694000D01*
X138268132Y-92040132D02*
G75*
G03*
X138833817Y-92274446I565685J565686D01*
G01*
X128434412Y-113104317D02*
G75*
G03*
X127846047Y-113180602I-198652J-774940D01*
G01*
X121978009Y-100821991D02*
G75*
G02*
X122543695Y-100587676I565689J-565692D01*
G01*
X132029983Y-100587676D02*
G75*
G03*
X132595668Y-100353362I0J800000D01*
G01*
X129459455Y-70465891D02*
X130313008Y-71319445D01*
X129313008Y-69414445D02*
X129313009Y-70112339D01*
X129313009Y-70112339D02*
G75*
G03*
X129459455Y-70465891I499997J0D01*
G01*
X138965008Y-67072337D02*
X138965008Y-66874448D01*
X137465008Y-68779446D02*
X138818562Y-67425890D01*
X138818562Y-67425890D02*
G75*
G03*
X138965008Y-67072337I-353556J353553D01*
G01*
X138965009Y-64667337D02*
X138965010Y-64334446D01*
X136965009Y-66874444D02*
X138818563Y-65020889D01*
X138818563Y-65020889D02*
G75*
G03*
X138965009Y-64667337I-353551J353552D01*
G01*
D28*
X51994307Y-82460505D02*
X51048217Y-81184717D01*
X57753079Y-66068134D02*
X52031706Y-66385766D01*
X109177569Y-91827569D02*
X106958093Y-89608093D01*
X33233286Y-96765155D02*
X31833559Y-90650682D01*
X97469024Y-115962217D02*
X98008323Y-109068056D01*
X31758466Y-82481387D02*
X30158485Y-81087344D01*
X97233093Y-100327566D02*
X91298886Y-100327566D01*
X72369511Y-79519511D02*
X71408729Y-78558729D01*
X115233089Y-74827570D02*
X109698890Y-74827570D01*
X70969389Y-77498069D02*
X70969389Y-70308851D01*
X72194522Y-96519522D02*
X71408722Y-95733722D01*
X35662698Y-99125158D02*
X33758421Y-97601736D01*
D29*
X133543937Y-63644811D02*
X134147491Y-63041258D01*
D28*
X88958086Y-62911766D02*
X88958086Y-56677567D01*
X50845404Y-65904462D02*
X49622204Y-64576843D01*
X72719511Y-62519511D02*
X71408733Y-61208733D01*
D29*
X129459456Y-68060894D02*
X130813008Y-69414444D01*
D28*
X79244389Y-79958851D02*
X73430171Y-79958851D01*
D29*
X129313008Y-66874446D02*
X129313009Y-67707340D01*
D28*
X98794542Y-118357486D02*
X97762940Y-116977173D01*
X90563224Y-82888224D02*
X89397433Y-81722433D01*
X106958093Y-89608093D02*
X106958093Y-82177569D01*
X51631805Y-96185485D02*
X51631805Y-91046693D01*
X50760000Y-80435215D02*
X50150157Y-74111385D01*
X115233093Y-91827569D02*
X109177569Y-91827569D01*
D29*
X132037727Y-68189723D02*
X130813008Y-69414444D01*
X133397491Y-64191258D02*
X133397490Y-63998368D01*
X138965008Y-69477338D02*
X138965008Y-69414446D01*
D28*
X29686909Y-80313177D02*
X28154083Y-74053656D01*
X42001051Y-98280900D02*
X36927679Y-99417568D01*
X88958093Y-97986773D02*
X88958093Y-90677566D01*
X97233093Y-83327564D02*
X91623884Y-83327564D01*
X38321575Y-81683874D02*
X33059573Y-82816839D01*
X59234721Y-83003450D02*
X53214981Y-83066933D01*
D29*
X133251039Y-64842422D02*
X132330619Y-65762842D01*
D28*
X49230920Y-63689491D02*
X48668515Y-57176069D01*
D29*
X138965008Y-69414446D02*
X138965007Y-71954443D01*
D28*
X97233086Y-66327567D02*
X92373887Y-66327567D01*
X122296236Y-110188449D02*
X122742797Y-104229706D01*
D29*
X123151530Y-103590453D02*
X125436981Y-102318550D01*
D28*
X70969393Y-60148073D02*
X70969393Y-53308851D01*
X88958093Y-80661773D02*
X88958093Y-73677564D01*
X54324418Y-99499418D02*
X52071145Y-97246145D01*
D29*
X138023600Y-70459600D02*
X138188417Y-70459600D01*
D28*
X106958089Y-72086769D02*
X106958089Y-65177570D01*
X108638230Y-74388230D02*
X107397429Y-73147429D01*
X91313227Y-65888227D02*
X89397426Y-63972426D01*
X79244393Y-62958851D02*
X73780171Y-62958851D01*
X105410781Y-119402549D02*
X99875080Y-118954624D01*
X60716369Y-99938758D02*
X55385078Y-99938758D01*
X70969382Y-94673062D02*
X70969382Y-87308862D01*
D29*
X132184173Y-66116395D02*
X132184173Y-67836170D01*
X138188417Y-70459600D02*
X138864295Y-69783722D01*
D28*
X79244382Y-96958862D02*
X73255182Y-96958862D01*
D29*
X125892931Y-102220393D02*
X132630729Y-102785991D01*
D28*
X90238226Y-99888226D02*
X89397433Y-99047433D01*
D29*
X133397486Y-64191255D02*
X133397486Y-64488868D01*
D28*
X29686909Y-80313177D02*
G75*
G03*
X30158485Y-81087344I1456946J356773D01*
G01*
D29*
X132184172Y-67836170D02*
G75*
G02*
X132037727Y-68189723I-500001J0D01*
G01*
D28*
X91313227Y-65888227D02*
G75*
G03*
X92373887Y-66327567I1060661J1060662D01*
G01*
X70969390Y-77498069D02*
G75*
G03*
X71408730Y-78558728I1500001J1D01*
G01*
X50760001Y-80435215D02*
G75*
G03*
X51048218Y-81184717I1493080J143989D01*
G01*
X88958094Y-80661773D02*
G75*
G03*
X89397434Y-81722432I1500001J1D01*
G01*
X90238226Y-99888226D02*
G75*
G03*
X91298886Y-100327566I1060661J1060662D01*
G01*
X89397433Y-99047433D02*
G75*
G02*
X88958093Y-97986773I1060662J1060661D01*
G01*
X107397429Y-73147429D02*
G75*
G02*
X106958089Y-72086769I1060662J1060661D01*
G01*
X89397426Y-63972426D02*
G75*
G02*
X88958086Y-62911766I1060662J1060661D01*
G01*
D29*
X133397486Y-64488868D02*
G75*
G02*
X133251039Y-64842422I-499997J-1D01*
G01*
X122742797Y-104229706D02*
G75*
G02*
X123151530Y-103590453I797764J-59787D01*
G01*
X132184174Y-66116395D02*
G75*
G02*
X132330619Y-65762842I500001J0D01*
G01*
D28*
X73780171Y-62958850D02*
G75*
G02*
X72719512Y-62519510I1J1500001D01*
G01*
X73430171Y-79958850D02*
G75*
G02*
X72369512Y-79519510I1J1500001D01*
G01*
D29*
X133543937Y-63644811D02*
G75*
G03*
X133397490Y-63998368I353555J-353554D01*
G01*
D28*
X33758421Y-97601736D02*
G75*
G02*
X33233286Y-96765155I937038J1171302D01*
G01*
X72194522Y-96519522D02*
G75*
G03*
X73255182Y-96958862I1060661J1060662D01*
G01*
X97762940Y-116977173D02*
G75*
G02*
X97469024Y-115962217I1201517J897976D01*
G01*
D29*
X125436981Y-102318551D02*
G75*
G02*
X125892931Y-102220394I389030J-699040D01*
G01*
D28*
X52031706Y-66385766D02*
G75*
G02*
X50845404Y-65904462I-83147J1497693D01*
G01*
X35662699Y-99125157D02*
G75*
G03*
X36927679Y-99417567I937042J1171302D01*
G01*
X91623884Y-83327563D02*
G75*
G02*
X90563225Y-82888223I1J1500001D01*
G01*
X53214981Y-83066933D02*
G75*
G02*
X51994307Y-82460505I-15817J1499919D01*
G01*
X108638230Y-74388230D02*
G75*
G03*
X109698890Y-74827570I1060661J1060662D01*
G01*
X49622204Y-64576843D02*
G75*
G02*
X49230921Y-63689491I1103166J1016394D01*
G01*
D29*
X138965007Y-69477338D02*
G75*
G02*
X138864294Y-69783722I-532926J5436D01*
G01*
D28*
X71408733Y-61208733D02*
G75*
G02*
X70969393Y-60148073I1060662J1060661D01*
G01*
X31758466Y-82481387D02*
G75*
G03*
X33059573Y-82816839I985376J1130939D01*
G01*
X99875080Y-118954624D02*
G75*
G02*
X98794542Y-118357486I120976J1495110D01*
G01*
X71408722Y-95733722D02*
G75*
G02*
X70969382Y-94673062I1060662J1060661D01*
G01*
X54324418Y-99499418D02*
G75*
G03*
X55385078Y-99938758I1060661J1060662D01*
G01*
X52071145Y-97246145D02*
G75*
G02*
X51631805Y-96185485I1060662J1060661D01*
G01*
D29*
X129459456Y-68060894D02*
G75*
G02*
X129313009Y-67707340I353550J353553D01*
G01*
X130621387Y-73055717D02*
X131937176Y-73055717D01*
X132290730Y-73202164D02*
X132313009Y-73224443D01*
X130267833Y-72909270D02*
X129313009Y-71954446D01*
X130621387Y-73055717D02*
G75*
G02*
X130267833Y-72909270I-1J499997D01*
G01*
X132290730Y-73202164D02*
G75*
G03*
X131937176Y-73055717I-353553J-353550D01*
G01*
D27*
X136397486Y-64191255D02*
X136397486Y-64678869D01*
X136251040Y-65032422D02*
X135419174Y-65864289D01*
X133153388Y-68461446D02*
X133153388Y-70866000D01*
X135419174Y-65864289D02*
X133387702Y-67895761D01*
X133387702Y-67895761D02*
G75*
G03*
X133153388Y-68461446I565686J-565685D01*
G01*
X136251040Y-65032422D02*
G75*
G03*
X136397486Y-64678869I-353556J353553D01*
G01*
D29*
X129313007Y-65302340D02*
X129313008Y-64334444D01*
X131313008Y-67509445D02*
X129459454Y-65655894D01*
X135382000Y-70825000D02*
X135423000Y-70866000D01*
X135382000Y-67691000D02*
X135382000Y-70825000D01*
X129459454Y-65655894D02*
G75*
G02*
X129313007Y-65302340I353550J353553D01*
G01*
D27*
X129824448Y-74640890D02*
X130313007Y-75129443D01*
X129313008Y-74494443D02*
X129470902Y-74494445D01*
X129470902Y-74494446D02*
G75*
G02*
X129824447Y-74640891I-5J-499998D01*
G01*
M02*
