M48
; DRILL file {KiCad 6.0.0-d3dd2cf0fa~116~ubuntu20.04.1} date Wed 05 Jan 2022 11:59:24 PM EST
; FORMAT={-:-/ absolute / inch / decimal}
; #@! TF.CreationDate,2022-01-05T23:59:24-05:00
; #@! TF.GenerationSoftware,Kicad,Pcbnew,6.0.0-d3dd2cf0fa~116~ubuntu20.04.1
; #@! TF.FileFunction,Plated,1,2,PTH
FMAT,2
INCH
; #@! TA.AperFunction,Plated,PTH,ViaDrill
T1C0.0157
; #@! TA.AperFunction,Plated,PTH,ComponentDrill
T2C0.0320
; #@! TA.AperFunction,Plated,PTH,ComponentDrill
T3C0.0500
%
G90
G05
T1
X5.1304Y-3.6579
X5.1304Y-3.0579
X5.1304Y-2.9579
X5.1304Y-3.1579
X5.1304Y-3.2579
X5.1304Y-3.4579
X5.1304Y-2.8079
X5.1304Y-3.5579
X5.1304Y-3.3579
X5.1501Y-2.7329
X5.1501Y-3.0079
X5.1698Y-2.6579
X5.2092Y-2.8829
X5.2423Y-2.79
X5.2814Y-2.4268
X5.2814Y-2.4819
X5.33Y-2.665
X5.3315Y-2.5931
X5.3316Y-2.79
X5.3923Y-2.6329
X5.412Y-2.7079
X5.43Y-3.61
X5.4317Y-3.3079
X5.4317Y-3.1079
X5.4317Y-3.4079
X5.4317Y-3.5079
X5.4317Y-2.9079
X5.4317Y-3.0079
X5.4317Y-3.2079
X5.434Y-2.774
T2
X4.9811Y-2.5329
X4.9811Y-2.6329
X4.9811Y-2.7329
X4.9811Y-2.8329
X4.9811Y-2.9329
X4.9811Y-3.0329
X4.9811Y-3.1329
X4.9811Y-3.2329
X4.9811Y-3.3329
X4.9811Y-3.4329
X4.9811Y-3.5329
X4.9811Y-3.6329
X5.5811Y-2.5329
X5.5811Y-2.6329
X5.5811Y-2.7329
X5.5811Y-2.8329
X5.5811Y-2.9329
X5.5811Y-3.0329
X5.5811Y-3.1329
X5.5811Y-3.2329
X5.5811Y-3.3329
X5.5811Y-3.4329
X5.5811Y-3.5329
X5.5811Y-3.6329
T3
X1.2986Y-3.1778
X1.4435Y-3.8312
X1.5087Y-3.2159
X1.6536Y-3.8693
X1.683Y-3.0926
X1.8279Y-3.746
X2.0704Y-2.5359
X2.1288Y-3.2026
X2.1871Y-3.8694
X2.2737Y-2.6011
X2.3321Y-3.2679
X2.3904Y-3.9346
X2.4626Y-2.5016
X2.521Y-3.1683
X2.5793Y-3.8351
X2.9224Y-2.396
X2.9224Y-3.0653
X2.9224Y-3.7346
X3.1193Y-2.4787
X3.1193Y-3.148
X3.1193Y-3.8173
X3.3161Y-2.396
X3.3161Y-3.0653
X3.3161Y-3.7346
X3.6312Y-2.5286
X3.6312Y-3.1979
X3.6312Y-3.8672
X3.8281Y-2.6113
X3.8281Y-3.2806
X3.8281Y-3.9499
X3.9611Y-4.6014
X4.0249Y-2.5286
X4.0249Y-3.1979
X4.0249Y-3.8672
X4.15Y-4.7009
X4.3399Y-2.8633
X4.3399Y-3.5326
X4.3533Y-4.6357
X4.5367Y-2.946
X4.5367Y-3.6153
X4.7336Y-2.8633
X4.7336Y-3.5326
X4.8148Y-4.3381
X4.88Y-4.5414
X4.9143Y-4.1492
T0
M30
