G04 #@! TF.GenerationSoftware,KiCad,Pcbnew,6.0.0-d3dd2cf0fa~116~ubuntu20.04.1*
G04 #@! TF.CreationDate,2022-01-06T00:11:30-05:00*
G04 #@! TF.ProjectId,34_hs,33345f68-732e-46b6-9963-61645f706362,0.1*
G04 #@! TF.SameCoordinates,Original*
G04 #@! TF.FileFunction,Profile,NP*
%FSLAX46Y46*%
G04 Gerber Fmt 4.6, Leading zero omitted, Abs format (unit mm)*
G04 Created by KiCad (PCBNEW 6.0.0-d3dd2cf0fa~116~ubuntu20.04.1) date 2022-01-06 00:11:30*
%MOMM*%
%LPD*%
G01*
G04 APERTURE LIST*
G04 #@! TA.AperFunction,Profile*
%ADD10C,0.150000*%
G04 #@! TD*
G04 APERTURE END LIST*
D10*
X24638000Y-64770000D02*
G75*
G03*
X23622000Y-66802000I993360J-1766680D01*
G01*
X128270000Y-125730000D02*
G75*
G03*
X143525000Y-118110000I5220247J8629245D01*
G01*
X49525000Y-116525001D02*
G75*
G03*
X43225000Y-115450000I-4100846J-5034897D01*
G01*
X71125000Y-118725000D02*
G75*
G03*
X83200000Y-119200000I6482290J11069540D01*
G01*
X34120000Y-114215000D02*
X23622000Y-66802000D01*
X143525000Y-92675000D02*
X143510000Y-52933556D01*
X70231000Y-48514000D02*
G75*
G03*
X47498000Y-52451000I1237825J-74748313D01*
G01*
X128270000Y-125730000D02*
X122900000Y-122700000D01*
X143525000Y-118110000D02*
X143525000Y-92675000D01*
X143510001Y-52933556D02*
G75*
G03*
X142175000Y-51700000I-1379985J-154299D01*
G01*
X40005000Y-116840000D02*
X43225000Y-115450000D01*
X95275000Y-121150000D02*
G75*
G03*
X83200000Y-119200000I-7550009J-8390920D01*
G01*
X47498000Y-52451001D02*
G75*
G03*
X24638000Y-64770000I50607609J-121280836D01*
G01*
X95275000Y-121150000D02*
G75*
G03*
X109150000Y-121900000I7521096J10421522D01*
G01*
X88265000Y-48514000D02*
G75*
G03*
X124225000Y-51700000I34699633J187119497D01*
G01*
X34119999Y-114215000D02*
G75*
G03*
X40005000Y-116840000I4097560J1277033D01*
G01*
X49525000Y-116525001D02*
G75*
G03*
X59675000Y-117975000I6497635J9233449D01*
G01*
X122900000Y-122700000D02*
G75*
G03*
X109150000Y-121900000I-7621647J-12432997D01*
G01*
X88265000Y-48514000D02*
G75*
G03*
X70231000Y-48514000I-9017000J-225334830D01*
G01*
X71125000Y-118725000D02*
G75*
G03*
X59675000Y-117975000I-6450536J-10701513D01*
G01*
X124225000Y-51700000D02*
X142175000Y-51700000D01*
M02*
