G04 #@! TF.GenerationSoftware,KiCad,Pcbnew,6.0.0-d3dd2cf0fa~116~ubuntu20.04.1*
G04 #@! TF.CreationDate,2022-01-05T21:46:13-05:00*
G04 #@! TF.ProjectId,34_hs,33345f68-732e-46b6-9963-61645f706362,0.1*
G04 #@! TF.SameCoordinates,Original*
G04 #@! TF.FileFunction,Soldermask,Bot*
G04 #@! TF.FilePolarity,Negative*
%FSLAX46Y46*%
G04 Gerber Fmt 4.6, Leading zero omitted, Abs format (unit mm)*
G04 Created by KiCad (PCBNEW 6.0.0-d3dd2cf0fa~116~ubuntu20.04.1) date 2022-01-05 21:46:13*
%MOMM*%
%LPD*%
G01*
G04 APERTURE LIST*
G04 Aperture macros list*
%AMRotRect*
0 Rectangle, with rotation*
0 The origin of the aperture is its center*
0 $1 length*
0 $2 width*
0 $3 Rotation angle, in degrees counterclockwise*
0 Add horizontal line*
21,1,$1,$2,0,0,$3*%
%AMFreePoly0*
4,1,6,0.600000,0.200000,0.000000,-0.400000,-0.600000,0.200000,-0.600000,0.400000,0.600000,0.400000,0.600000,0.200000,0.600000,0.200000,$1*%
%AMFreePoly1*
4,1,6,0.600000,-0.250000,-0.600000,-0.250000,-0.600000,1.000000,0.000000,0.400000,0.600000,1.000000,0.600000,-0.250000,0.600000,-0.250000,$1*%
G04 Aperture macros list end*
%ADD10C,0.100000*%
%ADD11C,1.701800*%
%ADD12C,3.000000*%
%ADD13C,3.429000*%
%ADD14C,2.032000*%
%ADD15RotRect,2.600000X2.600000X12.500000*%
%ADD16R,2.600000X2.600000*%
%ADD17C,1.600000*%
%ADD18FreePoly0,270.000000*%
%ADD19FreePoly0,90.000000*%
%ADD20FreePoly1,90.000000*%
%ADD21FreePoly1,270.000000*%
%ADD22RotRect,2.600000X2.600000X5.000000*%
%ADD23C,0.900000*%
G04 APERTURE END LIST*
D10*
X131429702Y-61386557D02*
X131429702Y-63386557D01*
X131429702Y-63386557D02*
X132829702Y-63386557D01*
X132829702Y-63386557D02*
X132829702Y-61386557D01*
X132829702Y-61386557D02*
X131429702Y-61386557D01*
G36*
X132829702Y-63386557D02*
G01*
X131429702Y-63386557D01*
X131429702Y-61386557D01*
X132829702Y-61386557D01*
X132829702Y-63386557D01*
G37*
X132829702Y-63386557D02*
X131429702Y-63386557D01*
X131429702Y-61386557D01*
X132829702Y-61386557D01*
X132829702Y-63386557D01*
X133629702Y-61386557D02*
X133629702Y-63386557D01*
X133629702Y-63386557D02*
X135029702Y-63386557D01*
X135029702Y-63386557D02*
X135029702Y-61386557D01*
X135029702Y-61386557D02*
X133629702Y-61386557D01*
G36*
X135029702Y-63386557D02*
G01*
X133629702Y-63386557D01*
X133629702Y-61386557D01*
X135029702Y-61386557D01*
X135029702Y-63386557D01*
G37*
X135029702Y-63386557D02*
X133629702Y-63386557D01*
X133629702Y-61386557D01*
X135029702Y-61386557D01*
X135029702Y-63386557D01*
X128912099Y-57887003D02*
X128912099Y-58903003D01*
X128912099Y-58903003D02*
X127896099Y-58903003D01*
X127896099Y-58903003D02*
X127896099Y-57887003D01*
X127896099Y-57887003D02*
X128912099Y-57887003D01*
G36*
X128912099Y-58903003D02*
G01*
X127896099Y-58903003D01*
X127896099Y-57887003D01*
X128912099Y-57887003D01*
X128912099Y-58903003D01*
G37*
X128912099Y-58903003D02*
X127896099Y-58903003D01*
X127896099Y-57887003D01*
X128912099Y-57887003D01*
X128912099Y-58903003D01*
X128912099Y-65507003D02*
X128912099Y-66523003D01*
X128912099Y-66523003D02*
X127896099Y-66523003D01*
X127896099Y-66523003D02*
X127896099Y-65507003D01*
X127896099Y-65507003D02*
X128912099Y-65507003D01*
G36*
X128912099Y-66523003D02*
G01*
X127896099Y-66523003D01*
X127896099Y-65507003D01*
X128912099Y-65507003D01*
X128912099Y-66523003D01*
G37*
X128912099Y-66523003D02*
X127896099Y-66523003D01*
X127896099Y-65507003D01*
X128912099Y-65507003D01*
X128912099Y-66523003D01*
X128912099Y-83287003D02*
X128912099Y-84303003D01*
X128912099Y-84303003D02*
X127896099Y-84303003D01*
X127896099Y-84303003D02*
X127896099Y-83287003D01*
X127896099Y-83287003D02*
X128912099Y-83287003D01*
G36*
X128912099Y-84303003D02*
G01*
X127896099Y-84303003D01*
X127896099Y-83287003D01*
X128912099Y-83287003D01*
X128912099Y-84303003D01*
G37*
X128912099Y-84303003D02*
X127896099Y-84303003D01*
X127896099Y-83287003D01*
X128912099Y-83287003D01*
X128912099Y-84303003D01*
X128912099Y-68047003D02*
X128912099Y-69063003D01*
X128912099Y-69063003D02*
X127896099Y-69063003D01*
X127896099Y-69063003D02*
X127896099Y-68047003D01*
X127896099Y-68047003D02*
X128912099Y-68047003D01*
G36*
X128912099Y-69063003D02*
G01*
X127896099Y-69063003D01*
X127896099Y-68047003D01*
X128912099Y-68047003D01*
X128912099Y-69063003D01*
G37*
X128912099Y-69063003D02*
X127896099Y-69063003D01*
X127896099Y-68047003D01*
X128912099Y-68047003D01*
X128912099Y-69063003D01*
X139072099Y-66523003D02*
X139072099Y-65507003D01*
X139072099Y-65507003D02*
X140088099Y-65507003D01*
X140088099Y-65507003D02*
X140088099Y-66523003D01*
X140088099Y-66523003D02*
X139072099Y-66523003D01*
G36*
X140088099Y-66523003D02*
G01*
X139072099Y-66523003D01*
X139072099Y-65507003D01*
X140088099Y-65507003D01*
X140088099Y-66523003D01*
G37*
X140088099Y-66523003D02*
X139072099Y-66523003D01*
X139072099Y-65507003D01*
X140088099Y-65507003D01*
X140088099Y-66523003D01*
X139072099Y-58903003D02*
X139072099Y-57887003D01*
X139072099Y-57887003D02*
X140088099Y-57887003D01*
X140088099Y-57887003D02*
X140088099Y-58903003D01*
X140088099Y-58903003D02*
X139072099Y-58903003D01*
G36*
X140088099Y-58903003D02*
G01*
X139072099Y-58903003D01*
X139072099Y-57887003D01*
X140088099Y-57887003D01*
X140088099Y-58903003D01*
G37*
X140088099Y-58903003D02*
X139072099Y-58903003D01*
X139072099Y-57887003D01*
X140088099Y-57887003D01*
X140088099Y-58903003D01*
X128912099Y-55347003D02*
X128912099Y-56363003D01*
X128912099Y-56363003D02*
X127896099Y-56363003D01*
X127896099Y-56363003D02*
X127896099Y-55347003D01*
X127896099Y-55347003D02*
X128912099Y-55347003D01*
G36*
X128912099Y-56363003D02*
G01*
X127896099Y-56363003D01*
X127896099Y-55347003D01*
X128912099Y-55347003D01*
X128912099Y-56363003D01*
G37*
X128912099Y-56363003D02*
X127896099Y-56363003D01*
X127896099Y-55347003D01*
X128912099Y-55347003D01*
X128912099Y-56363003D01*
X128912099Y-60427003D02*
X128912099Y-61443003D01*
X128912099Y-61443003D02*
X127896099Y-61443003D01*
X127896099Y-61443003D02*
X127896099Y-60427003D01*
X127896099Y-60427003D02*
X128912099Y-60427003D01*
G36*
X128912099Y-61443003D02*
G01*
X127896099Y-61443003D01*
X127896099Y-60427003D01*
X128912099Y-60427003D01*
X128912099Y-61443003D01*
G37*
X128912099Y-61443003D02*
X127896099Y-61443003D01*
X127896099Y-60427003D01*
X128912099Y-60427003D01*
X128912099Y-61443003D01*
X139072099Y-84303003D02*
X139072099Y-83287003D01*
X139072099Y-83287003D02*
X140088099Y-83287003D01*
X140088099Y-83287003D02*
X140088099Y-84303003D01*
X140088099Y-84303003D02*
X139072099Y-84303003D01*
G36*
X140088099Y-84303003D02*
G01*
X139072099Y-84303003D01*
X139072099Y-83287003D01*
X140088099Y-83287003D01*
X140088099Y-84303003D01*
G37*
X140088099Y-84303003D02*
X139072099Y-84303003D01*
X139072099Y-83287003D01*
X140088099Y-83287003D01*
X140088099Y-84303003D01*
X128912099Y-73127003D02*
X128912099Y-74143003D01*
X128912099Y-74143003D02*
X127896099Y-74143003D01*
X127896099Y-74143003D02*
X127896099Y-73127003D01*
X127896099Y-73127003D02*
X128912099Y-73127003D01*
G36*
X128912099Y-74143003D02*
G01*
X127896099Y-74143003D01*
X127896099Y-73127003D01*
X128912099Y-73127003D01*
X128912099Y-74143003D01*
G37*
X128912099Y-74143003D02*
X127896099Y-74143003D01*
X127896099Y-73127003D01*
X128912099Y-73127003D01*
X128912099Y-74143003D01*
X139072099Y-69063003D02*
X139072099Y-68047003D01*
X139072099Y-68047003D02*
X140088099Y-68047003D01*
X140088099Y-68047003D02*
X140088099Y-69063003D01*
X140088099Y-69063003D02*
X139072099Y-69063003D01*
G36*
X140088099Y-69063003D02*
G01*
X139072099Y-69063003D01*
X139072099Y-68047003D01*
X140088099Y-68047003D01*
X140088099Y-69063003D01*
G37*
X140088099Y-69063003D02*
X139072099Y-69063003D01*
X139072099Y-68047003D01*
X140088099Y-68047003D01*
X140088099Y-69063003D01*
X139072099Y-81763003D02*
X139072099Y-80747003D01*
X139072099Y-80747003D02*
X140088099Y-80747003D01*
X140088099Y-80747003D02*
X140088099Y-81763003D01*
X140088099Y-81763003D02*
X139072099Y-81763003D01*
G36*
X140088099Y-81763003D02*
G01*
X139072099Y-81763003D01*
X139072099Y-80747003D01*
X140088099Y-80747003D01*
X140088099Y-81763003D01*
G37*
X140088099Y-81763003D02*
X139072099Y-81763003D01*
X139072099Y-80747003D01*
X140088099Y-80747003D01*
X140088099Y-81763003D01*
X139072099Y-61443003D02*
X139072099Y-60427003D01*
X139072099Y-60427003D02*
X140088099Y-60427003D01*
X140088099Y-60427003D02*
X140088099Y-61443003D01*
X140088099Y-61443003D02*
X139072099Y-61443003D01*
G36*
X140088099Y-61443003D02*
G01*
X139072099Y-61443003D01*
X139072099Y-60427003D01*
X140088099Y-60427003D01*
X140088099Y-61443003D01*
G37*
X140088099Y-61443003D02*
X139072099Y-61443003D01*
X139072099Y-60427003D01*
X140088099Y-60427003D01*
X140088099Y-61443003D01*
X128912099Y-62967003D02*
X128912099Y-63983003D01*
X128912099Y-63983003D02*
X127896099Y-63983003D01*
X127896099Y-63983003D02*
X127896099Y-62967003D01*
X127896099Y-62967003D02*
X128912099Y-62967003D01*
G36*
X128912099Y-63983003D02*
G01*
X127896099Y-63983003D01*
X127896099Y-62967003D01*
X128912099Y-62967003D01*
X128912099Y-63983003D01*
G37*
X128912099Y-63983003D02*
X127896099Y-63983003D01*
X127896099Y-62967003D01*
X128912099Y-62967003D01*
X128912099Y-63983003D01*
X139072099Y-71603003D02*
X139072099Y-70587003D01*
X139072099Y-70587003D02*
X140088099Y-70587003D01*
X140088099Y-70587003D02*
X140088099Y-71603003D01*
X140088099Y-71603003D02*
X139072099Y-71603003D01*
G36*
X140088099Y-71603003D02*
G01*
X139072099Y-71603003D01*
X139072099Y-70587003D01*
X140088099Y-70587003D01*
X140088099Y-71603003D01*
G37*
X140088099Y-71603003D02*
X139072099Y-71603003D01*
X139072099Y-70587003D01*
X140088099Y-70587003D01*
X140088099Y-71603003D01*
X139072099Y-63983003D02*
X139072099Y-62967003D01*
X139072099Y-62967003D02*
X140088099Y-62967003D01*
X140088099Y-62967003D02*
X140088099Y-63983003D01*
X140088099Y-63983003D02*
X139072099Y-63983003D01*
G36*
X140088099Y-63983003D02*
G01*
X139072099Y-63983003D01*
X139072099Y-62967003D01*
X140088099Y-62967003D01*
X140088099Y-63983003D01*
G37*
X140088099Y-63983003D02*
X139072099Y-63983003D01*
X139072099Y-62967003D01*
X140088099Y-62967003D01*
X140088099Y-63983003D01*
X139072099Y-79223003D02*
X139072099Y-78207003D01*
X139072099Y-78207003D02*
X140088099Y-78207003D01*
X140088099Y-78207003D02*
X140088099Y-79223003D01*
X140088099Y-79223003D02*
X139072099Y-79223003D01*
G36*
X140088099Y-79223003D02*
G01*
X139072099Y-79223003D01*
X139072099Y-78207003D01*
X140088099Y-78207003D01*
X140088099Y-79223003D01*
G37*
X140088099Y-79223003D02*
X139072099Y-79223003D01*
X139072099Y-78207003D01*
X140088099Y-78207003D01*
X140088099Y-79223003D01*
X139072099Y-56363003D02*
X139072099Y-55347003D01*
X139072099Y-55347003D02*
X140088099Y-55347003D01*
X140088099Y-55347003D02*
X140088099Y-56363003D01*
X140088099Y-56363003D02*
X139072099Y-56363003D01*
G36*
X140088099Y-56363003D02*
G01*
X139072099Y-56363003D01*
X139072099Y-55347003D01*
X140088099Y-55347003D01*
X140088099Y-56363003D01*
G37*
X140088099Y-56363003D02*
X139072099Y-56363003D01*
X139072099Y-55347003D01*
X140088099Y-55347003D01*
X140088099Y-56363003D01*
X128912099Y-70587003D02*
X128912099Y-71603003D01*
X128912099Y-71603003D02*
X127896099Y-71603003D01*
X127896099Y-71603003D02*
X127896099Y-70587003D01*
X127896099Y-70587003D02*
X128912099Y-70587003D01*
G36*
X128912099Y-71603003D02*
G01*
X127896099Y-71603003D01*
X127896099Y-70587003D01*
X128912099Y-70587003D01*
X128912099Y-71603003D01*
G37*
X128912099Y-71603003D02*
X127896099Y-71603003D01*
X127896099Y-70587003D01*
X128912099Y-70587003D01*
X128912099Y-71603003D01*
X128912099Y-78207003D02*
X128912099Y-79223003D01*
X128912099Y-79223003D02*
X127896099Y-79223003D01*
X127896099Y-79223003D02*
X127896099Y-78207003D01*
X127896099Y-78207003D02*
X128912099Y-78207003D01*
G36*
X128912099Y-79223003D02*
G01*
X127896099Y-79223003D01*
X127896099Y-78207003D01*
X128912099Y-78207003D01*
X128912099Y-79223003D01*
G37*
X128912099Y-79223003D02*
X127896099Y-79223003D01*
X127896099Y-78207003D01*
X128912099Y-78207003D01*
X128912099Y-79223003D01*
X139072099Y-74143003D02*
X139072099Y-73127003D01*
X139072099Y-73127003D02*
X140088099Y-73127003D01*
X140088099Y-73127003D02*
X140088099Y-74143003D01*
X140088099Y-74143003D02*
X139072099Y-74143003D01*
G36*
X140088099Y-74143003D02*
G01*
X139072099Y-74143003D01*
X139072099Y-73127003D01*
X140088099Y-73127003D01*
X140088099Y-74143003D01*
G37*
X140088099Y-74143003D02*
X139072099Y-74143003D01*
X139072099Y-73127003D01*
X140088099Y-73127003D01*
X140088099Y-74143003D01*
X128912099Y-80747003D02*
X128912099Y-81763003D01*
X128912099Y-81763003D02*
X127896099Y-81763003D01*
X127896099Y-81763003D02*
X127896099Y-80747003D01*
X127896099Y-80747003D02*
X128912099Y-80747003D01*
G36*
X128912099Y-81763003D02*
G01*
X127896099Y-81763003D01*
X127896099Y-80747003D01*
X128912099Y-80747003D01*
X128912099Y-81763003D01*
G37*
X128912099Y-81763003D02*
X127896099Y-81763003D01*
X127896099Y-80747003D01*
X128912099Y-80747003D01*
X128912099Y-81763003D01*
X128912099Y-75667003D02*
X128912099Y-76683003D01*
X128912099Y-76683003D02*
X127896099Y-76683003D01*
X127896099Y-76683003D02*
X127896099Y-75667003D01*
X127896099Y-75667003D02*
X128912099Y-75667003D01*
G36*
X128912099Y-76683003D02*
G01*
X127896099Y-76683003D01*
X127896099Y-75667003D01*
X128912099Y-75667003D01*
X128912099Y-76683003D01*
G37*
X128912099Y-76683003D02*
X127896099Y-76683003D01*
X127896099Y-75667003D01*
X128912099Y-75667003D01*
X128912099Y-76683003D01*
X139072099Y-76683003D02*
X139072099Y-75667003D01*
X139072099Y-75667003D02*
X140088099Y-75667003D01*
X140088099Y-75667003D02*
X140088099Y-76683003D01*
X140088099Y-76683003D02*
X139072099Y-76683003D01*
G36*
X140088099Y-76683003D02*
G01*
X139072099Y-76683003D01*
X139072099Y-75667003D01*
X140088099Y-75667003D01*
X140088099Y-76683003D01*
G37*
X140088099Y-76683003D02*
X139072099Y-76683003D01*
X139072099Y-75667003D01*
X140088099Y-75667003D01*
X140088099Y-76683003D01*
X135950576Y-55011813D02*
X135950576Y-56411813D01*
X135950576Y-56411813D02*
X136550576Y-56411813D01*
X136550576Y-56411813D02*
X136550576Y-55011813D01*
X136550576Y-55011813D02*
X135950576Y-55011813D01*
G36*
X136550576Y-56411813D02*
G01*
X135950576Y-56411813D01*
X135950576Y-55011813D01*
X136550576Y-55011813D01*
X136550576Y-56411813D01*
G37*
X136550576Y-56411813D02*
X135950576Y-56411813D01*
X135950576Y-55011813D01*
X136550576Y-55011813D01*
X136550576Y-56411813D01*
X131450576Y-55011813D02*
X131450576Y-56411813D01*
X131450576Y-56411813D02*
X132050576Y-56411813D01*
X132050576Y-56411813D02*
X132050576Y-55011813D01*
X132050576Y-55011813D02*
X131450576Y-55011813D01*
G36*
X132050576Y-56411813D02*
G01*
X131450576Y-56411813D01*
X131450576Y-55011813D01*
X132050576Y-55011813D01*
X132050576Y-56411813D01*
G37*
X132050576Y-56411813D02*
X131450576Y-56411813D01*
X131450576Y-55011813D01*
X132050576Y-55011813D01*
X132050576Y-56411813D01*
X137200576Y-52511813D02*
X137200576Y-53211813D01*
X137200576Y-53211813D02*
X138100576Y-53211813D01*
X138100576Y-53211813D02*
X138100576Y-52511813D01*
X138100576Y-52511813D02*
X137200576Y-52511813D01*
G36*
X138100576Y-53211813D02*
G01*
X137200576Y-53211813D01*
X137200576Y-52511813D01*
X138100576Y-52511813D01*
X138100576Y-53211813D01*
G37*
X138100576Y-53211813D02*
X137200576Y-53211813D01*
X137200576Y-52511813D01*
X138100576Y-52511813D01*
X138100576Y-53211813D01*
X134450576Y-55011813D02*
X134450576Y-56411813D01*
X134450576Y-56411813D02*
X135050576Y-56411813D01*
X135050576Y-56411813D02*
X135050576Y-55011813D01*
X135050576Y-55011813D02*
X134450576Y-55011813D01*
G36*
X135050576Y-56411813D02*
G01*
X134450576Y-56411813D01*
X134450576Y-55011813D01*
X135050576Y-55011813D01*
X135050576Y-56411813D01*
G37*
X135050576Y-56411813D02*
X134450576Y-56411813D01*
X134450576Y-55011813D01*
X135050576Y-55011813D01*
X135050576Y-56411813D01*
X129900576Y-52511813D02*
X129900576Y-53211813D01*
X129900576Y-53211813D02*
X130800576Y-53211813D01*
X130800576Y-53211813D02*
X130800576Y-52511813D01*
X130800576Y-52511813D02*
X129900576Y-52511813D01*
G36*
X130800576Y-53211813D02*
G01*
X129900576Y-53211813D01*
X129900576Y-52511813D01*
X130800576Y-52511813D01*
X130800576Y-53211813D01*
G37*
X130800576Y-53211813D02*
X129900576Y-53211813D01*
X129900576Y-52511813D01*
X130800576Y-52511813D01*
X130800576Y-53211813D01*
X137200576Y-54711813D02*
X137200576Y-55411813D01*
X137200576Y-55411813D02*
X138100576Y-55411813D01*
X138100576Y-55411813D02*
X138100576Y-54711813D01*
X138100576Y-54711813D02*
X137200576Y-54711813D01*
G36*
X138100576Y-55411813D02*
G01*
X137200576Y-55411813D01*
X137200576Y-54711813D01*
X138100576Y-54711813D01*
X138100576Y-55411813D01*
G37*
X138100576Y-55411813D02*
X137200576Y-55411813D01*
X137200576Y-54711813D01*
X138100576Y-54711813D01*
X138100576Y-55411813D01*
X129900576Y-54711813D02*
X129900576Y-55411813D01*
X129900576Y-55411813D02*
X130800576Y-55411813D01*
X130800576Y-55411813D02*
X130800576Y-54711813D01*
X130800576Y-54711813D02*
X129900576Y-54711813D01*
G36*
X130800576Y-55411813D02*
G01*
X129900576Y-55411813D01*
X129900576Y-54711813D01*
X130800576Y-54711813D01*
X130800576Y-55411813D01*
G37*
X130800576Y-55411813D02*
X129900576Y-55411813D01*
X129900576Y-54711813D01*
X130800576Y-54711813D01*
X130800576Y-55411813D01*
D11*
X44358628Y-87709582D03*
D12*
X43058831Y-84156692D03*
X33295871Y-86321088D03*
D13*
X38989000Y-88900000D03*
D12*
X37701184Y-83091039D03*
D11*
X33619372Y-90090418D03*
D14*
X40265994Y-94660146D03*
D15*
X34503815Y-83799878D03*
D14*
X44692951Y-91527727D03*
D15*
X46256201Y-83447852D03*
D14*
X34929990Y-93692123D03*
D11*
X40679152Y-71112557D03*
D12*
X29616395Y-69724063D03*
D11*
X29939896Y-73493393D03*
D12*
X39379355Y-67559667D03*
X34021708Y-66494014D03*
D13*
X35309524Y-72302975D03*
D15*
X30824339Y-67202853D03*
D14*
X36586518Y-78063121D03*
X31250514Y-77095098D03*
D15*
X42576725Y-66850827D03*
D14*
X41013475Y-74930702D03*
D11*
X84744393Y-57058851D03*
D12*
X74244393Y-53308851D03*
X79244393Y-51108851D03*
X84244393Y-53308851D03*
D11*
X73744393Y-57058851D03*
D13*
X79244393Y-57058851D03*
D14*
X79244393Y-62958851D03*
D16*
X75969393Y-51108851D03*
D14*
X74244393Y-60858851D03*
X84244393Y-60858851D03*
D16*
X87519393Y-53308851D03*
D12*
X115225004Y-71474999D03*
X110225004Y-73674999D03*
D11*
X109725004Y-77424999D03*
D13*
X115225004Y-77424999D03*
D11*
X120725004Y-77424999D03*
D12*
X120225004Y-73674999D03*
D16*
X111950004Y-71474999D03*
D14*
X115225004Y-83324999D03*
D16*
X123500004Y-73674999D03*
D14*
X120225004Y-81224999D03*
X110225004Y-81224999D03*
D13*
X115225000Y-60425000D03*
D11*
X109725000Y-60425000D03*
D12*
X120225000Y-56675000D03*
X110225000Y-56675000D03*
D11*
X120725000Y-60425000D03*
D12*
X115225000Y-54475000D03*
D14*
X115225000Y-66325000D03*
D16*
X111950000Y-54475000D03*
X123500000Y-56675000D03*
D14*
X120225000Y-64225000D03*
X110225000Y-64225000D03*
D17*
X126372099Y-55855003D03*
X141612099Y-66015003D03*
D18*
X139834099Y-78715003D03*
D19*
X128150099Y-76175003D03*
D17*
X141612099Y-60935003D03*
D18*
X139834099Y-71095003D03*
D17*
X126372099Y-63475003D03*
X126372099Y-68555003D03*
D19*
X128150099Y-78715003D03*
X128150099Y-66015003D03*
D17*
X141612099Y-71095003D03*
D18*
X139834099Y-58395003D03*
D17*
X141612099Y-83795003D03*
D18*
X139834099Y-76175003D03*
D19*
X128150099Y-71095003D03*
X128150099Y-60935003D03*
D17*
X126372099Y-58395003D03*
X141612099Y-76175003D03*
D19*
X128150099Y-83795003D03*
D18*
X139834099Y-81255003D03*
D17*
X141612099Y-68555003D03*
D19*
X128150099Y-81255003D03*
D17*
X141612099Y-55855003D03*
D19*
X128150099Y-58395003D03*
D17*
X141612099Y-73635003D03*
X141612099Y-63475003D03*
X126372099Y-60935003D03*
X126372099Y-81255003D03*
D19*
X128150099Y-73635003D03*
D17*
X126372099Y-71095003D03*
D18*
X139834099Y-83795003D03*
D19*
X128150099Y-68555003D03*
D17*
X126372099Y-78715003D03*
D18*
X139834099Y-55855003D03*
D17*
X141612099Y-58395003D03*
D18*
X139834099Y-73635003D03*
X139834099Y-68555003D03*
X139834099Y-66015003D03*
D17*
X126372099Y-66015003D03*
D18*
X139834099Y-60935003D03*
D17*
X126372099Y-76175003D03*
X126372099Y-83795003D03*
X126372099Y-73635003D03*
D19*
X128150099Y-63475003D03*
D17*
X141612099Y-81255003D03*
D19*
X128150099Y-55855003D03*
D17*
X141612099Y-78715003D03*
D18*
X139834099Y-63475003D03*
D20*
X129166099Y-55855003D03*
X129166099Y-58395003D03*
X129166099Y-60935003D03*
X129166099Y-63475003D03*
X129166099Y-66015003D03*
X129166099Y-68555003D03*
X129166099Y-71095003D03*
X129166099Y-73635003D03*
X129166099Y-76175003D03*
X129166099Y-78715003D03*
X129166099Y-81255003D03*
X129166099Y-83795003D03*
D21*
X138818099Y-83795003D03*
X138818099Y-81255003D03*
X138818099Y-78715003D03*
X138818099Y-76175003D03*
X138818099Y-73635003D03*
X138818099Y-71095003D03*
X138818099Y-68555003D03*
X138818099Y-66015003D03*
X138818099Y-63475003D03*
X138818099Y-60935003D03*
X138818099Y-58395003D03*
X138818099Y-55855003D03*
D13*
X97233093Y-94427566D03*
D12*
X92233093Y-90677566D03*
D11*
X102733093Y-94427566D03*
D12*
X97233093Y-88477566D03*
X102233093Y-90677566D03*
D11*
X91733093Y-94427566D03*
D14*
X97233093Y-100327566D03*
D16*
X93958093Y-88477566D03*
D14*
X92233093Y-98227566D03*
X102233093Y-98227566D03*
D16*
X105508093Y-90677566D03*
D12*
X92233093Y-73677564D03*
X97233093Y-71477564D03*
D11*
X102733093Y-77427564D03*
D13*
X97233093Y-77427564D03*
D12*
X102233093Y-73677564D03*
D11*
X91733093Y-77427564D03*
D16*
X93958093Y-71477564D03*
D14*
X97233093Y-83327564D03*
X102233093Y-81227564D03*
X92233093Y-81227564D03*
D16*
X105508093Y-73677564D03*
D13*
X134025000Y-107175000D03*
D12*
X137775000Y-102175000D03*
X139975000Y-107175000D03*
X137775000Y-112175000D03*
D11*
X134025000Y-112675000D03*
X134025000Y-101675000D03*
D16*
X139975000Y-103900000D03*
D14*
X128125000Y-107175000D03*
X130225000Y-112175000D03*
X130225000Y-102175000D03*
D16*
X137775000Y-115450000D03*
D11*
X102733086Y-60427567D03*
D12*
X97233086Y-54477567D03*
D11*
X91733086Y-60427567D03*
D12*
X92233086Y-56677567D03*
X102233086Y-56677567D03*
D13*
X97233086Y-60427567D03*
D16*
X93958086Y-54477567D03*
D14*
X97233086Y-66327567D03*
D16*
X105508086Y-56677567D03*
D14*
X92233086Y-64227567D03*
X102233086Y-64227567D03*
D13*
X111000000Y-111925000D03*
D12*
X111000000Y-105975000D03*
X106000000Y-108175000D03*
X116000000Y-108175000D03*
D11*
X116500000Y-111925000D03*
X105500000Y-111925000D03*
D14*
X111000000Y-117825000D03*
D16*
X107725000Y-105975000D03*
D14*
X106000000Y-115725000D03*
X116000000Y-115725000D03*
D16*
X119275000Y-108175000D03*
D12*
X59683573Y-88133851D03*
D11*
X54723079Y-94540566D03*
D12*
X64856289Y-89889700D03*
X54894342Y-90761258D03*
D11*
X65681221Y-93581852D03*
D13*
X60202150Y-94061209D03*
D22*
X56421036Y-88419286D03*
D14*
X60716369Y-99938758D03*
X55552368Y-98282528D03*
X65514315Y-97410970D03*
D22*
X68118827Y-89604265D03*
D13*
X79244382Y-91058862D03*
D11*
X84744382Y-91058862D03*
D12*
X79244382Y-85108862D03*
X74244382Y-87308862D03*
X84244382Y-87308862D03*
D11*
X73744382Y-91058862D03*
D14*
X79244382Y-96958862D03*
D16*
X75969382Y-85108862D03*
D14*
X84244382Y-94858862D03*
X74244382Y-94858862D03*
D16*
X87519382Y-87308862D03*
D12*
X53412694Y-73825950D03*
X58201925Y-71198543D03*
D11*
X53241431Y-77605258D03*
X64199573Y-76646544D03*
D13*
X58720502Y-77125901D03*
D12*
X63374641Y-72954392D03*
D22*
X54939388Y-71483978D03*
D14*
X59234721Y-83003450D03*
D22*
X66637179Y-72668957D03*
D14*
X64032667Y-80475662D03*
X54070720Y-81347220D03*
D12*
X56720283Y-54263227D03*
X61892999Y-56019076D03*
D11*
X51759789Y-60669942D03*
X62717931Y-59711228D03*
D12*
X51931052Y-56890634D03*
D13*
X57238860Y-60190585D03*
D22*
X53457746Y-54548662D03*
D14*
X57753079Y-66068134D03*
X62551025Y-63540346D03*
D22*
X65155537Y-55733641D03*
D14*
X52589078Y-64411904D03*
D23*
X135500576Y-53961813D03*
X132500576Y-53961813D03*
X135500576Y-53961813D03*
X132500576Y-53961813D03*
D11*
X48033771Y-104307229D03*
D13*
X42664143Y-105497647D03*
D12*
X41376327Y-99688686D03*
X36971014Y-102918735D03*
X46733974Y-100754339D03*
D11*
X37294515Y-106688065D03*
D15*
X38178958Y-100397525D03*
D14*
X43941137Y-111257793D03*
X38605133Y-110289770D03*
X48368094Y-108125374D03*
D15*
X49931344Y-100045499D03*
D12*
X79244389Y-68108851D03*
D11*
X84744389Y-74058851D03*
D12*
X74244389Y-70308851D03*
D13*
X79244389Y-74058851D03*
D12*
X84244389Y-70308851D03*
D11*
X73744389Y-74058851D03*
D14*
X79244389Y-79958851D03*
D16*
X75969389Y-68108851D03*
X87519389Y-70308851D03*
D14*
X74244389Y-77858851D03*
X84244389Y-77858851D03*
D13*
X115241911Y-94422430D03*
D12*
X115241911Y-88472430D03*
D11*
X109741911Y-94422430D03*
X120741911Y-94422430D03*
D12*
X110241911Y-90672430D03*
X120241911Y-90672430D03*
D16*
X111966911Y-88472430D03*
D14*
X115241911Y-100322430D03*
X110241911Y-98222430D03*
X120241911Y-98222430D03*
D16*
X123516911Y-90672430D03*
M02*
