M48
; DRILL file {KiCad 6.0.0-d3dd2cf0fa~116~ubuntu20.04.1} date Thu 06 Jan 2022 12:08:00 AM EST
; FORMAT={-:-/ absolute / inch / decimal}
; #@! TF.CreationDate,2022-01-06T00:08:00-05:00
; #@! TF.GenerationSoftware,Kicad,Pcbnew,6.0.0-d3dd2cf0fa~116~ubuntu20.04.1
; #@! TF.FileFunction,Plated,1,2,PTH
FMAT,2
INCH
; #@! TA.AperFunction,Plated,PTH,ViaDrill
T1C0.0157
; #@! TA.AperFunction,Plated,PTH,ComponentDrill
T2C0.0320
; #@! TA.AperFunction,Plated,PTH,ComponentDrill
T3C0.0500
%
G90
G05
T1
X5.1191Y-3.3248
X5.1246Y-2.724
X5.1246Y-2.624
X5.1246Y-2.824
X5.1246Y-2.924
X5.1246Y-3.124
X5.1246Y-2.474
X5.1246Y-3.224
X5.1246Y-3.024
X5.1443Y-2.399
X5.164Y-2.324
X5.1992Y-2.4562
X5.2034Y-2.549
X5.2756Y-2.093
X5.2756Y-2.1481
X5.2886Y-2.4562
X5.3242Y-2.3312
X5.3257Y-2.2592
X5.3865Y-2.299
X5.4062Y-2.374
X5.4242Y-3.2712
X5.4259Y-2.974
X5.4259Y-2.774
X5.4259Y-3.074
X5.4259Y-3.174
X5.4259Y-2.574
X5.4259Y-2.674
X5.4259Y-2.874
X5.4282Y-2.4402
T2
X4.9753Y-2.199
X4.9753Y-2.299
X4.9753Y-2.399
X4.9753Y-2.499
X4.9753Y-2.599
X4.9753Y-2.699
X4.9753Y-2.799
X4.9753Y-2.899
X4.9753Y-2.999
X4.9753Y-3.099
X4.9753Y-3.199
X4.9753Y-3.299
X5.5753Y-2.199
X5.5753Y-2.299
X5.5753Y-2.399
X5.5753Y-2.499
X5.5753Y-2.599
X5.5753Y-2.699
X5.5753Y-2.799
X5.5753Y-2.899
X5.5753Y-2.999
X5.5753Y-3.099
X5.5753Y-3.199
X5.5753Y-3.299
T3
X1.2303Y-3.0352
X1.3752Y-3.6887
X1.4404Y-3.0734
X1.5199Y-4.3421
X1.5853Y-3.7268
X1.6147Y-2.95
X1.73Y-4.3802
X1.7596Y-3.6035
X1.9043Y-4.2569
X2.0704Y-2.5359
X2.1288Y-3.2026
X2.1871Y-3.8694
X2.2737Y-2.6011
X2.3321Y-3.2679
X2.3904Y-3.9346
X2.4626Y-2.5016
X2.521Y-3.1683
X2.5793Y-3.8351
X2.9224Y-2.396
X2.9224Y-3.0653
X2.9224Y-3.7346
X3.1193Y-2.4787
X3.1193Y-3.148
X3.1193Y-3.8173
X3.3161Y-2.396
X3.3161Y-3.0653
X3.3161Y-3.7346
X3.6312Y-2.5286
X3.6312Y-3.1979
X3.6312Y-3.8672
X3.8281Y-2.6113
X3.8281Y-3.2806
X3.8281Y-3.9499
X4.0249Y-2.5286
X4.0249Y-3.1979
X4.0249Y-3.8672
X4.1722Y-4.5561
X4.3396Y-2.5285
X4.3396Y-3.1978
X4.3396Y-3.867
X4.3691Y-4.6388
X4.5364Y-2.6112
X4.5364Y-3.2805
X4.5364Y-3.9497
X4.5659Y-4.5561
X4.7333Y-2.5285
X4.7333Y-3.1978
X4.7333Y-3.867
X5.0443Y-4.2195
X5.127Y-4.0226
X5.127Y-4.4163
T0
M30
