G04 #@! TF.GenerationSoftware,KiCad,Pcbnew,6.0.0-d3dd2cf0fa~116~ubuntu20.04.1*
G04 #@! TF.CreationDate,2022-01-05T21:43:00-05:00*
G04 #@! TF.ProjectId,34_hs,33345f68-732e-46b6-9963-61645f706362,0.1*
G04 #@! TF.SameCoordinates,Original*
G04 #@! TF.FileFunction,Copper,L1,Top*
G04 #@! TF.FilePolarity,Positive*
%FSLAX46Y46*%
G04 Gerber Fmt 4.6, Leading zero omitted, Abs format (unit mm)*
G04 Created by KiCad (PCBNEW 6.0.0-d3dd2cf0fa~116~ubuntu20.04.1) date 2022-01-05 21:43:00*
%MOMM*%
%LPD*%
G01*
G04 APERTURE LIST*
G04 Aperture macros list*
%AMRotRect*
0 Rectangle, with rotation*
0 The origin of the aperture is its center*
0 $1 length*
0 $2 width*
0 $3 Rotation angle, in degrees counterclockwise*
0 Add horizontal line*
21,1,$1,$2,0,0,$3*%
%AMFreePoly0*
4,1,6,0.600000,0.200000,0.000000,-0.400000,-0.600000,0.200000,-0.600000,0.400000,0.600000,0.400000,0.600000,0.200000,0.600000,0.200000,$1*%
%AMFreePoly1*
4,1,5,0.125000,-0.500000,-0.125000,-0.500000,-0.125000,0.500000,0.125000,0.500000,0.125000,-0.500000,0.125000,-0.500000,$1*%
%AMFreePoly2*
4,1,6,0.600000,-0.250000,-0.600000,-0.250000,-0.600000,1.000000,0.000000,0.400000,0.600000,1.000000,0.600000,-0.250000,0.600000,-0.250000,$1*%
G04 Aperture macros list end*
G04 #@! TA.AperFunction,ComponentPad*
%ADD10C,2.032000*%
G04 #@! TD*
G04 #@! TA.AperFunction,SMDPad,CuDef*
%ADD11RotRect,2.600000X2.600000X12.500000*%
G04 #@! TD*
G04 #@! TA.AperFunction,SMDPad,CuDef*
%ADD12R,2.600000X2.600000*%
G04 #@! TD*
G04 #@! TA.AperFunction,SMDPad,CuDef*
%ADD13R,1.500000X2.100000*%
G04 #@! TD*
G04 #@! TA.AperFunction,ComponentPad*
%ADD14C,1.600000*%
G04 #@! TD*
G04 #@! TA.AperFunction,SMDPad,CuDef*
%ADD15FreePoly0,90.000000*%
G04 #@! TD*
G04 #@! TA.AperFunction,SMDPad,CuDef*
%ADD16FreePoly0,270.000000*%
G04 #@! TD*
G04 #@! TA.AperFunction,SMDPad,CuDef*
%ADD17FreePoly1,270.000000*%
G04 #@! TD*
G04 #@! TA.AperFunction,SMDPad,CuDef*
%ADD18FreePoly1,90.000000*%
G04 #@! TD*
G04 #@! TA.AperFunction,SMDPad,CuDef*
%ADD19FreePoly2,270.000000*%
G04 #@! TD*
G04 #@! TA.AperFunction,SMDPad,CuDef*
%ADD20FreePoly2,90.000000*%
G04 #@! TD*
G04 #@! TA.AperFunction,SMDPad,CuDef*
%ADD21RotRect,2.600000X2.600000X5.000000*%
G04 #@! TD*
G04 #@! TA.AperFunction,SMDPad,CuDef*
%ADD22R,1.000000X0.800000*%
G04 #@! TD*
G04 #@! TA.AperFunction,SMDPad,CuDef*
%ADD23R,0.700000X1.500000*%
G04 #@! TD*
G04 #@! TA.AperFunction,ViaPad*
%ADD24C,0.800000*%
G04 #@! TD*
G04 #@! TA.AperFunction,Conductor*
%ADD25C,0.250000*%
G04 #@! TD*
G04 #@! TA.AperFunction,Conductor*
%ADD26C,0.500000*%
G04 #@! TD*
G04 #@! TA.AperFunction,Conductor*
%ADD27C,0.400000*%
G04 #@! TD*
G04 APERTURE END LIST*
D10*
X40265994Y-94660146D03*
D11*
X40898554Y-82382199D03*
X30098502Y-87029928D03*
D10*
X44692951Y-91527727D03*
X34929990Y-93692123D03*
D11*
X37219078Y-65785174D03*
D10*
X36586518Y-78063121D03*
D11*
X26419026Y-70432903D03*
D10*
X31250514Y-77095098D03*
X41013475Y-74930702D03*
X79244393Y-62958851D03*
D12*
X82519393Y-51108851D03*
D10*
X74244393Y-60858851D03*
X84244393Y-60858851D03*
D12*
X70969393Y-53308851D03*
D13*
X134329702Y-62386557D03*
X132129702Y-62386557D03*
D12*
X118500004Y-71474999D03*
D10*
X115225004Y-83324999D03*
X120225004Y-81224999D03*
D12*
X106950004Y-73674999D03*
D10*
X110225004Y-81224999D03*
D12*
X118500000Y-54475000D03*
D10*
X115225000Y-66325000D03*
D12*
X106950000Y-56675000D03*
D10*
X120225000Y-64225000D03*
X110225000Y-64225000D03*
D14*
X126372099Y-55855003D03*
X141612099Y-66015003D03*
D15*
X128150099Y-63475003D03*
D16*
X139834099Y-73635003D03*
D14*
X141612099Y-60935003D03*
X126372099Y-63475003D03*
X126372099Y-68555003D03*
D15*
X128150099Y-78715003D03*
D17*
X140342099Y-63475003D03*
D15*
X128150099Y-83795003D03*
D14*
X141612099Y-71095003D03*
D15*
X128150099Y-76175003D03*
D14*
X141612099Y-83795003D03*
D17*
X140342099Y-68555003D03*
D16*
X139834099Y-78715003D03*
D15*
X128150099Y-68555003D03*
X128150099Y-71095003D03*
D14*
X126372099Y-58395003D03*
D17*
X140342099Y-60935003D03*
D14*
X141612099Y-76175003D03*
D17*
X140342099Y-78715003D03*
D15*
X128150099Y-55855003D03*
D14*
X141612099Y-68555003D03*
D17*
X140342099Y-73635003D03*
D18*
X127642099Y-81255003D03*
D14*
X141612099Y-55855003D03*
D15*
X128150099Y-58395003D03*
X128150099Y-81255003D03*
D16*
X139834099Y-81255003D03*
D18*
X127642099Y-60935003D03*
D14*
X141612099Y-73635003D03*
D17*
X140342099Y-81255003D03*
X140342099Y-71095003D03*
D14*
X141612099Y-63475003D03*
D17*
X140342099Y-76175003D03*
D14*
X126372099Y-60935003D03*
D18*
X127642099Y-66015003D03*
D15*
X128150099Y-66015003D03*
D16*
X139834099Y-71095003D03*
D14*
X126372099Y-81255003D03*
X126372099Y-71095003D03*
D15*
X128150099Y-60935003D03*
D17*
X140342099Y-83795003D03*
D18*
X127642099Y-58395003D03*
X127642099Y-78715003D03*
D14*
X126372099Y-78715003D03*
D16*
X139834099Y-66015003D03*
D18*
X127642099Y-76175003D03*
X127642099Y-68555003D03*
D17*
X140342099Y-66015003D03*
D14*
X141612099Y-58395003D03*
D18*
X127642099Y-55855003D03*
D16*
X139834099Y-60935003D03*
D18*
X127642099Y-71095003D03*
X127642099Y-63475003D03*
X127642099Y-73635003D03*
D14*
X126372099Y-66015003D03*
D16*
X139834099Y-63475003D03*
D14*
X126372099Y-76175003D03*
D16*
X139834099Y-58395003D03*
D17*
X140342099Y-58395003D03*
D14*
X126372099Y-83795003D03*
D16*
X139834099Y-55855003D03*
D14*
X126372099Y-73635003D03*
D17*
X140342099Y-55855003D03*
D16*
X139834099Y-76175003D03*
D14*
X141612099Y-81255003D03*
D16*
X139834099Y-83795003D03*
D15*
X128150099Y-73635003D03*
D16*
X139834099Y-68555003D03*
D18*
X127642099Y-83795003D03*
D14*
X141612099Y-78715003D03*
D19*
X138818099Y-55855003D03*
X138818099Y-58395003D03*
X138818099Y-60935003D03*
X138818099Y-63475003D03*
X138818099Y-66015003D03*
X138818099Y-68555003D03*
X138818099Y-71095003D03*
X138818099Y-73635003D03*
X138818099Y-76175003D03*
X138818099Y-78715003D03*
X138818099Y-81255003D03*
X138818099Y-83795003D03*
D20*
X129166099Y-83795003D03*
X129166099Y-81255003D03*
X129166099Y-78715003D03*
X129166099Y-76175003D03*
X129166099Y-73635003D03*
X129166099Y-71095003D03*
X129166099Y-68555003D03*
X129166099Y-66015003D03*
X129166099Y-63475003D03*
X129166099Y-60935003D03*
X129166099Y-58395003D03*
X129166099Y-55855003D03*
D10*
X97233093Y-100327566D03*
D12*
X100508093Y-88477566D03*
X88958093Y-90677566D03*
D10*
X92233093Y-98227566D03*
X102233093Y-98227566D03*
X97233093Y-83327564D03*
D12*
X100508093Y-71477564D03*
D10*
X102233093Y-81227564D03*
X92233093Y-81227564D03*
D12*
X88958093Y-73677564D03*
X139975000Y-110450000D03*
D10*
X128125000Y-107175000D03*
X130225000Y-112175000D03*
D12*
X137775000Y-98900000D03*
D10*
X130225000Y-102175000D03*
X97233086Y-66327567D03*
D12*
X100508086Y-54477567D03*
D10*
X92233086Y-64227567D03*
X102233086Y-64227567D03*
D12*
X88958086Y-56677567D03*
D10*
X111000000Y-117825000D03*
D12*
X114275000Y-105975000D03*
D10*
X106000000Y-115725000D03*
X116000000Y-115725000D03*
D12*
X102725000Y-108175000D03*
D21*
X62946111Y-87848415D03*
D10*
X60716369Y-99938758D03*
X55552368Y-98282528D03*
X65514315Y-97410970D03*
D21*
X51631805Y-91046693D03*
D10*
X79244382Y-96958862D03*
D12*
X82519382Y-85108862D03*
D10*
X84244382Y-94858862D03*
X74244382Y-94858862D03*
D12*
X70969382Y-87308862D03*
D10*
X59234721Y-83003450D03*
D21*
X61464463Y-70913107D03*
D10*
X64032667Y-80475662D03*
D21*
X50150157Y-74111385D03*
D10*
X54070720Y-81347220D03*
D21*
X59982821Y-53977791D03*
D10*
X57753079Y-66068134D03*
X62551025Y-63540346D03*
D21*
X48668515Y-57176069D03*
D10*
X52589078Y-64411904D03*
D22*
X130350576Y-55061813D03*
X137650576Y-52861813D03*
X137650576Y-55061813D03*
X130350576Y-52861813D03*
D23*
X136250576Y-55711813D03*
X133250576Y-55711813D03*
X131750576Y-55711813D03*
D11*
X44573697Y-98979846D03*
D10*
X43941137Y-111257793D03*
X38605133Y-110289770D03*
X48368094Y-108125374D03*
D11*
X33773645Y-103627575D03*
D10*
X79244389Y-79958851D03*
D12*
X82519389Y-68108851D03*
D10*
X74244389Y-77858851D03*
D12*
X70969389Y-70308851D03*
D10*
X84244389Y-77858851D03*
X115241911Y-100322430D03*
D12*
X118516911Y-88472430D03*
X106966911Y-90672430D03*
D10*
X110241911Y-98222430D03*
X120241911Y-98222430D03*
D24*
X134000579Y-53161815D03*
X130166097Y-74269998D03*
X130166099Y-76810001D03*
X130166097Y-79350000D03*
X130166098Y-81890002D03*
X130025000Y-84450000D03*
X137818099Y-65380003D03*
X136818099Y-58395001D03*
X130166097Y-66650000D03*
X130166096Y-69190003D03*
X130166097Y-71730000D03*
X137818097Y-78080001D03*
X137818095Y-75540003D03*
X137818101Y-73000004D03*
X137818097Y-70460003D03*
X137818099Y-67920001D03*
X130166098Y-62840002D03*
X137318098Y-60300003D03*
X130666098Y-60935001D03*
X137876690Y-61980157D03*
X134000581Y-54561815D03*
X132166099Y-64745000D03*
X132060090Y-62386557D03*
X135272264Y-57384846D03*
X134329703Y-62386558D03*
X135235090Y-59211557D03*
X131166098Y-59030002D03*
X137775090Y-83087557D03*
X137818097Y-80620000D03*
D25*
X116000000Y-115725000D02*
X106000000Y-115725000D01*
D26*
X105177773Y-117820428D02*
X111000000Y-117825000D01*
D25*
X131750579Y-53838778D02*
X131750579Y-55711814D01*
X132073991Y-53308260D02*
X131897026Y-53485224D01*
X134000579Y-53161815D02*
X132427544Y-53161814D01*
X131897026Y-53485224D02*
G75*
G03*
X131750579Y-53838778I353550J-353553D01*
G01*
X132073991Y-53308260D02*
G75*
G02*
X132427544Y-53161814I353553J-353556D01*
G01*
X129166098Y-73635003D02*
X129323994Y-73635003D01*
X129677549Y-73781450D02*
X130166097Y-74269998D01*
X122376506Y-69482306D02*
X122222262Y-69451625D01*
X41013475Y-74930702D02*
X31250514Y-77095098D01*
X130210020Y-86793633D02*
X125922487Y-86793633D01*
X123742970Y-84899799D02*
X123682787Y-84754504D01*
X123416166Y-70391166D02*
X122709314Y-69684314D01*
X131793843Y-85541181D02*
X130775705Y-86559319D01*
X84892935Y-66150000D02*
X63260960Y-66150000D01*
X132028158Y-84975495D02*
X132026232Y-85054098D01*
X132026232Y-85054098D02*
X131995562Y-85208285D01*
X125356801Y-86559318D02*
X123884795Y-85087312D01*
X131995562Y-85208285D02*
X131935401Y-85353525D01*
X131995852Y-76230553D02*
X132026533Y-76384797D01*
X131935669Y-76085258D02*
X131995852Y-76230553D01*
X51115685Y-68864315D02*
X46383959Y-73596041D01*
X45993774Y-73810867D02*
X41013475Y-74930702D01*
X131793844Y-75897745D02*
X131848297Y-75954496D01*
X130775705Y-86559319D02*
X130718762Y-86613538D01*
X125922487Y-86793633D02*
X125843854Y-86792008D01*
X123650481Y-70956852D02*
X123649002Y-70878204D01*
X123649002Y-70878204D02*
X123618316Y-70723932D01*
X63250480Y-66139520D02*
X60994314Y-68395686D01*
X130442809Y-86761038D02*
X130288623Y-86791707D01*
X123884795Y-85087312D02*
X123830342Y-85030561D01*
X88289990Y-69215684D02*
X85458620Y-66384314D01*
X63260960Y-66150000D02*
X63250480Y-66139520D01*
X122709314Y-69684314D02*
X122652563Y-69629861D01*
X130288623Y-86791707D02*
X130210020Y-86793633D01*
X130588049Y-86700877D02*
X130442809Y-86761038D01*
X125843854Y-86792008D02*
X125689610Y-86761326D01*
X122652563Y-69629861D02*
X122521801Y-69542489D01*
X37651896Y-72071280D02*
X41013475Y-74930702D01*
X122521801Y-69542489D02*
X122376506Y-69482306D01*
X131848297Y-75954496D02*
X131935669Y-76085258D01*
X123830342Y-85030561D02*
X123742970Y-84899799D01*
X123682787Y-84754504D02*
X123652106Y-84600260D01*
X131848062Y-85484238D02*
X131793843Y-85541181D01*
X123558122Y-70578610D02*
X123470733Y-70447824D01*
X123470733Y-70447824D02*
X123416166Y-70391166D01*
X60428629Y-68630000D02*
X51681371Y-68630000D01*
X37219078Y-65785174D02*
X37370516Y-71483169D01*
X130166097Y-74269998D02*
X131793844Y-75897745D01*
X125689610Y-86761326D02*
X125544315Y-86701143D01*
X132028158Y-76463430D02*
X132028158Y-84975495D01*
X130718762Y-86613538D02*
X130588049Y-86700877D01*
X123652106Y-84600260D02*
X123650481Y-84521627D01*
X132026533Y-76384797D02*
X132028158Y-76463430D01*
X125544315Y-86701143D02*
X125413552Y-86613771D01*
X123618316Y-70723932D02*
X123558122Y-70578610D01*
X123650481Y-84521627D02*
X123650481Y-70956852D01*
X122143629Y-69450000D02*
X88855676Y-69449999D01*
X131935401Y-85353525D02*
X131848062Y-85484238D01*
X122222262Y-69451625D02*
X122143629Y-69450000D01*
X125413552Y-86613771D02*
X125356801Y-86559318D01*
X85458620Y-66384314D02*
G75*
G03*
X84892935Y-66150000I-565685J-565686D01*
G01*
X88289990Y-69215684D02*
G75*
G03*
X88855676Y-69449999I565689J565692D01*
G01*
X60428629Y-68630000D02*
G75*
G03*
X60994314Y-68395686I0J800000D01*
G01*
X51681371Y-68630000D02*
G75*
G03*
X51115685Y-68864315I-2J-799995D01*
G01*
X129677549Y-73781450D02*
G75*
G03*
X129323994Y-73635003I-353553J-353550D01*
G01*
X45993774Y-73810866D02*
G75*
G03*
X46383958Y-73596040I-175498J780510D01*
G01*
X37370516Y-71483169D02*
G75*
G03*
X37651896Y-72071280I799724J21257D01*
G01*
X124050000Y-84356140D02*
X124050000Y-70791365D01*
X59600656Y-60182511D02*
X62551025Y-63540346D01*
X122387748Y-69052105D02*
X122309115Y-69050480D01*
X122874800Y-69284794D02*
X122818049Y-69230341D01*
X59982821Y-53977791D02*
X59405848Y-59572396D01*
X63034725Y-65499824D02*
X62974342Y-65438183D01*
X125885926Y-86392636D02*
X125855097Y-86361807D01*
X122818049Y-69230341D02*
X122687287Y-69142969D01*
X131626713Y-84888611D02*
X131596043Y-85042798D01*
X130246205Y-86392636D02*
X125885926Y-86392636D01*
X123815685Y-70225679D02*
X122874800Y-69284794D01*
X125709802Y-86301624D02*
X125579039Y-86214252D01*
X125579039Y-86214252D02*
X125522288Y-86159799D01*
X130424040Y-86299880D02*
X130278800Y-86360041D01*
X123870252Y-70282337D02*
X123815685Y-70225679D01*
X85093629Y-65740000D02*
X63606212Y-65740000D01*
X130166099Y-76810001D02*
X131394325Y-78038227D01*
X131394324Y-85375694D02*
X130611696Y-86158322D01*
X131596043Y-85042798D02*
X131535882Y-85188038D01*
X130554753Y-86212541D02*
X130424040Y-86299880D01*
X131448778Y-78094978D02*
X131536150Y-78225740D01*
X125522288Y-86159799D02*
X124284314Y-84921825D01*
X131536150Y-78225740D02*
X131596333Y-78371035D01*
X124051625Y-84434773D02*
X124050000Y-84356140D01*
X129677544Y-76321448D02*
X130166099Y-76810001D01*
X122687287Y-69142969D02*
X122541992Y-69082786D01*
X124050000Y-70791365D02*
X124048521Y-70712717D01*
X131596333Y-78371035D02*
X131627014Y-78525279D01*
X124048521Y-70712717D02*
X124017835Y-70558445D01*
X124284314Y-84921825D02*
X124229861Y-84865074D01*
X124229861Y-84865074D02*
X124142489Y-84734312D01*
X131628639Y-84810008D02*
X131626713Y-84888611D01*
X131394325Y-78038227D02*
X131448778Y-78094978D01*
X130278800Y-86360041D02*
X130246205Y-86392636D01*
X131535882Y-85188038D02*
X131448543Y-85318751D01*
X125855097Y-86361807D02*
X125709802Y-86301624D01*
X124082306Y-84589017D02*
X124051625Y-84434773D01*
X124017835Y-70558445D02*
X123957641Y-70413123D01*
X131628639Y-78603912D02*
X131628639Y-84810008D01*
X131627014Y-78525279D02*
X131628639Y-78603912D01*
X130611696Y-86158322D02*
X130554753Y-86212541D01*
X122541992Y-69082786D02*
X122387748Y-69052105D01*
X88501165Y-68816165D02*
X85659314Y-65974314D01*
X62659360Y-63631250D02*
X52498174Y-64520239D01*
X122309115Y-69050480D02*
X89066851Y-69050480D01*
X129166098Y-76175004D02*
X129323986Y-76175002D01*
X62753532Y-64989107D02*
X62551025Y-63540346D01*
X124142489Y-84734312D02*
X124082306Y-84589017D01*
X131448543Y-85318751D02*
X131394324Y-85375694D01*
X123957641Y-70413123D02*
X123870252Y-70282337D01*
X85093629Y-65740000D02*
G75*
G02*
X85659314Y-65974314I0J-800000D01*
G01*
X129677544Y-76321448D02*
G75*
G03*
X129323986Y-76175002I-353553J-353554D01*
G01*
X59405848Y-59572396D02*
G75*
G03*
X59600657Y-60182510I795782J-82067D01*
G01*
X62753533Y-64989107D02*
G75*
G03*
X62974343Y-65438182I792302J110750D01*
G01*
X88501165Y-68816165D02*
G75*
G03*
X89066851Y-69050480I565689J565692D01*
G01*
X63606212Y-65739999D02*
G75*
G02*
X63034726Y-65499823I0J800000D01*
G01*
X124449519Y-84118989D02*
X124449519Y-70625878D01*
X125875219Y-85902236D02*
X125744433Y-85814847D01*
X130080719Y-85993116D02*
X126174813Y-85993116D01*
X131229120Y-84644521D02*
X131227321Y-84723137D01*
X125687775Y-85760280D02*
X124734507Y-84807012D01*
X130389267Y-85813021D02*
X130258554Y-85900360D01*
X131227321Y-84723137D02*
X131196647Y-84877348D01*
X124215204Y-70060192D02*
X123040286Y-68885274D01*
X125744433Y-85814847D02*
X125687775Y-85760280D01*
X129166097Y-78715000D02*
X129323992Y-78715000D01*
X131229120Y-80744394D02*
X131229120Y-84644521D01*
X88741645Y-68416645D02*
X84578707Y-64253707D01*
X126174813Y-85993116D02*
X126020541Y-85962430D01*
X129677544Y-78861447D02*
X130166097Y-79350000D01*
X82519393Y-51108851D02*
X81510988Y-56645167D01*
X131196647Y-84877348D02*
X131136477Y-85022611D01*
X130994805Y-85210207D02*
X130446210Y-85758802D01*
X130113314Y-85960521D02*
X130080719Y-85993116D01*
X131049123Y-85153345D02*
X130994805Y-85210207D01*
X81648940Y-57256145D02*
X84244393Y-60858851D01*
X84344393Y-60958851D02*
X74144393Y-60958851D01*
X130258554Y-85900360D02*
X130113314Y-85960521D01*
X131136477Y-85022611D02*
X131049123Y-85153345D01*
X126020541Y-85962430D02*
X125875219Y-85902236D01*
X130166097Y-79350000D02*
X130994806Y-80178709D01*
X84344393Y-63688022D02*
X84344393Y-60958851D01*
X122474601Y-68650960D02*
X89307331Y-68650960D01*
X130446210Y-85758802D02*
X130389267Y-85813021D01*
X131229120Y-80744394D02*
G75*
G03*
X130994806Y-80178709I-800000J0D01*
G01*
X89307331Y-68650960D02*
G75*
G02*
X88741645Y-68416645I-2J799995D01*
G01*
X122474601Y-68650960D02*
G75*
G02*
X123040286Y-68885274I0J-800000D01*
G01*
X124449519Y-84118989D02*
G75*
G03*
X124734507Y-84807012I973014J1D01*
G01*
X129677544Y-78861447D02*
G75*
G03*
X129323992Y-78715000I-353551J-353545D01*
G01*
X81648940Y-57256145D02*
G75*
G02*
X81510988Y-56645167I649098J467622D01*
G01*
X124449519Y-70625878D02*
G75*
G03*
X124215204Y-70060192I-799995J2D01*
G01*
X84578707Y-64253707D02*
G75*
G02*
X84344393Y-63688022I565686J565685D01*
G01*
X130737111Y-82506703D02*
X130797294Y-82651998D01*
X122640087Y-68251440D02*
X103507811Y-68251440D01*
X126340345Y-85593150D02*
X126186158Y-85562480D01*
X103507811Y-68251440D02*
X103429163Y-68249961D01*
X123205772Y-68485754D02*
X123149021Y-68431301D01*
X124894644Y-70428989D02*
X124863962Y-70274745D01*
X130829600Y-82884875D02*
X130829601Y-84432821D01*
X102365392Y-67309592D02*
X102334711Y-67155348D01*
X102998783Y-68071692D02*
X102942125Y-68017125D01*
X130683154Y-84786375D02*
X130573077Y-84896452D01*
X124997453Y-84502682D02*
X124931839Y-84389034D01*
X130595286Y-82319190D02*
X130649739Y-82375941D01*
X124863962Y-70274745D02*
X124803779Y-70129450D01*
X124803779Y-70129450D02*
X124716407Y-69998687D01*
X130797294Y-82651998D02*
X130827975Y-82806242D01*
X126040918Y-85502319D02*
X125910205Y-85414980D01*
X124661954Y-69941936D02*
X123205772Y-68485754D01*
X103129569Y-68159081D02*
X102998783Y-68071692D01*
X124896269Y-70507622D02*
X124894644Y-70428989D01*
X124716407Y-69998687D02*
X124661954Y-69941936D01*
X102425575Y-67454887D02*
X102365392Y-67309592D01*
X124897874Y-84262276D02*
X124896269Y-84196661D01*
X100508086Y-54477567D02*
X99473168Y-60115858D01*
X102512947Y-67585649D02*
X102425575Y-67454887D01*
X102567400Y-67642400D02*
X102512947Y-67585649D01*
X126186158Y-85562480D02*
X126040918Y-85502319D01*
X130649739Y-82375941D02*
X130737111Y-82506703D01*
X102333086Y-67076715D02*
X102333086Y-64327567D01*
X125853262Y-85360761D02*
X125132382Y-84639881D01*
X130827975Y-82806242D02*
X130829600Y-82884875D01*
X123018259Y-68343929D02*
X122872964Y-68283746D01*
X125042715Y-84550214D02*
X124997453Y-84502682D01*
X130573077Y-84896452D02*
X130573077Y-84901923D01*
X130573077Y-84901923D02*
X130028296Y-85446704D01*
X130166098Y-81890002D02*
X130595286Y-82319190D01*
X102942125Y-68017125D02*
X102567400Y-67642400D01*
X124896269Y-84196661D02*
X124896269Y-70507622D01*
X99619812Y-60740005D02*
X102233086Y-64227567D01*
X102334711Y-67155348D02*
X102333086Y-67076715D01*
X103429163Y-68249961D02*
X103274891Y-68219275D01*
X125910205Y-85414980D02*
X125853262Y-85360761D01*
X125075439Y-84582938D02*
X125042715Y-84550214D01*
X129674743Y-85593150D02*
X126340345Y-85593150D01*
X122872964Y-68283746D02*
X122718720Y-68253065D01*
X123149021Y-68431301D02*
X123018259Y-68343929D01*
X125132382Y-84639881D02*
X125078163Y-84582938D01*
X92133086Y-64327566D02*
X102333090Y-64327569D01*
X125078163Y-84582938D02*
X125075439Y-84582938D01*
X129166099Y-81255000D02*
X129323992Y-81255000D01*
X103274891Y-68219275D02*
X103129569Y-68159081D01*
X122718720Y-68253065D02*
X122640087Y-68251440D01*
X129677545Y-81401447D02*
X130166098Y-81890002D01*
X124931839Y-84389034D02*
X124897874Y-84262276D01*
X129677545Y-81401447D02*
G75*
G03*
X129323992Y-81255000I-353555J-353557D01*
G01*
X129674743Y-85593149D02*
G75*
G03*
X130028296Y-85446704I0J500001D01*
G01*
X130683154Y-84786375D02*
G75*
G03*
X130829601Y-84432821I-353550J353553D01*
G01*
X99619813Y-60740005D02*
G75*
G02*
X99473169Y-60115858I640202J479717D01*
G01*
X125390077Y-84286882D02*
X125329894Y-84141587D01*
X126302698Y-85178315D02*
X126230159Y-85148268D01*
X126230159Y-85148268D02*
X126160782Y-85101912D01*
X126132292Y-85074785D02*
X125531902Y-84474395D01*
X125063273Y-69778249D02*
X123371258Y-68086234D01*
X122805573Y-67851920D02*
X121358291Y-67851920D01*
X130025000Y-84612349D02*
X129623580Y-85013769D01*
X130025000Y-84450000D02*
X129993533Y-84450000D01*
X126160782Y-85101912D02*
X126132292Y-85074785D01*
X130025000Y-84450000D02*
X130025000Y-84612349D01*
X118500000Y-54475000D02*
X117518609Y-59990607D01*
X125477449Y-84417644D02*
X125390077Y-84286882D01*
X110125000Y-64325000D02*
X120325000Y-64325000D01*
X126379693Y-85193630D02*
X126302698Y-85178315D01*
X129114646Y-85193630D02*
X126379693Y-85193630D01*
X125531902Y-84474395D02*
X125477449Y-84417644D01*
X125299213Y-83987343D02*
X125297588Y-83908710D01*
X120325000Y-66818629D02*
X120325000Y-64325000D01*
X120792605Y-67617605D02*
X120559314Y-67384314D01*
X129993533Y-84450000D02*
X129338536Y-83795003D01*
X117653336Y-60593048D02*
X120225000Y-64225000D01*
X125297588Y-83908710D02*
X125297588Y-70343935D01*
X129338536Y-83795003D02*
X129166099Y-83795003D01*
X125329894Y-84141587D02*
X125299213Y-83987343D01*
X120325000Y-66818629D02*
G75*
G03*
X120559314Y-67384314I800000J0D01*
G01*
X129114646Y-85193630D02*
G75*
G03*
X129623580Y-85013769I-3400J819589D01*
G01*
X117518610Y-59990607D02*
G75*
G03*
X117653337Y-60593048I787631J-140143D01*
G01*
X120792605Y-67617605D02*
G75*
G03*
X121358291Y-67851920I565689J565692D01*
G01*
X122805573Y-67851920D02*
G75*
G02*
X123371258Y-68086234I0J-800000D01*
G01*
X125063273Y-69778249D02*
G75*
G02*
X125297588Y-70343935I-565692J-565689D01*
G01*
X40898554Y-82382199D02*
X41240139Y-88286688D01*
X134025756Y-69503717D02*
X134025754Y-69503719D01*
X137818099Y-65380003D02*
X134260070Y-68938032D01*
X53335685Y-85654315D02*
X48321592Y-90668408D01*
X64428662Y-83101338D02*
X62344314Y-85185686D01*
X61778629Y-85420000D02*
X53901371Y-85420000D01*
X131037452Y-88791231D02*
X125095054Y-88791230D01*
X44692951Y-91527727D02*
X34929990Y-93692123D01*
X41522784Y-88851814D02*
X44692951Y-91527727D01*
X47911996Y-90887347D02*
X44692951Y-91527727D01*
X134025754Y-69503719D02*
X134025754Y-85802929D01*
X138306649Y-65868554D02*
X137818099Y-65380003D01*
X138818099Y-66015001D02*
X138660203Y-66015001D01*
X124529368Y-88556915D02*
X122830324Y-86857871D01*
X88609230Y-86389242D02*
X85321325Y-83101337D01*
X122264639Y-86623557D02*
X89174916Y-86623557D01*
X133791439Y-86368615D02*
X131603137Y-88556917D01*
X84755640Y-82867023D02*
X64994348Y-82867023D01*
X88609230Y-86389242D02*
G75*
G03*
X89174916Y-86623557I565689J565692D01*
G01*
X134025756Y-69503717D02*
G75*
G02*
X134260070Y-68938032I800000J0D01*
G01*
X122264639Y-86623557D02*
G75*
G02*
X122830324Y-86857871I0J-800000D01*
G01*
X41522784Y-88851814D02*
G75*
G02*
X41240140Y-88286688I516027J611333D01*
G01*
X131037452Y-88791231D02*
G75*
G03*
X131603137Y-88556917I0J800000D01*
G01*
X53901371Y-85420000D02*
G75*
G03*
X53335685Y-85654315I-2J-799995D01*
G01*
X85321325Y-83101337D02*
G75*
G03*
X84755640Y-82867023I-565685J-565686D01*
G01*
X133791439Y-86368615D02*
G75*
G03*
X134025754Y-85802929I-565692J565689D01*
G01*
X61778629Y-85420000D02*
G75*
G03*
X62344314Y-85185686I0J800000D01*
G01*
X64994348Y-82867023D02*
G75*
G03*
X64428662Y-83101338I-2J-799995D01*
G01*
X124529368Y-88556915D02*
G75*
G03*
X125095054Y-88791230I565689J565692D01*
G01*
X47911996Y-90887347D02*
G75*
G03*
X48321592Y-90668408I-156090J784626D01*
G01*
X138306649Y-65868554D02*
G75*
G03*
X138660203Y-66015001I353553J353550D01*
G01*
X133391920Y-86203128D02*
X131437651Y-88157397D01*
X64032667Y-81481296D02*
X64032667Y-80475662D01*
X138818099Y-56187894D02*
X138818100Y-55855003D01*
X119375000Y-86224040D02*
X89340403Y-86224038D01*
X84921126Y-82467503D02*
X65018874Y-82467503D01*
X136124090Y-59420381D02*
X136124090Y-66177635D01*
X61295450Y-77214757D02*
X64032667Y-80475662D01*
X64032667Y-80475662D02*
X54070720Y-81347220D01*
X136818099Y-58395001D02*
X138671653Y-56541446D01*
X130871966Y-88391711D02*
X125260541Y-88391711D01*
X136818099Y-58395001D02*
X136358405Y-58854695D01*
X135889775Y-66743321D02*
X133860550Y-68772546D01*
X122430128Y-86224040D02*
X119375000Y-86224040D01*
X124694855Y-88157396D02*
X122995813Y-86458354D01*
X88774717Y-85989723D02*
X85486811Y-82701817D01*
X61464463Y-70913107D02*
X61109719Y-76651053D01*
X64453188Y-82233188D02*
X64266981Y-82046981D01*
X133626236Y-69338231D02*
X133626235Y-85637442D01*
X122430128Y-86224040D02*
G75*
G02*
X122995813Y-86458354I0J-800000D01*
G01*
X61109719Y-76651053D02*
G75*
G03*
X61295450Y-77214757I798479J-49364D01*
G01*
X64453188Y-82233188D02*
G75*
G03*
X65018874Y-82467503I565689J565692D01*
G01*
X133626236Y-69338231D02*
G75*
G02*
X133860550Y-68772546I800000J0D01*
G01*
X84921126Y-82467503D02*
G75*
G02*
X85486811Y-82701817I0J-800000D01*
G01*
X64032667Y-81481296D02*
G75*
G03*
X64266981Y-82046981I800000J0D01*
G01*
X138671653Y-56541446D02*
G75*
G03*
X138818099Y-56187894I-353551J353552D01*
G01*
X135889775Y-66743321D02*
G75*
G03*
X136124090Y-66177635I-565692J565689D01*
G01*
X133391920Y-86203128D02*
G75*
G03*
X133626235Y-85637442I-565680J565684D01*
G01*
X124694855Y-88157396D02*
G75*
G03*
X125260541Y-88391711I565684J565680D01*
G01*
X136124090Y-59420381D02*
G75*
G02*
X136358405Y-58854695I799995J2D01*
G01*
X130871966Y-88391711D02*
G75*
G03*
X131437651Y-88157397I0J800000D01*
G01*
X88774717Y-85989723D02*
G75*
G03*
X89340403Y-86224038I565684J565680D01*
G01*
X81680795Y-74354482D02*
X84244389Y-77858851D01*
X84344389Y-80663018D02*
X84344389Y-77958851D01*
X129677538Y-66161447D02*
X130166097Y-66650000D01*
X130350000Y-66650000D02*
X132992402Y-69292402D01*
X132992401Y-86037641D02*
X131272164Y-87757878D01*
X122595614Y-85824520D02*
X89505890Y-85824519D01*
X124860342Y-87757877D02*
X123161299Y-86058834D01*
X129166098Y-66015000D02*
X129323992Y-66015002D01*
X130166097Y-66650000D02*
X130350000Y-66650000D01*
X84344389Y-77958851D02*
X74144389Y-77958851D01*
X88940204Y-85590204D02*
X84578703Y-81228703D01*
X130706479Y-87992192D02*
X125426028Y-87992192D01*
X82519389Y-68108851D02*
X81538321Y-73744951D01*
X133226716Y-69858087D02*
X133226716Y-85471955D01*
X125426028Y-87992192D02*
G75*
G02*
X124860342Y-87757877I-2J799995D01*
G01*
X84578703Y-81228703D02*
G75*
G02*
X84344389Y-80663018I565686J565685D01*
G01*
X81680795Y-74354482D02*
G75*
G02*
X81538322Y-73744951I645668J472337D01*
G01*
X88940204Y-85590204D02*
G75*
G03*
X89505890Y-85824519I565689J565692D01*
G01*
X133226716Y-85471955D02*
G75*
G02*
X132992401Y-86037641I-799995J-2D01*
G01*
X129323992Y-66015003D02*
G75*
G02*
X129677537Y-66161448I-5J-499998D01*
G01*
X133226716Y-69858087D02*
G75*
G03*
X132992402Y-69292402I-800000J0D01*
G01*
X130706479Y-87992192D02*
G75*
G03*
X131272164Y-87757878I0J800000D01*
G01*
X122595614Y-85824520D02*
G75*
G02*
X123161299Y-86058834I0J-800000D01*
G01*
X132827197Y-72182475D02*
X132827196Y-85306469D01*
X129166098Y-68555002D02*
X129323990Y-68555002D01*
X129677546Y-68701450D02*
X130166096Y-69190003D01*
X132592881Y-85872155D02*
X131106677Y-87358359D01*
X130540992Y-87592673D02*
X125591515Y-87592673D01*
X122761100Y-85425000D02*
X103806371Y-85425000D01*
X99683258Y-77488714D02*
X102233093Y-81227564D01*
X125025829Y-87358358D02*
X123326785Y-85659314D01*
X130166096Y-69190003D02*
X132592883Y-71616790D01*
X102333093Y-83951722D02*
X102333093Y-81327564D01*
X92133084Y-81327568D02*
X102333101Y-81327570D01*
X100508093Y-71477564D02*
X99556239Y-76899644D01*
X103240685Y-85190685D02*
X102567407Y-84517407D01*
X131106677Y-87358359D02*
G75*
G02*
X130540992Y-87592673I-565685J565686D01*
G01*
X132592881Y-85872155D02*
G75*
G03*
X132827196Y-85306469I-565692J565689D01*
G01*
X122761100Y-85425000D02*
G75*
G02*
X123326785Y-85659314I0J-800000D01*
G01*
X132592883Y-71616790D02*
G75*
G02*
X132827197Y-72182475I-565686J-565685D01*
G01*
X99556240Y-76899644D02*
G75*
G03*
X99683259Y-77488714I787951J-138326D01*
G01*
X129677546Y-68701450D02*
G75*
G03*
X129323990Y-68555002I-353554J-353549D01*
G01*
X102333093Y-83951722D02*
G75*
G03*
X102567407Y-84517407I800000J0D01*
G01*
X125591515Y-87592673D02*
G75*
G02*
X125025829Y-87358358I-2J799995D01*
G01*
X103806371Y-85425000D02*
G75*
G02*
X103240685Y-85190685I-2J799995D01*
G01*
X129677544Y-71241448D02*
X130166097Y-71730000D01*
X117713747Y-77586245D02*
X120225004Y-81224999D01*
X122926586Y-85025480D02*
X121381851Y-85025480D01*
X118500004Y-71474999D02*
X117582961Y-77000869D01*
X125191315Y-86958838D02*
X123492271Y-85259794D01*
X132193362Y-85706668D02*
X130941191Y-86958839D01*
X130166097Y-71730000D02*
X132193363Y-73757266D01*
X120325000Y-83968629D02*
X120325004Y-81324999D01*
X129166096Y-71095001D02*
X129323992Y-71095001D01*
X120816165Y-84791165D02*
X120559315Y-84534315D01*
X130375506Y-87193153D02*
X125757001Y-87193153D01*
X110125004Y-81324999D02*
X120325004Y-81324999D01*
X132427677Y-74322951D02*
X132427677Y-85140982D01*
X123492271Y-85259794D02*
G75*
G03*
X122926586Y-85025480I-565685J-565686D01*
G01*
X132193362Y-85706668D02*
G75*
G03*
X132427677Y-85140982I-565692J565689D01*
G01*
X129677544Y-71241448D02*
G75*
G03*
X129323992Y-71095001I-353551J-353545D01*
G01*
X120816165Y-84791165D02*
G75*
G03*
X121381851Y-85025480I565689J565692D01*
G01*
X120559315Y-84534315D02*
G75*
G02*
X120325000Y-83968629I565680J565684D01*
G01*
X125191315Y-86958838D02*
G75*
G03*
X125757001Y-87193153I565689J565692D01*
G01*
X130375506Y-87193153D02*
G75*
G03*
X130941191Y-86958839I0J800000D01*
G01*
X117713747Y-77586245D02*
G75*
G02*
X117582961Y-77000869I658415J454403D01*
G01*
X132427677Y-74322951D02*
G75*
G03*
X132193363Y-73757266I-800000J0D01*
G01*
X135789038Y-87196046D02*
X132430569Y-90554515D01*
X125405384Y-92120405D02*
X125374702Y-92274649D01*
X136021728Y-86708993D02*
X135991046Y-86863237D01*
X44573697Y-98979846D02*
X44929982Y-104594542D01*
X126371845Y-91023143D02*
X125607392Y-91787596D01*
X125465567Y-91975110D02*
X125405384Y-92120405D01*
X136115712Y-79827874D02*
X136055518Y-79973196D01*
X131864884Y-90788829D02*
X126937530Y-90788829D01*
X135991046Y-86863237D02*
X135930863Y-87008532D01*
X126428596Y-90968690D02*
X126371845Y-91023143D01*
X135930863Y-87008532D02*
X135843491Y-87139295D01*
X126704653Y-90821135D02*
X126559358Y-90881318D01*
X136023353Y-80206116D02*
X136023353Y-86630360D01*
X126559358Y-90881318D02*
X126428596Y-90968690D01*
X86295640Y-101282023D02*
X66956371Y-101282023D01*
X136023353Y-86630360D02*
X136021728Y-86708993D01*
X38529148Y-110409043D02*
X48487367Y-108201359D01*
X131943517Y-90787204D02*
X131864884Y-90788829D01*
X66390685Y-101516338D02*
X62401234Y-105505789D01*
X132243056Y-90696340D02*
X132097761Y-90756523D01*
X138306651Y-78568557D02*
X137818097Y-78080001D01*
X122628653Y-103000000D02*
X88676359Y-103000000D01*
X136024832Y-80127468D02*
X136023353Y-80206116D01*
X136203101Y-79697088D02*
X136115712Y-79827874D01*
X125138761Y-100821263D02*
X123194338Y-102765686D01*
X125552939Y-91844347D02*
X125465567Y-91975110D01*
X136055518Y-79973196D02*
X136024832Y-80127468D01*
X125373077Y-92353282D02*
X125373076Y-100255577D01*
X125607392Y-91787596D02*
X125552939Y-91844347D01*
X132097761Y-90756523D02*
X131943517Y-90787204D01*
X45180235Y-105126580D02*
X48368094Y-108125374D01*
X61979854Y-105726980D02*
X48487367Y-108201359D01*
X125374702Y-92274649D02*
X125373077Y-92353282D01*
X126858897Y-90790454D02*
X126704653Y-90821135D01*
X132430569Y-90554515D02*
X132373818Y-90608968D01*
X88110673Y-102765685D02*
X86861325Y-101516337D01*
X137818097Y-78080001D02*
X136257668Y-79640430D01*
X138818098Y-78715004D02*
X138660204Y-78715004D01*
X136257668Y-79640430D02*
X136203101Y-79697088D01*
X135843491Y-87139295D02*
X135789038Y-87196046D01*
X126937530Y-90788829D02*
X126858897Y-90790454D01*
X132373818Y-90608968D02*
X132243056Y-90696340D01*
X61979854Y-105726979D02*
G75*
G03*
X62401233Y-105505788I-144302J786873D01*
G01*
X125138761Y-100821263D02*
G75*
G03*
X125373076Y-100255577I-565692J565689D01*
G01*
X88676359Y-103000000D02*
G75*
G02*
X88110673Y-102765685I-2J799995D01*
G01*
X44929983Y-104594542D02*
G75*
G03*
X45180236Y-105126579I798398J50666D01*
G01*
X66956371Y-101282023D02*
G75*
G03*
X66390685Y-101516338I-2J-799995D01*
G01*
X138306651Y-78568557D02*
G75*
G03*
X138660204Y-78715004I353555J353557D01*
G01*
X86295640Y-101282023D02*
G75*
G02*
X86861325Y-101516337I0J-800000D01*
G01*
X123194338Y-102765686D02*
G75*
G02*
X122628653Y-103000000I-565685J565686D01*
G01*
X126693410Y-90390935D02*
X126539166Y-90421616D01*
X125207873Y-91622109D02*
X125153420Y-91678860D01*
X135389519Y-87030559D02*
X132265082Y-90154996D01*
X124739242Y-100655776D02*
X123030294Y-102364724D01*
X88274717Y-102364723D02*
X87026811Y-101116817D01*
X132208331Y-90209449D02*
X132077569Y-90296821D01*
X132077569Y-90296821D02*
X131932274Y-90357004D01*
X138306651Y-76028557D02*
X137818095Y-75540003D01*
X66248188Y-100648188D02*
X66147233Y-100547233D01*
X132265082Y-90154996D02*
X132208331Y-90209449D01*
X135803696Y-77556700D02*
X135716324Y-77687463D01*
X135623834Y-78065635D02*
X135623834Y-86464873D01*
X126539166Y-90421616D02*
X126393871Y-90481799D01*
X125005865Y-91954918D02*
X124975183Y-92109162D01*
X137818095Y-75540003D02*
X135858149Y-77499949D01*
X125153420Y-91678860D02*
X125066048Y-91809623D01*
X86461126Y-100882503D02*
X66813874Y-100882503D01*
X135591527Y-86697750D02*
X135531344Y-86843045D01*
X125066048Y-91809623D02*
X125005865Y-91954918D01*
X135656141Y-77832758D02*
X135625459Y-77987002D01*
X62946111Y-87848415D02*
X62533601Y-93506293D01*
X124975183Y-92109162D02*
X124973558Y-92187795D01*
X131932274Y-90357004D02*
X131778030Y-90387685D01*
X62718608Y-94078648D02*
X65514315Y-97410970D01*
X135858149Y-77499949D02*
X135803696Y-77556700D01*
X65622650Y-97501874D02*
X55461464Y-98390863D01*
X131699397Y-90389310D02*
X126772043Y-90389310D01*
X135625459Y-77987002D02*
X135623834Y-78065635D01*
X65918151Y-100072895D02*
X65622650Y-97501874D01*
X126393871Y-90481799D02*
X126263109Y-90569171D01*
X135622209Y-86543506D02*
X135591527Y-86697750D01*
X131778030Y-90387685D02*
X131699397Y-90389310D01*
X138818097Y-76175004D02*
X138660200Y-76175003D01*
X135531344Y-86843045D02*
X135443972Y-86973808D01*
X135623834Y-86464873D02*
X135622209Y-86543506D01*
X126206358Y-90623624D02*
X125207873Y-91622109D01*
X124973558Y-92187795D02*
X124973557Y-100090090D01*
X135443972Y-86973808D02*
X135389519Y-87030559D01*
X126263109Y-90569171D02*
X126206358Y-90623624D01*
X126772043Y-90389310D02*
X126693410Y-90390935D01*
X135716324Y-77687463D02*
X135656141Y-77832758D01*
X122464609Y-102599038D02*
X88840403Y-102599038D01*
X66147233Y-100547233D02*
G75*
G02*
X65918151Y-100072895I565687J565686D01*
G01*
X123030294Y-102364724D02*
G75*
G02*
X122464609Y-102599038I-565685J565686D01*
G01*
X88274717Y-102364723D02*
G75*
G03*
X88840403Y-102599038I565689J565692D01*
G01*
X87026811Y-101116817D02*
G75*
G03*
X86461126Y-100882503I-565685J-565686D01*
G01*
X66813874Y-100882503D02*
G75*
G02*
X66248188Y-100648188I-2J799995D01*
G01*
X62718608Y-94078648D02*
G75*
G02*
X62533601Y-93506293I612866J514180D01*
G01*
X124739242Y-100655776D02*
G75*
G03*
X124973557Y-100090090I-565692J565689D01*
G01*
X138306651Y-76028557D02*
G75*
G03*
X138660200Y-76175003I353554J353558D01*
G01*
X134990001Y-86865071D02*
X132099597Y-89755475D01*
X124574038Y-92022309D02*
X124574038Y-99924603D01*
X135458630Y-75359475D02*
X135404177Y-75416226D01*
X82519382Y-85108862D02*
X81510789Y-90740571D01*
X88440204Y-101965204D02*
X84578696Y-98103696D01*
X135224316Y-75925160D02*
X135224316Y-86299385D01*
X81655026Y-91357258D02*
X84244382Y-94858862D01*
X135256622Y-75692283D02*
X135225941Y-75846527D01*
X131533912Y-89989789D02*
X126606557Y-89989790D01*
X126040871Y-90224105D02*
X124808352Y-91456624D01*
X138818098Y-73635001D02*
X138660206Y-73635001D01*
X138306653Y-73488555D02*
X137818101Y-73000004D01*
X122299122Y-102199519D02*
X89005890Y-102199519D01*
X135316805Y-75546988D02*
X135256622Y-75692283D01*
X137818101Y-73000004D02*
X135458630Y-75359475D01*
X84344382Y-94958862D02*
X74144382Y-94958862D01*
X84344382Y-97538011D02*
X84344382Y-94958862D01*
X135404177Y-75416226D02*
X135316805Y-75546988D01*
X124339723Y-100490289D02*
X122864807Y-101965205D01*
X135225941Y-75846527D02*
X135224316Y-75925160D01*
X124574038Y-99924603D02*
G75*
G02*
X124339723Y-100490289I-799995J-2D01*
G01*
X124574038Y-92022309D02*
G75*
G02*
X124808352Y-91456624I800000J0D01*
G01*
X84344382Y-97538011D02*
G75*
G03*
X84578696Y-98103696I800000J0D01*
G01*
X138306653Y-73488555D02*
G75*
G03*
X138660206Y-73635001I353553J353556D01*
G01*
X131533912Y-89989789D02*
G75*
G03*
X132099597Y-89755475I0J800000D01*
G01*
X89005890Y-102199519D02*
G75*
G02*
X88440204Y-101965204I-2J799995D01*
G01*
X126040871Y-90224105D02*
G75*
G02*
X126606557Y-89989790I565689J-565692D01*
G01*
X134990001Y-86865071D02*
G75*
G03*
X135224316Y-86299385I-565692J565689D01*
G01*
X122299122Y-102199519D02*
G75*
G03*
X122864807Y-101965205I0J800000D01*
G01*
X81655026Y-91357258D02*
G75*
G02*
X81510789Y-90740571I643231J475657D01*
G01*
X135004657Y-73275741D02*
X134917285Y-73406503D01*
X134917285Y-73406503D02*
X134857102Y-73551798D01*
X125875384Y-89824586D02*
X124408834Y-91291136D01*
X122133635Y-101800000D02*
X103381371Y-101800000D01*
X134824796Y-73784675D02*
X134824796Y-86133899D01*
X134823317Y-86212547D02*
X134792631Y-86366819D01*
X134792631Y-86366819D02*
X134732437Y-86512141D01*
X124176145Y-91778188D02*
X124174520Y-91856821D01*
X138306650Y-70948555D02*
X137818097Y-70460003D01*
X134590481Y-86699585D02*
X131934110Y-89355956D01*
X131368425Y-89590270D02*
X126441070Y-89590271D01*
X124267009Y-91478649D02*
X124206826Y-91623944D01*
X126362422Y-89591750D02*
X126208150Y-89622436D01*
X123940204Y-100324802D02*
X122699320Y-101565686D01*
X100508093Y-88477566D02*
X99629649Y-94035852D01*
X135059110Y-73218990D02*
X135004657Y-73275741D01*
X126208150Y-89622436D02*
X126062828Y-89682630D01*
X124354381Y-91347887D02*
X124267009Y-91478649D01*
X124206826Y-91623944D02*
X124176145Y-91778188D01*
X102815685Y-101565685D02*
X102567407Y-101317407D01*
X134732437Y-86512141D02*
X134645048Y-86642927D01*
X134857102Y-73551798D02*
X134826421Y-73706042D01*
X131877359Y-89410409D02*
X131746597Y-89497781D01*
X131601302Y-89557964D02*
X131447058Y-89588645D01*
X92133086Y-98327574D02*
X102333085Y-98327565D01*
X102333093Y-100751722D02*
X102333093Y-98327566D01*
X134826421Y-73706042D02*
X134824796Y-73784675D01*
X134645048Y-86642927D02*
X134590481Y-86699585D01*
X131447058Y-89588645D02*
X131368425Y-89590270D01*
X126062828Y-89682630D02*
X125932042Y-89770019D01*
X126441070Y-89590271D02*
X126362422Y-89591750D01*
X134824796Y-86133899D02*
X134823317Y-86212547D01*
X131746597Y-89497781D02*
X131601302Y-89557964D01*
X125932042Y-89770019D02*
X125875384Y-89824586D01*
X99759597Y-94612486D02*
X102233093Y-98227566D01*
X131934110Y-89355956D02*
X131877359Y-89410409D01*
X124408834Y-91291136D02*
X124354381Y-91347887D01*
X124174520Y-91856821D02*
X124174519Y-99759116D01*
X138818097Y-71095001D02*
X138660204Y-71095001D01*
X137818097Y-70460003D02*
X135059110Y-73218990D01*
X103381371Y-101800000D02*
G75*
G02*
X102815685Y-101565685I-2J799995D01*
G01*
X123940204Y-100324802D02*
G75*
G03*
X124174519Y-99759116I-565692J565689D01*
G01*
X122699320Y-101565686D02*
G75*
G02*
X122133635Y-101800000I-565685J565686D01*
G01*
X99759597Y-94612486D02*
G75*
G02*
X99629650Y-94035852I660244J451749D01*
G01*
X138660204Y-71095000D02*
G75*
G02*
X138306650Y-70948555I-1J500001D01*
G01*
X102333093Y-100751722D02*
G75*
G03*
X102567407Y-101317407I800000J0D01*
G01*
X138306648Y-68408553D02*
X137818099Y-67920001D01*
X123775000Y-91691339D02*
X123775000Y-99593629D01*
X121968629Y-101400000D02*
X121306371Y-101400000D01*
X118516911Y-88472430D02*
X117602499Y-94144361D01*
X123540685Y-100159315D02*
X122534314Y-101165686D01*
X131202938Y-89190751D02*
X126275583Y-89190752D01*
X125709897Y-89425067D02*
X124009312Y-91125652D01*
X117742266Y-94738011D02*
X120241911Y-98222430D01*
X123774998Y-91691337D02*
X123775000Y-91691339D01*
X134190961Y-86534099D02*
X131768623Y-88956437D01*
X134425276Y-71644195D02*
X134425276Y-85968413D01*
X137818099Y-67920001D02*
X134659590Y-71078510D01*
X110141911Y-98322430D02*
X120341911Y-98322430D01*
X138818098Y-68555001D02*
X138660204Y-68555001D01*
X120740685Y-101165685D02*
X120576225Y-101001225D01*
X120341911Y-100435540D02*
X120341911Y-98322430D01*
X131768623Y-88956437D02*
G75*
G02*
X131202938Y-89190751I-565685J565686D01*
G01*
X120341911Y-100435540D02*
G75*
G03*
X120576225Y-101001225I800000J0D01*
G01*
X123540685Y-100159315D02*
G75*
G03*
X123775000Y-99593629I-565692J565689D01*
G01*
X122534314Y-101165686D02*
G75*
G02*
X121968629Y-101400000I-565685J565686D01*
G01*
X121306371Y-101400000D02*
G75*
G02*
X120740685Y-101165685I-2J799995D01*
G01*
X123774998Y-91691337D02*
G75*
G02*
X124009312Y-91125652I800000J0D01*
G01*
X134425276Y-71644195D02*
G75*
G02*
X134659590Y-71078510I800000J0D01*
G01*
X117742267Y-94738010D02*
G75*
G02*
X117602500Y-94144361I650035J466320D01*
G01*
X138306648Y-68408553D02*
G75*
G03*
X138660204Y-68555001I353554J353549D01*
G01*
X134425276Y-85968413D02*
G75*
G02*
X134190961Y-86534099I-799995J-2D01*
G01*
X125709897Y-89425067D02*
G75*
G02*
X126275583Y-89190752I565689J-565692D01*
G01*
X129312545Y-61986448D02*
X130166098Y-62840002D01*
X129166098Y-60935002D02*
X129166099Y-61632896D01*
X129166099Y-61632896D02*
G75*
G03*
X129312545Y-61986448I499997J0D01*
G01*
X138818098Y-58592894D02*
X138818098Y-58395005D01*
X137318098Y-60300003D02*
X138671652Y-58946447D01*
X138671652Y-58946447D02*
G75*
G03*
X138818098Y-58592894I-353556J353553D01*
G01*
D26*
X128564340Y-100085660D02*
X129389085Y-99260915D01*
X51479257Y-66135546D02*
X50137147Y-65109916D01*
X33854126Y-95837096D02*
X32444926Y-95025397D01*
X115225004Y-83324999D02*
X109682884Y-83329569D01*
X104224997Y-117477988D02*
X103196031Y-116629996D01*
X29883544Y-79143587D02*
X28640615Y-78258138D01*
X89066032Y-81028654D02*
X88958093Y-73677564D01*
X49560189Y-64109418D02*
X48668515Y-57176069D01*
X70979038Y-94603162D02*
X70969382Y-87308862D01*
D27*
X133397027Y-55165368D02*
X134000581Y-54561815D01*
D26*
X50799805Y-80891751D02*
X50150157Y-74111385D01*
X60716369Y-99938758D02*
X55161590Y-100387094D01*
D27*
X129312546Y-59581451D02*
X130666098Y-60935001D01*
D26*
X128125000Y-107096575D02*
X128125000Y-101146320D01*
X52824524Y-83104554D02*
X51351244Y-81916230D01*
D27*
X129166098Y-58395003D02*
X129166099Y-59227897D01*
D26*
X59234721Y-83003450D02*
X53886108Y-83432214D01*
X79244389Y-79958851D02*
X73563479Y-79950721D01*
X115225000Y-66325000D02*
X109694520Y-66325000D01*
X52378541Y-98241495D02*
X51631805Y-91046693D01*
X88959829Y-97861277D02*
X88958093Y-90677566D01*
X72753150Y-62512588D02*
X71612659Y-61450752D01*
X97233093Y-100327566D02*
X91626130Y-100320660D01*
X72641580Y-96638394D02*
X71551048Y-95779666D01*
X108633860Y-65885660D02*
X107389340Y-64641140D01*
X106966911Y-97325591D02*
X106966911Y-90672430D01*
X97233093Y-83327564D02*
X91699829Y-83320533D01*
X108903090Y-99883090D02*
X107406251Y-98386251D01*
D27*
X131890817Y-59710280D02*
X130666098Y-60935001D01*
X133250581Y-55711815D02*
X133250580Y-55518925D01*
D26*
X79244393Y-62958851D02*
X73763194Y-62914698D01*
D27*
X138818098Y-60997895D02*
X138818098Y-60935003D01*
D26*
X97233086Y-66327567D02*
X91684863Y-66320677D01*
X36586518Y-78063121D02*
X31104310Y-79380380D01*
X115241911Y-100322430D02*
X109963750Y-100322430D01*
X37535632Y-112391066D02*
X36346207Y-111817039D01*
X71060928Y-77706835D02*
X70969389Y-70308851D01*
X72658915Y-79645659D02*
X71654102Y-78883213D01*
X90675752Y-99979655D02*
X89507604Y-99019909D01*
D27*
X133104129Y-56362979D02*
X132183709Y-57283399D01*
D26*
X106950000Y-63580480D02*
X106950000Y-56675000D01*
X108750156Y-83005293D02*
X107645894Y-82130419D01*
X31732503Y-94064965D02*
X30098502Y-87029928D01*
D27*
X138818098Y-60935003D02*
X138818097Y-63475000D01*
D26*
X54190640Y-100127688D02*
X53020253Y-99322376D01*
X40265994Y-94660146D02*
X34968556Y-95992026D01*
X89078607Y-63915737D02*
X88958086Y-56677567D01*
X57753079Y-66068134D02*
X52495876Y-66439976D01*
X35541475Y-110823975D02*
X33773645Y-103627575D01*
D27*
X137876690Y-61980157D02*
X138041507Y-61980157D01*
D26*
X90722595Y-65969787D02*
X89614268Y-65039874D01*
X130449745Y-98821575D02*
X137775000Y-98821575D01*
X102650000Y-115472436D02*
X102650000Y-108175000D01*
X79244382Y-96958862D02*
X73569845Y-96959904D01*
X28050680Y-77379439D02*
X26419026Y-70432903D01*
X107077614Y-80980892D02*
X106950004Y-73674999D01*
D27*
X132037263Y-57636952D02*
X132037263Y-59356727D01*
X138041507Y-61980157D02*
X138717385Y-61304279D01*
D26*
X71135198Y-60388034D02*
X70969393Y-53308851D01*
X90921445Y-83101608D02*
X89892586Y-82474939D01*
X43941137Y-111257793D02*
X38523356Y-112502097D01*
D27*
X133250576Y-55711812D02*
X133250576Y-56009425D01*
X132037262Y-59356727D02*
G75*
G02*
X131890817Y-59710280I-500001J0D01*
G01*
D26*
X33854126Y-95837095D02*
G75*
G03*
X34968556Y-95992026I748684J1299791D01*
G01*
X90675752Y-99979655D02*
G75*
G03*
X91626130Y-100320660I952225J1158993D01*
G01*
X102650000Y-115472436D02*
G75*
G03*
X103196031Y-116629996I1499997J-2D01*
G01*
X52495876Y-66439975D02*
G75*
G02*
X51479257Y-66135545I-105828J1496268D01*
G01*
X106950001Y-63580480D02*
G75*
G03*
X107389341Y-64641139I1500001J1D01*
G01*
X72641580Y-96638394D02*
G75*
G03*
X73569845Y-96959904I927993J1178504D01*
G01*
X53886108Y-83432213D02*
G75*
G02*
X52824525Y-83104553I-119861J1495201D01*
G01*
X105177773Y-117820428D02*
G75*
G02*
X104224997Y-117477988I1190J1499992D01*
G01*
X91699829Y-83320533D02*
G75*
G02*
X90921445Y-83101608I1900J1499983D01*
G01*
X90722595Y-65969787D02*
G75*
G03*
X91684863Y-66320677I964133J1149113D01*
G01*
X36346207Y-111817039D02*
G75*
G02*
X35541476Y-110823975I651957J1350905D01*
G01*
X71612659Y-61450752D02*
G75*
G02*
X71135198Y-60388034I1022132J1097843D01*
G01*
D27*
X133250576Y-56009425D02*
G75*
G02*
X133104129Y-56362979I-499997J-1D01*
G01*
D26*
X109963750Y-100322429D02*
G75*
G02*
X108903091Y-99883089I1J1500001D01*
G01*
X49560190Y-64109418D02*
G75*
G03*
X50137147Y-65109915I1487747J191334D01*
G01*
D27*
X132037264Y-57636952D02*
G75*
G02*
X132183709Y-57283399I500001J0D01*
G01*
D26*
X28050680Y-77379439D02*
G75*
G03*
X28640615Y-78258138I1460253J342992D01*
G01*
X72753150Y-62512588D02*
G75*
G03*
X73763194Y-62914697I1022124J1097834D01*
G01*
D27*
X133397027Y-55165368D02*
G75*
G03*
X133250580Y-55518925I353555J-353554D01*
G01*
D26*
X107077615Y-80980892D02*
G75*
G03*
X107645894Y-82130419I1499764J26192D01*
G01*
X107406251Y-98386251D02*
G75*
G02*
X106966911Y-97325591I1060662J1060661D01*
G01*
X73563479Y-79950720D02*
G75*
G02*
X72658915Y-79645659I2151J1500007D01*
G01*
X128125001Y-101146320D02*
G75*
G02*
X128564341Y-100085661I1500001J-1D01*
G01*
X71060928Y-77706835D02*
G75*
G03*
X71654102Y-78883213I1499882J18558D01*
G01*
X89066032Y-81028654D02*
G75*
G03*
X89892586Y-82474939I1722882J25299D01*
G01*
X89507604Y-99019909D02*
G75*
G02*
X88959829Y-97861277I952225J1158994D01*
G01*
X130449745Y-98821576D02*
G75*
G03*
X129389086Y-99260916I1J-1500001D01*
G01*
X71551048Y-95779666D02*
G75*
G02*
X70979038Y-94603162I927987J1178488D01*
G01*
X31732504Y-94064965D02*
G75*
G03*
X32444926Y-95025396I1461108J339367D01*
G01*
X109682884Y-83329568D02*
G75*
G02*
X108750157Y-83005292I-1238J1499996D01*
G01*
X37535632Y-112391066D02*
G75*
G03*
X38523356Y-112502097I651959J1350905D01*
G01*
X29883544Y-79143586D02*
G75*
G03*
X31104310Y-79380380I870322J1221694D01*
G01*
X54190640Y-100127688D02*
G75*
G03*
X55161590Y-100387094I850273J1235726D01*
G01*
D27*
X138818097Y-60997895D02*
G75*
G02*
X138717384Y-61304279I-532926J5436D01*
G01*
D26*
X89614269Y-65039873D02*
G75*
G02*
X89078608Y-63915737I964136J1149111D01*
G01*
X50799805Y-80891751D02*
G75*
G03*
X51351244Y-81916230I1493163J143065D01*
G01*
X52378542Y-98241495D02*
G75*
G03*
X53020253Y-99322376I1491988J154853D01*
G01*
X108633860Y-65885660D02*
G75*
G03*
X109694520Y-66325000I1060661J1060662D01*
G01*
D27*
X129312546Y-59581451D02*
G75*
G02*
X129166099Y-59227897I353550J353553D01*
G01*
X130474477Y-64576274D02*
X131790266Y-64576274D01*
X132143820Y-64722721D02*
X132166099Y-64745000D01*
X130120923Y-64429827D02*
X129166099Y-63475003D01*
X130474477Y-64576274D02*
G75*
G02*
X130120923Y-64429827I-1J499997D01*
G01*
X132143820Y-64722721D02*
G75*
G03*
X131790266Y-64576274I-353553J-353550D01*
G01*
D25*
X136250576Y-55711812D02*
X136250576Y-56199426D01*
X135272264Y-57384846D02*
X132364016Y-60293094D01*
X136104130Y-56552979D02*
X135272264Y-57384846D01*
X132129702Y-60858779D02*
X132129702Y-62386557D01*
X132129702Y-60858779D02*
G75*
G02*
X132364016Y-60293094I800000J0D01*
G01*
X136104130Y-56552979D02*
G75*
G03*
X136250576Y-56199426I-353556J353553D01*
G01*
D27*
X129166097Y-56822897D02*
X129166098Y-55855001D01*
X131166098Y-59030002D02*
X129312544Y-57176451D01*
X134329702Y-60738265D02*
X134329702Y-62386557D01*
X135235090Y-59211557D02*
X134769042Y-59677605D01*
X134769042Y-59677605D02*
G75*
G03*
X134329702Y-60738265I1060662J-1060661D01*
G01*
X129312544Y-57176451D02*
G75*
G02*
X129166097Y-56822897I353550J353553D01*
G01*
D25*
X130225000Y-113563629D02*
X130225000Y-112096575D01*
X136822396Y-84371622D02*
X136822396Y-86961329D01*
X126406434Y-114096434D02*
X126575686Y-114265686D01*
X126172119Y-92684252D02*
X126172119Y-113530748D01*
X137775090Y-83087557D02*
X137056710Y-83805937D01*
X139975000Y-110371575D02*
X134356072Y-109379346D01*
X137775090Y-83087557D02*
X138248222Y-83560689D01*
X130125000Y-112196575D02*
X130125000Y-101996575D01*
X127141371Y-114500000D02*
X129288629Y-114500000D01*
X138813907Y-83795003D02*
X138818096Y-83795003D01*
X136588081Y-87527015D02*
X132761541Y-91353555D01*
X132195856Y-91587869D02*
X127268502Y-91587869D01*
X129854315Y-114265685D02*
X129990686Y-114129314D01*
X126702816Y-91822184D02*
X126406433Y-92118567D01*
X133744575Y-109521512D02*
X130225000Y-112096575D01*
X126406434Y-114096434D02*
G75*
G02*
X126172119Y-113530748I565692J565689D01*
G01*
X129854315Y-114265685D02*
G75*
G02*
X129288629Y-114500000I-565689J565692D01*
G01*
X126172119Y-92684252D02*
G75*
G02*
X126406433Y-92118567I800000J0D01*
G01*
X132195856Y-91587869D02*
G75*
G03*
X132761541Y-91353555I0J800000D01*
G01*
X126702816Y-91822184D02*
G75*
G02*
X127268502Y-91587869I565689J-565692D01*
G01*
X126575686Y-114265686D02*
G75*
G03*
X127141371Y-114500000I565685J565686D01*
G01*
X136588081Y-87527015D02*
G75*
G03*
X136822396Y-86961329I-565680J565684D01*
G01*
X133744575Y-109521513D02*
G75*
G02*
X134356072Y-109379347I472380J-645647D01*
G01*
X136822396Y-84371622D02*
G75*
G02*
X137056710Y-83805937I800000J0D01*
G01*
X138813907Y-83795003D02*
G75*
G02*
X138248222Y-83560689I0J800000D01*
G01*
X130225000Y-113563629D02*
G75*
G02*
X129990686Y-114129314I-800000J0D01*
G01*
X113366193Y-112305545D02*
X115925000Y-115725000D01*
X132030369Y-91188350D02*
X127103015Y-91188350D01*
X136657190Y-81780907D02*
X136602737Y-81837658D01*
X137818097Y-80620000D02*
X136657190Y-81780907D01*
X136455182Y-82113715D02*
X136424501Y-82267959D01*
X138818099Y-81254999D02*
X138660206Y-81255000D01*
X136602737Y-81837658D02*
X136515365Y-81968420D01*
X125772597Y-92518768D02*
X125772597Y-113671032D01*
X125538282Y-114236718D02*
X124184314Y-115590686D01*
X136515365Y-81968420D02*
X136455182Y-82113715D01*
X123618629Y-115825000D02*
X116025000Y-115825000D01*
X138306649Y-81108553D02*
X137818097Y-80620000D01*
X114200000Y-105975000D02*
X113218258Y-111690815D01*
X136424501Y-82267959D02*
X136422876Y-82346592D01*
X136188561Y-87361529D02*
X132596054Y-90954036D01*
X136422876Y-82346592D02*
X136422876Y-86795843D01*
X126537329Y-91422665D02*
X126006911Y-91953083D01*
X138306649Y-81108553D02*
G75*
G03*
X138660206Y-81255000I353554J353555D01*
G01*
X132030369Y-91188350D02*
G75*
G03*
X132596054Y-90954036I0J800000D01*
G01*
X125772597Y-92518768D02*
G75*
G02*
X126006911Y-91953083I800000J0D01*
G01*
X136188561Y-87361529D02*
G75*
G03*
X136422876Y-86795843I-565692J565689D01*
G01*
X123618629Y-115825000D02*
G75*
G03*
X124184314Y-115590686I0J800000D01*
G01*
X126537329Y-91422665D02*
G75*
G02*
X127103015Y-91188350I565684J-565680D01*
G01*
X125772597Y-113671032D02*
G75*
G02*
X125538282Y-114236718I-799995J-2D01*
G01*
X113218258Y-111690815D02*
G75*
G03*
X113366193Y-112305545I788459J-135422D01*
G01*
M02*
