G04 #@! TF.GenerationSoftware,KiCad,Pcbnew,6.0.0-d3dd2cf0fa~116~ubuntu20.04.1*
G04 #@! TF.CreationDate,2022-01-07T01:27:33-05:00*
G04 #@! TF.ProjectId,34_hs,33345f68-732e-46b6-9963-61645f706362,0.1*
G04 #@! TF.SameCoordinates,Original*
G04 #@! TF.FileFunction,Soldermask,Top*
G04 #@! TF.FilePolarity,Negative*
%FSLAX46Y46*%
G04 Gerber Fmt 4.6, Leading zero omitted, Abs format (unit mm)*
G04 Created by KiCad (PCBNEW 6.0.0-d3dd2cf0fa~116~ubuntu20.04.1) date 2022-01-07 01:27:33*
%MOMM*%
%LPD*%
G01*
G04 APERTURE LIST*
G04 Aperture macros list*
%AMRotRect*
0 Rectangle, with rotation*
0 The origin of the aperture is its center*
0 $1 length*
0 $2 width*
0 $3 Rotation angle, in degrees counterclockwise*
0 Add horizontal line*
21,1,$1,$2,0,0,$3*%
%AMFreePoly0*
4,1,6,0.600000,0.200000,0.000000,-0.400000,-0.600000,0.200000,-0.600000,0.400000,0.600000,0.400000,0.600000,0.200000,0.600000,0.200000,$1*%
%AMFreePoly1*
4,1,6,0.600000,-0.250000,-0.600000,-0.250000,-0.600000,1.000000,0.000000,0.400000,0.600000,1.000000,0.600000,-0.250000,0.600000,-0.250000,$1*%
G04 Aperture macros list end*
%ADD10C,0.100000*%
%ADD11C,3.800000*%
%ADD12C,2.600000*%
%ADD13C,1.701800*%
%ADD14C,3.000000*%
%ADD15C,3.429000*%
%ADD16C,2.032000*%
%ADD17RotRect,2.600000X2.600000X12.500000*%
%ADD18R,2.600000X2.600000*%
%ADD19C,1.600000*%
%ADD20FreePoly0,90.000000*%
%ADD21FreePoly0,270.000000*%
%ADD22FreePoly1,270.000000*%
%ADD23FreePoly1,90.000000*%
%ADD24RotRect,2.600000X2.600000X5.000000*%
%ADD25C,0.900000*%
G04 APERTURE END LIST*
D10*
X132829702Y-61386557D02*
X132829702Y-63386557D01*
X132829702Y-63386557D02*
X131429702Y-63386557D01*
X131429702Y-63386557D02*
X131429702Y-61386557D01*
X131429702Y-61386557D02*
X132829702Y-61386557D01*
G36*
X132829702Y-63386557D02*
G01*
X131429702Y-63386557D01*
X131429702Y-61386557D01*
X132829702Y-61386557D01*
X132829702Y-63386557D01*
G37*
X132829702Y-63386557D02*
X131429702Y-63386557D01*
X131429702Y-61386557D01*
X132829702Y-61386557D01*
X132829702Y-63386557D01*
X135028260Y-61386557D02*
X135028260Y-63386557D01*
X135028260Y-63386557D02*
X133628260Y-63386557D01*
X133628260Y-63386557D02*
X133628260Y-61386557D01*
X133628260Y-61386557D02*
X135028260Y-61386557D01*
G36*
X135028260Y-63386557D02*
G01*
X133628260Y-63386557D01*
X133628260Y-61386557D01*
X135028260Y-61386557D01*
X135028260Y-63386557D01*
G37*
X135028260Y-63386557D02*
X133628260Y-63386557D01*
X133628260Y-61386557D01*
X135028260Y-61386557D01*
X135028260Y-63386557D01*
X128912099Y-55347003D02*
X128912099Y-56363003D01*
X128912099Y-56363003D02*
X127896099Y-56363003D01*
X127896099Y-56363003D02*
X127896099Y-55347003D01*
X127896099Y-55347003D02*
X128912099Y-55347003D01*
G36*
X128912099Y-56363003D02*
G01*
X127896099Y-56363003D01*
X127896099Y-55347003D01*
X128912099Y-55347003D01*
X128912099Y-56363003D01*
G37*
X128912099Y-56363003D02*
X127896099Y-56363003D01*
X127896099Y-55347003D01*
X128912099Y-55347003D01*
X128912099Y-56363003D01*
X128912099Y-68047003D02*
X128912099Y-69063003D01*
X128912099Y-69063003D02*
X127896099Y-69063003D01*
X127896099Y-69063003D02*
X127896099Y-68047003D01*
X127896099Y-68047003D02*
X128912099Y-68047003D01*
G36*
X128912099Y-69063003D02*
G01*
X127896099Y-69063003D01*
X127896099Y-68047003D01*
X128912099Y-68047003D01*
X128912099Y-69063003D01*
G37*
X128912099Y-69063003D02*
X127896099Y-69063003D01*
X127896099Y-68047003D01*
X128912099Y-68047003D01*
X128912099Y-69063003D01*
X128912099Y-62967003D02*
X128912099Y-63983003D01*
X128912099Y-63983003D02*
X127896099Y-63983003D01*
X127896099Y-63983003D02*
X127896099Y-62967003D01*
X127896099Y-62967003D02*
X128912099Y-62967003D01*
G36*
X128912099Y-63983003D02*
G01*
X127896099Y-63983003D01*
X127896099Y-62967003D01*
X128912099Y-62967003D01*
X128912099Y-63983003D01*
G37*
X128912099Y-63983003D02*
X127896099Y-63983003D01*
X127896099Y-62967003D01*
X128912099Y-62967003D01*
X128912099Y-63983003D01*
X139072099Y-56363003D02*
X139072099Y-55347003D01*
X139072099Y-55347003D02*
X140088099Y-55347003D01*
X140088099Y-55347003D02*
X140088099Y-56363003D01*
X140088099Y-56363003D02*
X139072099Y-56363003D01*
G36*
X140088099Y-56363003D02*
G01*
X139072099Y-56363003D01*
X139072099Y-55347003D01*
X140088099Y-55347003D01*
X140088099Y-56363003D01*
G37*
X140088099Y-56363003D02*
X139072099Y-56363003D01*
X139072099Y-55347003D01*
X140088099Y-55347003D01*
X140088099Y-56363003D01*
X139072099Y-71603003D02*
X139072099Y-70587003D01*
X139072099Y-70587003D02*
X140088099Y-70587003D01*
X140088099Y-70587003D02*
X140088099Y-71603003D01*
X140088099Y-71603003D02*
X139072099Y-71603003D01*
G36*
X140088099Y-71603003D02*
G01*
X139072099Y-71603003D01*
X139072099Y-70587003D01*
X140088099Y-70587003D01*
X140088099Y-71603003D01*
G37*
X140088099Y-71603003D02*
X139072099Y-71603003D01*
X139072099Y-70587003D01*
X140088099Y-70587003D01*
X140088099Y-71603003D01*
X128912099Y-70587003D02*
X128912099Y-71603003D01*
X128912099Y-71603003D02*
X127896099Y-71603003D01*
X127896099Y-71603003D02*
X127896099Y-70587003D01*
X127896099Y-70587003D02*
X128912099Y-70587003D01*
G36*
X128912099Y-71603003D02*
G01*
X127896099Y-71603003D01*
X127896099Y-70587003D01*
X128912099Y-70587003D01*
X128912099Y-71603003D01*
G37*
X128912099Y-71603003D02*
X127896099Y-71603003D01*
X127896099Y-70587003D01*
X128912099Y-70587003D01*
X128912099Y-71603003D01*
X139072099Y-76683003D02*
X139072099Y-75667003D01*
X139072099Y-75667003D02*
X140088099Y-75667003D01*
X140088099Y-75667003D02*
X140088099Y-76683003D01*
X140088099Y-76683003D02*
X139072099Y-76683003D01*
G36*
X140088099Y-76683003D02*
G01*
X139072099Y-76683003D01*
X139072099Y-75667003D01*
X140088099Y-75667003D01*
X140088099Y-76683003D01*
G37*
X140088099Y-76683003D02*
X139072099Y-76683003D01*
X139072099Y-75667003D01*
X140088099Y-75667003D01*
X140088099Y-76683003D01*
X139072099Y-69063003D02*
X139072099Y-68047003D01*
X139072099Y-68047003D02*
X140088099Y-68047003D01*
X140088099Y-68047003D02*
X140088099Y-69063003D01*
X140088099Y-69063003D02*
X139072099Y-69063003D01*
G36*
X140088099Y-69063003D02*
G01*
X139072099Y-69063003D01*
X139072099Y-68047003D01*
X140088099Y-68047003D01*
X140088099Y-69063003D01*
G37*
X140088099Y-69063003D02*
X139072099Y-69063003D01*
X139072099Y-68047003D01*
X140088099Y-68047003D01*
X140088099Y-69063003D01*
X128912099Y-75667003D02*
X128912099Y-76683003D01*
X128912099Y-76683003D02*
X127896099Y-76683003D01*
X127896099Y-76683003D02*
X127896099Y-75667003D01*
X127896099Y-75667003D02*
X128912099Y-75667003D01*
G36*
X128912099Y-76683003D02*
G01*
X127896099Y-76683003D01*
X127896099Y-75667003D01*
X128912099Y-75667003D01*
X128912099Y-76683003D01*
G37*
X128912099Y-76683003D02*
X127896099Y-76683003D01*
X127896099Y-75667003D01*
X128912099Y-75667003D01*
X128912099Y-76683003D01*
X128912099Y-57887003D02*
X128912099Y-58903003D01*
X128912099Y-58903003D02*
X127896099Y-58903003D01*
X127896099Y-58903003D02*
X127896099Y-57887003D01*
X127896099Y-57887003D02*
X128912099Y-57887003D01*
G36*
X128912099Y-58903003D02*
G01*
X127896099Y-58903003D01*
X127896099Y-57887003D01*
X128912099Y-57887003D01*
X128912099Y-58903003D01*
G37*
X128912099Y-58903003D02*
X127896099Y-58903003D01*
X127896099Y-57887003D01*
X128912099Y-57887003D01*
X128912099Y-58903003D01*
X139072099Y-61443003D02*
X139072099Y-60427003D01*
X139072099Y-60427003D02*
X140088099Y-60427003D01*
X140088099Y-60427003D02*
X140088099Y-61443003D01*
X140088099Y-61443003D02*
X139072099Y-61443003D01*
G36*
X140088099Y-61443003D02*
G01*
X139072099Y-61443003D01*
X139072099Y-60427003D01*
X140088099Y-60427003D01*
X140088099Y-61443003D01*
G37*
X140088099Y-61443003D02*
X139072099Y-61443003D01*
X139072099Y-60427003D01*
X140088099Y-60427003D01*
X140088099Y-61443003D01*
X128912099Y-73127003D02*
X128912099Y-74143003D01*
X128912099Y-74143003D02*
X127896099Y-74143003D01*
X127896099Y-74143003D02*
X127896099Y-73127003D01*
X127896099Y-73127003D02*
X128912099Y-73127003D01*
G36*
X128912099Y-74143003D02*
G01*
X127896099Y-74143003D01*
X127896099Y-73127003D01*
X128912099Y-73127003D01*
X128912099Y-74143003D01*
G37*
X128912099Y-74143003D02*
X127896099Y-74143003D01*
X127896099Y-73127003D01*
X128912099Y-73127003D01*
X128912099Y-74143003D01*
X139072099Y-66523003D02*
X139072099Y-65507003D01*
X139072099Y-65507003D02*
X140088099Y-65507003D01*
X140088099Y-65507003D02*
X140088099Y-66523003D01*
X140088099Y-66523003D02*
X139072099Y-66523003D01*
G36*
X140088099Y-66523003D02*
G01*
X139072099Y-66523003D01*
X139072099Y-65507003D01*
X140088099Y-65507003D01*
X140088099Y-66523003D01*
G37*
X140088099Y-66523003D02*
X139072099Y-66523003D01*
X139072099Y-65507003D01*
X140088099Y-65507003D01*
X140088099Y-66523003D01*
X128912099Y-60427003D02*
X128912099Y-61443003D01*
X128912099Y-61443003D02*
X127896099Y-61443003D01*
X127896099Y-61443003D02*
X127896099Y-60427003D01*
X127896099Y-60427003D02*
X128912099Y-60427003D01*
G36*
X128912099Y-61443003D02*
G01*
X127896099Y-61443003D01*
X127896099Y-60427003D01*
X128912099Y-60427003D01*
X128912099Y-61443003D01*
G37*
X128912099Y-61443003D02*
X127896099Y-61443003D01*
X127896099Y-60427003D01*
X128912099Y-60427003D01*
X128912099Y-61443003D01*
X128912099Y-80747003D02*
X128912099Y-81763003D01*
X128912099Y-81763003D02*
X127896099Y-81763003D01*
X127896099Y-81763003D02*
X127896099Y-80747003D01*
X127896099Y-80747003D02*
X128912099Y-80747003D01*
G36*
X128912099Y-81763003D02*
G01*
X127896099Y-81763003D01*
X127896099Y-80747003D01*
X128912099Y-80747003D01*
X128912099Y-81763003D01*
G37*
X128912099Y-81763003D02*
X127896099Y-81763003D01*
X127896099Y-80747003D01*
X128912099Y-80747003D01*
X128912099Y-81763003D01*
X139072099Y-58903003D02*
X139072099Y-57887003D01*
X139072099Y-57887003D02*
X140088099Y-57887003D01*
X140088099Y-57887003D02*
X140088099Y-58903003D01*
X140088099Y-58903003D02*
X139072099Y-58903003D01*
G36*
X140088099Y-58903003D02*
G01*
X139072099Y-58903003D01*
X139072099Y-57887003D01*
X140088099Y-57887003D01*
X140088099Y-58903003D01*
G37*
X140088099Y-58903003D02*
X139072099Y-58903003D01*
X139072099Y-57887003D01*
X140088099Y-57887003D01*
X140088099Y-58903003D01*
X139072099Y-79223003D02*
X139072099Y-78207003D01*
X139072099Y-78207003D02*
X140088099Y-78207003D01*
X140088099Y-78207003D02*
X140088099Y-79223003D01*
X140088099Y-79223003D02*
X139072099Y-79223003D01*
G36*
X140088099Y-79223003D02*
G01*
X139072099Y-79223003D01*
X139072099Y-78207003D01*
X140088099Y-78207003D01*
X140088099Y-79223003D01*
G37*
X140088099Y-79223003D02*
X139072099Y-79223003D01*
X139072099Y-78207003D01*
X140088099Y-78207003D01*
X140088099Y-79223003D01*
X139072099Y-84303003D02*
X139072099Y-83287003D01*
X139072099Y-83287003D02*
X140088099Y-83287003D01*
X140088099Y-83287003D02*
X140088099Y-84303003D01*
X140088099Y-84303003D02*
X139072099Y-84303003D01*
G36*
X140088099Y-84303003D02*
G01*
X139072099Y-84303003D01*
X139072099Y-83287003D01*
X140088099Y-83287003D01*
X140088099Y-84303003D01*
G37*
X140088099Y-84303003D02*
X139072099Y-84303003D01*
X139072099Y-83287003D01*
X140088099Y-83287003D01*
X140088099Y-84303003D01*
X139072099Y-74143003D02*
X139072099Y-73127003D01*
X139072099Y-73127003D02*
X140088099Y-73127003D01*
X140088099Y-73127003D02*
X140088099Y-74143003D01*
X140088099Y-74143003D02*
X139072099Y-74143003D01*
G36*
X140088099Y-74143003D02*
G01*
X139072099Y-74143003D01*
X139072099Y-73127003D01*
X140088099Y-73127003D01*
X140088099Y-74143003D01*
G37*
X140088099Y-74143003D02*
X139072099Y-74143003D01*
X139072099Y-73127003D01*
X140088099Y-73127003D01*
X140088099Y-74143003D01*
X128912099Y-83287003D02*
X128912099Y-84303003D01*
X128912099Y-84303003D02*
X127896099Y-84303003D01*
X127896099Y-84303003D02*
X127896099Y-83287003D01*
X127896099Y-83287003D02*
X128912099Y-83287003D01*
G36*
X128912099Y-84303003D02*
G01*
X127896099Y-84303003D01*
X127896099Y-83287003D01*
X128912099Y-83287003D01*
X128912099Y-84303003D01*
G37*
X128912099Y-84303003D02*
X127896099Y-84303003D01*
X127896099Y-83287003D01*
X128912099Y-83287003D01*
X128912099Y-84303003D01*
X139072099Y-81763003D02*
X139072099Y-80747003D01*
X139072099Y-80747003D02*
X140088099Y-80747003D01*
X140088099Y-80747003D02*
X140088099Y-81763003D01*
X140088099Y-81763003D02*
X139072099Y-81763003D01*
G36*
X140088099Y-81763003D02*
G01*
X139072099Y-81763003D01*
X139072099Y-80747003D01*
X140088099Y-80747003D01*
X140088099Y-81763003D01*
G37*
X140088099Y-81763003D02*
X139072099Y-81763003D01*
X139072099Y-80747003D01*
X140088099Y-80747003D01*
X140088099Y-81763003D01*
X139072099Y-63983003D02*
X139072099Y-62967003D01*
X139072099Y-62967003D02*
X140088099Y-62967003D01*
X140088099Y-62967003D02*
X140088099Y-63983003D01*
X140088099Y-63983003D02*
X139072099Y-63983003D01*
G36*
X140088099Y-63983003D02*
G01*
X139072099Y-63983003D01*
X139072099Y-62967003D01*
X140088099Y-62967003D01*
X140088099Y-63983003D01*
G37*
X140088099Y-63983003D02*
X139072099Y-63983003D01*
X139072099Y-62967003D01*
X140088099Y-62967003D01*
X140088099Y-63983003D01*
X128912099Y-78207003D02*
X128912099Y-79223003D01*
X128912099Y-79223003D02*
X127896099Y-79223003D01*
X127896099Y-79223003D02*
X127896099Y-78207003D01*
X127896099Y-78207003D02*
X128912099Y-78207003D01*
G36*
X128912099Y-79223003D02*
G01*
X127896099Y-79223003D01*
X127896099Y-78207003D01*
X128912099Y-78207003D01*
X128912099Y-79223003D01*
G37*
X128912099Y-79223003D02*
X127896099Y-79223003D01*
X127896099Y-78207003D01*
X128912099Y-78207003D01*
X128912099Y-79223003D01*
X128912099Y-65507003D02*
X128912099Y-66523003D01*
X128912099Y-66523003D02*
X127896099Y-66523003D01*
X127896099Y-66523003D02*
X127896099Y-65507003D01*
X127896099Y-65507003D02*
X128912099Y-65507003D01*
G36*
X128912099Y-66523003D02*
G01*
X127896099Y-66523003D01*
X127896099Y-65507003D01*
X128912099Y-65507003D01*
X128912099Y-66523003D01*
G37*
X128912099Y-66523003D02*
X127896099Y-66523003D01*
X127896099Y-65507003D01*
X128912099Y-65507003D01*
X128912099Y-66523003D01*
X136550576Y-55011813D02*
X136550576Y-56411813D01*
X136550576Y-56411813D02*
X135950576Y-56411813D01*
X135950576Y-56411813D02*
X135950576Y-55011813D01*
X135950576Y-55011813D02*
X136550576Y-55011813D01*
G36*
X136550576Y-56411813D02*
G01*
X135950576Y-56411813D01*
X135950576Y-55011813D01*
X136550576Y-55011813D01*
X136550576Y-56411813D01*
G37*
X136550576Y-56411813D02*
X135950576Y-56411813D01*
X135950576Y-55011813D01*
X136550576Y-55011813D01*
X136550576Y-56411813D01*
X130800576Y-52511813D02*
X130800576Y-53211813D01*
X130800576Y-53211813D02*
X129900576Y-53211813D01*
X129900576Y-53211813D02*
X129900576Y-52511813D01*
X129900576Y-52511813D02*
X130800576Y-52511813D01*
G36*
X130800576Y-53211813D02*
G01*
X129900576Y-53211813D01*
X129900576Y-52511813D01*
X130800576Y-52511813D01*
X130800576Y-53211813D01*
G37*
X130800576Y-53211813D02*
X129900576Y-53211813D01*
X129900576Y-52511813D01*
X130800576Y-52511813D01*
X130800576Y-53211813D01*
X133550576Y-55011813D02*
X133550576Y-56411813D01*
X133550576Y-56411813D02*
X132950576Y-56411813D01*
X132950576Y-56411813D02*
X132950576Y-55011813D01*
X132950576Y-55011813D02*
X133550576Y-55011813D01*
G36*
X133550576Y-56411813D02*
G01*
X132950576Y-56411813D01*
X132950576Y-55011813D01*
X133550576Y-55011813D01*
X133550576Y-56411813D01*
G37*
X133550576Y-56411813D02*
X132950576Y-56411813D01*
X132950576Y-55011813D01*
X133550576Y-55011813D01*
X133550576Y-56411813D01*
X138100576Y-54711813D02*
X138100576Y-55411813D01*
X138100576Y-55411813D02*
X137200576Y-55411813D01*
X137200576Y-55411813D02*
X137200576Y-54711813D01*
X137200576Y-54711813D02*
X138100576Y-54711813D01*
G36*
X138100576Y-55411813D02*
G01*
X137200576Y-55411813D01*
X137200576Y-54711813D01*
X138100576Y-54711813D01*
X138100576Y-55411813D01*
G37*
X138100576Y-55411813D02*
X137200576Y-55411813D01*
X137200576Y-54711813D01*
X138100576Y-54711813D01*
X138100576Y-55411813D01*
X138100576Y-52511813D02*
X138100576Y-53211813D01*
X138100576Y-53211813D02*
X137200576Y-53211813D01*
X137200576Y-53211813D02*
X137200576Y-52511813D01*
X137200576Y-52511813D02*
X138100576Y-52511813D01*
G36*
X138100576Y-53211813D02*
G01*
X137200576Y-53211813D01*
X137200576Y-52511813D01*
X138100576Y-52511813D01*
X138100576Y-53211813D01*
G37*
X138100576Y-53211813D02*
X137200576Y-53211813D01*
X137200576Y-52511813D01*
X138100576Y-52511813D01*
X138100576Y-53211813D01*
X132050576Y-55011813D02*
X132050576Y-56411813D01*
X132050576Y-56411813D02*
X131450576Y-56411813D01*
X131450576Y-56411813D02*
X131450576Y-55011813D01*
X131450576Y-55011813D02*
X132050576Y-55011813D01*
G36*
X132050576Y-56411813D02*
G01*
X131450576Y-56411813D01*
X131450576Y-55011813D01*
X132050576Y-55011813D01*
X132050576Y-56411813D01*
G37*
X132050576Y-56411813D02*
X131450576Y-56411813D01*
X131450576Y-55011813D01*
X132050576Y-55011813D01*
X132050576Y-56411813D01*
X130800576Y-54711813D02*
X130800576Y-55411813D01*
X130800576Y-55411813D02*
X129900576Y-55411813D01*
X129900576Y-55411813D02*
X129900576Y-54711813D01*
X129900576Y-54711813D02*
X130800576Y-54711813D01*
G36*
X130800576Y-55411813D02*
G01*
X129900576Y-55411813D01*
X129900576Y-54711813D01*
X130800576Y-54711813D01*
X130800576Y-55411813D01*
G37*
X130800576Y-55411813D02*
X129900576Y-55411813D01*
X129900576Y-54711813D01*
X130800576Y-54711813D01*
X130800576Y-55411813D01*
D11*
X87858600Y-82575400D03*
D12*
X87858600Y-82575400D03*
D13*
X44358628Y-87709582D03*
D14*
X43058831Y-84156692D03*
X33295871Y-86321088D03*
D15*
X38989000Y-88900000D03*
D14*
X37701184Y-83091039D03*
D13*
X33619372Y-90090418D03*
D16*
X40265994Y-94660146D03*
D17*
X40898554Y-82382199D03*
X30098502Y-87029928D03*
D16*
X44692951Y-91527727D03*
X34929990Y-93692123D03*
D13*
X40679152Y-71112557D03*
D14*
X29616395Y-69724063D03*
D13*
X29939896Y-73493393D03*
D14*
X39379355Y-67559667D03*
X34021708Y-66494014D03*
D15*
X35309524Y-72302975D03*
D17*
X37219078Y-65785174D03*
D16*
X36586518Y-78063121D03*
D17*
X26419026Y-70432903D03*
D16*
X31250514Y-77095098D03*
X41013475Y-74930702D03*
D13*
X84730000Y-57058851D03*
D14*
X74230000Y-53308851D03*
X79230000Y-51108851D03*
X84230000Y-53308851D03*
D13*
X73730000Y-57058851D03*
D15*
X79230000Y-57058851D03*
D16*
X79230000Y-62958851D03*
D18*
X82505000Y-51108851D03*
D16*
X74230000Y-60858851D03*
X84230000Y-60858851D03*
D18*
X70955000Y-53308851D03*
D14*
X115225000Y-71474999D03*
X110225000Y-73674999D03*
D13*
X109725000Y-77424999D03*
D15*
X115225000Y-77424999D03*
D13*
X120725000Y-77424999D03*
D14*
X120225000Y-73674999D03*
D18*
X118500000Y-71474999D03*
D16*
X115225000Y-83324999D03*
X120225000Y-81224999D03*
D18*
X106950000Y-73674999D03*
D16*
X110225000Y-81224999D03*
D15*
X115225000Y-60425000D03*
D13*
X109725000Y-60425000D03*
D14*
X120225000Y-56675000D03*
X110225000Y-56675000D03*
D13*
X120725000Y-60425000D03*
D14*
X115225000Y-54475000D03*
D18*
X118500000Y-54475000D03*
D16*
X115225000Y-66325000D03*
D18*
X106950000Y-56675000D03*
D16*
X120225000Y-64225000D03*
X110225000Y-64225000D03*
D19*
X126372099Y-55855003D03*
X141612099Y-66015003D03*
D20*
X128150099Y-63475003D03*
D21*
X139834099Y-73635003D03*
D19*
X141612099Y-60935003D03*
X126372099Y-63475003D03*
X126372099Y-68555003D03*
D20*
X128150099Y-78715003D03*
X128150099Y-83795003D03*
D19*
X141612099Y-71095003D03*
D20*
X128150099Y-76175003D03*
D19*
X141612099Y-83795003D03*
D21*
X139834099Y-78715003D03*
D20*
X128150099Y-68555003D03*
X128150099Y-71095003D03*
D19*
X126372099Y-58395003D03*
X141612099Y-76175003D03*
D20*
X128150099Y-55855003D03*
D19*
X141612099Y-68555003D03*
X141612099Y-55855003D03*
D20*
X128150099Y-58395003D03*
X128150099Y-81255003D03*
D21*
X139834099Y-81255003D03*
D19*
X141612099Y-73635003D03*
X141612099Y-63475003D03*
X126372099Y-60935003D03*
D20*
X128150099Y-66015003D03*
D21*
X139834099Y-71095003D03*
D19*
X126372099Y-81255003D03*
X126372099Y-71095003D03*
D20*
X128150099Y-60935003D03*
D19*
X126372099Y-78715003D03*
D21*
X139834099Y-66015003D03*
D19*
X141612099Y-58395003D03*
D21*
X139834099Y-60935003D03*
D19*
X126372099Y-66015003D03*
D21*
X139834099Y-63475003D03*
D19*
X126372099Y-76175003D03*
D21*
X139834099Y-58395003D03*
D19*
X126372099Y-83795003D03*
D21*
X139834099Y-55855003D03*
D19*
X126372099Y-73635003D03*
D21*
X139834099Y-76175003D03*
D19*
X141612099Y-81255003D03*
D21*
X139834099Y-83795003D03*
D20*
X128150099Y-73635003D03*
D21*
X139834099Y-68555003D03*
D19*
X141612099Y-78715003D03*
D22*
X138818099Y-55855003D03*
X138818099Y-58395003D03*
X138818099Y-60935003D03*
X138818099Y-63475003D03*
X138818099Y-66015003D03*
X138818099Y-68555003D03*
X138818099Y-71095003D03*
X138818099Y-73635003D03*
X138818099Y-76175003D03*
X138818099Y-78715003D03*
X138818099Y-81255003D03*
X138818099Y-83795003D03*
D23*
X129166099Y-83795003D03*
X129166099Y-81255003D03*
X129166099Y-78715003D03*
X129166099Y-76175003D03*
X129166099Y-73635003D03*
X129166099Y-71095003D03*
X129166099Y-68555003D03*
X129166099Y-66015003D03*
X129166099Y-63475003D03*
X129166099Y-60935003D03*
X129166099Y-58395003D03*
X129166099Y-55855003D03*
D11*
X51993800Y-103886000D03*
D12*
X51993800Y-103886000D03*
D15*
X97233086Y-94427566D03*
D14*
X92233086Y-90677566D03*
D13*
X102733086Y-94427566D03*
D14*
X97233086Y-88477566D03*
X102233086Y-90677566D03*
D13*
X91733086Y-94427566D03*
D16*
X97233086Y-100327566D03*
D18*
X100508086Y-88477566D03*
X88958086Y-90677566D03*
D16*
X92233086Y-98227566D03*
X102233086Y-98227566D03*
D14*
X92233086Y-73677564D03*
X97233086Y-71477564D03*
D13*
X102733086Y-77427564D03*
D15*
X97233086Y-77427564D03*
D14*
X102233086Y-73677564D03*
D13*
X91733086Y-77427564D03*
D16*
X97233086Y-83327564D03*
D18*
X100508086Y-71477564D03*
D16*
X102233086Y-81227564D03*
X92233086Y-81227564D03*
D18*
X88958086Y-73677564D03*
D15*
X134025000Y-107175000D03*
D14*
X137775000Y-102175000D03*
X139975000Y-107175000D03*
X137775000Y-112175000D03*
D13*
X134025000Y-112675000D03*
X134025000Y-101675000D03*
D18*
X139975000Y-110450000D03*
D16*
X128125000Y-107175000D03*
X130225000Y-112175000D03*
D18*
X137775000Y-98900000D03*
D16*
X130225000Y-102175000D03*
D13*
X102733086Y-60427567D03*
D14*
X97233086Y-54477567D03*
D13*
X91733086Y-60427567D03*
D14*
X92233086Y-56677567D03*
X102233086Y-56677567D03*
D15*
X97233086Y-60427567D03*
D16*
X97233086Y-66327567D03*
D18*
X100508086Y-54477567D03*
D16*
X92233086Y-64227567D03*
X102233086Y-64227567D03*
D18*
X88958086Y-56677567D03*
D15*
X110975000Y-111925000D03*
D14*
X110975000Y-105975000D03*
X105975000Y-108175000D03*
X115975000Y-108175000D03*
D13*
X116475000Y-111925000D03*
X105475000Y-111925000D03*
D16*
X110975000Y-117825000D03*
D18*
X114250000Y-105975000D03*
D16*
X105975000Y-115725000D03*
X115975000Y-115725000D03*
D18*
X102700000Y-108175000D03*
D14*
X59683573Y-88133851D03*
D13*
X54723079Y-94540566D03*
D14*
X64856289Y-89889700D03*
X54894342Y-90761258D03*
D13*
X65681221Y-93581852D03*
D15*
X60202150Y-94061209D03*
D24*
X62946111Y-87848415D03*
D16*
X60716369Y-99938758D03*
X55552368Y-98282528D03*
X65514315Y-97410970D03*
D24*
X51631805Y-91046693D03*
D15*
X79230000Y-91058862D03*
D13*
X84730000Y-91058862D03*
D14*
X79230000Y-85108862D03*
X74230000Y-87308862D03*
X84230000Y-87308862D03*
D13*
X73730000Y-91058862D03*
D16*
X79230000Y-96958862D03*
D18*
X82505000Y-85108862D03*
D16*
X84230000Y-94858862D03*
X74230000Y-94858862D03*
D18*
X70955000Y-87308862D03*
D12*
X106222800Y-68935600D03*
D11*
X106222800Y-68935600D03*
D14*
X53412694Y-73825950D03*
X58201925Y-71198543D03*
D13*
X53241431Y-77605258D03*
X64199573Y-76646544D03*
D15*
X58720502Y-77125901D03*
D14*
X63374641Y-72954392D03*
D16*
X59234721Y-83003450D03*
D24*
X61464463Y-70913107D03*
D16*
X64032667Y-80475662D03*
D24*
X50150157Y-74111385D03*
D16*
X54070720Y-81347220D03*
D14*
X56720283Y-54263227D03*
X61892999Y-56019076D03*
D13*
X51759789Y-60669942D03*
X62717931Y-59711228D03*
D14*
X51931052Y-56890634D03*
D15*
X57238860Y-60190585D03*
D24*
X59982821Y-53977791D03*
D16*
X57753079Y-66068134D03*
X62551025Y-63540346D03*
D24*
X48668515Y-57176069D03*
D16*
X52589078Y-64411904D03*
D11*
X45821600Y-63474600D03*
D12*
X45821600Y-63474600D03*
D25*
X135500576Y-53961813D03*
X132500576Y-53961813D03*
X135500576Y-53961813D03*
X132500576Y-53961813D03*
D11*
X121513600Y-112115600D03*
D12*
X121513600Y-112115600D03*
D13*
X48033771Y-104307229D03*
D15*
X42664143Y-105497647D03*
D14*
X41376327Y-99688686D03*
X36971014Y-102918735D03*
X46733974Y-100754339D03*
D13*
X37294515Y-106688065D03*
D17*
X44573697Y-98979846D03*
D16*
X43941137Y-111257793D03*
X38605133Y-110289770D03*
X48368094Y-108125374D03*
D17*
X33773645Y-103627575D03*
D14*
X79230000Y-68108851D03*
D13*
X84730000Y-74058851D03*
D14*
X74230000Y-70308851D03*
D15*
X79230000Y-74058851D03*
D14*
X84230000Y-70308851D03*
D13*
X73730000Y-74058851D03*
D16*
X79230000Y-79958851D03*
D18*
X82505000Y-68108851D03*
D16*
X74230000Y-77858851D03*
D18*
X70955000Y-70308851D03*
D16*
X84230000Y-77858851D03*
D15*
X115225000Y-94422430D03*
D14*
X115225000Y-88472430D03*
D13*
X109725000Y-94422430D03*
X120725000Y-94422430D03*
D14*
X110225000Y-90672430D03*
X120225000Y-90672430D03*
D16*
X115225000Y-100322430D03*
D18*
X118500000Y-88472430D03*
X106950000Y-90672430D03*
D16*
X110225000Y-98222430D03*
X120225000Y-98222430D03*
M02*
