G04 #@! TF.GenerationSoftware,KiCad,Pcbnew,6.0.0-d3dd2cf0fa~116~ubuntu20.04.1*
G04 #@! TF.CreationDate,2022-01-07T01:25:01-05:00*
G04 #@! TF.ProjectId,34_hs,33345f68-732e-46b6-9963-61645f706362,0.1*
G04 #@! TF.SameCoordinates,Original*
G04 #@! TF.FileFunction,Copper,L2,Bot*
G04 #@! TF.FilePolarity,Positive*
%FSLAX46Y46*%
G04 Gerber Fmt 4.6, Leading zero omitted, Abs format (unit mm)*
G04 Created by KiCad (PCBNEW 6.0.0-d3dd2cf0fa~116~ubuntu20.04.1) date 2022-01-07 01:25:01*
%MOMM*%
%LPD*%
G01*
G04 APERTURE LIST*
G04 Aperture macros list*
%AMRotRect*
0 Rectangle, with rotation*
0 The origin of the aperture is its center*
0 $1 length*
0 $2 width*
0 $3 Rotation angle, in degrees counterclockwise*
0 Add horizontal line*
21,1,$1,$2,0,0,$3*%
%AMFreePoly0*
4,1,5,0.125000,-0.500000,-0.125000,-0.500000,-0.125000,0.500000,0.125000,0.500000,0.125000,-0.500000,0.125000,-0.500000,$1*%
%AMFreePoly1*
4,1,6,0.600000,0.200000,0.000000,-0.400000,-0.600000,0.200000,-0.600000,0.400000,0.600000,0.400000,0.600000,0.200000,0.600000,0.200000,$1*%
%AMFreePoly2*
4,1,6,0.600000,-0.250000,-0.600000,-0.250000,-0.600000,1.000000,0.000000,0.400000,0.600000,1.000000,0.600000,-0.250000,0.600000,-0.250000,$1*%
G04 Aperture macros list end*
G04 #@! TA.AperFunction,ConnectorPad*
%ADD10C,3.800000*%
G04 #@! TD*
G04 #@! TA.AperFunction,ComponentPad*
%ADD11C,2.600000*%
G04 #@! TD*
G04 #@! TA.AperFunction,ComponentPad*
%ADD12C,2.032000*%
G04 #@! TD*
G04 #@! TA.AperFunction,SMDPad,CuDef*
%ADD13RotRect,2.600000X2.600000X12.500000*%
G04 #@! TD*
G04 #@! TA.AperFunction,SMDPad,CuDef*
%ADD14R,2.600000X2.600000*%
G04 #@! TD*
G04 #@! TA.AperFunction,SMDPad,CuDef*
%ADD15R,1.500000X2.100000*%
G04 #@! TD*
G04 #@! TA.AperFunction,SMDPad,CuDef*
%ADD16FreePoly0,90.000000*%
G04 #@! TD*
G04 #@! TA.AperFunction,ComponentPad*
%ADD17C,1.600000*%
G04 #@! TD*
G04 #@! TA.AperFunction,SMDPad,CuDef*
%ADD18FreePoly0,270.000000*%
G04 #@! TD*
G04 #@! TA.AperFunction,SMDPad,CuDef*
%ADD19FreePoly1,270.000000*%
G04 #@! TD*
G04 #@! TA.AperFunction,SMDPad,CuDef*
%ADD20FreePoly1,90.000000*%
G04 #@! TD*
G04 #@! TA.AperFunction,SMDPad,CuDef*
%ADD21FreePoly2,90.000000*%
G04 #@! TD*
G04 #@! TA.AperFunction,SMDPad,CuDef*
%ADD22FreePoly2,270.000000*%
G04 #@! TD*
G04 #@! TA.AperFunction,SMDPad,CuDef*
%ADD23RotRect,2.600000X2.600000X5.000000*%
G04 #@! TD*
G04 #@! TA.AperFunction,SMDPad,CuDef*
%ADD24R,1.000000X0.800000*%
G04 #@! TD*
G04 #@! TA.AperFunction,SMDPad,CuDef*
%ADD25R,0.700000X1.500000*%
G04 #@! TD*
G04 #@! TA.AperFunction,ViaPad*
%ADD26C,0.800000*%
G04 #@! TD*
G04 #@! TA.AperFunction,Conductor*
%ADD27C,0.250000*%
G04 #@! TD*
G04 #@! TA.AperFunction,Conductor*
%ADD28C,0.500000*%
G04 #@! TD*
G04 #@! TA.AperFunction,Conductor*
%ADD29C,0.400000*%
G04 #@! TD*
G04 APERTURE END LIST*
D10*
X87858600Y-82575400D03*
D11*
X87858600Y-82575400D03*
D12*
X40265994Y-94660146D03*
D13*
X34503815Y-83799878D03*
D12*
X44692951Y-91527727D03*
D13*
X46256201Y-83447852D03*
D12*
X34929990Y-93692123D03*
D13*
X30824339Y-67202853D03*
D12*
X36586518Y-78063121D03*
X31250514Y-77095098D03*
D13*
X42576725Y-66850827D03*
D12*
X41013475Y-74930702D03*
X79230000Y-62958851D03*
D14*
X75955000Y-51108851D03*
D12*
X74230000Y-60858851D03*
X84230000Y-60858851D03*
D14*
X87505000Y-53308851D03*
D15*
X134329702Y-62386557D03*
X132129702Y-62386557D03*
D14*
X111950000Y-71474999D03*
D12*
X115225000Y-83324999D03*
D14*
X123500000Y-73674999D03*
D12*
X120225000Y-81224999D03*
X110225000Y-81224999D03*
X115225000Y-66325000D03*
D14*
X111950000Y-54475000D03*
X123500000Y-56675000D03*
D12*
X120225000Y-64225000D03*
X110225000Y-64225000D03*
D16*
X127642099Y-81255003D03*
D17*
X126372099Y-55855003D03*
D18*
X140342099Y-83795003D03*
D17*
X141612099Y-66015003D03*
D19*
X139834099Y-78715003D03*
D20*
X128150099Y-76175003D03*
D17*
X141612099Y-60935003D03*
D19*
X139834099Y-71095003D03*
D18*
X140342099Y-78715003D03*
D17*
X126372099Y-63475003D03*
X126372099Y-68555003D03*
D20*
X128150099Y-78715003D03*
X128150099Y-66015003D03*
D17*
X141612099Y-71095003D03*
D19*
X139834099Y-58395003D03*
D17*
X141612099Y-83795003D03*
D18*
X140342099Y-66015003D03*
D19*
X139834099Y-76175003D03*
D20*
X128150099Y-71095003D03*
X128150099Y-60935003D03*
D17*
X126372099Y-58395003D03*
X141612099Y-76175003D03*
D20*
X128150099Y-83795003D03*
D16*
X127642099Y-66015003D03*
D19*
X139834099Y-81255003D03*
D18*
X140342099Y-68555003D03*
D17*
X141612099Y-68555003D03*
D20*
X128150099Y-81255003D03*
D17*
X141612099Y-55855003D03*
D20*
X128150099Y-58395003D03*
D17*
X141612099Y-73635003D03*
D18*
X140342099Y-55855003D03*
D17*
X141612099Y-63475003D03*
D16*
X127642099Y-60935003D03*
D17*
X126372099Y-60935003D03*
D16*
X127642099Y-76175003D03*
D18*
X140342099Y-58395003D03*
D17*
X126372099Y-81255003D03*
D20*
X128150099Y-73635003D03*
D17*
X126372099Y-71095003D03*
D18*
X140342099Y-63475003D03*
D19*
X139834099Y-83795003D03*
D16*
X127642099Y-73635003D03*
X127642099Y-78715003D03*
D20*
X128150099Y-68555003D03*
D17*
X126372099Y-78715003D03*
D19*
X139834099Y-55855003D03*
D17*
X141612099Y-58395003D03*
D19*
X139834099Y-73635003D03*
D16*
X127642099Y-68555003D03*
D19*
X139834099Y-68555003D03*
D18*
X140342099Y-73635003D03*
D19*
X139834099Y-66015003D03*
D17*
X126372099Y-66015003D03*
D16*
X127642099Y-55855003D03*
D19*
X139834099Y-60935003D03*
D17*
X126372099Y-76175003D03*
D18*
X140342099Y-71095003D03*
D17*
X126372099Y-83795003D03*
X126372099Y-73635003D03*
D20*
X128150099Y-63475003D03*
D18*
X140342099Y-60935003D03*
D17*
X141612099Y-81255003D03*
D18*
X140342099Y-76175003D03*
D16*
X127642099Y-83795003D03*
X127642099Y-63475003D03*
D20*
X128150099Y-55855003D03*
D17*
X141612099Y-78715003D03*
D16*
X127642099Y-71095003D03*
D19*
X139834099Y-63475003D03*
D16*
X127642099Y-58395003D03*
D18*
X140342099Y-81255003D03*
D21*
X129166099Y-55855003D03*
X129166099Y-58395003D03*
X129166099Y-60935003D03*
X129166099Y-63475003D03*
X129166099Y-66015003D03*
X129166099Y-68555003D03*
X129166099Y-71095003D03*
X129166099Y-73635003D03*
X129166099Y-76175003D03*
X129166099Y-78715003D03*
X129166099Y-81255003D03*
X129166099Y-83795003D03*
D22*
X138818099Y-83795003D03*
X138818099Y-81255003D03*
X138818099Y-78715003D03*
X138818099Y-76175003D03*
X138818099Y-73635003D03*
X138818099Y-71095003D03*
X138818099Y-68555003D03*
X138818099Y-66015003D03*
X138818099Y-63475003D03*
X138818099Y-60935003D03*
X138818099Y-58395003D03*
X138818099Y-55855003D03*
D10*
X51993800Y-103886000D03*
D11*
X51993800Y-103886000D03*
D12*
X97233086Y-100327566D03*
D14*
X93958086Y-88477566D03*
D12*
X92233086Y-98227566D03*
X102233086Y-98227566D03*
D14*
X105508086Y-90677566D03*
X93958086Y-71477564D03*
D12*
X97233086Y-83327564D03*
X102233086Y-81227564D03*
X92233086Y-81227564D03*
D14*
X105508086Y-73677564D03*
X139975000Y-103900000D03*
D12*
X128125000Y-107175000D03*
X130225000Y-112175000D03*
X130225000Y-102175000D03*
D14*
X137775000Y-115450000D03*
X93958086Y-54477567D03*
D12*
X97233086Y-66327567D03*
D14*
X105508086Y-56677567D03*
D12*
X92233086Y-64227567D03*
X102233086Y-64227567D03*
X110975000Y-117825000D03*
D14*
X107700000Y-105975000D03*
D12*
X105975000Y-115725000D03*
X115975000Y-115725000D03*
D14*
X119250000Y-108175000D03*
D23*
X56421036Y-88419286D03*
D12*
X60716369Y-99938758D03*
X55552368Y-98282528D03*
X65514315Y-97410970D03*
D23*
X68118827Y-89604265D03*
D12*
X79230000Y-96958862D03*
D14*
X75955000Y-85108862D03*
D12*
X84230000Y-94858862D03*
X74230000Y-94858862D03*
D14*
X87505000Y-87308862D03*
D10*
X106222800Y-68935600D03*
D11*
X106222800Y-68935600D03*
D23*
X54939388Y-71483978D03*
D12*
X59234721Y-83003450D03*
D23*
X66637179Y-72668957D03*
D12*
X64032667Y-80475662D03*
X54070720Y-81347220D03*
D23*
X53457746Y-54548662D03*
D12*
X57753079Y-66068134D03*
X62551025Y-63540346D03*
D23*
X65155537Y-55733641D03*
D12*
X52589078Y-64411904D03*
D11*
X45821600Y-63474600D03*
D10*
X45821600Y-63474600D03*
D24*
X137650576Y-52861813D03*
X130350576Y-52861813D03*
X130350576Y-55061813D03*
X137650576Y-55061813D03*
D25*
X131750576Y-55711813D03*
X134750576Y-55711813D03*
X136250576Y-55711813D03*
D10*
X121513600Y-112115600D03*
D11*
X121513600Y-112115600D03*
D13*
X38178958Y-100397525D03*
D12*
X43941137Y-111257793D03*
X38605133Y-110289770D03*
X48368094Y-108125374D03*
D13*
X49931344Y-100045499D03*
D12*
X79230000Y-79958851D03*
D14*
X75955000Y-68108851D03*
X87505000Y-70308851D03*
D12*
X74230000Y-77858851D03*
X84230000Y-77858851D03*
D14*
X111950000Y-88472430D03*
D12*
X115225000Y-100322430D03*
X110225000Y-98222430D03*
X120225000Y-98222430D03*
D14*
X123500000Y-90672430D03*
D26*
X134000579Y-53161815D03*
X130166097Y-74269998D03*
X130166099Y-76810001D03*
X130166097Y-79350000D03*
X130166098Y-81890002D03*
X130025000Y-84450000D03*
X137818099Y-65380003D03*
X136818099Y-58395001D03*
X130166097Y-66650000D03*
X130166096Y-69190003D03*
X130166097Y-71730000D03*
X137818097Y-78080001D03*
X137818095Y-75540003D03*
X137818101Y-73000004D03*
X137818097Y-70460003D03*
X137818099Y-67920001D03*
X130166098Y-62840002D03*
X137318098Y-60300003D03*
X130666098Y-60935001D03*
X137876690Y-61980157D03*
X134000581Y-54561815D03*
X132166099Y-64745000D03*
X132060090Y-62386557D03*
X135272264Y-57384846D03*
X134329703Y-62386558D03*
X135235090Y-59211557D03*
X131166098Y-59030002D03*
X137775090Y-83087557D03*
X137818097Y-80620000D03*
D27*
X136250578Y-53825947D02*
X136250581Y-55711815D01*
X135940002Y-53308264D02*
X136104133Y-53472397D01*
X134000579Y-53161815D02*
X135586446Y-53161815D01*
X136104133Y-53472397D02*
G75*
G02*
X136250578Y-53825947I-353552J-353551D01*
G01*
X135586446Y-53161816D02*
G75*
G02*
X135940002Y-53308264I-1J-500003D01*
G01*
X30824339Y-67202853D02*
X32948182Y-72562580D01*
X138329546Y-74123554D02*
X138818098Y-73635001D01*
X32939211Y-73173711D02*
X31250514Y-77095098D01*
X130166097Y-74269998D02*
X137975992Y-74270001D01*
X32948182Y-72562580D02*
G75*
G02*
X32939211Y-73173711I-743729J-294714D01*
G01*
X137975992Y-74270001D02*
G75*
G03*
X138329546Y-74123554I1J499997D01*
G01*
X53457746Y-54548662D02*
X54786247Y-60025923D01*
X138329545Y-76663555D02*
X138818097Y-76175004D01*
X54707882Y-60603427D02*
X52589078Y-64411904D01*
X130166099Y-76810001D02*
X137975992Y-76810001D01*
X137975992Y-76810000D02*
G75*
G03*
X138329545Y-76663555I0J500001D01*
G01*
X54786247Y-60025923D02*
G75*
G02*
X54707882Y-60603427I-777455J-188571D01*
G01*
X76738431Y-57061244D02*
X74244393Y-60858851D01*
X130166097Y-79350000D02*
X137975991Y-79350002D01*
X75969393Y-51108851D02*
X76859036Y-56491639D01*
X138329544Y-79203556D02*
X138818098Y-78715004D01*
X76859036Y-56491639D02*
G75*
G02*
X76738431Y-57061244I-789294J-130450D01*
G01*
X138329544Y-79203556D02*
G75*
G02*
X137975991Y-79350002I-353553J353556D01*
G01*
X94694797Y-60570293D02*
X92233086Y-64227567D01*
X130166098Y-81890002D02*
X137975991Y-81890005D01*
X138329546Y-81743557D02*
X138818099Y-81254999D01*
X93958086Y-54477567D02*
X94821531Y-60000001D01*
X94694797Y-60570293D02*
G75*
G03*
X94821531Y-60000001I-663673J446714D01*
G01*
X138329546Y-81743557D02*
G75*
G02*
X137975991Y-81890005I-353556J353556D01*
G01*
X130044997Y-84430003D02*
X137975988Y-84430003D01*
X130025000Y-84450000D02*
X130044997Y-84430003D01*
X111950000Y-54475000D02*
X112903507Y-59860898D01*
X138329541Y-84283557D02*
X138818096Y-83795003D01*
X112778484Y-60448458D02*
X110225000Y-64225000D01*
X112778483Y-60448458D02*
G75*
G03*
X112903506Y-59860898I-662723J448098D01*
G01*
X138329541Y-84283557D02*
G75*
G02*
X137975988Y-84430003I-353553J353556D01*
G01*
X129166099Y-66015003D02*
X129337153Y-65843949D01*
X137647046Y-65551056D02*
X137818099Y-65380003D01*
X131166099Y-65697503D02*
X137293492Y-65697503D01*
X129690706Y-65697503D02*
X131166099Y-65697503D01*
X34503815Y-83799878D02*
X36637649Y-89200344D01*
X36626526Y-89815028D02*
X34929990Y-93692123D01*
X36637648Y-89200344D02*
G75*
G02*
X36626525Y-89815028I-744026J-293979D01*
G01*
X137647046Y-65551056D02*
G75*
G02*
X137293492Y-65697503I-353553J353550D01*
G01*
X129337153Y-65843949D02*
G75*
G02*
X129690706Y-65697503I353553J-353556D01*
G01*
X136818099Y-58395001D02*
X136728585Y-58305490D01*
X136728585Y-58305490D02*
X131823695Y-58305493D01*
X56274739Y-77554393D02*
X54070720Y-81347220D01*
X54939388Y-71483978D02*
X56357426Y-76951611D01*
X131470141Y-58159046D02*
X129166098Y-55855001D01*
X131823695Y-58305493D02*
G75*
G02*
X131470141Y-58159046I-1J499997D01*
G01*
X56357425Y-76951611D02*
G75*
G02*
X56274739Y-77554393I-774384J-200836D01*
G01*
X75969389Y-68108851D02*
X76822483Y-73698652D01*
X76692510Y-74270180D02*
X74244389Y-77858851D01*
X130166097Y-66650000D02*
X137975993Y-66650003D01*
X138329547Y-66503555D02*
X138818099Y-66015001D01*
X138329547Y-66503555D02*
G75*
G02*
X137975993Y-66650003I-353556J353556D01*
G01*
X76822482Y-73698652D02*
G75*
G02*
X76692509Y-74270180I-790848J-120693D01*
G01*
X130166096Y-69190003D02*
X137975989Y-69190003D01*
X93958093Y-71477564D02*
X94894946Y-76854051D01*
X138329543Y-69043556D02*
X138818098Y-68555001D01*
X94771563Y-77436487D02*
X92233093Y-81227564D01*
X94771562Y-77436487D02*
G75*
G03*
X94894945Y-76854051I-664734J445104D01*
G01*
X138329543Y-69043556D02*
G75*
G02*
X137975989Y-69190003I-353553J353550D01*
G01*
X111950004Y-71474999D02*
X112839069Y-76851975D01*
X112718825Y-77421099D02*
X110225004Y-81224999D01*
X138329545Y-71583556D02*
X138818097Y-71095001D01*
X130166097Y-71730000D02*
X137975990Y-71730004D01*
X112718825Y-77421099D02*
G75*
G03*
X112839069Y-76851975I-669045J438620D01*
G01*
X138329545Y-71583556D02*
G75*
G02*
X137975990Y-71730004I-353556J353556D01*
G01*
X129654650Y-78226448D02*
X129166097Y-78715000D01*
X137818097Y-78080001D02*
X130008203Y-78080002D01*
X40362911Y-106273247D02*
X38605133Y-110289770D01*
X38178958Y-100397525D02*
X40368326Y-105644438D01*
X130008203Y-78080003D02*
G75*
G03*
X129654650Y-78226448I0J-500001D01*
G01*
X40368325Y-105644438D02*
G75*
G02*
X40362910Y-106273247I-738306J-308070D01*
G01*
X57687024Y-94445009D02*
X55552368Y-98282528D01*
X56421036Y-88419286D02*
X57764612Y-93864470D01*
X129654650Y-75686450D02*
X129166098Y-76175004D01*
X137818095Y-75540003D02*
X130008204Y-75540003D01*
X130008204Y-75540003D02*
G75*
G03*
X129654650Y-75686450I-1J-499997D01*
G01*
X57764612Y-93864470D02*
G75*
G02*
X57687024Y-94445009I-776700J-191650D01*
G01*
X76827453Y-91336221D02*
X74244382Y-94858862D01*
X75969382Y-85108862D02*
X76969902Y-90722789D01*
X129654652Y-73146450D02*
X129166096Y-73635004D01*
X137818101Y-73000004D02*
X130008205Y-73000004D01*
X130008205Y-73000005D02*
G75*
G03*
X129654652Y-73146450I0J-500001D01*
G01*
X76969902Y-90722789D02*
G75*
G02*
X76827453Y-91336221I-787593J-140363D01*
G01*
X129654653Y-70606447D02*
X129166096Y-71095001D01*
X93958093Y-88477566D02*
X94913758Y-94033056D01*
X137818097Y-70460003D02*
X130008205Y-70460002D01*
X94778367Y-94630800D02*
X92233093Y-98227566D01*
X130008205Y-70460003D02*
G75*
G03*
X129654653Y-70606447I0J-500001D01*
G01*
X94913758Y-94033056D02*
G75*
G02*
X94778367Y-94630800I-788419J-135626D01*
G01*
X130666099Y-67920003D02*
X130008206Y-67920003D01*
X112744203Y-94636275D02*
X110241911Y-98222430D01*
X111966911Y-88472430D02*
X112877671Y-94049556D01*
X130666101Y-67920001D02*
X130666099Y-67920003D01*
X137818099Y-67920001D02*
X130666101Y-67920001D01*
X129654652Y-68066450D02*
X129166099Y-68555003D01*
X129654652Y-68066450D02*
G75*
G02*
X130008206Y-67920003I353553J-353550D01*
G01*
X112877671Y-94049556D02*
G75*
G02*
X112744203Y-94636275I-789545J-128933D01*
G01*
X137261509Y-63549242D02*
X138818098Y-61992653D01*
X131441024Y-63783557D02*
X136695823Y-63783557D01*
X130166098Y-62840002D02*
X130875339Y-63549243D01*
X138818098Y-61992653D02*
X138818098Y-60935003D01*
X137261509Y-63549242D02*
G75*
G02*
X136695823Y-63783557I-565689J565692D01*
G01*
X130875339Y-63549243D02*
G75*
G03*
X131441024Y-63783557I565685J565686D01*
G01*
X130835139Y-60064045D02*
X129166098Y-58395003D01*
X137228587Y-60210490D02*
X131188693Y-60210492D01*
X137318098Y-60300003D02*
X137228587Y-60210490D01*
X131188693Y-60210492D02*
G75*
G02*
X130835139Y-60064045I-1J499997D01*
G01*
D28*
X128125000Y-107096575D02*
X128125000Y-116028680D01*
X131501316Y-115388678D02*
X137775000Y-115371575D01*
X87503678Y-93578684D02*
X87519382Y-93562980D01*
X128125000Y-107096575D02*
X128125000Y-103493578D01*
X72224565Y-97559820D02*
X71457875Y-98597800D01*
D29*
X137876690Y-61980157D02*
X137542322Y-61980157D01*
X129166098Y-61435002D02*
X129166099Y-63475004D01*
D28*
X126328680Y-117825000D02*
X110925000Y-117825000D01*
X53667591Y-83470861D02*
X50863238Y-82694966D01*
X105503498Y-79946077D02*
X105508093Y-79941482D01*
X121603199Y-82775931D02*
X120777000Y-83312000D01*
X89347226Y-99888226D02*
X86857202Y-97398202D01*
X68467298Y-93594655D02*
X68118827Y-89604265D01*
D29*
X135803402Y-60862557D02*
X130738542Y-60862557D01*
D28*
X70365488Y-99202248D02*
X60716369Y-99938758D01*
X55112027Y-100329449D02*
X53149337Y-99656614D01*
X106134845Y-82234342D02*
X107659278Y-83326078D01*
X115241911Y-100322430D02*
X108452366Y-100324366D01*
X108452366Y-100324366D02*
X97233093Y-100327566D01*
X127685660Y-117089340D02*
X127389340Y-117385660D01*
X52319637Y-109322731D02*
X43941137Y-111257793D01*
D29*
X137542322Y-61980157D02*
X136864062Y-61301897D01*
D28*
X59234721Y-83003450D02*
X53667591Y-83470861D01*
X97148719Y-66243200D02*
X90486520Y-66243200D01*
X106720613Y-65466122D02*
X106743084Y-65466122D01*
D29*
X130738542Y-60862557D02*
X130666098Y-60935001D01*
D28*
X79244382Y-96958862D02*
X73433137Y-96951023D01*
X51886767Y-66559147D02*
X42576725Y-66850827D01*
X85796542Y-96958862D02*
X79244382Y-96958862D01*
D29*
X130666098Y-60935001D02*
X129666098Y-60935002D01*
D28*
X108839000Y-66344800D02*
X97250319Y-66344800D01*
X79244393Y-62958851D02*
X73081103Y-62950881D01*
X97233086Y-83327564D02*
X107659278Y-83326078D01*
X123516911Y-90672430D02*
X123516911Y-98264169D01*
D29*
X130666098Y-60935001D02*
X130644674Y-60935001D01*
D28*
X86250978Y-96074017D02*
X86625000Y-95700000D01*
X97285786Y-100380800D02*
X97233093Y-100433493D01*
X105503498Y-79946077D02*
X105508228Y-81021421D01*
X65597298Y-59594655D02*
X65155537Y-55733641D01*
X67047298Y-76594655D02*
X66637179Y-72668957D01*
X48515436Y-92778915D02*
X40265994Y-94660146D01*
X123388208Y-80784308D02*
X123463134Y-80456030D01*
X125881276Y-59680557D02*
X125071877Y-59680557D01*
X73094224Y-79973523D02*
X70530000Y-79970000D01*
X123500004Y-73674999D02*
X123516911Y-90672430D01*
X128561803Y-59680557D02*
X125881276Y-59680557D01*
X123463134Y-80456030D02*
X123500832Y-80121427D01*
D29*
X137876690Y-61980157D02*
X137993416Y-61980157D01*
D28*
X107659278Y-83326078D02*
X115225000Y-83324999D01*
X79295538Y-80010000D02*
X88532680Y-80010000D01*
X105508086Y-56677567D02*
X105490382Y-62996177D01*
X129005983Y-114135978D02*
X129380000Y-114510000D01*
X121603199Y-82775931D02*
X123276997Y-81102133D01*
X90436658Y-81457324D02*
X90807250Y-82362003D01*
X45074618Y-76193273D02*
X36586518Y-78063121D01*
X124643660Y-59680557D02*
X123939340Y-60384877D01*
X115205200Y-66344800D02*
X108889800Y-66344800D01*
X72037141Y-80412859D02*
X70882464Y-81567536D01*
D29*
X137993416Y-61980157D02*
X138082589Y-61890984D01*
D28*
X119200000Y-103202400D02*
X119200000Y-108175000D01*
X115243594Y-66306406D02*
X115225000Y-66325000D01*
X87528400Y-76628684D02*
X87519389Y-76619673D01*
X120777000Y-83312000D02*
X115225000Y-83324999D01*
X124011217Y-59241217D02*
X123939340Y-59169340D01*
X97233093Y-100327566D02*
X90407886Y-100327566D01*
X69345983Y-95715978D02*
X69720000Y-96090000D01*
X87519382Y-93562980D02*
X87519382Y-87308862D01*
X86272300Y-62070333D02*
X86646322Y-61696316D01*
X60716369Y-99938758D02*
X57800247Y-100142047D01*
X123500000Y-61445537D02*
X123500000Y-64968000D01*
X73081103Y-62950881D02*
X68971316Y-62968678D01*
X106382183Y-99066978D02*
X106756200Y-99441000D01*
X123500000Y-58108680D02*
X123500000Y-56675000D01*
X121458650Y-100322430D02*
X119639340Y-102141740D01*
D29*
X134604133Y-55165367D02*
X134000581Y-54561815D01*
D28*
X69834111Y-65218323D02*
X57753079Y-66068134D01*
X123500000Y-64968000D02*
X123500000Y-73674995D01*
X121546950Y-66306406D02*
X115243594Y-66306406D01*
D29*
X138264055Y-58949042D02*
X138818098Y-58395005D01*
D28*
X52395802Y-99599525D02*
X49931344Y-100045499D01*
X92185142Y-83293368D02*
X97233086Y-83327564D01*
X115225000Y-66325000D02*
X115205200Y-66344800D01*
X69961464Y-82000360D02*
X59234721Y-83003450D01*
X127685660Y-102432918D02*
X123516911Y-98264169D01*
X97250319Y-66344800D02*
X97233086Y-66327567D01*
X97233086Y-66327567D02*
X97148719Y-66243200D01*
X87519389Y-76619673D02*
X87519389Y-70308851D01*
X79244389Y-79958851D02*
X79295538Y-80010000D01*
X87525000Y-59575000D02*
X87519393Y-59569393D01*
X123500000Y-73674995D02*
X123500004Y-73674999D01*
X123500832Y-80121427D02*
X123502900Y-79953067D01*
X121458650Y-100322430D02*
X115241911Y-100322430D01*
X85959531Y-62958851D02*
X79244393Y-62958851D01*
X73094224Y-79973523D02*
X79244389Y-79958851D01*
X66475983Y-61715978D02*
X66850000Y-62090000D01*
X123077571Y-99324829D02*
X122519310Y-99883090D01*
X73433137Y-96951023D02*
X71841316Y-96968678D01*
X71951083Y-63462226D02*
X70856937Y-64710675D01*
X57800247Y-100142047D02*
X55112027Y-100329449D01*
X121556602Y-66296754D02*
X121546950Y-66306406D01*
X89593340Y-80449340D02*
X90109265Y-80965265D01*
X67925983Y-78715978D02*
X68300000Y-79090000D01*
X130644674Y-60935001D02*
X129976016Y-60266343D01*
X52390193Y-84434672D02*
X49584828Y-91847389D01*
X97233093Y-100433493D02*
X97233093Y-100327566D01*
X123500000Y-64968000D02*
X122610570Y-65857430D01*
X106251480Y-64996989D02*
X106720613Y-65466122D01*
X50708878Y-67310828D02*
X46054921Y-75471487D01*
X50170706Y-82669457D02*
X46256201Y-83447852D01*
D29*
X138117609Y-61698383D02*
X138117607Y-59302597D01*
D28*
X105508093Y-79941482D02*
X105508093Y-73677564D01*
X87519393Y-59569393D02*
X87519393Y-53308851D01*
X57753079Y-66068134D02*
X51886767Y-66559147D01*
X123276997Y-81102133D02*
X123388208Y-80784308D01*
X105508093Y-96912866D02*
X105508093Y-90677566D01*
X57800247Y-100142047D02*
X53305535Y-108567242D01*
X125071877Y-59680557D02*
X124643660Y-59680557D01*
X86275700Y-79124017D02*
X86649722Y-78750000D01*
X89425860Y-65803860D02*
X87020191Y-63398191D01*
D29*
X134750581Y-55711813D02*
X134750580Y-55518918D01*
D28*
X68971316Y-62968678D02*
G75*
G02*
X66850000Y-62090000I-30J2999921D01*
G01*
X126328680Y-117824999D02*
G75*
G03*
X127389339Y-117385659I-1J1500001D01*
G01*
X86250978Y-96074017D02*
G75*
G02*
X84129655Y-96952702I-2121305J2121265D01*
G01*
X119639340Y-102141740D02*
G75*
G03*
X119200000Y-103202400I1060662J-1060661D01*
G01*
X72037141Y-80412859D02*
G75*
G02*
X73094224Y-79973523I1060660J-1060659D01*
G01*
X131501316Y-115388678D02*
G75*
G02*
X129380000Y-114510000I-30J2999921D01*
G01*
X89347226Y-99888226D02*
G75*
G03*
X90407886Y-100327566I1060661J1060662D01*
G01*
X106134845Y-82234341D02*
G75*
G02*
X105508229Y-81021421I873365J1219517D01*
G01*
X70365488Y-99202247D02*
G75*
G03*
X71457875Y-98597800I-114162J1495649D01*
G01*
X48515436Y-92778914D02*
G75*
G03*
X49584827Y-91847389I-333505J1462457D01*
G01*
X87528400Y-76628684D02*
G75*
G02*
X86649722Y-78750000I-2999921J-30D01*
G01*
X71841316Y-96968678D02*
G75*
G02*
X69720000Y-96090000I-30J2999921D01*
G01*
X67925983Y-78715978D02*
G75*
G02*
X67047298Y-76594655I2121265J2121305D01*
G01*
X90486520Y-66243199D02*
G75*
G02*
X89425861Y-65803859I1J1500001D01*
G01*
X123516910Y-98264169D02*
G75*
G02*
X123077570Y-99324828I-1500001J1D01*
G01*
X106382183Y-99066978D02*
G75*
G02*
X105503498Y-96945655I2121265J2121305D01*
G01*
X70856937Y-64710675D02*
G75*
G02*
X69834111Y-65218323I-1128082J988661D01*
G01*
X50708879Y-67310828D02*
G75*
G02*
X51886767Y-66559148I1302999J-743089D01*
G01*
X70421316Y-79968678D02*
G75*
G02*
X68300000Y-79090000I-30J2999921D01*
G01*
X69345983Y-95715978D02*
G75*
G02*
X68467298Y-93594655I2121265J2121305D01*
G01*
X123500001Y-61445537D02*
G75*
G02*
X123939341Y-60384878I1500001J-1D01*
G01*
D29*
X129666098Y-60935002D02*
G75*
G03*
X129166098Y-61435002I1J-500001D01*
G01*
D28*
X53667591Y-83470861D02*
G75*
G03*
X52390193Y-84434672I125497J-1494741D01*
G01*
X90807250Y-82362003D02*
G75*
G03*
X92185142Y-83293368I1388051J568597D01*
G01*
D29*
X138117608Y-61698383D02*
G75*
G02*
X138082588Y-61890984I-602824J10125D01*
G01*
D28*
X124011217Y-59241217D02*
G75*
G03*
X125071877Y-59680557I1060661J1060662D01*
G01*
X46054921Y-75471487D02*
G75*
G02*
X45074618Y-76193273I-1303000J743088D01*
G01*
X87525000Y-59575000D02*
G75*
G02*
X86646322Y-61696316I-2999921J-30D01*
G01*
X108877516Y-100319678D02*
G75*
G02*
X106756200Y-99441000I-30J2999921D01*
G01*
X129005983Y-114135978D02*
G75*
G02*
X128127298Y-112014655I2121265J2121305D01*
G01*
X121458650Y-100322429D02*
G75*
G03*
X122519309Y-99883089I-1J1500001D01*
G01*
X70882464Y-81567536D02*
G75*
G02*
X69961464Y-82000360I-1060663J1060667D01*
G01*
X50170706Y-82669457D02*
G75*
G02*
X50863238Y-82694967I292544J-1471218D01*
G01*
X72224565Y-97559820D02*
G75*
G02*
X73433137Y-96951023I1206549J-891202D01*
G01*
X66475983Y-61715978D02*
G75*
G02*
X65597298Y-59594655I2121265J2121305D01*
G01*
D29*
X134750579Y-55518918D02*
G75*
G03*
X134604133Y-55165367I-500003J-4D01*
G01*
D28*
X87503678Y-93578684D02*
G75*
G02*
X86625000Y-95700000I-2999921J-30D01*
G01*
X52395802Y-99599525D02*
G75*
G02*
X53149337Y-99656615I267102J-1476046D01*
G01*
X108864400Y-66344800D02*
G75*
G02*
X106743084Y-65466122I-30J2999921D01*
G01*
X90436657Y-81457324D02*
G75*
G03*
X90109265Y-80965265I-1388055J-568602D01*
G01*
X123939340Y-59169340D02*
G75*
G02*
X123500000Y-58108680I1060662J1060661D01*
G01*
X86857202Y-97398202D02*
G75*
G03*
X85796542Y-96958862I-1060661J-1060662D01*
G01*
X53305535Y-108567242D02*
G75*
G02*
X52319637Y-109322730I-1323444J706035D01*
G01*
X85959531Y-62958852D02*
G75*
G02*
X87020190Y-63398192I-1J-1500001D01*
G01*
D29*
X135803402Y-60862558D02*
G75*
G02*
X136864061Y-61301898I-1J-1500001D01*
G01*
D28*
X106251480Y-64996989D02*
G75*
G02*
X105490382Y-62996177I2259165J2004539D01*
G01*
X121556602Y-66296753D02*
G75*
G03*
X122610569Y-65857429I-6694J1499991D01*
G01*
X71951083Y-63462226D02*
G75*
G02*
X73081103Y-62950881I1128080J-988655D01*
G01*
X88532680Y-80010001D02*
G75*
G02*
X89593339Y-80449341I-1J-1500001D01*
G01*
X86272300Y-62070333D02*
G75*
G02*
X84150977Y-62949018I-2121305J2121265D01*
G01*
X86275700Y-79124017D02*
G75*
G02*
X84154377Y-80002702I-2121305J2121265D01*
G01*
X128124999Y-116028680D02*
G75*
G02*
X127685659Y-117089339I-1500001J1D01*
G01*
X128561803Y-59680558D02*
G75*
G02*
X129976015Y-60266344I0J-1999999D01*
G01*
X127685660Y-102432918D02*
G75*
G02*
X128125000Y-103493578I-1060662J-1060661D01*
G01*
D29*
X138264055Y-58949042D02*
G75*
G03*
X138117607Y-59302597I353544J-353552D01*
G01*
X137505499Y-64580491D02*
X132537715Y-64580491D01*
X137859053Y-64434044D02*
X138818097Y-63475000D01*
X132184161Y-64726938D02*
X132166099Y-64745000D01*
X132184161Y-64726938D02*
G75*
G02*
X132537715Y-64580491I353553J-353550D01*
G01*
X137505499Y-64580491D02*
G75*
G03*
X137859053Y-64434044I1J499997D01*
G01*
D27*
X131750576Y-55711813D02*
X133277163Y-57238400D01*
X133630716Y-57384846D02*
X135272264Y-57384846D01*
X133630716Y-57384845D02*
G75*
G02*
X133277163Y-57238400I0J500001D01*
G01*
D29*
X137300771Y-59048069D02*
X137905552Y-58443284D01*
X136947214Y-59194516D02*
X134671933Y-59194516D01*
X138051997Y-58089732D02*
X138051997Y-56828212D01*
X138198444Y-56474658D02*
X138818100Y-55855003D01*
X131184161Y-59048065D02*
X131166098Y-59030002D01*
X134671930Y-59194513D02*
X131537716Y-59194513D01*
X138051996Y-58089732D02*
G75*
G02*
X137905552Y-58443284I-500001J0D01*
G01*
X138198444Y-56474658D02*
G75*
G03*
X138051997Y-56828212I353550J-353553D01*
G01*
X136947214Y-59194515D02*
G75*
G03*
X137300770Y-59048068I7J499990D01*
G01*
X131537716Y-59194513D02*
G75*
G02*
X131184161Y-59048065I-3J499992D01*
G01*
D27*
X133942966Y-104628174D02*
X130225000Y-102096575D01*
X137648090Y-83214557D02*
X129953644Y-83214557D01*
X129600090Y-83361004D02*
X129166094Y-83795000D01*
X139975000Y-103821575D02*
X134528415Y-104755407D01*
X137775090Y-83087557D02*
X137648090Y-83214557D01*
X133942966Y-104628174D02*
G75*
G03*
X134528415Y-104755407I450259J661263D01*
G01*
X129600090Y-83361004D02*
G75*
G02*
X129953644Y-83214557I353553J-353550D01*
G01*
X107650000Y-105975000D02*
X108585486Y-111517047D01*
X108452387Y-112108462D02*
X105925000Y-115725000D01*
X137818097Y-80620000D02*
X130008205Y-80620002D01*
X129654652Y-80766448D02*
X129166099Y-81255000D01*
X108452387Y-112108462D02*
G75*
G03*
X108585486Y-111517047I-655745J458261D01*
G01*
X129654652Y-80766448D02*
G75*
G02*
X130008205Y-80620002I353553J-353556D01*
G01*
M02*
