M48
; DRILL file {KiCad 6.0.0-d3dd2cf0fa~116~ubuntu20.04.1} date Fri 07 Jan 2022 06:39:15 PM EST
; FORMAT={-:-/ absolute / inch / decimal}
; #@! TF.CreationDate,2022-01-07T18:39:15-05:00
; #@! TF.GenerationSoftware,Kicad,Pcbnew,6.0.0-d3dd2cf0fa~116~ubuntu20.04.1
; #@! TF.FileFunction,NonPlated,1,2,NPTH
FMAT,2
INCH
; #@! TA.AperFunction,NonPlated,NPTH,ComponentDrill
T1C0.0354
; #@! TA.AperFunction,NonPlated,NPTH,ComponentDrill
T2C0.0670
; #@! TA.AperFunction,NonPlated,NPTH,ComponentDrill
T3C0.1350
%
G90
G05
T1
X2.3723Y-4.3727
X2.3723Y-4.3727
X2.3723Y-4.4908
X2.3723Y-4.4908
T2
X1.2412Y-3.0519
X1.386Y-3.7053
X1.664Y-2.9582
X1.8088Y-3.6116
X2.0378Y-2.3886
X2.0961Y-3.0553
X2.1545Y-3.7221
X2.4692Y-2.3508
X2.5275Y-3.0176
X2.5859Y-3.6843
X2.9033Y-3.585
X2.9033Y-2.9157
X2.9033Y-2.2464
X3.3364Y-3.585
X3.3364Y-2.9157
X3.3364Y-2.2464
X3.6115Y-2.379
X3.6115Y-3.0483
X3.6115Y-3.7176
X4.0446Y-2.379
X4.0446Y-3.0483
X4.0446Y-3.7176
X4.1516Y-4.4488
X4.3199Y-2.3789
X4.3199Y-3.0482
X4.3199Y-3.7174
X4.5846Y-4.4488
X4.753Y-2.3789
X4.753Y-3.0482
X4.753Y-3.7174
X5.2372Y-4.0453
X5.2372Y-4.4783
T3
X1.4526Y-3.005
X1.5974Y-3.6585
X2.2535Y-2.3697
X2.3118Y-3.0365
X2.3702Y-3.7032
X3.1199Y-3.585
X3.1199Y-2.9157
X3.1199Y-2.2464
X3.8281Y-2.379
X3.8281Y-3.0483
X3.8281Y-3.7176
X4.3681Y-4.4488
X4.5364Y-2.3789
X4.5364Y-3.0482
X4.5364Y-3.7174
X5.2372Y-4.2618
T0
M30
