G04 #@! TF.GenerationSoftware,KiCad,Pcbnew,6.0.0-d3dd2cf0fa~116~ubuntu20.04.1*
G04 #@! TF.CreationDate,2022-01-07T19:06:20-05:00*
G04 #@! TF.ProjectId,32_silk,33325f73-696c-46b2-9e6b-696361645f70,0.1*
G04 #@! TF.SameCoordinates,Original*
G04 #@! TF.FileFunction,Profile,NP*
%FSLAX46Y46*%
G04 Gerber Fmt 4.6, Leading zero omitted, Abs format (unit mm)*
G04 Created by KiCad (PCBNEW 6.0.0-d3dd2cf0fa~116~ubuntu20.04.1) date 2022-01-07 19:06:20*
%MOMM*%
%LPD*%
G01*
G04 APERTURE LIST*
G04 #@! TA.AperFunction,Profile*
%ADD10C,0.150000*%
G04 #@! TD*
G04 APERTURE END LIST*
D10*
X88450000Y-51050000D02*
G75*
G03*
X89000000Y-51700000I622269J-31157D01*
G01*
X46736000Y-65303400D02*
G75*
G03*
X47447200Y-64592200I-198018J909218D01*
G01*
X57962800Y-121183400D02*
X57988200Y-103479600D01*
X141376400Y-121691400D02*
X58420000Y-121691400D01*
X125526801Y-52501800D02*
G75*
G03*
X124688600Y-51689000I-786360J27664D01*
G01*
X51079400Y-99491800D02*
X32943800Y-103505000D01*
X32504800Y-103318800D02*
X25254800Y-70518800D01*
X57988200Y-103479600D02*
G75*
G03*
X57404000Y-103047800I-497756J-62341D01*
G01*
X51816000Y-103276400D02*
X51485800Y-99695000D01*
X88150000Y-48400000D02*
X70450000Y-48400000D01*
X125565415Y-93954600D02*
X125526800Y-52501800D01*
X141376400Y-121691401D02*
G75*
G03*
X141681200Y-121361200I-15295J319896D01*
G01*
X70450000Y-48400000D02*
G75*
G03*
X70050000Y-48750000I-25636J-374273D01*
G01*
X141681200Y-121361200D02*
X141681200Y-95097600D01*
X69600000Y-50400000D02*
G75*
G03*
X70050000Y-49950000I-3418J453418D01*
G01*
X32504799Y-103318800D02*
G75*
G03*
X32943800Y-103505000I342842J197700D01*
G01*
X124688600Y-51689000D02*
X89000000Y-51700000D01*
X51485800Y-99695000D02*
G75*
G03*
X51079400Y-99491800I-286426J-64852D01*
G01*
X88450000Y-51050000D02*
X88450000Y-48750000D01*
X25654000Y-69976999D02*
G75*
G03*
X25254800Y-70518800I188169J-556610D01*
G01*
X51816000Y-103276400D02*
G75*
G03*
X52120800Y-103530400I272070J16604D01*
G01*
X126466600Y-94843600D02*
X141401800Y-94843600D01*
X57404000Y-103047800D02*
X52120800Y-103530400D01*
X70050000Y-48750000D02*
X70050000Y-49950000D01*
X141681201Y-95097600D02*
G75*
G03*
X141401800Y-94843600I-292133J-40676D01*
G01*
X46736000Y-65303400D02*
X25654000Y-69977000D01*
X57962801Y-121183400D02*
G75*
G03*
X58420000Y-121691400I443254J-60811D01*
G01*
X125565415Y-93954600D02*
G75*
G03*
X126466600Y-94843600I865045J-24367D01*
G01*
X47142400Y-52374800D02*
G75*
G03*
X46431200Y-53187600I20042J-735087D01*
G01*
X88449999Y-48750000D02*
G75*
G03*
X88150000Y-48400000I-363581J-8070D01*
G01*
X46431200Y-53187600D02*
X47447200Y-64592200D01*
X69600000Y-50400000D02*
X47142400Y-52374800D01*
M02*
