M48
; DRILL file {KiCad 6.0.0-d3dd2cf0fa~116~ubuntu20.04.1} date Fri 07 Jan 2022 06:39:15 PM EST
; FORMAT={-:-/ absolute / inch / decimal}
; #@! TF.CreationDate,2022-01-07T18:39:15-05:00
; #@! TF.GenerationSoftware,Kicad,Pcbnew,6.0.0-d3dd2cf0fa~116~ubuntu20.04.1
; #@! TF.FileFunction,Plated,1,2,PTH
FMAT,2
INCH
; #@! TA.AperFunction,Plated,PTH,ViaDrill
T1C0.0157
; #@! TA.AperFunction,Plated,PTH,ComponentDrill
T2C0.0315
; #@! TA.AperFunction,Plated,PTH,ComponentDrill
T3C0.0320
%
G90
G05
T1
X2.3408Y-4.4318
X2.3959Y-4.4318
X2.5071Y-4.3817
X2.5469Y-4.3209
X2.5719Y-4.5434
X2.579Y-4.3832
X2.6219Y-4.3012
X2.6469Y-4.5631
X2.688Y-4.2792
X2.704Y-4.5082
X2.704Y-4.4188
X2.7219Y-4.5828
X2.7969Y-4.504
X2.8219Y-4.2815
X2.8719Y-4.5828
X2.9219Y-4.2815
X2.9719Y-4.5828
X3.0219Y-4.2815
X3.0719Y-4.5828
X3.1219Y-4.2815
X3.1719Y-4.5828
X3.2219Y-4.2815
X3.2719Y-4.5828
X3.3219Y-4.2815
X3.3719Y-4.5828
X3.4219Y-4.2815
X3.4719Y-4.5828
X3.519Y-4.2832
X3.5726Y-4.5883
T3
X2.4469Y-4.1302
X2.4469Y-4.7302
X2.5469Y-4.1302
X2.5469Y-4.7302
X2.6469Y-4.1302
X2.6469Y-4.7302
X2.7469Y-4.1302
X2.7469Y-4.7302
X2.8469Y-4.1302
X2.8469Y-4.7302
X2.9469Y-4.1302
X2.9469Y-4.7302
X3.0469Y-4.1302
X3.0469Y-4.7302
X3.1469Y-4.1302
X3.1469Y-4.7302
X3.2469Y-4.1302
X3.2469Y-4.7302
X3.3469Y-4.1302
X3.3469Y-4.7302
X3.4469Y-4.1302
X3.4469Y-4.7302
X3.5469Y-4.1302
X3.5469Y-4.7302
T2
G00X1.2821Y-3.2001
M15
G01X1.2975Y-3.1967
M16
G05
G00X1.427Y-3.8535
M15
G01X1.4423Y-3.8501
M16
G05
G00X1.4952Y-3.2335
M15
G01X1.5105Y-3.2301
M16
G05
G00X1.64Y-3.8869
M15
G01X1.6554Y-3.8835
M16
G05
G00X1.6742Y-3.1132
M15
G01X1.6895Y-3.1098
M16
G05
G00X1.819Y-3.7666
M15
G01X1.8344Y-3.7632
M16
G05
G00X2.059Y-2.5409
M15
G01X2.0747Y-2.5395
M16
G05
G00X2.1173Y-3.2076
M15
G01X2.133Y-3.2062
M16
G05
G00X2.1757Y-3.8743
M15
G01X2.1914Y-3.873
M16
G05
G00X2.2659Y-2.6018
M15
G01X2.2816Y-2.6004
M16
G05
G00X2.3242Y-3.2685
M15
G01X2.3399Y-3.2672
M16
G05
G00X2.3826Y-3.9353
M15
G01X2.3983Y-3.9339
M16
G05
G00X2.4591Y-2.5059
M15
G01X2.4747Y-2.5045
M16
G05
G00X2.5174Y-3.1726
M15
G01X2.5331Y-3.1712
M16
G05
G00X2.5757Y-3.8393
M15
G01X2.5914Y-3.838
M16
G05
G00X2.9112Y-3.7385
M15
G01X2.9269Y-3.7385
M16
G05
G00X2.9112Y-3.0692
M15
G01X2.9269Y-3.0692
M16
G05
G00X2.9112Y-2.4
M15
G01X2.9269Y-2.4
M16
G05
G00X3.112Y-3.8173
M15
G01X3.1277Y-3.8173
M16
G05
G00X3.112Y-3.148
M15
G01X3.1277Y-3.148
M16
G05
G00X3.112Y-2.4787
M15
G01X3.1277Y-2.4787
M16
G05
G00X3.3128Y-3.7385
M15
G01X3.3285Y-3.7385
M16
G05
G00X3.3128Y-3.0692
M15
G01X3.3285Y-3.0692
M16
G05
G00X3.3128Y-2.4
M15
G01X3.3285Y-2.4
M16
G05
G00X3.6194Y-2.5326
M15
G01X3.6352Y-2.5326
M16
G05
G00X3.6194Y-3.2019
M15
G01X3.6352Y-3.2019
M16
G05
G00X3.6194Y-3.8712
M15
G01X3.6352Y-3.8712
M16
G05
G00X3.8202Y-2.6113
M15
G01X3.8359Y-2.6113
M16
G05
G00X3.8202Y-3.2806
M15
G01X3.8359Y-3.2806
M16
G05
G00X3.8202Y-3.9499
M15
G01X3.8359Y-3.9499
M16
G05
G00X4.021Y-2.5326
M15
G01X4.0367Y-2.5326
M16
G05
G00X4.021Y-3.2019
M15
G01X4.0367Y-3.2019
M16
G05
G00X4.021Y-3.8712
M15
G01X4.0367Y-3.8712
M16
G05
G00X4.1594Y-4.6024
M15
G01X4.1752Y-4.6024
M16
G05
G00X4.3278Y-2.5325
M15
G01X4.3435Y-2.5325
M16
G05
G00X4.3278Y-3.2018
M15
G01X4.3435Y-3.2018
M16
G05
G00X4.3278Y-3.871
M15
G01X4.3435Y-3.871
M16
G05
G00X4.3602Y-4.6811
M15
G01X4.376Y-4.6811
M16
G05
G00X4.5285Y-2.6112
M15
G01X4.5443Y-2.6112
M16
G05
G00X4.5285Y-3.2805
M15
G01X4.5443Y-3.2805
M16
G05
G00X4.5285Y-3.9497
M15
G01X4.5443Y-3.9497
M16
G05
G00X4.561Y-4.6024
M15
G01X4.5768Y-4.6024
M16
G05
G00X4.7293Y-2.5325
M15
G01X4.7451Y-2.5325
M16
G05
G00X4.7293Y-3.2018
M15
G01X4.7451Y-3.2018
M16
G05
G00X4.7293Y-3.871
M15
G01X4.7451Y-3.871
M16
G05
G00X5.0049Y-4.2539
M15
G01X5.0049Y-4.2697
M16
G05
G00X5.0837Y-4.0531
M15
G01X5.0837Y-4.0689
M16
G05
G00X5.0837Y-4.4547
M15
G01X5.0837Y-4.4705
M16
G05
T0
M30
