G04 #@! TF.GenerationSoftware,KiCad,Pcbnew,6.0.0-d3dd2cf0fa~116~ubuntu20.04.1*
G04 #@! TF.CreationDate,2022-01-07T19:06:20-05:00*
G04 #@! TF.ProjectId,32_silk,33325f73-696c-46b2-9e6b-696361645f70,0.1*
G04 #@! TF.SameCoordinates,Original*
G04 #@! TF.FileFunction,Soldermask,Top*
G04 #@! TF.FilePolarity,Negative*
%FSLAX46Y46*%
G04 Gerber Fmt 4.6, Leading zero omitted, Abs format (unit mm)*
G04 Created by KiCad (PCBNEW 6.0.0-d3dd2cf0fa~116~ubuntu20.04.1) date 2022-01-07 19:06:20*
%MOMM*%
%LPD*%
G01*
G04 APERTURE LIST*
G04 Aperture macros list*
%AMHorizOval*
0 Thick line with rounded ends*
0 $1 width*
0 $2 $3 position (X,Y) of the first rounded end (center of the circle)*
0 $4 $5 position (X,Y) of the second rounded end (center of the circle)*
0 Add line between two ends*
20,1,$1,$2,$3,$4,$5,0*
0 Add two circle primitives to create the rounded ends*
1,1,$1,$2,$3*
1,1,$1,$4,$5*%
%AMFreePoly0*
4,1,6,0.600000,0.200000,0.000000,-0.400000,-0.600000,0.200000,-0.600000,0.400000,0.600000,0.400000,0.600000,0.200000,0.600000,0.200000,$1*%
%AMFreePoly1*
4,1,6,0.600000,-0.250000,-0.600000,-0.250000,-0.600000,1.000000,0.000000,0.400000,0.600000,1.000000,0.600000,-0.250000,0.600000,-0.250000,$1*%
G04 Aperture macros list end*
%ADD10C,0.100000*%
%ADD11C,1.701800*%
%ADD12C,3.429000*%
%ADD13HorizOval,2.000000X0.244074X0.054110X-0.244074X-0.054110X0*%
%ADD14HorizOval,2.000000X0.249049X0.021789X-0.249049X-0.021789X0*%
%ADD15O,2.500000X2.000000*%
%ADD16O,2.000000X2.500000*%
%ADD17C,1.600000*%
%ADD18FreePoly0,180.000000*%
%ADD19FreePoly0,0.000000*%
%ADD20FreePoly1,0.000000*%
%ADD21FreePoly1,180.000000*%
%ADD22C,0.900000*%
G04 APERTURE END LIST*
D10*
X67681554Y-113738398D02*
X69681554Y-113738398D01*
X69681554Y-113738398D02*
X69681554Y-115138398D01*
X69681554Y-115138398D02*
X67681554Y-115138398D01*
X67681554Y-115138398D02*
X67681554Y-113738398D01*
G36*
X69681554Y-115138398D02*
G01*
X67681554Y-115138398D01*
X67681554Y-113738398D01*
X69681554Y-113738398D01*
X69681554Y-115138398D01*
G37*
X69681554Y-115138398D02*
X67681554Y-115138398D01*
X67681554Y-113738398D01*
X69681554Y-113738398D01*
X69681554Y-115138398D01*
X67681554Y-111539840D02*
X69681554Y-111539840D01*
X69681554Y-111539840D02*
X69681554Y-112939840D01*
X69681554Y-112939840D02*
X67681554Y-112939840D01*
X67681554Y-112939840D02*
X67681554Y-111539840D01*
G36*
X69681554Y-112939840D02*
G01*
X67681554Y-112939840D01*
X67681554Y-111539840D01*
X69681554Y-111539840D01*
X69681554Y-112939840D01*
G37*
X69681554Y-112939840D02*
X67681554Y-112939840D01*
X67681554Y-111539840D01*
X69681554Y-111539840D01*
X69681554Y-112939840D01*
X61642000Y-117606001D02*
X62658000Y-117606001D01*
X62658000Y-117606001D02*
X62658000Y-118622001D01*
X62658000Y-118622001D02*
X61642000Y-118622001D01*
X61642000Y-118622001D02*
X61642000Y-117606001D01*
G36*
X62658000Y-118622001D02*
G01*
X61642000Y-118622001D01*
X61642000Y-117606001D01*
X62658000Y-117606001D01*
X62658000Y-118622001D01*
G37*
X62658000Y-118622001D02*
X61642000Y-118622001D01*
X61642000Y-117606001D01*
X62658000Y-117606001D01*
X62658000Y-118622001D01*
X74342000Y-117606001D02*
X75358000Y-117606001D01*
X75358000Y-117606001D02*
X75358000Y-118622001D01*
X75358000Y-118622001D02*
X74342000Y-118622001D01*
X74342000Y-118622001D02*
X74342000Y-117606001D01*
G36*
X75358000Y-118622001D02*
G01*
X74342000Y-118622001D01*
X74342000Y-117606001D01*
X75358000Y-117606001D01*
X75358000Y-118622001D01*
G37*
X75358000Y-118622001D02*
X74342000Y-118622001D01*
X74342000Y-117606001D01*
X75358000Y-117606001D01*
X75358000Y-118622001D01*
X69262000Y-117606001D02*
X70278000Y-117606001D01*
X70278000Y-117606001D02*
X70278000Y-118622001D01*
X70278000Y-118622001D02*
X69262000Y-118622001D01*
X69262000Y-118622001D02*
X69262000Y-117606001D01*
G36*
X70278000Y-118622001D02*
G01*
X69262000Y-118622001D01*
X69262000Y-117606001D01*
X70278000Y-117606001D01*
X70278000Y-118622001D01*
G37*
X70278000Y-118622001D02*
X69262000Y-118622001D01*
X69262000Y-117606001D01*
X70278000Y-117606001D01*
X70278000Y-118622001D01*
X62658000Y-107446001D02*
X61642000Y-107446001D01*
X61642000Y-107446001D02*
X61642000Y-106430001D01*
X61642000Y-106430001D02*
X62658000Y-106430001D01*
X62658000Y-106430001D02*
X62658000Y-107446001D01*
G36*
X62658000Y-107446001D02*
G01*
X61642000Y-107446001D01*
X61642000Y-106430001D01*
X62658000Y-106430001D01*
X62658000Y-107446001D01*
G37*
X62658000Y-107446001D02*
X61642000Y-107446001D01*
X61642000Y-106430001D01*
X62658000Y-106430001D01*
X62658000Y-107446001D01*
X77898000Y-107446001D02*
X76882000Y-107446001D01*
X76882000Y-107446001D02*
X76882000Y-106430001D01*
X76882000Y-106430001D02*
X77898000Y-106430001D01*
X77898000Y-106430001D02*
X77898000Y-107446001D01*
G36*
X77898000Y-107446001D02*
G01*
X76882000Y-107446001D01*
X76882000Y-106430001D01*
X77898000Y-106430001D01*
X77898000Y-107446001D01*
G37*
X77898000Y-107446001D02*
X76882000Y-107446001D01*
X76882000Y-106430001D01*
X77898000Y-106430001D01*
X77898000Y-107446001D01*
X76882000Y-117606001D02*
X77898000Y-117606001D01*
X77898000Y-117606001D02*
X77898000Y-118622001D01*
X77898000Y-118622001D02*
X76882000Y-118622001D01*
X76882000Y-118622001D02*
X76882000Y-117606001D01*
G36*
X77898000Y-118622001D02*
G01*
X76882000Y-118622001D01*
X76882000Y-117606001D01*
X77898000Y-117606001D01*
X77898000Y-118622001D01*
G37*
X77898000Y-118622001D02*
X76882000Y-118622001D01*
X76882000Y-117606001D01*
X77898000Y-117606001D01*
X77898000Y-118622001D01*
X82978000Y-107446001D02*
X81962000Y-107446001D01*
X81962000Y-107446001D02*
X81962000Y-106430001D01*
X81962000Y-106430001D02*
X82978000Y-106430001D01*
X82978000Y-106430001D02*
X82978000Y-107446001D01*
G36*
X82978000Y-107446001D02*
G01*
X81962000Y-107446001D01*
X81962000Y-106430001D01*
X82978000Y-106430001D01*
X82978000Y-107446001D01*
G37*
X82978000Y-107446001D02*
X81962000Y-107446001D01*
X81962000Y-106430001D01*
X82978000Y-106430001D01*
X82978000Y-107446001D01*
X75358000Y-107446001D02*
X74342000Y-107446001D01*
X74342000Y-107446001D02*
X74342000Y-106430001D01*
X74342000Y-106430001D02*
X75358000Y-106430001D01*
X75358000Y-106430001D02*
X75358000Y-107446001D01*
G36*
X75358000Y-107446001D02*
G01*
X74342000Y-107446001D01*
X74342000Y-106430001D01*
X75358000Y-106430001D01*
X75358000Y-107446001D01*
G37*
X75358000Y-107446001D02*
X74342000Y-107446001D01*
X74342000Y-106430001D01*
X75358000Y-106430001D01*
X75358000Y-107446001D01*
X81962000Y-117606001D02*
X82978000Y-117606001D01*
X82978000Y-117606001D02*
X82978000Y-118622001D01*
X82978000Y-118622001D02*
X81962000Y-118622001D01*
X81962000Y-118622001D02*
X81962000Y-117606001D01*
G36*
X82978000Y-118622001D02*
G01*
X81962000Y-118622001D01*
X81962000Y-117606001D01*
X82978000Y-117606001D01*
X82978000Y-118622001D01*
G37*
X82978000Y-118622001D02*
X81962000Y-118622001D01*
X81962000Y-117606001D01*
X82978000Y-117606001D01*
X82978000Y-118622001D01*
X64182000Y-117606001D02*
X65198000Y-117606001D01*
X65198000Y-117606001D02*
X65198000Y-118622001D01*
X65198000Y-118622001D02*
X64182000Y-118622001D01*
X64182000Y-118622001D02*
X64182000Y-117606001D01*
G36*
X65198000Y-118622001D02*
G01*
X64182000Y-118622001D01*
X64182000Y-117606001D01*
X65198000Y-117606001D01*
X65198000Y-118622001D01*
G37*
X65198000Y-118622001D02*
X64182000Y-118622001D01*
X64182000Y-117606001D01*
X65198000Y-117606001D01*
X65198000Y-118622001D01*
X67738000Y-107446001D02*
X66722000Y-107446001D01*
X66722000Y-107446001D02*
X66722000Y-106430001D01*
X66722000Y-106430001D02*
X67738000Y-106430001D01*
X67738000Y-106430001D02*
X67738000Y-107446001D01*
G36*
X67738000Y-107446001D02*
G01*
X66722000Y-107446001D01*
X66722000Y-106430001D01*
X67738000Y-106430001D01*
X67738000Y-107446001D01*
G37*
X67738000Y-107446001D02*
X66722000Y-107446001D01*
X66722000Y-106430001D01*
X67738000Y-106430001D01*
X67738000Y-107446001D01*
X79422000Y-117606001D02*
X80438000Y-117606001D01*
X80438000Y-117606001D02*
X80438000Y-118622001D01*
X80438000Y-118622001D02*
X79422000Y-118622001D01*
X79422000Y-118622001D02*
X79422000Y-117606001D01*
G36*
X80438000Y-118622001D02*
G01*
X79422000Y-118622001D01*
X79422000Y-117606001D01*
X80438000Y-117606001D01*
X80438000Y-118622001D01*
G37*
X80438000Y-118622001D02*
X79422000Y-118622001D01*
X79422000Y-117606001D01*
X80438000Y-117606001D01*
X80438000Y-118622001D01*
X72818000Y-107446001D02*
X71802000Y-107446001D01*
X71802000Y-107446001D02*
X71802000Y-106430001D01*
X71802000Y-106430001D02*
X72818000Y-106430001D01*
X72818000Y-106430001D02*
X72818000Y-107446001D01*
G36*
X72818000Y-107446001D02*
G01*
X71802000Y-107446001D01*
X71802000Y-106430001D01*
X72818000Y-106430001D01*
X72818000Y-107446001D01*
G37*
X72818000Y-107446001D02*
X71802000Y-107446001D01*
X71802000Y-106430001D01*
X72818000Y-106430001D01*
X72818000Y-107446001D01*
X66722000Y-117606001D02*
X67738000Y-117606001D01*
X67738000Y-117606001D02*
X67738000Y-118622001D01*
X67738000Y-118622001D02*
X66722000Y-118622001D01*
X66722000Y-118622001D02*
X66722000Y-117606001D01*
G36*
X67738000Y-118622001D02*
G01*
X66722000Y-118622001D01*
X66722000Y-117606001D01*
X67738000Y-117606001D01*
X67738000Y-118622001D01*
G37*
X67738000Y-118622001D02*
X66722000Y-118622001D01*
X66722000Y-117606001D01*
X67738000Y-117606001D01*
X67738000Y-118622001D01*
X87042000Y-117606001D02*
X88058000Y-117606001D01*
X88058000Y-117606001D02*
X88058000Y-118622001D01*
X88058000Y-118622001D02*
X87042000Y-118622001D01*
X87042000Y-118622001D02*
X87042000Y-117606001D01*
G36*
X88058000Y-118622001D02*
G01*
X87042000Y-118622001D01*
X87042000Y-117606001D01*
X88058000Y-117606001D01*
X88058000Y-118622001D01*
G37*
X88058000Y-118622001D02*
X87042000Y-118622001D01*
X87042000Y-117606001D01*
X88058000Y-117606001D01*
X88058000Y-118622001D01*
X65198000Y-107446001D02*
X64182000Y-107446001D01*
X64182000Y-107446001D02*
X64182000Y-106430001D01*
X64182000Y-106430001D02*
X65198000Y-106430001D01*
X65198000Y-106430001D02*
X65198000Y-107446001D01*
G36*
X65198000Y-107446001D02*
G01*
X64182000Y-107446001D01*
X64182000Y-106430001D01*
X65198000Y-106430001D01*
X65198000Y-107446001D01*
G37*
X65198000Y-107446001D02*
X64182000Y-107446001D01*
X64182000Y-106430001D01*
X65198000Y-106430001D01*
X65198000Y-107446001D01*
X85518000Y-107446001D02*
X84502000Y-107446001D01*
X84502000Y-107446001D02*
X84502000Y-106430001D01*
X84502000Y-106430001D02*
X85518000Y-106430001D01*
X85518000Y-106430001D02*
X85518000Y-107446001D01*
G36*
X85518000Y-107446001D02*
G01*
X84502000Y-107446001D01*
X84502000Y-106430001D01*
X85518000Y-106430001D01*
X85518000Y-107446001D01*
G37*
X85518000Y-107446001D02*
X84502000Y-107446001D01*
X84502000Y-106430001D01*
X85518000Y-106430001D01*
X85518000Y-107446001D01*
X90598000Y-107446001D02*
X89582000Y-107446001D01*
X89582000Y-107446001D02*
X89582000Y-106430001D01*
X89582000Y-106430001D02*
X90598000Y-106430001D01*
X90598000Y-106430001D02*
X90598000Y-107446001D01*
G36*
X90598000Y-107446001D02*
G01*
X89582000Y-107446001D01*
X89582000Y-106430001D01*
X90598000Y-106430001D01*
X90598000Y-107446001D01*
G37*
X90598000Y-107446001D02*
X89582000Y-107446001D01*
X89582000Y-106430001D01*
X90598000Y-106430001D01*
X90598000Y-107446001D01*
X80438000Y-107446001D02*
X79422000Y-107446001D01*
X79422000Y-107446001D02*
X79422000Y-106430001D01*
X79422000Y-106430001D02*
X80438000Y-106430001D01*
X80438000Y-106430001D02*
X80438000Y-107446001D01*
G36*
X80438000Y-107446001D02*
G01*
X79422000Y-107446001D01*
X79422000Y-106430001D01*
X80438000Y-106430001D01*
X80438000Y-107446001D01*
G37*
X80438000Y-107446001D02*
X79422000Y-107446001D01*
X79422000Y-106430001D01*
X80438000Y-106430001D01*
X80438000Y-107446001D01*
X89582000Y-117606001D02*
X90598000Y-117606001D01*
X90598000Y-117606001D02*
X90598000Y-118622001D01*
X90598000Y-118622001D02*
X89582000Y-118622001D01*
X89582000Y-118622001D02*
X89582000Y-117606001D01*
G36*
X90598000Y-118622001D02*
G01*
X89582000Y-118622001D01*
X89582000Y-117606001D01*
X90598000Y-117606001D01*
X90598000Y-118622001D01*
G37*
X90598000Y-118622001D02*
X89582000Y-118622001D01*
X89582000Y-117606001D01*
X90598000Y-117606001D01*
X90598000Y-118622001D01*
X88058000Y-107446001D02*
X87042000Y-107446001D01*
X87042000Y-107446001D02*
X87042000Y-106430001D01*
X87042000Y-106430001D02*
X88058000Y-106430001D01*
X88058000Y-106430001D02*
X88058000Y-107446001D01*
G36*
X88058000Y-107446001D02*
G01*
X87042000Y-107446001D01*
X87042000Y-106430001D01*
X88058000Y-106430001D01*
X88058000Y-107446001D01*
G37*
X88058000Y-107446001D02*
X87042000Y-107446001D01*
X87042000Y-106430001D01*
X88058000Y-106430001D01*
X88058000Y-107446001D01*
X70278000Y-107446001D02*
X69262000Y-107446001D01*
X69262000Y-107446001D02*
X69262000Y-106430001D01*
X69262000Y-106430001D02*
X70278000Y-106430001D01*
X70278000Y-106430001D02*
X70278000Y-107446001D01*
G36*
X70278000Y-107446001D02*
G01*
X69262000Y-107446001D01*
X69262000Y-106430001D01*
X70278000Y-106430001D01*
X70278000Y-107446001D01*
G37*
X70278000Y-107446001D02*
X69262000Y-107446001D01*
X69262000Y-106430001D01*
X70278000Y-106430001D01*
X70278000Y-107446001D01*
X84502000Y-117606001D02*
X85518000Y-117606001D01*
X85518000Y-117606001D02*
X85518000Y-118622001D01*
X85518000Y-118622001D02*
X84502000Y-118622001D01*
X84502000Y-118622001D02*
X84502000Y-117606001D01*
G36*
X85518000Y-118622001D02*
G01*
X84502000Y-118622001D01*
X84502000Y-117606001D01*
X85518000Y-117606001D01*
X85518000Y-118622001D01*
G37*
X85518000Y-118622001D02*
X84502000Y-118622001D01*
X84502000Y-117606001D01*
X85518000Y-117606001D01*
X85518000Y-118622001D01*
X71802000Y-117606001D02*
X72818000Y-117606001D01*
X72818000Y-117606001D02*
X72818000Y-118622001D01*
X72818000Y-118622001D02*
X71802000Y-118622001D01*
X71802000Y-118622001D02*
X71802000Y-117606001D01*
G36*
X72818000Y-118622001D02*
G01*
X71802000Y-118622001D01*
X71802000Y-117606001D01*
X72818000Y-117606001D01*
X72818000Y-118622001D01*
G37*
X72818000Y-118622001D02*
X71802000Y-118622001D01*
X71802000Y-117606001D01*
X72818000Y-117606001D01*
X72818000Y-118622001D01*
X61306810Y-110017524D02*
X62706810Y-110017524D01*
X62706810Y-110017524D02*
X62706810Y-110617524D01*
X62706810Y-110617524D02*
X61306810Y-110617524D01*
X61306810Y-110617524D02*
X61306810Y-110017524D01*
G36*
X62706810Y-110617524D02*
G01*
X61306810Y-110617524D01*
X61306810Y-110017524D01*
X62706810Y-110017524D01*
X62706810Y-110617524D01*
G37*
X62706810Y-110617524D02*
X61306810Y-110617524D01*
X61306810Y-110017524D01*
X62706810Y-110017524D01*
X62706810Y-110617524D01*
X58806810Y-115767524D02*
X59506810Y-115767524D01*
X59506810Y-115767524D02*
X59506810Y-116667524D01*
X59506810Y-116667524D02*
X58806810Y-116667524D01*
X58806810Y-116667524D02*
X58806810Y-115767524D01*
G36*
X59506810Y-116667524D02*
G01*
X58806810Y-116667524D01*
X58806810Y-115767524D01*
X59506810Y-115767524D01*
X59506810Y-116667524D01*
G37*
X59506810Y-116667524D02*
X58806810Y-116667524D01*
X58806810Y-115767524D01*
X59506810Y-115767524D01*
X59506810Y-116667524D01*
X61306810Y-113017524D02*
X62706810Y-113017524D01*
X62706810Y-113017524D02*
X62706810Y-113617524D01*
X62706810Y-113617524D02*
X61306810Y-113617524D01*
X61306810Y-113617524D02*
X61306810Y-113017524D01*
G36*
X62706810Y-113617524D02*
G01*
X61306810Y-113617524D01*
X61306810Y-113017524D01*
X62706810Y-113017524D01*
X62706810Y-113617524D01*
G37*
X62706810Y-113617524D02*
X61306810Y-113617524D01*
X61306810Y-113017524D01*
X62706810Y-113017524D01*
X62706810Y-113617524D01*
X61006810Y-108467524D02*
X61706810Y-108467524D01*
X61706810Y-108467524D02*
X61706810Y-109367524D01*
X61706810Y-109367524D02*
X61006810Y-109367524D01*
X61006810Y-109367524D02*
X61006810Y-108467524D01*
G36*
X61706810Y-109367524D02*
G01*
X61006810Y-109367524D01*
X61006810Y-108467524D01*
X61706810Y-108467524D01*
X61706810Y-109367524D01*
G37*
X61706810Y-109367524D02*
X61006810Y-109367524D01*
X61006810Y-108467524D01*
X61706810Y-108467524D01*
X61706810Y-109367524D01*
X58806810Y-108467524D02*
X59506810Y-108467524D01*
X59506810Y-108467524D02*
X59506810Y-109367524D01*
X59506810Y-109367524D02*
X58806810Y-109367524D01*
X58806810Y-109367524D02*
X58806810Y-108467524D01*
G36*
X59506810Y-109367524D02*
G01*
X58806810Y-109367524D01*
X58806810Y-108467524D01*
X59506810Y-108467524D01*
X59506810Y-109367524D01*
G37*
X59506810Y-109367524D02*
X58806810Y-109367524D01*
X58806810Y-108467524D01*
X59506810Y-108467524D01*
X59506810Y-109367524D01*
X61306810Y-114517524D02*
X62706810Y-114517524D01*
X62706810Y-114517524D02*
X62706810Y-115117524D01*
X62706810Y-115117524D02*
X61306810Y-115117524D01*
X61306810Y-115117524D02*
X61306810Y-114517524D01*
G36*
X62706810Y-115117524D02*
G01*
X61306810Y-115117524D01*
X61306810Y-114517524D01*
X62706810Y-114517524D01*
X62706810Y-115117524D01*
G37*
X62706810Y-115117524D02*
X61306810Y-115117524D01*
X61306810Y-114517524D01*
X62706810Y-114517524D01*
X62706810Y-115117524D01*
X61006810Y-115767524D02*
X61706810Y-115767524D01*
X61706810Y-115767524D02*
X61706810Y-116667524D01*
X61706810Y-116667524D02*
X61006810Y-116667524D01*
X61006810Y-116667524D02*
X61006810Y-115767524D01*
G36*
X61706810Y-116667524D02*
G01*
X61006810Y-116667524D01*
X61006810Y-115767524D01*
X61706810Y-115767524D01*
X61706810Y-116667524D01*
G37*
X61706810Y-116667524D02*
X61006810Y-116667524D01*
X61006810Y-115767524D01*
X61706810Y-115767524D01*
X61706810Y-116667524D01*
D11*
X42265152Y-75137557D03*
D12*
X36895524Y-76327975D03*
D11*
X31525896Y-77518393D03*
D13*
X42718748Y-79031687D03*
X38172518Y-82088121D03*
D12*
X57238860Y-60190585D03*
D11*
X51759789Y-60669942D03*
X62717931Y-59711228D03*
D14*
X62659360Y-63631250D03*
X57753079Y-66068134D03*
D12*
X79244393Y-57058851D03*
D11*
X73744393Y-57058851D03*
X84744393Y-57058851D03*
D15*
X84344393Y-60958851D03*
X79244393Y-62958851D03*
D12*
X97233086Y-60427567D03*
D11*
X91733086Y-60427567D03*
X102733086Y-60427567D03*
D15*
X102333086Y-64327567D03*
X97233086Y-66327567D03*
D12*
X115225000Y-60425000D03*
D11*
X109725000Y-60425000D03*
X120725000Y-60425000D03*
D15*
X120325000Y-64325000D03*
X115225000Y-66325000D03*
D12*
X40575000Y-92925000D03*
D11*
X45944628Y-91734582D03*
X35205372Y-94115418D03*
D13*
X46398224Y-95628712D03*
X41851994Y-98685146D03*
D12*
X58720502Y-77125901D03*
D11*
X64199573Y-76646544D03*
X53241431Y-77605258D03*
D14*
X64141002Y-80566566D03*
X59234721Y-83003450D03*
D11*
X73744389Y-74058851D03*
X84744389Y-74058851D03*
D12*
X79244389Y-74058851D03*
D15*
X84344389Y-77958851D03*
X79244389Y-79958851D03*
D11*
X102733093Y-77427564D03*
D12*
X97233093Y-77427564D03*
D11*
X91733093Y-77427564D03*
D15*
X102333093Y-81327564D03*
X97233093Y-83327564D03*
D12*
X115225000Y-77424999D03*
D11*
X120725000Y-77424999D03*
X109725000Y-77424999D03*
D15*
X120325000Y-81324999D03*
X115225000Y-83324999D03*
D11*
X54723079Y-94540566D03*
X65681221Y-93581852D03*
D12*
X60202150Y-94061209D03*
D14*
X65622650Y-97501874D03*
X60716369Y-99938758D03*
D12*
X79244382Y-91058862D03*
D11*
X73744382Y-91058862D03*
X84744382Y-91058862D03*
D15*
X84344382Y-94958862D03*
X79244382Y-96958862D03*
D12*
X97233093Y-94427566D03*
D11*
X102733093Y-94427566D03*
X91733093Y-94427566D03*
D15*
X102333093Y-98327566D03*
X97233093Y-100327566D03*
D12*
X110950000Y-113000000D03*
D11*
X116450000Y-113000000D03*
X105450000Y-113000000D03*
D15*
X116050000Y-116900000D03*
X110950000Y-118900000D03*
D11*
X133025000Y-113750000D03*
D12*
X133025000Y-108250000D03*
D11*
X133025000Y-102750000D03*
D16*
X129125000Y-113350000D03*
X127125000Y-108250000D03*
D17*
X62150000Y-120146001D03*
X72310000Y-104906001D03*
D18*
X69770000Y-118368001D03*
D19*
X79930000Y-106684001D03*
D17*
X67230000Y-104906001D03*
X69770000Y-120146001D03*
X74850000Y-120146001D03*
D18*
X85010000Y-118368001D03*
X90090000Y-118368001D03*
D17*
X77390000Y-104906001D03*
D18*
X82470000Y-118368001D03*
D17*
X90090000Y-104906001D03*
D19*
X85010000Y-106684001D03*
D18*
X74850000Y-118368001D03*
X77390000Y-118368001D03*
D17*
X64690000Y-120146001D03*
X82470000Y-104906001D03*
D18*
X62150000Y-118368001D03*
D17*
X74850000Y-104906001D03*
X62150000Y-104906001D03*
D18*
X64690000Y-118368001D03*
X87550000Y-118368001D03*
D19*
X87550000Y-106684001D03*
D17*
X79930000Y-104906001D03*
X69770000Y-104906001D03*
X67230000Y-120146001D03*
D18*
X72310000Y-118368001D03*
D19*
X77390000Y-106684001D03*
D17*
X87550000Y-120146001D03*
X77390000Y-120146001D03*
D18*
X67230000Y-118368001D03*
D17*
X85010000Y-120146001D03*
D19*
X72310000Y-106684001D03*
D17*
X64690000Y-104906001D03*
D19*
X67230000Y-106684001D03*
D17*
X72310000Y-120146001D03*
D19*
X69770000Y-106684001D03*
D17*
X82470000Y-120146001D03*
D19*
X64690000Y-106684001D03*
D17*
X90090000Y-120146001D03*
D19*
X62150000Y-106684001D03*
D17*
X79930000Y-120146001D03*
D19*
X82470000Y-106684001D03*
D17*
X87550000Y-104906001D03*
D19*
X90090000Y-106684001D03*
D18*
X79930000Y-118368001D03*
D19*
X74850000Y-106684001D03*
D17*
X85010000Y-104906001D03*
D20*
X62150000Y-107700001D03*
X64690000Y-107700001D03*
X67230000Y-107700001D03*
X69770000Y-107700001D03*
X72310000Y-107700001D03*
X74850000Y-107700001D03*
X77390000Y-107700001D03*
X79930000Y-107700001D03*
X82470000Y-107700001D03*
X85010000Y-107700001D03*
X87550000Y-107700001D03*
X90090000Y-107700001D03*
D21*
X90090000Y-117352001D03*
X87550000Y-117352001D03*
X85010000Y-117352001D03*
X82470000Y-117352001D03*
X79930000Y-117352001D03*
X77390000Y-117352001D03*
X74850000Y-117352001D03*
X72310000Y-117352001D03*
X69770000Y-117352001D03*
X67230000Y-117352001D03*
X64690000Y-117352001D03*
X62150000Y-117352001D03*
D22*
X60256810Y-111067524D03*
X60256810Y-114067524D03*
X60256810Y-111067524D03*
X60256810Y-114067524D03*
D11*
X109725000Y-94422430D03*
D12*
X115225000Y-94422430D03*
D11*
X120725000Y-94422430D03*
D15*
X120325000Y-98322430D03*
X115225000Y-100322430D03*
M02*
