G04 #@! TF.GenerationSoftware,KiCad,Pcbnew,6.0.0-d3dd2cf0fa~116~ubuntu20.04.1*
G04 #@! TF.CreationDate,2022-01-07T18:39:17-05:00*
G04 #@! TF.ProjectId,32_silk,33325f73-696c-46b2-9e6b-696361645f70,0.1*
G04 #@! TF.SameCoordinates,Original*
G04 #@! TF.FileFunction,Copper,L2,Bot*
G04 #@! TF.FilePolarity,Positive*
%FSLAX46Y46*%
G04 Gerber Fmt 4.6, Leading zero omitted, Abs format (unit mm)*
G04 Created by KiCad (PCBNEW 6.0.0-d3dd2cf0fa~116~ubuntu20.04.1) date 2022-01-07 18:39:17*
%MOMM*%
%LPD*%
G01*
G04 APERTURE LIST*
G04 Aperture macros list*
%AMHorizOval*
0 Thick line with rounded ends*
0 $1 width*
0 $2 $3 position (X,Y) of the first rounded end (center of the circle)*
0 $4 $5 position (X,Y) of the second rounded end (center of the circle)*
0 Add line between two ends*
20,1,$1,$2,$3,$4,$5,0*
0 Add two circle primitives to create the rounded ends*
1,1,$1,$2,$3*
1,1,$1,$4,$5*%
%AMFreePoly0*
4,1,5,0.125000,-0.500000,-0.125000,-0.500000,-0.125000,0.500000,0.125000,0.500000,0.125000,-0.500000,0.125000,-0.500000,$1*%
%AMFreePoly1*
4,1,6,0.600000,0.200000,0.000000,-0.400000,-0.600000,0.200000,-0.600000,0.400000,0.600000,0.400000,0.600000,0.200000,0.600000,0.200000,$1*%
%AMFreePoly2*
4,1,6,0.600000,-0.250000,-0.600000,-0.250000,-0.600000,1.000000,0.000000,0.400000,0.600000,1.000000,0.600000,-0.250000,0.600000,-0.250000,$1*%
G04 Aperture macros list end*
G04 #@! TA.AperFunction,ComponentPad*
%ADD10HorizOval,2.000000X0.244074X0.054110X-0.244074X-0.054110X0*%
G04 #@! TD*
G04 #@! TA.AperFunction,ComponentPad*
%ADD11HorizOval,2.000000X0.249049X0.021789X-0.249049X-0.021789X0*%
G04 #@! TD*
G04 #@! TA.AperFunction,ComponentPad*
%ADD12O,2.500000X2.000000*%
G04 #@! TD*
G04 #@! TA.AperFunction,ComponentPad*
%ADD13O,2.000000X2.500000*%
G04 #@! TD*
G04 #@! TA.AperFunction,SMDPad,CuDef*
%ADD14R,2.100000X1.500000*%
G04 #@! TD*
G04 #@! TA.AperFunction,SMDPad,CuDef*
%ADD15FreePoly0,180.000000*%
G04 #@! TD*
G04 #@! TA.AperFunction,ComponentPad*
%ADD16C,1.600000*%
G04 #@! TD*
G04 #@! TA.AperFunction,SMDPad,CuDef*
%ADD17FreePoly0,0.000000*%
G04 #@! TD*
G04 #@! TA.AperFunction,SMDPad,CuDef*
%ADD18FreePoly1,0.000000*%
G04 #@! TD*
G04 #@! TA.AperFunction,SMDPad,CuDef*
%ADD19FreePoly1,180.000000*%
G04 #@! TD*
G04 #@! TA.AperFunction,SMDPad,CuDef*
%ADD20FreePoly2,180.000000*%
G04 #@! TD*
G04 #@! TA.AperFunction,SMDPad,CuDef*
%ADD21FreePoly2,0.000000*%
G04 #@! TD*
G04 #@! TA.AperFunction,SMDPad,CuDef*
%ADD22R,0.800000X1.000000*%
G04 #@! TD*
G04 #@! TA.AperFunction,SMDPad,CuDef*
%ADD23R,1.500000X0.700000*%
G04 #@! TD*
G04 #@! TA.AperFunction,ViaPad*
%ADD24C,0.800000*%
G04 #@! TD*
G04 #@! TA.AperFunction,Conductor*
%ADD25C,0.250000*%
G04 #@! TD*
G04 #@! TA.AperFunction,Conductor*
%ADD26C,0.400000*%
G04 #@! TD*
G04 APERTURE END LIST*
D10*
X32760529Y-81239371D03*
X42718748Y-79031687D03*
X38172518Y-82088121D03*
D11*
X52498174Y-64520239D03*
X62659360Y-63631250D03*
X57753079Y-66068134D03*
D12*
X74144393Y-60958851D03*
X84344393Y-60958851D03*
X79244393Y-62958851D03*
X102333086Y-64327567D03*
X92133086Y-64327567D03*
X97233086Y-66327567D03*
X120325000Y-64325000D03*
X110125000Y-64325000D03*
X115225000Y-66325000D03*
D10*
X46398224Y-95628712D03*
X36440005Y-97836396D03*
X41851994Y-98685146D03*
D11*
X53979816Y-81455555D03*
X64141002Y-80566566D03*
X59234721Y-83003450D03*
D12*
X74144389Y-77958851D03*
X84344389Y-77958851D03*
X79244389Y-79958851D03*
X102333093Y-81327564D03*
X92133093Y-81327564D03*
X97233093Y-83327564D03*
X110125000Y-81324999D03*
X120325000Y-81324999D03*
X115225000Y-83324999D03*
D11*
X65622650Y-97501874D03*
X55461464Y-98390863D03*
X60716369Y-99938758D03*
D12*
X74144382Y-94958862D03*
X84344382Y-94958862D03*
X79244382Y-96958862D03*
X92133093Y-98327566D03*
X102333093Y-98327566D03*
X97233093Y-100327566D03*
X105850000Y-116900000D03*
X116050000Y-116900000D03*
X110950000Y-118900000D03*
D13*
X129125000Y-103150000D03*
X129125000Y-113350000D03*
X127125000Y-108250000D03*
D14*
X68681554Y-112238398D03*
X68681554Y-114438398D03*
D15*
X87550000Y-118876001D03*
D16*
X62150000Y-120146001D03*
D17*
X90090000Y-106176001D03*
D16*
X72310000Y-104906001D03*
D18*
X85010000Y-106684001D03*
D19*
X82470000Y-118368001D03*
D16*
X67230000Y-104906001D03*
D18*
X77390000Y-106684001D03*
D17*
X85010000Y-106176001D03*
D16*
X69770000Y-120146001D03*
X74850000Y-120146001D03*
D19*
X85010000Y-118368001D03*
X72310000Y-118368001D03*
D16*
X77390000Y-104906001D03*
D18*
X64690000Y-106684001D03*
D16*
X90090000Y-104906001D03*
D17*
X72310000Y-106176001D03*
D18*
X82470000Y-106684001D03*
D19*
X77390000Y-118368001D03*
X67230000Y-118368001D03*
D16*
X64690000Y-120146001D03*
X82470000Y-104906001D03*
D19*
X90090000Y-118368001D03*
D15*
X72310000Y-118876001D03*
D18*
X87550000Y-106684001D03*
D17*
X74850000Y-106176001D03*
D16*
X74850000Y-104906001D03*
D19*
X87550000Y-118368001D03*
D16*
X62150000Y-104906001D03*
D19*
X64690000Y-118368001D03*
D16*
X79930000Y-104906001D03*
D17*
X62150000Y-106176001D03*
D16*
X69770000Y-104906001D03*
D15*
X67230000Y-118876001D03*
D16*
X67230000Y-120146001D03*
D15*
X82470000Y-118876001D03*
D17*
X64690000Y-106176001D03*
D16*
X87550000Y-120146001D03*
D19*
X79930000Y-118368001D03*
D16*
X77390000Y-120146001D03*
D17*
X69770000Y-106176001D03*
D18*
X90090000Y-106684001D03*
D15*
X79930000Y-118876001D03*
X85010000Y-118876001D03*
D19*
X74850000Y-118368001D03*
D16*
X85010000Y-120146001D03*
D18*
X62150000Y-106684001D03*
D16*
X64690000Y-104906001D03*
D18*
X79930000Y-106684001D03*
D15*
X74850000Y-118876001D03*
D18*
X74850000Y-106684001D03*
D17*
X79930000Y-106176001D03*
D18*
X72310000Y-106684001D03*
D16*
X72310000Y-120146001D03*
D15*
X62150000Y-118876001D03*
D18*
X67230000Y-106684001D03*
D16*
X82470000Y-120146001D03*
D17*
X77390000Y-106176001D03*
D16*
X90090000Y-120146001D03*
X79930000Y-120146001D03*
D19*
X69770000Y-118368001D03*
D17*
X67230000Y-106176001D03*
D16*
X87550000Y-104906001D03*
D17*
X82470000Y-106176001D03*
D15*
X90090000Y-118876001D03*
X69770000Y-118876001D03*
D19*
X62150000Y-118368001D03*
D16*
X85010000Y-104906001D03*
D15*
X77390000Y-118876001D03*
D18*
X69770000Y-106684001D03*
D15*
X64690000Y-118876001D03*
D17*
X87550000Y-106176001D03*
D20*
X62150000Y-117352001D03*
X64690000Y-117352001D03*
X67230000Y-117352001D03*
X69770000Y-117352001D03*
X72310000Y-117352001D03*
X74850000Y-117352001D03*
X77390000Y-117352001D03*
X79930000Y-117352001D03*
X82470000Y-117352001D03*
X85010000Y-117352001D03*
X87550000Y-117352001D03*
X90090000Y-117352001D03*
D21*
X90090000Y-107700001D03*
X87550000Y-107700001D03*
X85010000Y-107700001D03*
X82470000Y-107700001D03*
X79930000Y-107700001D03*
X77390000Y-107700001D03*
X74850000Y-107700001D03*
X72310000Y-107700001D03*
X69770000Y-107700001D03*
X67230000Y-107700001D03*
X64690000Y-107700001D03*
X62150000Y-107700001D03*
D22*
X59156810Y-108917524D03*
X59156810Y-116217524D03*
X61356810Y-116217524D03*
X61356810Y-108917524D03*
D23*
X62006810Y-114817524D03*
X62006810Y-111817524D03*
X62006810Y-110317524D03*
D12*
X110125000Y-98322430D03*
X120325000Y-98322430D03*
X115225000Y-100322430D03*
D24*
X59456812Y-112567521D03*
X74214998Y-108750001D03*
X81835000Y-108750005D03*
X89382554Y-108793010D03*
X78024997Y-116402003D03*
X85644997Y-116402003D03*
X71675000Y-108750001D03*
X79295001Y-108749999D03*
X86914997Y-108750003D03*
X75485000Y-116402004D03*
X83104998Y-116402001D03*
X76755000Y-108750003D03*
X84374998Y-108750003D03*
X72944997Y-116402003D03*
X80564995Y-116402003D03*
X90744997Y-116543100D03*
X69134999Y-116402002D03*
X66595000Y-109250002D03*
X67229998Y-115902002D03*
X68275154Y-108691410D03*
X60856812Y-112567519D03*
X71039997Y-114402001D03*
X68681554Y-114508010D03*
X63679843Y-111295836D03*
X68681555Y-112238397D03*
X65506554Y-111333010D03*
X65324999Y-115402002D03*
X88184999Y-116402002D03*
X64689998Y-109750001D03*
D25*
X60120944Y-110317522D02*
X62006812Y-110317519D01*
X59603261Y-110628098D02*
X59767394Y-110463967D01*
X59456812Y-112567521D02*
X59456812Y-110981654D01*
X59767394Y-110463967D02*
G75*
G02*
X60120944Y-110317522I353551J-353552D01*
G01*
X59456813Y-110981654D02*
G75*
G02*
X59603261Y-110628098I500003J-1D01*
G01*
X74215000Y-115902001D02*
X74215000Y-116559894D01*
X74214998Y-115901999D02*
X74215000Y-115902001D01*
X74214998Y-108750001D02*
X74214998Y-115901999D01*
X74361447Y-116913448D02*
X74850000Y-117402001D01*
X74361447Y-116913448D02*
G75*
G02*
X74215000Y-116559894I353550J353553D01*
G01*
X81981447Y-116913450D02*
X82470001Y-117402002D01*
X81835000Y-108750005D02*
X81835000Y-116559896D01*
X81835000Y-116559896D02*
G75*
G03*
X81981447Y-116913450I499997J-1D01*
G01*
X89509554Y-108920010D02*
X89509554Y-116614456D01*
X89656001Y-116968010D02*
X90089997Y-117402006D01*
X89382554Y-108793010D02*
X89509554Y-108920010D01*
X89656001Y-116968010D02*
G75*
G02*
X89509554Y-116614456I353550J353553D01*
G01*
X77878553Y-108238555D02*
X77389998Y-107750003D01*
X78024997Y-116402003D02*
X78025001Y-108592110D01*
X77878553Y-108238555D02*
G75*
G02*
X78025001Y-108592110I-353556J-353556D01*
G01*
X85644997Y-116402003D02*
X85644999Y-108592109D01*
X85498553Y-108238556D02*
X85010001Y-107750002D01*
X85498553Y-108238556D02*
G75*
G02*
X85644999Y-108592109I-353556J-353553D01*
G01*
X72310000Y-117402001D02*
X72138946Y-117230947D01*
X71846053Y-108921054D02*
X71675000Y-108750001D01*
X71992500Y-115402001D02*
X71992500Y-109274608D01*
X71992500Y-116877394D02*
X71992500Y-115402001D01*
X71846053Y-108921054D02*
G75*
G02*
X71992500Y-109274608I-353550J-353553D01*
G01*
X72138946Y-117230947D02*
G75*
G02*
X71992500Y-116877394I353556J353553D01*
G01*
X79441447Y-116913448D02*
X79930001Y-117402004D01*
X79295001Y-108749999D02*
X79295001Y-116559895D01*
X79295002Y-116559895D02*
G75*
G03*
X79441447Y-116913448I500001J0D01*
G01*
X86914997Y-108750003D02*
X86914999Y-116559895D01*
X87061445Y-116913448D02*
X87549997Y-117402001D01*
X87061445Y-116913448D02*
G75*
G02*
X86914999Y-116559895I353556J353553D01*
G01*
X75485000Y-116402004D02*
X75485000Y-108592111D01*
X75338553Y-108238557D02*
X74849998Y-107750002D01*
X75338553Y-108238557D02*
G75*
G02*
X75485000Y-108592111I-353550J-353553D01*
G01*
X82958552Y-108238555D02*
X82470001Y-107750003D01*
X83104998Y-116402001D02*
X83104998Y-108592108D01*
X83104997Y-108592108D02*
G75*
G03*
X82958552Y-108238555I-500001J0D01*
G01*
X76901444Y-116913447D02*
X77389998Y-117402004D01*
X76755000Y-108750003D02*
X76754999Y-116559895D01*
X76755000Y-116559895D02*
G75*
G03*
X76901444Y-116913447I500001J0D01*
G01*
X84521445Y-116913450D02*
X85009997Y-117402003D01*
X84374998Y-108750003D02*
X84374999Y-116559897D01*
X84375000Y-116559897D02*
G75*
G03*
X84521445Y-116913450I500001J0D01*
G01*
X72944997Y-116402003D02*
X72945000Y-108592107D01*
X72798552Y-108238553D02*
X72309998Y-107750001D01*
X72798552Y-108238553D02*
G75*
G02*
X72945000Y-108592107I-353556J-353556D01*
G01*
X80418551Y-108238554D02*
X79929998Y-107750002D01*
X80564995Y-116402003D02*
X80564998Y-108592108D01*
X80564998Y-108592108D02*
G75*
G03*
X80418551Y-108238554I-499997J1D01*
G01*
X90725000Y-116523103D02*
X90725000Y-108592112D01*
X90744997Y-116543100D02*
X90725000Y-116523103D01*
X90578554Y-108238559D02*
X90090000Y-107750004D01*
X90578554Y-108238559D02*
G75*
G02*
X90725000Y-108592112I-353556J-353553D01*
G01*
X69844239Y-109306591D02*
X68287650Y-107750002D01*
X70078554Y-115127076D02*
X70078554Y-109872277D01*
X69134999Y-116402002D02*
X69844240Y-115692761D01*
X68287650Y-107750002D02*
X67230000Y-107750002D01*
X69844239Y-109306591D02*
G75*
G02*
X70078554Y-109872277I-565692J-565689D01*
G01*
X69844240Y-115692761D02*
G75*
G03*
X70078554Y-115127076I-565686J565685D01*
G01*
X66359042Y-115732961D02*
X64690000Y-117402002D01*
X66505487Y-109339513D02*
X66505489Y-115379407D01*
X66595000Y-109250002D02*
X66505487Y-109339513D01*
X66505489Y-115379407D02*
G75*
G02*
X66359042Y-115732961I-499997J-1D01*
G01*
D26*
X66729640Y-103247160D02*
X68224400Y-101752400D01*
X60716369Y-99938758D02*
X60706127Y-99949000D01*
X68275154Y-108691410D02*
X68275154Y-109025778D01*
X67729999Y-117402002D02*
X69770001Y-117402001D01*
X60716369Y-99938758D02*
X63845902Y-99938758D01*
X97233093Y-83327564D02*
X115222435Y-83327564D01*
X79244382Y-96958862D02*
X83800101Y-96958862D01*
X67157554Y-110764698D02*
X67157554Y-115829558D01*
X59180171Y-83058000D02*
X47499222Y-83058000D01*
X66752964Y-108451950D02*
X68042577Y-108451950D01*
X68275154Y-109025778D02*
X67596894Y-109704038D01*
X67157554Y-115829558D02*
X67229998Y-115902002D01*
X67229998Y-115902002D02*
X67229999Y-116902002D01*
X115219864Y-100327566D02*
X115225000Y-100322430D01*
X127125000Y-102767836D02*
X127125000Y-108250000D01*
X65244039Y-108304045D02*
X64690002Y-107750002D01*
X63877225Y-66068134D02*
X57753079Y-66068134D01*
X68224400Y-84886800D02*
X68844636Y-84266564D01*
X127125000Y-108250000D02*
X127125000Y-111873885D01*
X63677550Y-83003450D02*
X59234721Y-83003450D01*
X68224400Y-101752400D02*
X68615161Y-101361639D01*
X59234721Y-83003450D02*
X59180171Y-83058000D01*
X68224400Y-67868800D02*
X68813910Y-67279290D01*
X119579934Y-118900000D02*
X110950000Y-118900000D01*
X97210127Y-100304600D02*
X97233093Y-100327566D01*
X65963800Y-108077000D02*
X66045857Y-108159057D01*
X115222433Y-66327567D02*
X115225000Y-66325000D01*
X115222435Y-83327564D02*
X115225000Y-83324999D01*
X60706127Y-99949000D02*
X53646144Y-99949000D01*
X68185981Y-108485511D02*
X68275154Y-108574684D01*
X97233086Y-66327567D02*
X115222433Y-66327567D01*
X61460364Y-111963967D02*
X60856812Y-112567519D01*
X65963800Y-108077000D02*
X65591322Y-108449478D01*
X115225000Y-100322430D02*
X124781691Y-100322430D01*
X79244393Y-62958851D02*
X84347372Y-62958851D01*
X68275154Y-108574684D02*
X68275154Y-108691410D01*
X91877423Y-100304600D02*
X97210127Y-100304600D01*
X68224400Y-84886800D02*
X68224400Y-67868800D01*
X65963800Y-108077000D02*
X65963800Y-105096062D01*
X92480170Y-66327567D02*
X97233086Y-66327567D01*
X68224400Y-101752400D02*
X68224400Y-84886800D01*
X79244389Y-79958851D02*
X84171626Y-79958851D01*
X92304387Y-83327564D02*
X97233093Y-83327564D01*
X45157740Y-82088121D02*
X38172518Y-82088121D01*
X50594922Y-98685146D02*
X41851994Y-98685146D01*
X97233093Y-100327566D02*
X115219864Y-100327566D01*
X65591322Y-108449478D02*
X65531901Y-108449478D01*
X62006810Y-111817519D02*
X61813915Y-111817520D01*
X65963800Y-105096062D02*
G75*
G02*
X66729640Y-103247160I2614737J2D01*
G01*
X119579934Y-118900000D02*
G75*
G03*
X125174578Y-116582622I-2J7912024D01*
G01*
X66045857Y-108159057D02*
G75*
G03*
X66752964Y-108451950I707106J707106D01*
G01*
X126387632Y-100987632D02*
G75*
G02*
X127125000Y-102767836I-1780259J-1780203D01*
G01*
X68224400Y-101752400D02*
G75*
G03*
X63845902Y-99938758I-4378498J-4378469D01*
G01*
X68185981Y-108485511D02*
G75*
G03*
X68042577Y-108451950I-232921J-672096D01*
G01*
X88166981Y-81613781D02*
G75*
G03*
X92304387Y-83327564I4137406J4137362D01*
G01*
X79244382Y-96958863D02*
G75*
G03*
X68615162Y-101361640I24J-15032023D01*
G01*
X53646144Y-99949000D02*
G75*
G02*
X52299680Y-99391280I-5J1904184D01*
G01*
X84347372Y-62958851D02*
G75*
G02*
X88853927Y-64825527I1J-6373228D01*
G01*
X92480170Y-66327567D02*
G75*
G02*
X88853927Y-64825527I4J5128289D01*
G01*
X68224400Y-67868800D02*
G75*
G03*
X63877225Y-66068134I-4347176J-4347152D01*
G01*
X124781691Y-100322430D02*
G75*
G02*
X126387632Y-100987632I2J-2271140D01*
G01*
X67229999Y-116902002D02*
G75*
G03*
X67729999Y-117402002I500001J1D01*
G01*
X45157740Y-82088122D02*
G75*
G02*
X46152959Y-82500361I0J-1407440D01*
G01*
X50594922Y-98685146D02*
G75*
G02*
X52299680Y-99391280I0J-2410891D01*
G01*
X68844636Y-84266564D02*
G75*
G02*
X79244389Y-79958851I10399735J-10399729D01*
G01*
X87922013Y-98666213D02*
G75*
G03*
X83800101Y-96958862I-4121913J-4121917D01*
G01*
X68813910Y-67279290D02*
G75*
G02*
X79244393Y-62958851I10430460J-10430457D01*
G01*
X88166981Y-81613781D02*
G75*
G03*
X84171626Y-79958851I-3995353J-3995350D01*
G01*
X61813915Y-111817521D02*
G75*
G03*
X61460364Y-111963967I4J-500003D01*
G01*
X87922013Y-98666213D02*
G75*
G03*
X91877423Y-100304600I3955409J3955400D01*
G01*
X127124999Y-111873885D02*
G75*
G02*
X125174577Y-116582621I-6659159J-1D01*
G01*
X67157555Y-110764698D02*
G75*
G02*
X67596895Y-109704039I1500001J-1D01*
G01*
X65244039Y-108304044D02*
G75*
G03*
X65531901Y-108449477I372984J380658D01*
G01*
X47499222Y-83057999D02*
G75*
G02*
X46152961Y-82500359I0J1903901D01*
G01*
X63677550Y-83003451D02*
G75*
G02*
X68224399Y-84886801I1J-6430255D01*
G01*
X70875488Y-109062601D02*
X70875488Y-114030385D01*
X70729041Y-108709047D02*
X69769997Y-107750003D01*
X71021935Y-114383939D02*
X71039997Y-114402001D01*
X71021935Y-114383939D02*
G75*
G02*
X70875488Y-114030385I353550J353553D01*
G01*
X70875488Y-109062601D02*
G75*
G03*
X70729041Y-108709047I-499997J1D01*
G01*
D25*
X62006810Y-114817524D02*
X63533397Y-113290937D01*
X63679843Y-112937384D02*
X63679843Y-111295836D01*
X63679842Y-112937384D02*
G75*
G02*
X63533397Y-113290937I-500001J0D01*
G01*
D26*
X65343066Y-109267329D02*
X64738281Y-108662548D01*
X65489513Y-109620886D02*
X65489513Y-111896167D01*
X64384729Y-108516103D02*
X63123209Y-108516103D01*
X62769655Y-108369656D02*
X62150000Y-107750000D01*
X65343062Y-115383939D02*
X65324999Y-115402002D01*
X65489510Y-111896170D02*
X65489510Y-115030384D01*
X64384729Y-108516104D02*
G75*
G02*
X64738281Y-108662548I0J-500001D01*
G01*
X62769655Y-108369656D02*
G75*
G03*
X63123209Y-108516103I353553J353550D01*
G01*
X65489512Y-109620886D02*
G75*
G03*
X65343065Y-109267330I-499990J7D01*
G01*
X65489510Y-115030384D02*
G75*
G02*
X65343062Y-115383939I-499992J-3D01*
G01*
D25*
X88184999Y-116402002D02*
X88185002Y-108592109D01*
X88038554Y-108238554D02*
X87549996Y-107750001D01*
X88038554Y-108238554D02*
G75*
G02*
X88185002Y-108592109I-353556J-353556D01*
G01*
X64689998Y-109750001D02*
X64600487Y-109839515D01*
X64600487Y-109839515D02*
X64600490Y-114744405D01*
X64454043Y-115097959D02*
X62149998Y-117402002D01*
X64600490Y-114744405D02*
G75*
G02*
X64454043Y-115097959I-499997J-1D01*
G01*
M02*
