G04 #@! TF.GenerationSoftware,KiCad,Pcbnew,6.0.0-d3dd2cf0fa~116~ubuntu20.04.1*
G04 #@! TF.CreationDate,2022-01-05T19:45:40-05:00*
G04 #@! TF.ProjectId,phantoma,7068616e-746f-46d6-912e-6b696361645f,0.1*
G04 #@! TF.SameCoordinates,Original*
G04 #@! TF.FileFunction,Copper,L1,Top*
G04 #@! TF.FilePolarity,Positive*
%FSLAX46Y46*%
G04 Gerber Fmt 4.6, Leading zero omitted, Abs format (unit mm)*
G04 Created by KiCad (PCBNEW 6.0.0-d3dd2cf0fa~116~ubuntu20.04.1) date 2022-01-05 19:45:40*
%MOMM*%
%LPD*%
G01*
G04 APERTURE LIST*
G04 Aperture macros list*
%AMHorizOval*
0 Thick line with rounded ends*
0 $1 width*
0 $2 $3 position (X,Y) of the first rounded end (center of the circle)*
0 $4 $5 position (X,Y) of the second rounded end (center of the circle)*
0 Add line between two ends*
20,1,$1,$2,$3,$4,$5,0*
0 Add two circle primitives to create the rounded ends*
1,1,$1,$2,$3*
1,1,$1,$4,$5*%
%AMFreePoly0*
4,1,6,0.600000,0.200000,0.000000,-0.400000,-0.600000,0.200000,-0.600000,0.400000,0.600000,0.400000,0.600000,0.200000,0.600000,0.200000,$1*%
%AMFreePoly1*
4,1,5,0.125000,-0.500000,-0.125000,-0.500000,-0.125000,0.500000,0.125000,0.500000,0.125000,-0.500000,0.125000,-0.500000,$1*%
%AMFreePoly2*
4,1,6,0.600000,-0.250000,-0.600000,-0.250000,-0.600000,1.000000,0.000000,0.400000,0.600000,1.000000,0.600000,-0.250000,0.600000,-0.250000,$1*%
G04 Aperture macros list end*
G04 #@! TA.AperFunction,ComponentPad*
%ADD10HorizOval,2.000000X0.244074X0.054110X-0.244074X-0.054110X0*%
G04 #@! TD*
G04 #@! TA.AperFunction,ComponentPad*
%ADD11HorizOval,2.000000X0.249049X0.021789X-0.249049X-0.021789X0*%
G04 #@! TD*
G04 #@! TA.AperFunction,ComponentPad*
%ADD12O,2.500000X2.000000*%
G04 #@! TD*
G04 #@! TA.AperFunction,ComponentPad*
%ADD13HorizOval,2.000000X0.241481X-0.064705X-0.241481X0.064705X0*%
G04 #@! TD*
G04 #@! TA.AperFunction,ComponentPad*
%ADD14HorizOval,2.000000X-0.064705X-0.241481X0.064705X0.241481X0*%
G04 #@! TD*
G04 #@! TA.AperFunction,SMDPad,CuDef*
%ADD15R,2.100000X1.500000*%
G04 #@! TD*
G04 #@! TA.AperFunction,ComponentPad*
%ADD16C,1.600000*%
G04 #@! TD*
G04 #@! TA.AperFunction,SMDPad,CuDef*
%ADD17FreePoly0,90.000000*%
G04 #@! TD*
G04 #@! TA.AperFunction,SMDPad,CuDef*
%ADD18FreePoly0,270.000000*%
G04 #@! TD*
G04 #@! TA.AperFunction,SMDPad,CuDef*
%ADD19FreePoly1,270.000000*%
G04 #@! TD*
G04 #@! TA.AperFunction,SMDPad,CuDef*
%ADD20FreePoly1,90.000000*%
G04 #@! TD*
G04 #@! TA.AperFunction,SMDPad,CuDef*
%ADD21FreePoly2,270.000000*%
G04 #@! TD*
G04 #@! TA.AperFunction,SMDPad,CuDef*
%ADD22FreePoly2,90.000000*%
G04 #@! TD*
G04 #@! TA.AperFunction,SMDPad,CuDef*
%ADD23R,1.000000X0.800000*%
G04 #@! TD*
G04 #@! TA.AperFunction,SMDPad,CuDef*
%ADD24R,0.700000X1.500000*%
G04 #@! TD*
G04 #@! TA.AperFunction,ComponentPad*
%ADD25C,4.400000*%
G04 #@! TD*
G04 #@! TA.AperFunction,ViaPad*
%ADD26C,0.800000*%
G04 #@! TD*
G04 #@! TA.AperFunction,Conductor*
%ADD27C,0.250000*%
G04 #@! TD*
G04 #@! TA.AperFunction,Conductor*
%ADD28C,0.400000*%
G04 #@! TD*
G04 APERTURE END LIST*
D10*
X32925503Y-68182001D03*
X42883722Y-65974317D03*
X38337492Y-69030751D03*
D11*
X52514091Y-51867116D03*
X62675277Y-50978127D03*
X57768996Y-53415011D03*
D12*
X74160310Y-48305728D03*
X84360310Y-48305728D03*
X79260310Y-50305728D03*
X102349003Y-51674444D03*
X92149003Y-51674444D03*
X97249003Y-53674444D03*
X120349006Y-60174447D03*
X110149006Y-60174447D03*
X115249006Y-62174447D03*
D10*
X36604979Y-84779027D03*
X46563198Y-82571343D03*
X42016968Y-85627777D03*
D11*
X64156919Y-67913443D03*
X53995733Y-68802432D03*
X59250638Y-70350327D03*
D12*
X74160306Y-65305728D03*
X84360306Y-65305728D03*
X79260306Y-67305728D03*
X102349010Y-68674441D03*
X92149010Y-68674441D03*
X97249010Y-70674441D03*
X110149010Y-77174446D03*
X120349010Y-77174446D03*
X115249010Y-79174446D03*
D11*
X55477381Y-85737740D03*
X65638567Y-84848751D03*
X60732286Y-87285635D03*
D12*
X74160299Y-82305739D03*
X84360299Y-82305739D03*
X79260299Y-84305739D03*
X92149010Y-85674443D03*
X102349010Y-85674443D03*
X97249010Y-87674443D03*
D13*
X101971662Y-111503864D03*
X111824105Y-114143818D03*
X106380246Y-114755692D03*
D14*
X123766274Y-103112052D03*
X121126320Y-112964495D03*
X120514446Y-107520636D03*
D15*
X123046965Y-92679741D03*
X123046965Y-90479741D03*
D16*
X126519009Y-64334446D03*
X141759009Y-74494446D03*
D17*
X128297009Y-71954446D03*
D18*
X139981009Y-82114446D03*
D16*
X141759009Y-69414446D03*
X126519009Y-71954446D03*
X126519009Y-77034446D03*
D17*
X128297009Y-87194446D03*
D19*
X140489009Y-71954446D03*
D17*
X128297009Y-92274446D03*
D16*
X141759009Y-79574446D03*
D17*
X128297009Y-84654446D03*
D16*
X141759009Y-92274446D03*
D19*
X140489009Y-77034446D03*
D18*
X139981009Y-87194446D03*
D17*
X128297009Y-77034446D03*
X128297009Y-79574446D03*
D16*
X126519009Y-66874446D03*
D19*
X140489009Y-69414446D03*
D16*
X141759009Y-84654446D03*
D19*
X140489009Y-87194446D03*
D17*
X128297009Y-64334446D03*
D16*
X141759009Y-77034446D03*
D19*
X140489009Y-82114446D03*
D20*
X127789009Y-89734446D03*
D16*
X141759009Y-64334446D03*
D17*
X128297009Y-66874446D03*
X128297009Y-89734446D03*
D18*
X139981009Y-89734446D03*
D20*
X127789009Y-69414446D03*
D16*
X141759009Y-82114446D03*
D19*
X140489009Y-89734446D03*
X140489009Y-79574446D03*
D16*
X141759009Y-71954446D03*
D19*
X140489009Y-84654446D03*
D16*
X126519009Y-69414446D03*
D20*
X127789009Y-74494446D03*
D17*
X128297009Y-74494446D03*
D18*
X139981009Y-79574446D03*
D16*
X126519009Y-89734446D03*
X126519009Y-79574446D03*
D17*
X128297009Y-69414446D03*
D19*
X140489009Y-92274446D03*
D20*
X127789009Y-66874446D03*
X127789009Y-87194446D03*
D16*
X126519009Y-87194446D03*
D18*
X139981009Y-74494446D03*
D20*
X127789009Y-84654446D03*
X127789009Y-77034446D03*
D19*
X140489009Y-74494446D03*
D16*
X141759009Y-66874446D03*
D20*
X127789009Y-64334446D03*
D18*
X139981009Y-69414446D03*
D20*
X127789009Y-79574446D03*
X127789009Y-71954446D03*
X127789009Y-82114446D03*
D16*
X126519009Y-74494446D03*
D18*
X139981009Y-71954446D03*
D16*
X126519009Y-84654446D03*
D18*
X139981009Y-66874446D03*
D19*
X140489009Y-66874446D03*
D16*
X126519009Y-92274446D03*
D18*
X139981009Y-64334446D03*
D16*
X126519009Y-82114446D03*
D19*
X140489009Y-64334446D03*
D18*
X139981009Y-84654446D03*
D16*
X141759009Y-89734446D03*
D18*
X139981009Y-92274446D03*
D17*
X128297009Y-82114446D03*
D18*
X139981009Y-77034446D03*
D20*
X127789009Y-92274446D03*
D16*
X141759009Y-87194446D03*
D21*
X138965009Y-64334446D03*
X138965009Y-66874446D03*
X138965009Y-69414446D03*
X138965009Y-71954446D03*
X138965009Y-74494446D03*
X138965009Y-77034446D03*
X138965009Y-79574446D03*
X138965009Y-82114446D03*
X138965009Y-84654446D03*
X138965009Y-87194446D03*
X138965009Y-89734446D03*
X138965009Y-92274446D03*
D22*
X129313009Y-92274446D03*
X129313009Y-89734446D03*
X129313009Y-87194446D03*
X129313009Y-84654446D03*
X129313009Y-82114446D03*
X129313009Y-79574446D03*
X129313009Y-77034446D03*
X129313009Y-74494446D03*
X129313009Y-71954446D03*
X129313009Y-69414446D03*
X129313009Y-66874446D03*
X129313009Y-64334446D03*
D23*
X130497486Y-63541256D03*
X137797486Y-61341256D03*
X137797486Y-63541256D03*
X130497486Y-61341256D03*
D24*
X136397486Y-64191256D03*
X133397486Y-64191256D03*
X131897486Y-64191256D03*
D25*
X68707000Y-58166000D03*
X87757000Y-39116000D03*
X106807000Y-58166000D03*
X87757000Y-77216000D03*
D26*
X134147489Y-61641258D03*
X130313005Y-92909447D03*
X130313007Y-82749441D03*
X130313007Y-80209443D03*
X130313006Y-77669446D03*
X137965009Y-73859446D03*
X131313009Y-74176946D03*
X137965007Y-86559444D03*
X130313008Y-90369445D03*
X130313007Y-87829443D03*
X130313009Y-85289444D03*
X137965009Y-76399444D03*
X130813009Y-76399446D03*
X137965005Y-84019446D03*
X137965011Y-81479447D03*
X137965007Y-78939446D03*
X137965007Y-89099443D03*
X137965009Y-91639446D03*
X130313008Y-71319445D03*
X137465008Y-68779446D03*
X136965009Y-66874444D03*
X130813008Y-69414444D03*
X137965007Y-70684444D03*
X134147491Y-63041258D03*
X132313009Y-73224443D03*
X123046965Y-90479742D03*
X135419174Y-65864289D03*
X123046964Y-92679742D03*
X134818840Y-67673956D03*
X131313008Y-67509445D03*
X130313007Y-75129443D03*
D27*
X131897489Y-62318221D02*
X131897489Y-64191257D01*
X132220901Y-61787703D02*
X132043936Y-61964667D01*
X134147489Y-61641258D02*
X132574454Y-61641257D01*
X132043936Y-61964667D02*
G75*
G03*
X131897489Y-62318221I353550J-353553D01*
G01*
X132220901Y-61787703D02*
G75*
G02*
X132574454Y-61641257I353553J-353556D01*
G01*
X49006512Y-72097107D02*
X42883722Y-65974317D01*
X124860480Y-89223236D02*
X124860480Y-90309091D01*
X129824454Y-92420891D02*
X130313005Y-92909447D01*
X123328133Y-83701005D02*
X123618547Y-83991419D01*
X98044504Y-74282276D02*
X106584555Y-82822325D01*
X86604153Y-70241176D02*
X88302112Y-71939130D01*
X129313004Y-92274443D02*
X129470899Y-92274443D01*
X66283823Y-70241177D02*
X64427893Y-72097107D01*
X126414214Y-93540000D02*
X127840348Y-93540000D01*
X125230000Y-91092825D02*
X125230000Y-92355786D01*
X63720786Y-72390000D02*
X49713619Y-72390000D01*
X42883722Y-65974317D02*
X32925503Y-68182001D01*
X85897047Y-69948284D02*
X66990930Y-69948284D01*
X128193902Y-93393553D02*
X129313009Y-92274446D01*
X125006927Y-90662645D02*
X125083554Y-90739272D01*
X123911440Y-84698526D02*
X123911440Y-87031556D01*
X125522893Y-93062893D02*
X125707107Y-93247107D01*
X107998768Y-83408112D02*
X122621026Y-83408112D01*
X91130532Y-73110701D02*
X95216077Y-73110701D01*
X124350780Y-88092216D02*
X124421140Y-88162576D01*
X98044504Y-74282276D02*
G75*
G03*
X95216077Y-73110701I-2828427J-2828419D01*
G01*
X125006927Y-90662645D02*
G75*
G02*
X124860480Y-90309091I353550J353553D01*
G01*
X125083554Y-90739272D02*
G75*
G02*
X125230000Y-91092825I-353556J-353553D01*
G01*
X123911439Y-84698526D02*
G75*
G03*
X123618546Y-83991420I-999993J3D01*
G01*
X125522893Y-93062893D02*
G75*
G02*
X125230000Y-92355786I707106J707106D01*
G01*
X124421140Y-88162576D02*
G75*
G02*
X124860480Y-89223236I-1060662J-1060661D01*
G01*
X91130532Y-73110700D02*
G75*
G02*
X88302113Y-71939129I15J4000023D01*
G01*
X127840348Y-93540000D02*
G75*
G03*
X128193902Y-93393553I1J499997D01*
G01*
X124350780Y-88092216D02*
G75*
G02*
X123911440Y-87031556I1060662J1060661D01*
G01*
X126414214Y-93539999D02*
G75*
G02*
X125707108Y-93247106I-3J999993D01*
G01*
X122621026Y-83408113D02*
G75*
G02*
X123328132Y-83701006I3J-999993D01*
G01*
X63720786Y-72389999D02*
G75*
G03*
X64427892Y-72097106I3J999993D01*
G01*
X66990930Y-69948285D02*
G75*
G03*
X66283824Y-70241178I-3J-999993D01*
G01*
X49713619Y-72389999D02*
G75*
G02*
X49006513Y-72097106I-3J999993D01*
G01*
X107998768Y-83408111D02*
G75*
G02*
X106584556Y-82822324I-1J1999994D01*
G01*
X85897047Y-69948285D02*
G75*
G02*
X86604152Y-70241177I1J-999998D01*
G01*
X129470899Y-92274443D02*
G75*
G02*
X129824454Y-92420891I3J-499992D01*
G01*
X129313008Y-82114446D02*
X129470904Y-82114446D01*
X129824459Y-82260893D02*
X130313007Y-82749441D01*
X121497752Y-81610032D02*
X122537391Y-81610032D01*
X89770399Y-55661182D02*
X94640441Y-55661183D01*
X106217752Y-79912654D02*
X107329345Y-81024246D01*
X97468866Y-56832755D02*
X104460392Y-63824282D01*
X84574252Y-52536104D02*
X64647468Y-52536104D01*
X105631965Y-66652709D02*
X105631965Y-78498440D01*
X63940361Y-52243211D02*
X62675277Y-50978127D01*
X125110660Y-82940660D02*
X124658711Y-82488711D01*
X108743558Y-81610033D02*
X121497752Y-81610032D01*
X127840348Y-83380000D02*
X126171320Y-83380000D01*
X129313009Y-82114446D02*
X128193901Y-83233554D01*
X62675277Y-50978127D02*
X52514091Y-51867116D01*
X85281360Y-52828999D02*
X86941965Y-54489609D01*
X89770399Y-55661181D02*
G75*
G02*
X86941966Y-54489608I-15J3999980D01*
G01*
X97468866Y-56832755D02*
G75*
G03*
X94640441Y-55661183I-2828421J-2828416D01*
G01*
X84574252Y-52536104D02*
G75*
G02*
X85281360Y-52828999I-1J-1000001D01*
G01*
X108743558Y-81610032D02*
G75*
G02*
X107329346Y-81024245I-1J1999994D01*
G01*
X129824459Y-82260893D02*
G75*
G03*
X129470904Y-82114446I-353553J-353550D01*
G01*
X125110660Y-82940660D02*
G75*
G03*
X126171320Y-83380000I1060661J1060662D01*
G01*
X128193901Y-83233554D02*
G75*
G02*
X127840348Y-83380000I-353553J353556D01*
G01*
X105631965Y-66652709D02*
G75*
G03*
X104460392Y-63824282I-3999994J2D01*
G01*
X122537391Y-81610032D02*
G75*
G02*
X124658711Y-82488711I1J-2999998D01*
G01*
X106217752Y-79912654D02*
G75*
G02*
X105631965Y-78498440I1414217J1414216D01*
G01*
X64647468Y-52536103D02*
G75*
G02*
X63940362Y-52243210I-3J999993D01*
G01*
X129824454Y-79720891D02*
X130313007Y-80209443D01*
X97655064Y-56383236D02*
X104909912Y-63638085D01*
X125685935Y-81014065D02*
X125713554Y-80986446D01*
X89956590Y-55211664D02*
X94826637Y-55211660D01*
X128193902Y-80693553D02*
X129313009Y-79574446D01*
X108929755Y-81160512D02*
X125332381Y-81160512D01*
X84360310Y-50858018D02*
X84360310Y-48305728D01*
X106667273Y-79726455D02*
X107515542Y-80574727D01*
X97655065Y-56383235D02*
X97655064Y-56383236D01*
X126067107Y-80840000D02*
X127840348Y-80840000D01*
X84360310Y-48305728D02*
X74160310Y-48305728D01*
X87128165Y-54040087D02*
X84653203Y-51565125D01*
X129313006Y-79574444D02*
X129470902Y-79574444D01*
X106081485Y-66466513D02*
X106081485Y-78312242D01*
X129824454Y-79720891D02*
G75*
G03*
X129470902Y-79574444I-353551J-353545D01*
G01*
X108929755Y-81160512D02*
G75*
G02*
X107515542Y-80574727I1J2000004D01*
G01*
X127840348Y-80840000D02*
G75*
G03*
X128193902Y-80693553I1J499997D01*
G01*
X125332381Y-81160512D02*
G75*
G03*
X125685935Y-81014065I1J499997D01*
G01*
X89956590Y-55211663D02*
G75*
G02*
X87128165Y-54040087I7J4000002D01*
G01*
X106667273Y-79726455D02*
G75*
G02*
X106081485Y-78312242I1414202J1414211D01*
G01*
X106081485Y-66466513D02*
G75*
G03*
X104909912Y-63638085I-3999994J3D01*
G01*
X97655065Y-56383235D02*
G75*
G03*
X94826637Y-55211660I-2828454J-2828485D01*
G01*
X126067107Y-80840001D02*
G75*
G03*
X125713554Y-80986446I0J-500001D01*
G01*
X84360311Y-50858018D02*
G75*
G03*
X84653204Y-51565124I999993J-3D01*
G01*
X129313008Y-77034445D02*
X129470900Y-77034445D01*
X126404214Y-78320000D02*
X127820348Y-78320000D01*
X129824456Y-77180893D02*
X130313006Y-77669446D01*
X106531005Y-66280314D02*
X106531005Y-78126045D01*
X109115953Y-80710991D02*
X122356367Y-80710992D01*
X102349006Y-51674444D02*
X102349005Y-58784604D01*
X128173902Y-78173553D02*
X129313009Y-77034446D01*
X107116792Y-79540259D02*
X107701739Y-80125206D01*
X124477688Y-79832312D02*
X125697107Y-78612893D01*
X92149003Y-51674443D02*
X102349007Y-51674446D01*
X103520579Y-61613034D02*
X105359433Y-63451888D01*
X103520579Y-61613030D02*
X103520579Y-61613034D01*
X127820348Y-78320000D02*
G75*
G03*
X128173902Y-78173553I1J499997D01*
G01*
X124477688Y-79832312D02*
G75*
G02*
X122356367Y-80710992I-2121323J2121325D01*
G01*
X129824456Y-77180893D02*
G75*
G03*
X129470900Y-77034445I-353554J-353549D01*
G01*
X109115953Y-80710990D02*
G75*
G02*
X107701740Y-80125205I-5J1999992D01*
G01*
X106531005Y-66280314D02*
G75*
G03*
X105359433Y-63451888I-3999992J3D01*
G01*
X107116792Y-79540259D02*
G75*
G02*
X106531005Y-78126045I1414213J1414214D01*
G01*
X103520579Y-61613030D02*
G75*
G02*
X102349005Y-58784604I2828405J2828419D01*
G01*
X126404214Y-78320001D02*
G75*
G03*
X125697108Y-78612894I-3J-999993D01*
G01*
X125696854Y-73240000D02*
X129649672Y-73240000D01*
X121520579Y-70720579D02*
X122868427Y-72068427D01*
X130003226Y-73386447D02*
X130647279Y-74030500D01*
X120349006Y-60174447D02*
X120349006Y-67892152D01*
X138453559Y-74347997D02*
X137965009Y-73859446D01*
X138965009Y-74494444D02*
X138807113Y-74494444D01*
X110149006Y-60174447D02*
X120349009Y-60174449D01*
X131000832Y-74176946D02*
X131313009Y-74176946D01*
X120349006Y-67892152D02*
G75*
G03*
X121520579Y-70720579I3999999J0D01*
G01*
X130647279Y-74030500D02*
G75*
G03*
X131000832Y-74176946I353553J353556D01*
G01*
X125696854Y-73240000D02*
G75*
G02*
X122868427Y-72068427I0J3999999D01*
G01*
X129649672Y-73240000D02*
G75*
G02*
X130003226Y-73386447I1J-499997D01*
G01*
X138453559Y-74347997D02*
G75*
G03*
X138807113Y-74494444I353553J353550D01*
G01*
X136313800Y-88210651D02*
X137965007Y-86559444D01*
X67762522Y-87177478D02*
X66183887Y-89081310D01*
X88086788Y-87177478D02*
X89635740Y-88726430D01*
X46563198Y-82571343D02*
X36604979Y-84779027D01*
X138453561Y-87048000D02*
X137965007Y-86559444D01*
X87379681Y-86884585D02*
X68469629Y-86884585D01*
X104666470Y-96387120D02*
X129871335Y-96387120D01*
X53458768Y-88258211D02*
X46563198Y-82571343D01*
X132226001Y-95411785D02*
X134995780Y-92642005D01*
X138965008Y-87194447D02*
X138807114Y-87194447D01*
X135435120Y-91581345D02*
X135435120Y-90331972D01*
X55573724Y-89928203D02*
X53475375Y-88271612D01*
X65489830Y-89440139D02*
X56269099Y-90140448D01*
X97899177Y-91069575D02*
X102191597Y-95361994D01*
X92464167Y-89898003D02*
X95070750Y-89898003D01*
X88086788Y-87177478D02*
G75*
G03*
X87379681Y-86884585I-707106J-707106D01*
G01*
X97899177Y-91069575D02*
G75*
G03*
X95070750Y-89898003I-2828430J-2828436D01*
G01*
X66183886Y-89081309D02*
G75*
G02*
X65489830Y-89440138I-769788J638299D01*
G01*
X68469629Y-86884586D02*
G75*
G03*
X67762523Y-87177479I-3J-999993D01*
G01*
X135435121Y-90331972D02*
G75*
G02*
X136313801Y-88210652I2999993J3D01*
G01*
X132226001Y-95411785D02*
G75*
G02*
X129871335Y-96387120I-2354665J2354662D01*
G01*
X104666470Y-96387119D02*
G75*
G02*
X102191598Y-95361993I1J3500001D01*
G01*
X138453561Y-87048000D02*
G75*
G03*
X138807114Y-87194447I353555J353557D01*
G01*
X55573725Y-89928202D02*
G75*
G03*
X56269099Y-90140447I619642J784880D01*
G01*
X53458768Y-88258210D02*
G75*
G03*
X53475375Y-88271611I636249J771472D01*
G01*
X135435119Y-91581345D02*
G75*
G02*
X134995779Y-92642004I-1500001J1D01*
G01*
X92464167Y-89898003D02*
G75*
G02*
X89635740Y-88726430I0J3999999D01*
G01*
X98230698Y-73832754D02*
X106770749Y-82372806D01*
X124800300Y-87906018D02*
X124870660Y-87976378D01*
X125456447Y-90476447D02*
X125833554Y-90853554D01*
X124360960Y-84719434D02*
X124360960Y-86845358D01*
X86064121Y-69479636D02*
X66137326Y-69479636D01*
X126187107Y-91000000D02*
X127840348Y-91000000D01*
X125310000Y-89037038D02*
X125310000Y-90122893D01*
X91316735Y-72661181D02*
X95402271Y-72661182D01*
X121312528Y-82958593D02*
X122600119Y-82958593D01*
X108184964Y-82958593D02*
X108184962Y-82958591D01*
X65430219Y-69186743D02*
X64156919Y-67913443D01*
X129313009Y-89734443D02*
X129470902Y-89734443D01*
X123660779Y-83397933D02*
X123921620Y-83658774D01*
X121312528Y-82958593D02*
X108184964Y-82958593D01*
X86771228Y-69772530D02*
X88488306Y-71489611D01*
X128193902Y-90853553D02*
X129313009Y-89734446D01*
X129824455Y-89880890D02*
X130313008Y-90369445D01*
X64156919Y-67913443D02*
X53995733Y-68802432D01*
X129824455Y-89880890D02*
G75*
G03*
X129470902Y-89734443I-353555J-353557D01*
G01*
X108184962Y-82958591D02*
G75*
G02*
X106770749Y-82372806I1J2000004D01*
G01*
X124360961Y-86845358D02*
G75*
G03*
X124800301Y-87906017I1500001J1D01*
G01*
X86771228Y-69772530D02*
G75*
G03*
X86064121Y-69479636I-707108J-707107D01*
G01*
X98230698Y-73832754D02*
G75*
G03*
X95402271Y-72661182I-2828416J-2828403D01*
G01*
X125456447Y-90476447D02*
G75*
G02*
X125310000Y-90122893I353550J353553D01*
G01*
X127840348Y-91000000D02*
G75*
G03*
X128193902Y-90853553I1J499997D01*
G01*
X124870660Y-87976378D02*
G75*
G02*
X125310000Y-89037038I-1060662J-1060661D01*
G01*
X125833554Y-90853554D02*
G75*
G03*
X126187107Y-91000000I353553J353556D01*
G01*
X123921620Y-83658774D02*
G75*
G02*
X124360960Y-84719434I-1060662J-1060661D01*
G01*
X91316735Y-72661181D02*
G75*
G02*
X88488306Y-71489611I-9J3999989D01*
G01*
X123660779Y-83397933D02*
G75*
G03*
X122600119Y-82958593I-1060661J-1060662D01*
G01*
X66137326Y-69479635D02*
G75*
G02*
X65430220Y-69186742I-3J999993D01*
G01*
X98416906Y-73383238D02*
X106956954Y-81923285D01*
X84360306Y-66311683D02*
X84360306Y-65305728D01*
X129313007Y-87194443D02*
X129470902Y-87194443D01*
X123993422Y-83094858D02*
X124224694Y-83326130D01*
X128193902Y-88313553D02*
X129313009Y-87194446D01*
X129824454Y-87340890D02*
X130313007Y-87829443D01*
X88674500Y-71040091D02*
X84653199Y-67018790D01*
X84360306Y-65305728D02*
X74160306Y-65305728D01*
X126197107Y-88460000D02*
X127840348Y-88460000D01*
X113800929Y-82509071D02*
X122579208Y-82509071D01*
X108371167Y-82509072D02*
X113800929Y-82509071D01*
X91502926Y-72211666D02*
X95588481Y-72211668D01*
X125249820Y-87719820D02*
X125843554Y-88313554D01*
X124810480Y-84740343D02*
X124810480Y-86659160D01*
X122579208Y-82509072D02*
G75*
G02*
X123993421Y-83094859I0J-1999999D01*
G01*
X98416906Y-73383238D02*
G75*
G03*
X95588481Y-72211668I-2828411J-2828398D01*
G01*
X91502926Y-72211665D02*
G75*
G02*
X88674501Y-71040090I25J4000052D01*
G01*
X125843554Y-88313554D02*
G75*
G03*
X126197107Y-88460000I353553J353556D01*
G01*
X124224694Y-83326130D02*
G75*
G02*
X124810480Y-84740343I-1414214J-1414213D01*
G01*
X129824454Y-87340890D02*
G75*
G03*
X129470902Y-87194443I-353551J-353545D01*
G01*
X128193902Y-88313553D02*
G75*
G02*
X127840348Y-88460000I-353553J353550D01*
G01*
X125249820Y-87719820D02*
G75*
G02*
X124810480Y-86659160I1060662J1060661D01*
G01*
X108371167Y-82509071D02*
G75*
G02*
X106956955Y-81923284I-1J1999994D01*
G01*
X84653199Y-67018790D02*
G75*
G02*
X84360306Y-66311683I707106J707106D01*
G01*
X102349012Y-68674442D02*
X102349011Y-75022776D01*
X108557361Y-82059551D02*
X122039551Y-82059551D01*
X124326066Y-82791784D02*
X124527767Y-82993485D01*
X129824454Y-84800891D02*
X130313009Y-85289444D01*
X128183902Y-85783553D02*
X129313009Y-84654446D01*
X125260000Y-84761252D02*
X125260000Y-84952893D01*
X125406447Y-85306447D02*
X125883554Y-85783554D01*
X122039551Y-82059551D02*
X122558299Y-82059551D01*
X126237107Y-85930000D02*
X127830348Y-85930000D01*
X129313008Y-84654447D02*
X129470896Y-84654445D01*
X92149001Y-68674445D02*
X102349018Y-68674447D01*
X103520584Y-77851202D02*
X107143148Y-81473766D01*
X129824454Y-84800891D02*
G75*
G03*
X129470896Y-84654445I-353553J-353554D01*
G01*
X108557361Y-82059551D02*
G75*
G02*
X107143148Y-81473766I1J2000004D01*
G01*
X103520584Y-77851202D02*
G75*
G02*
X102349011Y-75022776I2828410J2828420D01*
G01*
X128183902Y-85783553D02*
G75*
G02*
X127830348Y-85930000I-353553J353550D01*
G01*
X125406447Y-85306447D02*
G75*
G02*
X125260000Y-84952893I353550J353553D01*
G01*
X125259999Y-84761252D02*
G75*
G03*
X124527767Y-82993485I-2499996J2D01*
G01*
X125883554Y-85783554D02*
G75*
G03*
X126237107Y-85930000I353553J353556D01*
G01*
X122558299Y-82059552D02*
G75*
G02*
X124326066Y-82791784I2J-2499996D01*
G01*
X138453558Y-76887996D02*
X137965009Y-76399444D01*
X130813009Y-76399446D02*
X130766553Y-76399446D01*
X120349010Y-77174446D02*
X120894777Y-76628679D01*
X123016097Y-75750000D02*
X129702893Y-75750000D01*
X110149013Y-77174444D02*
X120349007Y-77174445D01*
X130412999Y-76252999D02*
X130056446Y-75896446D01*
X138965008Y-77034444D02*
X138807114Y-77034444D01*
X130412999Y-76252999D02*
G75*
G03*
X130766553Y-76399446I353553J353550D01*
G01*
X138453558Y-76887996D02*
G75*
G03*
X138807114Y-77034444I353554J353549D01*
G01*
X120894777Y-76628679D02*
G75*
G02*
X123016097Y-75750000I2121319J-2121319D01*
G01*
X130056446Y-75896446D02*
G75*
G03*
X129702893Y-75750000I-353553J-353556D01*
G01*
X66911870Y-86122054D02*
X65638567Y-84848751D01*
X88252868Y-86707840D02*
X89821938Y-88276910D01*
X104645561Y-95937600D02*
X129821828Y-95937600D01*
X131943149Y-95058920D02*
X134546260Y-92455808D01*
X138453561Y-84508000D02*
X137965005Y-84019446D01*
X134985600Y-91395148D02*
X134985600Y-88241492D01*
X98085375Y-90620056D02*
X102524241Y-95058921D01*
X87545761Y-86414947D02*
X67618977Y-86414947D01*
X65638567Y-84848751D02*
X55477381Y-85737740D01*
X138965007Y-84654447D02*
X138807110Y-84654446D01*
X135864280Y-86120171D02*
X137965005Y-84019446D01*
X92650365Y-89448483D02*
X95256948Y-89448483D01*
X131943149Y-95058920D02*
G75*
G02*
X129821828Y-95937600I-2121318J2121314D01*
G01*
X92650365Y-89448483D02*
G75*
G02*
X89821938Y-88276910I0J3999999D01*
G01*
X98085375Y-90620056D02*
G75*
G03*
X95256948Y-89448483I-2828427J-2828426D01*
G01*
X66911870Y-86122054D02*
G75*
G03*
X67618977Y-86414947I707106J707106D01*
G01*
X134985601Y-88241492D02*
G75*
G02*
X135864281Y-86120172I2999993J3D01*
G01*
X88252868Y-86707840D02*
G75*
G03*
X87545761Y-86414947I-707106J-707106D01*
G01*
X104645561Y-95937600D02*
G75*
G02*
X102524241Y-95058921I-1J2999998D01*
G01*
X138453561Y-84508000D02*
G75*
G03*
X138807110Y-84654446I353554J353558D01*
G01*
X134985599Y-91395148D02*
G75*
G02*
X134546259Y-92455807I-1500001J1D01*
G01*
X84486476Y-82305739D02*
X84360299Y-82305739D01*
X131660296Y-94706055D02*
X134096740Y-92269611D01*
X98271573Y-90170536D02*
X102856884Y-94755847D01*
X138965008Y-82114444D02*
X138807116Y-82114444D01*
X90008127Y-87827390D02*
X84486476Y-82305739D01*
X138453563Y-81967998D02*
X137965011Y-81479447D01*
X135414760Y-84029698D02*
X137965011Y-81479447D01*
X84360299Y-82305739D02*
X74160299Y-82305739D01*
X92836554Y-88998963D02*
X95443146Y-88998963D01*
X104624651Y-95488080D02*
X129772321Y-95488080D01*
X134536080Y-91208951D02*
X134536080Y-86151019D01*
X98271573Y-90170536D02*
G75*
G03*
X95443146Y-88998963I-2828427J-2828426D01*
G01*
X92836554Y-88998963D02*
G75*
G02*
X90008127Y-87827390I0J3999999D01*
G01*
X131660296Y-94706055D02*
G75*
G02*
X129772321Y-95488080I-1887976J1887977D01*
G01*
X138453563Y-81967998D02*
G75*
G03*
X138807116Y-82114444I353553J353556D01*
G01*
X134536081Y-86151019D02*
G75*
G02*
X135414761Y-84029699I2999993J3D01*
G01*
X104624651Y-95488079D02*
G75*
G02*
X102856884Y-94755847I-2J2499996D01*
G01*
X134536079Y-91208951D02*
G75*
G02*
X134096739Y-92269610I-1500001J1D01*
G01*
X138453560Y-79427998D02*
X137965007Y-78939446D01*
X102934797Y-94198042D02*
X103189529Y-94452774D01*
X104603742Y-95038560D02*
X129726956Y-95038560D01*
X131374514Y-94356119D02*
X133647220Y-92083414D01*
X92149003Y-85674451D02*
X102349002Y-85674442D01*
X134086560Y-91022753D02*
X134086560Y-84060534D01*
X102349010Y-85674443D02*
X102349010Y-92783828D01*
X134965240Y-81939213D02*
X137965007Y-78939446D01*
X138965007Y-79574444D02*
X138807114Y-79574444D01*
X131374514Y-94356119D02*
G75*
G02*
X129726956Y-95038560I-1647560J1647562D01*
G01*
X134086560Y-91022753D02*
G75*
G02*
X133647220Y-92083414I-1499991J-4D01*
G01*
X138807114Y-79574443D02*
G75*
G02*
X138453560Y-79427998I-1J500001D01*
G01*
X102934797Y-94198042D02*
G75*
G02*
X102349010Y-92783828I1414213J1414214D01*
G01*
X104603742Y-95038559D02*
G75*
G02*
X103189530Y-94452773I0J1999999D01*
G01*
X134965240Y-81939213D02*
G75*
G03*
X134086560Y-84060534I2121325J-2121323D01*
G01*
X125716956Y-98014773D02*
X120164597Y-103360958D01*
X135298854Y-92974648D02*
X132511782Y-95761721D01*
X119935126Y-103696697D02*
X116853247Y-111093207D01*
X138965009Y-89734442D02*
X138807116Y-89734443D01*
X138453559Y-89587996D02*
X137965007Y-89099443D01*
X115040549Y-113732403D02*
X112439325Y-114063558D01*
X116824597Y-111155806D02*
X115808689Y-113187623D01*
X112439325Y-114063558D02*
X102586882Y-111423604D01*
X125730457Y-98001525D02*
X126495568Y-97236414D01*
X137965007Y-89099443D02*
X136031086Y-91033364D01*
X129916700Y-96836640D02*
X127460708Y-96836640D01*
X135884640Y-91386917D02*
X135884640Y-91560435D01*
X138453559Y-89587996D02*
G75*
G03*
X138807116Y-89734443I353554J353555D01*
G01*
X135298854Y-92974648D02*
G75*
G03*
X135884640Y-91560435I-1414214J1414213D01*
G01*
X135884641Y-91386917D02*
G75*
G02*
X136031086Y-91033364I500001J0D01*
G01*
X115040549Y-113732402D02*
G75*
G03*
X115808689Y-113187623I-126284J991989D01*
G01*
X116824596Y-111155806D02*
G75*
G03*
X116853246Y-111093207I-894298J447154D01*
G01*
X119935127Y-103696697D02*
G75*
G02*
X120164598Y-103360959I923097J-384630D01*
G01*
X125730457Y-98001525D02*
G75*
G02*
X125716956Y-98014773I-704325J704273D01*
G01*
X129916700Y-96836639D02*
G75*
G03*
X132511781Y-95761720I3J3669990D01*
G01*
X126495568Y-97236414D02*
G75*
G02*
X127460708Y-96836640I965141J-965142D01*
G01*
X125260893Y-99110421D02*
X126735496Y-97635818D01*
X132794635Y-96114587D02*
X137123330Y-91785892D01*
X126735496Y-97635818D02*
X126735496Y-97632219D01*
X124776161Y-102780616D02*
X124968000Y-102588777D01*
X124968000Y-102588777D02*
X124968000Y-99817528D01*
X138453564Y-92128000D02*
X137965009Y-91639446D01*
X124776161Y-102780616D02*
X122136207Y-112633059D01*
X138965006Y-92274446D02*
X138807116Y-92274446D01*
X137476883Y-91639446D02*
X137965009Y-91639446D01*
X127570971Y-97286160D02*
X129966208Y-97286160D01*
X132794635Y-96114587D02*
G75*
G02*
X129966208Y-97286160I-2828427J2828426D01*
G01*
X127570971Y-97286160D02*
G75*
G03*
X126735496Y-97632219I1J-1181557D01*
G01*
X138807116Y-92274446D02*
G75*
G02*
X138453564Y-92128000I0J499997D01*
G01*
X124968001Y-99817528D02*
G75*
G02*
X125260894Y-99110422I999993J3D01*
G01*
X137476883Y-91639447D02*
G75*
G03*
X137123330Y-91785892I0J-500001D01*
G01*
X129459455Y-70465891D02*
X130313008Y-71319445D01*
X129313008Y-69414445D02*
X129313009Y-70112339D01*
X129313009Y-70112339D02*
G75*
G03*
X129459455Y-70465891I499997J0D01*
G01*
X138965008Y-67072337D02*
X138965008Y-66874448D01*
X137465008Y-68779446D02*
X138818562Y-67425890D01*
X138818562Y-67425890D02*
G75*
G03*
X138965008Y-67072337I-353556J353553D01*
G01*
X138965009Y-64667337D02*
X138965010Y-64334446D01*
X136965009Y-66874444D02*
X138818563Y-65020889D01*
X138818563Y-65020889D02*
G75*
G03*
X138965009Y-64667337I-353551J353552D01*
G01*
D28*
X138965008Y-69414446D02*
X138965008Y-69477338D01*
X138818561Y-69830892D02*
X137965007Y-70684444D01*
X133543937Y-63644811D02*
X134147491Y-63041258D01*
X129459456Y-68060894D02*
X130813008Y-69414444D01*
X129313008Y-66874446D02*
X129313009Y-67707340D01*
X138965008Y-69414446D02*
X138965007Y-71954443D01*
X132037727Y-68189723D02*
X130813008Y-69414444D01*
X133397491Y-64191258D02*
X133397490Y-63998368D01*
X133251039Y-64842422D02*
X132330619Y-65762842D01*
X132184173Y-66116395D02*
X132184173Y-67836170D01*
X133397486Y-64191255D02*
X133397486Y-64488868D01*
X132184172Y-67836170D02*
G75*
G02*
X132037727Y-68189723I-500001J0D01*
G01*
X133397486Y-64488868D02*
G75*
G02*
X133251039Y-64842422I-499997J-1D01*
G01*
X132184174Y-66116395D02*
G75*
G02*
X132330619Y-65762842I500001J0D01*
G01*
X133543937Y-63644811D02*
G75*
G03*
X133397490Y-63998368I353555J-353554D01*
G01*
X138818561Y-69830892D02*
G75*
G03*
X138965008Y-69477338I-353550J353553D01*
G01*
X129459456Y-68060894D02*
G75*
G02*
X129313009Y-67707340I353550J353553D01*
G01*
X129313009Y-71954447D02*
X129313008Y-72224444D01*
X130621387Y-73055717D02*
X131937176Y-73055717D01*
X132290730Y-73202164D02*
X132313009Y-73224443D01*
X130267833Y-72909270D02*
X129313009Y-71954446D01*
X130621387Y-73055717D02*
G75*
G02*
X130267833Y-72909270I-1J499997D01*
G01*
X132290730Y-73202164D02*
G75*
G03*
X131937176Y-73055717I-353553J-353550D01*
G01*
D27*
X136397486Y-64191255D02*
X136397486Y-64678869D01*
X132598180Y-91648886D02*
X130746677Y-93500389D01*
X125374463Y-93550180D02*
X125219820Y-93395537D01*
X136251040Y-65032422D02*
X135419174Y-65864289D01*
X133037520Y-68453050D02*
X133037520Y-90588226D01*
X129565809Y-93989520D02*
X126435123Y-93989520D01*
X135419174Y-65864289D02*
X133183966Y-68099497D01*
X124634033Y-90925469D02*
X124334751Y-90626187D01*
X124780480Y-92334877D02*
X124780480Y-91279023D01*
X123981198Y-90479741D02*
X123046965Y-90479741D01*
X133037521Y-68453050D02*
G75*
G02*
X133183966Y-68099497I500001J0D01*
G01*
X129565809Y-93989519D02*
G75*
G03*
X130746676Y-93500388I0J1670000D01*
G01*
X125219820Y-93395537D02*
G75*
G02*
X124780480Y-92334877I1060662J1060661D01*
G01*
X123981198Y-90479742D02*
G75*
G02*
X124334751Y-90626187I0J-500001D01*
G01*
X133037519Y-90588226D02*
G75*
G02*
X132598179Y-91648885I-1500001J1D01*
G01*
X125374463Y-93550180D02*
G75*
G03*
X126435123Y-93989520I1060661J1060662D01*
G01*
X136251040Y-65032422D02*
G75*
G03*
X136397486Y-64678869I-353556J353553D01*
G01*
X124634033Y-90925469D02*
G75*
G02*
X124780480Y-91279023I-353550J-353553D01*
G01*
D28*
X129646382Y-94514040D02*
X126424966Y-94514040D01*
X133562040Y-68670313D02*
X133562040Y-90805489D01*
X129313007Y-65302340D02*
X129313008Y-64334444D01*
X133122700Y-91866150D02*
X131060595Y-93928254D01*
X131313008Y-67509445D02*
X129459454Y-65655894D01*
X134818840Y-67673956D02*
X134558397Y-67673956D01*
X125010752Y-93928253D02*
X123762240Y-92679741D01*
X134204843Y-67820403D02*
X133708486Y-68316760D01*
X123762240Y-92679741D02*
X123046965Y-92679741D01*
X133708486Y-68316760D02*
G75*
G03*
X133562040Y-68670313I353556J-353553D01*
G01*
X134558397Y-67673956D02*
G75*
G03*
X134204843Y-67820403I-1J-499997D01*
G01*
X126424966Y-94514039D02*
G75*
G02*
X125010753Y-93928252I0J1999999D01*
G01*
X133562040Y-90805489D02*
G75*
G02*
X133122700Y-91866150I-1499991J-4D01*
G01*
X129459454Y-65655894D02*
G75*
G02*
X129313007Y-65302340I353550J353553D01*
G01*
X131060595Y-93928254D02*
G75*
G02*
X129646382Y-94514040I-1414213J1414214D01*
G01*
D27*
X129824448Y-74640890D02*
X130313007Y-75129443D01*
X129313008Y-74494443D02*
X129470902Y-74494445D01*
X129470902Y-74494446D02*
G75*
G02*
X129824447Y-74640891I-5J-499998D01*
G01*
M02*
