G04 #@! TF.GenerationSoftware,KiCad,Pcbnew,6.0.0-d3dd2cf0fa~116~ubuntu20.04.1*
G04 #@! TF.CreationDate,2022-01-05T19:45:41-05:00*
G04 #@! TF.ProjectId,phantoma,7068616e-746f-46d6-912e-6b696361645f,0.1*
G04 #@! TF.SameCoordinates,Original*
G04 #@! TF.FileFunction,Soldermask,Top*
G04 #@! TF.FilePolarity,Negative*
%FSLAX46Y46*%
G04 Gerber Fmt 4.6, Leading zero omitted, Abs format (unit mm)*
G04 Created by KiCad (PCBNEW 6.0.0-d3dd2cf0fa~116~ubuntu20.04.1) date 2022-01-05 19:45:41*
%MOMM*%
%LPD*%
G01*
G04 APERTURE LIST*
G04 Aperture macros list*
%AMHorizOval*
0 Thick line with rounded ends*
0 $1 width*
0 $2 $3 position (X,Y) of the first rounded end (center of the circle)*
0 $4 $5 position (X,Y) of the second rounded end (center of the circle)*
0 Add line between two ends*
20,1,$1,$2,$3,$4,$5,0*
0 Add two circle primitives to create the rounded ends*
1,1,$1,$2,$3*
1,1,$1,$4,$5*%
%AMFreePoly0*
4,1,6,0.600000,0.200000,0.000000,-0.400000,-0.600000,0.200000,-0.600000,0.400000,0.600000,0.400000,0.600000,0.200000,0.600000,0.200000,$1*%
%AMFreePoly1*
4,1,6,0.600000,-0.250000,-0.600000,-0.250000,-0.600000,1.000000,0.000000,0.400000,0.600000,1.000000,0.600000,-0.250000,0.600000,-0.250000,$1*%
G04 Aperture macros list end*
%ADD10C,0.100000*%
%ADD11C,1.701800*%
%ADD12C,3.429000*%
%ADD13HorizOval,2.000000X0.244074X0.054110X-0.244074X-0.054110X0*%
%ADD14HorizOval,2.000000X0.249049X0.021789X-0.249049X-0.021789X0*%
%ADD15O,2.500000X2.000000*%
%ADD16HorizOval,2.000000X0.241481X-0.064705X-0.241481X0.064705X0*%
%ADD17HorizOval,2.000000X-0.064705X-0.241481X0.064705X0.241481X0*%
%ADD18C,1.600000*%
%ADD19FreePoly0,90.000000*%
%ADD20FreePoly0,270.000000*%
%ADD21FreePoly1,270.000000*%
%ADD22FreePoly1,90.000000*%
%ADD23C,0.900000*%
%ADD24C,4.400000*%
G04 APERTURE END LIST*
D10*
X124046965Y-91179741D02*
X122046965Y-91179741D01*
X122046965Y-91179741D02*
X122046965Y-89779741D01*
X122046965Y-89779741D02*
X124046965Y-89779741D01*
X124046965Y-89779741D02*
X124046965Y-91179741D01*
G36*
X124046965Y-91179741D02*
G01*
X122046965Y-91179741D01*
X122046965Y-89779741D01*
X124046965Y-89779741D01*
X124046965Y-91179741D01*
G37*
X124046965Y-91179741D02*
X122046965Y-91179741D01*
X122046965Y-89779741D01*
X124046965Y-89779741D01*
X124046965Y-91179741D01*
X124046965Y-93378299D02*
X122046965Y-93378299D01*
X122046965Y-93378299D02*
X122046965Y-91978299D01*
X122046965Y-91978299D02*
X124046965Y-91978299D01*
X124046965Y-91978299D02*
X124046965Y-93378299D01*
G36*
X124046965Y-93378299D02*
G01*
X122046965Y-93378299D01*
X122046965Y-91978299D01*
X124046965Y-91978299D01*
X124046965Y-93378299D01*
G37*
X124046965Y-93378299D02*
X122046965Y-93378299D01*
X122046965Y-91978299D01*
X124046965Y-91978299D01*
X124046965Y-93378299D01*
X129059009Y-63826446D02*
X129059009Y-64842446D01*
X129059009Y-64842446D02*
X128043009Y-64842446D01*
X128043009Y-64842446D02*
X128043009Y-63826446D01*
X128043009Y-63826446D02*
X129059009Y-63826446D01*
G36*
X129059009Y-64842446D02*
G01*
X128043009Y-64842446D01*
X128043009Y-63826446D01*
X129059009Y-63826446D01*
X129059009Y-64842446D01*
G37*
X129059009Y-64842446D02*
X128043009Y-64842446D01*
X128043009Y-63826446D01*
X129059009Y-63826446D01*
X129059009Y-64842446D01*
X129059009Y-76526446D02*
X129059009Y-77542446D01*
X129059009Y-77542446D02*
X128043009Y-77542446D01*
X128043009Y-77542446D02*
X128043009Y-76526446D01*
X128043009Y-76526446D02*
X129059009Y-76526446D01*
G36*
X129059009Y-77542446D02*
G01*
X128043009Y-77542446D01*
X128043009Y-76526446D01*
X129059009Y-76526446D01*
X129059009Y-77542446D01*
G37*
X129059009Y-77542446D02*
X128043009Y-77542446D01*
X128043009Y-76526446D01*
X129059009Y-76526446D01*
X129059009Y-77542446D01*
X129059009Y-71446446D02*
X129059009Y-72462446D01*
X129059009Y-72462446D02*
X128043009Y-72462446D01*
X128043009Y-72462446D02*
X128043009Y-71446446D01*
X128043009Y-71446446D02*
X129059009Y-71446446D01*
G36*
X129059009Y-72462446D02*
G01*
X128043009Y-72462446D01*
X128043009Y-71446446D01*
X129059009Y-71446446D01*
X129059009Y-72462446D01*
G37*
X129059009Y-72462446D02*
X128043009Y-72462446D01*
X128043009Y-71446446D01*
X129059009Y-71446446D01*
X129059009Y-72462446D01*
X139219009Y-64842446D02*
X139219009Y-63826446D01*
X139219009Y-63826446D02*
X140235009Y-63826446D01*
X140235009Y-63826446D02*
X140235009Y-64842446D01*
X140235009Y-64842446D02*
X139219009Y-64842446D01*
G36*
X140235009Y-64842446D02*
G01*
X139219009Y-64842446D01*
X139219009Y-63826446D01*
X140235009Y-63826446D01*
X140235009Y-64842446D01*
G37*
X140235009Y-64842446D02*
X139219009Y-64842446D01*
X139219009Y-63826446D01*
X140235009Y-63826446D01*
X140235009Y-64842446D01*
X139219009Y-80082446D02*
X139219009Y-79066446D01*
X139219009Y-79066446D02*
X140235009Y-79066446D01*
X140235009Y-79066446D02*
X140235009Y-80082446D01*
X140235009Y-80082446D02*
X139219009Y-80082446D01*
G36*
X140235009Y-80082446D02*
G01*
X139219009Y-80082446D01*
X139219009Y-79066446D01*
X140235009Y-79066446D01*
X140235009Y-80082446D01*
G37*
X140235009Y-80082446D02*
X139219009Y-80082446D01*
X139219009Y-79066446D01*
X140235009Y-79066446D01*
X140235009Y-80082446D01*
X129059009Y-79066446D02*
X129059009Y-80082446D01*
X129059009Y-80082446D02*
X128043009Y-80082446D01*
X128043009Y-80082446D02*
X128043009Y-79066446D01*
X128043009Y-79066446D02*
X129059009Y-79066446D01*
G36*
X129059009Y-80082446D02*
G01*
X128043009Y-80082446D01*
X128043009Y-79066446D01*
X129059009Y-79066446D01*
X129059009Y-80082446D01*
G37*
X129059009Y-80082446D02*
X128043009Y-80082446D01*
X128043009Y-79066446D01*
X129059009Y-79066446D01*
X129059009Y-80082446D01*
X139219009Y-85162446D02*
X139219009Y-84146446D01*
X139219009Y-84146446D02*
X140235009Y-84146446D01*
X140235009Y-84146446D02*
X140235009Y-85162446D01*
X140235009Y-85162446D02*
X139219009Y-85162446D01*
G36*
X140235009Y-85162446D02*
G01*
X139219009Y-85162446D01*
X139219009Y-84146446D01*
X140235009Y-84146446D01*
X140235009Y-85162446D01*
G37*
X140235009Y-85162446D02*
X139219009Y-85162446D01*
X139219009Y-84146446D01*
X140235009Y-84146446D01*
X140235009Y-85162446D01*
X139219009Y-77542446D02*
X139219009Y-76526446D01*
X139219009Y-76526446D02*
X140235009Y-76526446D01*
X140235009Y-76526446D02*
X140235009Y-77542446D01*
X140235009Y-77542446D02*
X139219009Y-77542446D01*
G36*
X140235009Y-77542446D02*
G01*
X139219009Y-77542446D01*
X139219009Y-76526446D01*
X140235009Y-76526446D01*
X140235009Y-77542446D01*
G37*
X140235009Y-77542446D02*
X139219009Y-77542446D01*
X139219009Y-76526446D01*
X140235009Y-76526446D01*
X140235009Y-77542446D01*
X129059009Y-84146446D02*
X129059009Y-85162446D01*
X129059009Y-85162446D02*
X128043009Y-85162446D01*
X128043009Y-85162446D02*
X128043009Y-84146446D01*
X128043009Y-84146446D02*
X129059009Y-84146446D01*
G36*
X129059009Y-85162446D02*
G01*
X128043009Y-85162446D01*
X128043009Y-84146446D01*
X129059009Y-84146446D01*
X129059009Y-85162446D01*
G37*
X129059009Y-85162446D02*
X128043009Y-85162446D01*
X128043009Y-84146446D01*
X129059009Y-84146446D01*
X129059009Y-85162446D01*
X129059009Y-66366446D02*
X129059009Y-67382446D01*
X129059009Y-67382446D02*
X128043009Y-67382446D01*
X128043009Y-67382446D02*
X128043009Y-66366446D01*
X128043009Y-66366446D02*
X129059009Y-66366446D01*
G36*
X129059009Y-67382446D02*
G01*
X128043009Y-67382446D01*
X128043009Y-66366446D01*
X129059009Y-66366446D01*
X129059009Y-67382446D01*
G37*
X129059009Y-67382446D02*
X128043009Y-67382446D01*
X128043009Y-66366446D01*
X129059009Y-66366446D01*
X129059009Y-67382446D01*
X139219009Y-69922446D02*
X139219009Y-68906446D01*
X139219009Y-68906446D02*
X140235009Y-68906446D01*
X140235009Y-68906446D02*
X140235009Y-69922446D01*
X140235009Y-69922446D02*
X139219009Y-69922446D01*
G36*
X140235009Y-69922446D02*
G01*
X139219009Y-69922446D01*
X139219009Y-68906446D01*
X140235009Y-68906446D01*
X140235009Y-69922446D01*
G37*
X140235009Y-69922446D02*
X139219009Y-69922446D01*
X139219009Y-68906446D01*
X140235009Y-68906446D01*
X140235009Y-69922446D01*
X129059009Y-81606446D02*
X129059009Y-82622446D01*
X129059009Y-82622446D02*
X128043009Y-82622446D01*
X128043009Y-82622446D02*
X128043009Y-81606446D01*
X128043009Y-81606446D02*
X129059009Y-81606446D01*
G36*
X129059009Y-82622446D02*
G01*
X128043009Y-82622446D01*
X128043009Y-81606446D01*
X129059009Y-81606446D01*
X129059009Y-82622446D01*
G37*
X129059009Y-82622446D02*
X128043009Y-82622446D01*
X128043009Y-81606446D01*
X129059009Y-81606446D01*
X129059009Y-82622446D01*
X139219009Y-75002446D02*
X139219009Y-73986446D01*
X139219009Y-73986446D02*
X140235009Y-73986446D01*
X140235009Y-73986446D02*
X140235009Y-75002446D01*
X140235009Y-75002446D02*
X139219009Y-75002446D01*
G36*
X140235009Y-75002446D02*
G01*
X139219009Y-75002446D01*
X139219009Y-73986446D01*
X140235009Y-73986446D01*
X140235009Y-75002446D01*
G37*
X140235009Y-75002446D02*
X139219009Y-75002446D01*
X139219009Y-73986446D01*
X140235009Y-73986446D01*
X140235009Y-75002446D01*
X129059009Y-68906446D02*
X129059009Y-69922446D01*
X129059009Y-69922446D02*
X128043009Y-69922446D01*
X128043009Y-69922446D02*
X128043009Y-68906446D01*
X128043009Y-68906446D02*
X129059009Y-68906446D01*
G36*
X129059009Y-69922446D02*
G01*
X128043009Y-69922446D01*
X128043009Y-68906446D01*
X129059009Y-68906446D01*
X129059009Y-69922446D01*
G37*
X129059009Y-69922446D02*
X128043009Y-69922446D01*
X128043009Y-68906446D01*
X129059009Y-68906446D01*
X129059009Y-69922446D01*
X129059009Y-89226446D02*
X129059009Y-90242446D01*
X129059009Y-90242446D02*
X128043009Y-90242446D01*
X128043009Y-90242446D02*
X128043009Y-89226446D01*
X128043009Y-89226446D02*
X129059009Y-89226446D01*
G36*
X129059009Y-90242446D02*
G01*
X128043009Y-90242446D01*
X128043009Y-89226446D01*
X129059009Y-89226446D01*
X129059009Y-90242446D01*
G37*
X129059009Y-90242446D02*
X128043009Y-90242446D01*
X128043009Y-89226446D01*
X129059009Y-89226446D01*
X129059009Y-90242446D01*
X139219009Y-67382446D02*
X139219009Y-66366446D01*
X139219009Y-66366446D02*
X140235009Y-66366446D01*
X140235009Y-66366446D02*
X140235009Y-67382446D01*
X140235009Y-67382446D02*
X139219009Y-67382446D01*
G36*
X140235009Y-67382446D02*
G01*
X139219009Y-67382446D01*
X139219009Y-66366446D01*
X140235009Y-66366446D01*
X140235009Y-67382446D01*
G37*
X140235009Y-67382446D02*
X139219009Y-67382446D01*
X139219009Y-66366446D01*
X140235009Y-66366446D01*
X140235009Y-67382446D01*
X139219009Y-87702446D02*
X139219009Y-86686446D01*
X139219009Y-86686446D02*
X140235009Y-86686446D01*
X140235009Y-86686446D02*
X140235009Y-87702446D01*
X140235009Y-87702446D02*
X139219009Y-87702446D01*
G36*
X140235009Y-87702446D02*
G01*
X139219009Y-87702446D01*
X139219009Y-86686446D01*
X140235009Y-86686446D01*
X140235009Y-87702446D01*
G37*
X140235009Y-87702446D02*
X139219009Y-87702446D01*
X139219009Y-86686446D01*
X140235009Y-86686446D01*
X140235009Y-87702446D01*
X139219009Y-92782446D02*
X139219009Y-91766446D01*
X139219009Y-91766446D02*
X140235009Y-91766446D01*
X140235009Y-91766446D02*
X140235009Y-92782446D01*
X140235009Y-92782446D02*
X139219009Y-92782446D01*
G36*
X140235009Y-92782446D02*
G01*
X139219009Y-92782446D01*
X139219009Y-91766446D01*
X140235009Y-91766446D01*
X140235009Y-92782446D01*
G37*
X140235009Y-92782446D02*
X139219009Y-92782446D01*
X139219009Y-91766446D01*
X140235009Y-91766446D01*
X140235009Y-92782446D01*
X139219009Y-82622446D02*
X139219009Y-81606446D01*
X139219009Y-81606446D02*
X140235009Y-81606446D01*
X140235009Y-81606446D02*
X140235009Y-82622446D01*
X140235009Y-82622446D02*
X139219009Y-82622446D01*
G36*
X140235009Y-82622446D02*
G01*
X139219009Y-82622446D01*
X139219009Y-81606446D01*
X140235009Y-81606446D01*
X140235009Y-82622446D01*
G37*
X140235009Y-82622446D02*
X139219009Y-82622446D01*
X139219009Y-81606446D01*
X140235009Y-81606446D01*
X140235009Y-82622446D01*
X129059009Y-91766446D02*
X129059009Y-92782446D01*
X129059009Y-92782446D02*
X128043009Y-92782446D01*
X128043009Y-92782446D02*
X128043009Y-91766446D01*
X128043009Y-91766446D02*
X129059009Y-91766446D01*
G36*
X129059009Y-92782446D02*
G01*
X128043009Y-92782446D01*
X128043009Y-91766446D01*
X129059009Y-91766446D01*
X129059009Y-92782446D01*
G37*
X129059009Y-92782446D02*
X128043009Y-92782446D01*
X128043009Y-91766446D01*
X129059009Y-91766446D01*
X129059009Y-92782446D01*
X139219009Y-90242446D02*
X139219009Y-89226446D01*
X139219009Y-89226446D02*
X140235009Y-89226446D01*
X140235009Y-89226446D02*
X140235009Y-90242446D01*
X140235009Y-90242446D02*
X139219009Y-90242446D01*
G36*
X140235009Y-90242446D02*
G01*
X139219009Y-90242446D01*
X139219009Y-89226446D01*
X140235009Y-89226446D01*
X140235009Y-90242446D01*
G37*
X140235009Y-90242446D02*
X139219009Y-90242446D01*
X139219009Y-89226446D01*
X140235009Y-89226446D01*
X140235009Y-90242446D01*
X139219009Y-72462446D02*
X139219009Y-71446446D01*
X139219009Y-71446446D02*
X140235009Y-71446446D01*
X140235009Y-71446446D02*
X140235009Y-72462446D01*
X140235009Y-72462446D02*
X139219009Y-72462446D01*
G36*
X140235009Y-72462446D02*
G01*
X139219009Y-72462446D01*
X139219009Y-71446446D01*
X140235009Y-71446446D01*
X140235009Y-72462446D01*
G37*
X140235009Y-72462446D02*
X139219009Y-72462446D01*
X139219009Y-71446446D01*
X140235009Y-71446446D01*
X140235009Y-72462446D01*
X129059009Y-86686446D02*
X129059009Y-87702446D01*
X129059009Y-87702446D02*
X128043009Y-87702446D01*
X128043009Y-87702446D02*
X128043009Y-86686446D01*
X128043009Y-86686446D02*
X129059009Y-86686446D01*
G36*
X129059009Y-87702446D02*
G01*
X128043009Y-87702446D01*
X128043009Y-86686446D01*
X129059009Y-86686446D01*
X129059009Y-87702446D01*
G37*
X129059009Y-87702446D02*
X128043009Y-87702446D01*
X128043009Y-86686446D01*
X129059009Y-86686446D01*
X129059009Y-87702446D01*
X129059009Y-73986446D02*
X129059009Y-75002446D01*
X129059009Y-75002446D02*
X128043009Y-75002446D01*
X128043009Y-75002446D02*
X128043009Y-73986446D01*
X128043009Y-73986446D02*
X129059009Y-73986446D01*
G36*
X129059009Y-75002446D02*
G01*
X128043009Y-75002446D01*
X128043009Y-73986446D01*
X129059009Y-73986446D01*
X129059009Y-75002446D01*
G37*
X129059009Y-75002446D02*
X128043009Y-75002446D01*
X128043009Y-73986446D01*
X129059009Y-73986446D01*
X129059009Y-75002446D01*
X136697486Y-63491256D02*
X136697486Y-64891256D01*
X136697486Y-64891256D02*
X136097486Y-64891256D01*
X136097486Y-64891256D02*
X136097486Y-63491256D01*
X136097486Y-63491256D02*
X136697486Y-63491256D01*
G36*
X136697486Y-64891256D02*
G01*
X136097486Y-64891256D01*
X136097486Y-63491256D01*
X136697486Y-63491256D01*
X136697486Y-64891256D01*
G37*
X136697486Y-64891256D02*
X136097486Y-64891256D01*
X136097486Y-63491256D01*
X136697486Y-63491256D01*
X136697486Y-64891256D01*
X130947486Y-60991256D02*
X130947486Y-61691256D01*
X130947486Y-61691256D02*
X130047486Y-61691256D01*
X130047486Y-61691256D02*
X130047486Y-60991256D01*
X130047486Y-60991256D02*
X130947486Y-60991256D01*
G36*
X130947486Y-61691256D02*
G01*
X130047486Y-61691256D01*
X130047486Y-60991256D01*
X130947486Y-60991256D01*
X130947486Y-61691256D01*
G37*
X130947486Y-61691256D02*
X130047486Y-61691256D01*
X130047486Y-60991256D01*
X130947486Y-60991256D01*
X130947486Y-61691256D01*
X133697486Y-63491256D02*
X133697486Y-64891256D01*
X133697486Y-64891256D02*
X133097486Y-64891256D01*
X133097486Y-64891256D02*
X133097486Y-63491256D01*
X133097486Y-63491256D02*
X133697486Y-63491256D01*
G36*
X133697486Y-64891256D02*
G01*
X133097486Y-64891256D01*
X133097486Y-63491256D01*
X133697486Y-63491256D01*
X133697486Y-64891256D01*
G37*
X133697486Y-64891256D02*
X133097486Y-64891256D01*
X133097486Y-63491256D01*
X133697486Y-63491256D01*
X133697486Y-64891256D01*
X138247486Y-63191256D02*
X138247486Y-63891256D01*
X138247486Y-63891256D02*
X137347486Y-63891256D01*
X137347486Y-63891256D02*
X137347486Y-63191256D01*
X137347486Y-63191256D02*
X138247486Y-63191256D01*
G36*
X138247486Y-63891256D02*
G01*
X137347486Y-63891256D01*
X137347486Y-63191256D01*
X138247486Y-63191256D01*
X138247486Y-63891256D01*
G37*
X138247486Y-63891256D02*
X137347486Y-63891256D01*
X137347486Y-63191256D01*
X138247486Y-63191256D01*
X138247486Y-63891256D01*
X138247486Y-60991256D02*
X138247486Y-61691256D01*
X138247486Y-61691256D02*
X137347486Y-61691256D01*
X137347486Y-61691256D02*
X137347486Y-60991256D01*
X137347486Y-60991256D02*
X138247486Y-60991256D01*
G36*
X138247486Y-61691256D02*
G01*
X137347486Y-61691256D01*
X137347486Y-60991256D01*
X138247486Y-60991256D01*
X138247486Y-61691256D01*
G37*
X138247486Y-61691256D02*
X137347486Y-61691256D01*
X137347486Y-60991256D01*
X138247486Y-60991256D01*
X138247486Y-61691256D01*
X132197486Y-63491256D02*
X132197486Y-64891256D01*
X132197486Y-64891256D02*
X131597486Y-64891256D01*
X131597486Y-64891256D02*
X131597486Y-63491256D01*
X131597486Y-63491256D02*
X132197486Y-63491256D01*
G36*
X132197486Y-64891256D02*
G01*
X131597486Y-64891256D01*
X131597486Y-63491256D01*
X132197486Y-63491256D01*
X132197486Y-64891256D01*
G37*
X132197486Y-64891256D02*
X131597486Y-64891256D01*
X131597486Y-63491256D01*
X132197486Y-63491256D01*
X132197486Y-64891256D01*
X130947486Y-63191256D02*
X130947486Y-63891256D01*
X130947486Y-63891256D02*
X130047486Y-63891256D01*
X130047486Y-63891256D02*
X130047486Y-63191256D01*
X130047486Y-63191256D02*
X130947486Y-63191256D01*
G36*
X130947486Y-63891256D02*
G01*
X130047486Y-63891256D01*
X130047486Y-63191256D01*
X130947486Y-63191256D01*
X130947486Y-63891256D01*
G37*
X130947486Y-63891256D02*
X130047486Y-63891256D01*
X130047486Y-63191256D01*
X130947486Y-63191256D01*
X130947486Y-63891256D01*
D11*
X31690870Y-64461023D03*
X42430126Y-62080187D03*
D12*
X37060498Y-63270605D03*
D13*
X42883722Y-65974317D03*
X38337492Y-69030751D03*
D12*
X57254777Y-47537462D03*
D11*
X51775706Y-48016819D03*
X62733848Y-47058105D03*
D14*
X62675277Y-50978127D03*
X57768996Y-53415011D03*
D11*
X73760310Y-44405728D03*
X84760310Y-44405728D03*
D12*
X79260310Y-44405728D03*
D15*
X84360310Y-48305728D03*
X79260310Y-50305728D03*
D12*
X97249003Y-47774444D03*
D11*
X91749003Y-47774444D03*
X102749003Y-47774444D03*
D15*
X102349003Y-51674444D03*
X97249003Y-53674444D03*
D11*
X120749006Y-56274447D03*
D12*
X115249006Y-56274447D03*
D11*
X109749006Y-56274447D03*
D15*
X120349006Y-60174447D03*
X115249006Y-62174447D03*
D11*
X46109602Y-78677213D03*
D12*
X40739974Y-79867631D03*
D11*
X35370346Y-81058049D03*
D13*
X46563198Y-82571343D03*
X42016968Y-85627777D03*
D11*
X53257348Y-64952135D03*
X64215490Y-63993421D03*
D12*
X58736419Y-64472778D03*
D14*
X64156919Y-67913443D03*
X59250638Y-70350327D03*
D12*
X79260306Y-61405728D03*
D11*
X84760306Y-61405728D03*
X73760306Y-61405728D03*
D15*
X84360306Y-65305728D03*
X79260306Y-67305728D03*
D11*
X102749010Y-64774441D03*
X91749010Y-64774441D03*
D12*
X97249010Y-64774441D03*
D15*
X102349010Y-68674441D03*
X97249010Y-70674441D03*
D11*
X109749010Y-73274446D03*
X120749010Y-73274446D03*
D12*
X115249010Y-73274446D03*
D15*
X120349010Y-77174446D03*
X115249010Y-79174446D03*
D12*
X60218067Y-81408086D03*
D11*
X54738996Y-81887443D03*
X65697138Y-80928729D03*
D14*
X65638567Y-84848751D03*
X60732286Y-87285635D03*
D12*
X79260299Y-78405739D03*
D11*
X84760299Y-78405739D03*
X73760299Y-78405739D03*
D15*
X84360299Y-82305739D03*
X79260299Y-84305739D03*
D11*
X91749010Y-81774443D03*
D12*
X97249010Y-81774443D03*
D11*
X102749010Y-81774443D03*
D15*
X102349010Y-85674443D03*
X97249010Y-87674443D03*
D12*
X107907278Y-109056730D03*
D11*
X102594686Y-107633225D03*
X113219870Y-110480235D03*
D16*
X111824105Y-114143818D03*
X106380246Y-114755692D03*
D12*
X126213408Y-109047668D03*
D11*
X127636913Y-103735076D03*
X124789903Y-114360260D03*
D17*
X121126320Y-112964495D03*
X120514446Y-107520636D03*
D18*
X126519009Y-64334446D03*
X141759009Y-74494446D03*
D19*
X128297009Y-71954446D03*
D20*
X139981009Y-82114446D03*
D18*
X141759009Y-69414446D03*
X126519009Y-71954446D03*
X126519009Y-77034446D03*
D19*
X128297009Y-87194446D03*
X128297009Y-92274446D03*
D18*
X141759009Y-79574446D03*
D19*
X128297009Y-84654446D03*
D18*
X141759009Y-92274446D03*
D20*
X139981009Y-87194446D03*
D19*
X128297009Y-77034446D03*
X128297009Y-79574446D03*
D18*
X126519009Y-66874446D03*
X141759009Y-84654446D03*
D19*
X128297009Y-64334446D03*
D18*
X141759009Y-77034446D03*
X141759009Y-64334446D03*
D19*
X128297009Y-66874446D03*
X128297009Y-89734446D03*
D20*
X139981009Y-89734446D03*
D18*
X141759009Y-82114446D03*
X141759009Y-71954446D03*
X126519009Y-69414446D03*
D19*
X128297009Y-74494446D03*
D20*
X139981009Y-79574446D03*
D18*
X126519009Y-89734446D03*
X126519009Y-79574446D03*
D19*
X128297009Y-69414446D03*
D18*
X126519009Y-87194446D03*
D20*
X139981009Y-74494446D03*
D18*
X141759009Y-66874446D03*
D20*
X139981009Y-69414446D03*
D18*
X126519009Y-74494446D03*
D20*
X139981009Y-71954446D03*
D18*
X126519009Y-84654446D03*
D20*
X139981009Y-66874446D03*
D18*
X126519009Y-92274446D03*
D20*
X139981009Y-64334446D03*
D18*
X126519009Y-82114446D03*
D20*
X139981009Y-84654446D03*
D18*
X141759009Y-89734446D03*
D20*
X139981009Y-92274446D03*
D19*
X128297009Y-82114446D03*
D20*
X139981009Y-77034446D03*
D18*
X141759009Y-87194446D03*
D21*
X138965009Y-64334446D03*
X138965009Y-66874446D03*
X138965009Y-69414446D03*
X138965009Y-71954446D03*
X138965009Y-74494446D03*
X138965009Y-77034446D03*
X138965009Y-79574446D03*
X138965009Y-82114446D03*
X138965009Y-84654446D03*
X138965009Y-87194446D03*
X138965009Y-89734446D03*
X138965009Y-92274446D03*
D22*
X129313009Y-92274446D03*
X129313009Y-89734446D03*
X129313009Y-87194446D03*
X129313009Y-84654446D03*
X129313009Y-82114446D03*
X129313009Y-79574446D03*
X129313009Y-77034446D03*
X129313009Y-74494446D03*
X129313009Y-71954446D03*
X129313009Y-69414446D03*
X129313009Y-66874446D03*
X129313009Y-64334446D03*
D23*
X135647486Y-62441256D03*
X132647486Y-62441256D03*
X135647486Y-62441256D03*
X132647486Y-62441256D03*
D24*
X68707000Y-58166000D03*
X87757000Y-39116000D03*
X106807000Y-58166000D03*
X87757000Y-77216000D03*
M02*
