M48
; DRILL file {KiCad 6.0.0-d3dd2cf0fa~116~ubuntu20.04.1} date Wed 05 Jan 2022 07:45:38 PM EST
; FORMAT={-:-/ absolute / inch / decimal}
; #@! TF.CreationDate,2022-01-05T19:45:38-05:00
; #@! TF.GenerationSoftware,Kicad,Pcbnew,6.0.0-d3dd2cf0fa~116~ubuntu20.04.1
; #@! TF.FileFunction,Plated,1,2,PTH
FMAT,2
INCH
; #@! TA.AperFunction,Plated,PTH,ViaDrill
T1C0.0157
; #@! TA.AperFunction,Plated,PTH,ComponentDrill
T2C0.0315
; #@! TA.AperFunction,Plated,PTH,ComponentDrill
T3C0.0320
; #@! TA.AperFunction,Plated,PTH,ComponentDrill
T4C0.0866
%
G90
G05
T1
X4.8444Y-3.6488
X4.8444Y-3.5622
X5.1304Y-3.6579
X5.1304Y-3.0579
X5.1304Y-2.9579
X5.1304Y-3.1579
X5.1304Y-3.2579
X5.1304Y-3.4579
X5.1304Y-2.8079
X5.1304Y-3.5579
X5.1304Y-3.3579
X5.1501Y-2.7329
X5.1501Y-3.0079
X5.1698Y-2.6579
X5.1698Y-2.9204
X5.2092Y-2.8829
X5.2814Y-2.4268
X5.2814Y-2.4819
X5.3078Y-2.6643
X5.3315Y-2.5931
X5.3923Y-2.6329
X5.412Y-2.7079
X5.4317Y-3.3079
X5.4317Y-2.7829
X5.4317Y-3.1079
X5.4317Y-3.4079
X5.4317Y-3.5079
X5.4317Y-2.9079
X5.4317Y-3.0079
X5.4317Y-3.6079
X5.4317Y-3.2079
T3
X4.9811Y-2.5329
X4.9811Y-2.6329
X4.9811Y-2.7329
X4.9811Y-2.8329
X4.9811Y-2.9329
X4.9811Y-3.0329
X4.9811Y-3.1329
X4.9811Y-3.2329
X4.9811Y-3.3329
X4.9811Y-3.4329
X4.9811Y-3.5329
X4.9811Y-3.6329
X5.5811Y-2.5329
X5.5811Y-2.6329
X5.5811Y-2.7329
X5.5811Y-2.8329
X5.5811Y-2.9329
X5.5811Y-3.0329
X5.5811Y-3.1329
X5.5811Y-3.2329
X5.5811Y-3.3329
X5.5811Y-3.4329
X5.5811Y-3.5329
X5.5811Y-3.6329
T4
X2.705Y-2.29
X3.455Y-1.54
X3.455Y-3.04
X4.205Y-2.29
T2
G00X1.2886Y-2.686
M15
G01X1.304Y-2.6826
M16
G05
G00X1.4335Y-3.3395
M15
G01X1.4488Y-3.3361
M16
G05
G00X1.5017Y-2.7195
M15
G01X1.517Y-2.716
M16
G05
G00X1.6465Y-3.3729
M15
G01X1.6619Y-3.3695
M16
G05
G00X1.6806Y-2.5991
M15
G01X1.696Y-2.5957
M16
G05
G00X1.8255Y-3.2525
M15
G01X1.8409Y-3.2491
M16
G05
G00X2.0596Y-2.0427
M15
G01X2.0753Y-2.0413
M16
G05
G00X2.118Y-2.7094
M15
G01X2.1337Y-2.7081
M16
G05
G00X2.1763Y-3.3762
M15
G01X2.192Y-3.3748
M16
G05
G00X2.2665Y-2.1036
M15
G01X2.2822Y-2.1023
M16
G05
G00X2.3249Y-2.7704
M15
G01X2.3405Y-2.769
M16
G05
G00X2.3832Y-3.4371
M15
G01X2.3989Y-3.4358
M16
G05
G00X2.4597Y-2.0077
M15
G01X2.4754Y-2.0063
M16
G05
G00X2.518Y-2.6744
M15
G01X2.5337Y-2.6731
M16
G05
G00X2.5764Y-3.3412
M15
G01X2.592Y-3.3398
M16
G05
G00X2.9118Y-3.2404
M15
G01X2.9276Y-3.2404
M16
G05
G00X2.9118Y-2.5711
M15
G01X2.9276Y-2.5711
M16
G05
G00X2.9118Y-1.9018
M15
G01X2.9276Y-1.9018
M16
G05
G00X3.1126Y-3.3191
M15
G01X3.1284Y-3.3191
M16
G05
G00X3.1126Y-2.6498
M15
G01X3.1284Y-2.6498
M16
G05
G00X3.1126Y-1.9805
M15
G01X3.1284Y-1.9805
M16
G05
G00X3.3134Y-3.2404
M15
G01X3.3291Y-3.2404
M16
G05
G00X3.3134Y-2.5711
M15
G01X3.3291Y-2.5711
M16
G05
G00X3.3134Y-1.9018
M15
G01X3.3291Y-1.9018
M16
G05
G00X3.62Y-2.0344
M15
G01X3.6358Y-2.0344
M16
G05
G00X3.62Y-2.7037
M15
G01X3.6358Y-2.7037
M16
G05
G00X3.62Y-3.373
M15
G01X3.6358Y-3.373
M16
G05
G00X3.8208Y-2.1132
M15
G01X3.8366Y-2.1132
M16
G05
G00X3.8208Y-2.7825
M15
G01X3.8366Y-2.7825
M16
G05
G00X3.8208Y-3.4517
M15
G01X3.8366Y-3.4517
M16
G05
G00X4.007Y-4.3879
M15
G01X4.0222Y-4.392
M16
G05
G00X4.0216Y-2.0344
M15
G01X4.0374Y-2.0344
M16
G05
G00X4.0216Y-2.7037
M15
G01X4.0374Y-2.7037
M16
G05
G00X4.0216Y-3.373
M15
G01X4.0374Y-3.373
M16
G05
G00X4.1806Y-4.5159
M15
G01X4.1958Y-4.52
M16
G05
G00X4.3287Y-2.3691
M15
G01X4.3444Y-2.3691
M16
G05
G00X4.3287Y-3.0384
M15
G01X4.3444Y-3.0384
M16
G05
G00X4.3949Y-4.4918
M15
G01X4.4101Y-4.4959
M16
G05
G00X4.5295Y-2.4478
M15
G01X4.5452Y-2.4478
M16
G05
G00X4.5295Y-3.1171
M15
G01X4.5452Y-3.1171
M16
G05
G00X4.7303Y-2.3691
M15
G01X4.746Y-2.3691
M16
G05
G00X4.7303Y-3.0384
M15
G01X4.746Y-3.0384
M16
G05
G00X4.7467Y-4.2255
M15
G01X4.7426Y-4.2407
M16
G05
G00X4.7708Y-4.4398
M15
G01X4.7667Y-4.455
M16
G05
G00X4.8747Y-4.0519
M15
G01X4.8706Y-4.0671
M16
G05
T0
M30
