G04 #@! TF.GenerationSoftware,KiCad,Pcbnew,6.0.0-d3dd2cf0fa~116~ubuntu20.04.1*
G04 #@! TF.CreationDate,2022-01-06T00:14:52-05:00*
G04 #@! TF.ProjectId,phantoma,7068616e-746f-46d6-912e-6b696361645f,0.1*
G04 #@! TF.SameCoordinates,Original*
G04 #@! TF.FileFunction,Legend,Top*
G04 #@! TF.FilePolarity,Positive*
%FSLAX46Y46*%
G04 Gerber Fmt 4.6, Leading zero omitted, Abs format (unit mm)*
G04 Created by KiCad (PCBNEW 6.0.0-d3dd2cf0fa~116~ubuntu20.04.1) date 2022-01-06 00:14:52*
%MOMM*%
%LPD*%
G01*
G04 APERTURE LIST*
%ADD10C,0.312500*%
%ADD11C,0.100000*%
%ADD12C,0.080000*%
%ADD13C,0.150000*%
%ADD14C,0.200000*%
%ADD15C,0.010000*%
G04 APERTURE END LIST*
D10*
X120197886Y-84450892D02*
X119245505Y-84808035D01*
X120197886Y-85165178D01*
X120674077Y-84034226D02*
X121447886Y-84034226D01*
X121031220Y-84510416D01*
X121209791Y-84510416D01*
X121328839Y-84569940D01*
X121388363Y-84629464D01*
X121447886Y-84748511D01*
X121447886Y-85046130D01*
X121388363Y-85165178D01*
X121328839Y-85224702D01*
X121209791Y-85284226D01*
X120852648Y-85284226D01*
X120733601Y-85224702D01*
X120674077Y-85165178D01*
X117340744Y-86165773D02*
X117995505Y-86165773D01*
X117995505Y-86463392D01*
X117935982Y-86761011D01*
X117816934Y-86939583D01*
X117638363Y-87058630D01*
X117400267Y-87177678D01*
X118709791Y-86344345D02*
X119305029Y-86344345D01*
X119245505Y-86522916D01*
X119126458Y-86701488D01*
X119007410Y-86522916D02*
X119007410Y-86761011D01*
X118947886Y-86939583D01*
X118828839Y-87118154D01*
X119959791Y-86165773D02*
X120197886Y-86403869D01*
X119959791Y-87118154D02*
X120257410Y-87058630D01*
X120435982Y-86880059D01*
X120555029Y-86701488D01*
X120674077Y-86284821D01*
X121626458Y-85927678D02*
X121626458Y-87237202D01*
X121626458Y-86463392D02*
X121983601Y-86761011D01*
X122519315Y-86284821D02*
X123293125Y-86284821D01*
X123174077Y-86522916D01*
X123055029Y-86701488D01*
X122935982Y-86820535D01*
X122697886Y-86641964D02*
X122876458Y-86820535D01*
X122935982Y-86939583D01*
X123055029Y-87118154D01*
D11*
X135625535Y-88148714D02*
X135125535Y-88148714D01*
X135196964Y-88148714D02*
X135161250Y-88113000D01*
X135125535Y-88041571D01*
X135125535Y-87934428D01*
X135161250Y-87863000D01*
X135232678Y-87827285D01*
X135625535Y-87827285D01*
X135232678Y-87827285D02*
X135161250Y-87791571D01*
X135125535Y-87720142D01*
X135125535Y-87613000D01*
X135161250Y-87541571D01*
X135232678Y-87505857D01*
X135625535Y-87505857D01*
X135625535Y-87041571D02*
X135589821Y-87113000D01*
X135554107Y-87148714D01*
X135482678Y-87184428D01*
X135268392Y-87184428D01*
X135196964Y-87148714D01*
X135161250Y-87113000D01*
X135125535Y-87041571D01*
X135125535Y-86934428D01*
X135161250Y-86863000D01*
X135196964Y-86827285D01*
X135268392Y-86791571D01*
X135482678Y-86791571D01*
X135554107Y-86827285D01*
X135589821Y-86863000D01*
X135625535Y-86934428D01*
X135625535Y-87041571D01*
X135625535Y-86148714D02*
X134875535Y-86148714D01*
X135589821Y-86148714D02*
X135625535Y-86220142D01*
X135625535Y-86363000D01*
X135589821Y-86434428D01*
X135554107Y-86470142D01*
X135482678Y-86505857D01*
X135268392Y-86505857D01*
X135196964Y-86470142D01*
X135161250Y-86434428D01*
X135125535Y-86363000D01*
X135125535Y-86220142D01*
X135161250Y-86148714D01*
X135625535Y-85791571D02*
X135125535Y-85791571D01*
X134875535Y-85791571D02*
X134911250Y-85827285D01*
X134946964Y-85791571D01*
X134911250Y-85755857D01*
X134875535Y-85791571D01*
X134946964Y-85791571D01*
X135125535Y-85541571D02*
X135125535Y-85255857D01*
X135625535Y-85434428D02*
X134982678Y-85434428D01*
X134911250Y-85398714D01*
X134875535Y-85327285D01*
X134875535Y-85255857D01*
X135625535Y-85005857D02*
X135125535Y-85005857D01*
X134875535Y-85005857D02*
X134911250Y-85041571D01*
X134946964Y-85005857D01*
X134911250Y-84970142D01*
X134875535Y-85005857D01*
X134946964Y-85005857D01*
X135589821Y-84363000D02*
X135625535Y-84434428D01*
X135625535Y-84577285D01*
X135589821Y-84648714D01*
X135518392Y-84684428D01*
X135232678Y-84684428D01*
X135161250Y-84648714D01*
X135125535Y-84577285D01*
X135125535Y-84434428D01*
X135161250Y-84363000D01*
X135232678Y-84327285D01*
X135304107Y-84327285D01*
X135375535Y-84684428D01*
X135625535Y-83684428D02*
X134875535Y-83684428D01*
X135589821Y-83684428D02*
X135625535Y-83755857D01*
X135625535Y-83898714D01*
X135589821Y-83970142D01*
X135554107Y-84005857D01*
X135482678Y-84041571D01*
X135268392Y-84041571D01*
X135196964Y-84005857D01*
X135161250Y-83970142D01*
X135125535Y-83898714D01*
X135125535Y-83755857D01*
X135161250Y-83684428D01*
X135125535Y-82863000D02*
X135125535Y-82577285D01*
X135625535Y-82755857D02*
X134982678Y-82755857D01*
X134911250Y-82720142D01*
X134875535Y-82648714D01*
X134875535Y-82577285D01*
X135625535Y-82327285D02*
X135125535Y-82327285D01*
X135268392Y-82327285D02*
X135196964Y-82291571D01*
X135161250Y-82255857D01*
X135125535Y-82184428D01*
X135125535Y-82113000D01*
X135625535Y-81755857D02*
X135589821Y-81827285D01*
X135554107Y-81863000D01*
X135482678Y-81898714D01*
X135268392Y-81898714D01*
X135196964Y-81863000D01*
X135161250Y-81827285D01*
X135125535Y-81755857D01*
X135125535Y-81648714D01*
X135161250Y-81577285D01*
X135196964Y-81541571D01*
X135268392Y-81505857D01*
X135482678Y-81505857D01*
X135554107Y-81541571D01*
X135589821Y-81577285D01*
X135625535Y-81648714D01*
X135625535Y-81755857D01*
X135625535Y-81184428D02*
X135125535Y-81184428D01*
X135196964Y-81184428D02*
X135161250Y-81148714D01*
X135125535Y-81077285D01*
X135125535Y-80970142D01*
X135161250Y-80898714D01*
X135232678Y-80863000D01*
X135625535Y-80863000D01*
X135232678Y-80863000D02*
X135161250Y-80827285D01*
X135125535Y-80755857D01*
X135125535Y-80648714D01*
X135161250Y-80577285D01*
X135232678Y-80541571D01*
X135625535Y-80541571D01*
X135125535Y-79720142D02*
X135125535Y-79434428D01*
X134875535Y-79613000D02*
X135518392Y-79613000D01*
X135589821Y-79577285D01*
X135625535Y-79505857D01*
X135625535Y-79434428D01*
X135625535Y-79184428D02*
X134875535Y-79184428D01*
X135625535Y-78863000D02*
X135232678Y-78863000D01*
X135161250Y-78898714D01*
X135125535Y-78970142D01*
X135125535Y-79077285D01*
X135161250Y-79148714D01*
X135196964Y-79184428D01*
X135589821Y-78220142D02*
X135625535Y-78291571D01*
X135625535Y-78434428D01*
X135589821Y-78505857D01*
X135518392Y-78541571D01*
X135232678Y-78541571D01*
X135161250Y-78505857D01*
X135125535Y-78434428D01*
X135125535Y-78291571D01*
X135161250Y-78220142D01*
X135232678Y-78184428D01*
X135304107Y-78184428D01*
X135375535Y-78541571D01*
X135625535Y-77291571D02*
X135125535Y-77291571D01*
X135196964Y-77291571D02*
X135161250Y-77255857D01*
X135125535Y-77184428D01*
X135125535Y-77077285D01*
X135161250Y-77005857D01*
X135232678Y-76970142D01*
X135625535Y-76970142D01*
X135232678Y-76970142D02*
X135161250Y-76934428D01*
X135125535Y-76863000D01*
X135125535Y-76755857D01*
X135161250Y-76684428D01*
X135232678Y-76648714D01*
X135625535Y-76648714D01*
X135625535Y-76291571D02*
X135125535Y-76291571D01*
X134875535Y-76291571D02*
X134911250Y-76327285D01*
X134946964Y-76291571D01*
X134911250Y-76255857D01*
X134875535Y-76291571D01*
X134946964Y-76291571D01*
X135625535Y-75613000D02*
X134875535Y-75613000D01*
X135589821Y-75613000D02*
X135625535Y-75684428D01*
X135625535Y-75827285D01*
X135589821Y-75898714D01*
X135554107Y-75934428D01*
X135482678Y-75970142D01*
X135268392Y-75970142D01*
X135196964Y-75934428D01*
X135161250Y-75898714D01*
X135125535Y-75827285D01*
X135125535Y-75684428D01*
X135161250Y-75613000D01*
X135125535Y-74934428D02*
X135732678Y-74934428D01*
X135804107Y-74970142D01*
X135839821Y-75005857D01*
X135875535Y-75077285D01*
X135875535Y-75184428D01*
X135839821Y-75255857D01*
X135589821Y-74934428D02*
X135625535Y-75005857D01*
X135625535Y-75148714D01*
X135589821Y-75220142D01*
X135554107Y-75255857D01*
X135482678Y-75291571D01*
X135268392Y-75291571D01*
X135196964Y-75255857D01*
X135161250Y-75220142D01*
X135125535Y-75148714D01*
X135125535Y-75005857D01*
X135161250Y-74934428D01*
X135589821Y-74291571D02*
X135625535Y-74363000D01*
X135625535Y-74505857D01*
X135589821Y-74577285D01*
X135518392Y-74613000D01*
X135232678Y-74613000D01*
X135161250Y-74577285D01*
X135125535Y-74505857D01*
X135125535Y-74363000D01*
X135161250Y-74291571D01*
X135232678Y-74255857D01*
X135304107Y-74255857D01*
X135375535Y-74613000D01*
X135625535Y-73363000D02*
X134875535Y-73363000D01*
X135161250Y-73363000D02*
X135125535Y-73291571D01*
X135125535Y-73148714D01*
X135161250Y-73077285D01*
X135196964Y-73041571D01*
X135268392Y-73005857D01*
X135482678Y-73005857D01*
X135554107Y-73041571D01*
X135589821Y-73077285D01*
X135625535Y-73148714D01*
X135625535Y-73291571D01*
X135589821Y-73363000D01*
X135125535Y-72755857D02*
X135625535Y-72577285D01*
X135125535Y-72398714D02*
X135625535Y-72577285D01*
X135804107Y-72648714D01*
X135839821Y-72684428D01*
X135875535Y-72755857D01*
X135125535Y-71541571D02*
X135768392Y-71541571D01*
X135839821Y-71577285D01*
X135875535Y-71648714D01*
X135875535Y-71684428D01*
X134875535Y-71541571D02*
X134911250Y-71577285D01*
X134946964Y-71541571D01*
X134911250Y-71505857D01*
X134875535Y-71541571D01*
X134946964Y-71541571D01*
X135625535Y-71184428D02*
X135125535Y-71184428D01*
X135196964Y-71184428D02*
X135161250Y-71148714D01*
X135125535Y-71077285D01*
X135125535Y-70970142D01*
X135161250Y-70898714D01*
X135232678Y-70863000D01*
X135625535Y-70863000D01*
X135232678Y-70863000D02*
X135161250Y-70827285D01*
X135125535Y-70755857D01*
X135125535Y-70648714D01*
X135161250Y-70577285D01*
X135232678Y-70541571D01*
X135625535Y-70541571D01*
X135125535Y-70184428D02*
X135625535Y-70184428D01*
X135196964Y-70184428D02*
X135161250Y-70148714D01*
X135125535Y-70077285D01*
X135125535Y-69970142D01*
X135161250Y-69898714D01*
X135232678Y-69863000D01*
X135625535Y-69863000D01*
X135125535Y-69577285D02*
X135625535Y-69434428D01*
X135268392Y-69291571D01*
X135625535Y-69148714D01*
X135125535Y-69005857D01*
X136833035Y-91773714D02*
X136333035Y-91773714D01*
X136083035Y-91773714D02*
X136118750Y-91809428D01*
X136154464Y-91773714D01*
X136118750Y-91738000D01*
X136083035Y-91773714D01*
X136154464Y-91773714D01*
X136333035Y-91416571D02*
X136833035Y-91416571D01*
X136404464Y-91416571D02*
X136368750Y-91380857D01*
X136333035Y-91309428D01*
X136333035Y-91202285D01*
X136368750Y-91130857D01*
X136440178Y-91095142D01*
X136833035Y-91095142D01*
X136797321Y-90773714D02*
X136833035Y-90702285D01*
X136833035Y-90559428D01*
X136797321Y-90488000D01*
X136725892Y-90452285D01*
X136690178Y-90452285D01*
X136618750Y-90488000D01*
X136583035Y-90559428D01*
X136583035Y-90666571D01*
X136547321Y-90738000D01*
X136475892Y-90773714D01*
X136440178Y-90773714D01*
X136368750Y-90738000D01*
X136333035Y-90666571D01*
X136333035Y-90559428D01*
X136368750Y-90488000D01*
X136333035Y-90130857D02*
X137083035Y-90130857D01*
X136368750Y-90130857D02*
X136333035Y-90059428D01*
X136333035Y-89916571D01*
X136368750Y-89845142D01*
X136404464Y-89809428D01*
X136475892Y-89773714D01*
X136690178Y-89773714D01*
X136761607Y-89809428D01*
X136797321Y-89845142D01*
X136833035Y-89916571D01*
X136833035Y-90059428D01*
X136797321Y-90130857D01*
X136833035Y-89452285D02*
X136333035Y-89452285D01*
X136083035Y-89452285D02*
X136118750Y-89488000D01*
X136154464Y-89452285D01*
X136118750Y-89416571D01*
X136083035Y-89452285D01*
X136154464Y-89452285D01*
X136833035Y-89095142D02*
X136333035Y-89095142D01*
X136475892Y-89095142D02*
X136404464Y-89059428D01*
X136368750Y-89023714D01*
X136333035Y-88952285D01*
X136333035Y-88880857D01*
X136797321Y-88345142D02*
X136833035Y-88416571D01*
X136833035Y-88559428D01*
X136797321Y-88630857D01*
X136725892Y-88666571D01*
X136440178Y-88666571D01*
X136368750Y-88630857D01*
X136333035Y-88559428D01*
X136333035Y-88416571D01*
X136368750Y-88345142D01*
X136440178Y-88309428D01*
X136511607Y-88309428D01*
X136583035Y-88666571D01*
X136833035Y-87666571D02*
X136083035Y-87666571D01*
X136797321Y-87666571D02*
X136833035Y-87738000D01*
X136833035Y-87880857D01*
X136797321Y-87952285D01*
X136761607Y-87988000D01*
X136690178Y-88023714D01*
X136475892Y-88023714D01*
X136404464Y-87988000D01*
X136368750Y-87952285D01*
X136333035Y-87880857D01*
X136333035Y-87738000D01*
X136368750Y-87666571D01*
X136833035Y-86738000D02*
X136083035Y-86738000D01*
X136368750Y-86738000D02*
X136333035Y-86666571D01*
X136333035Y-86523714D01*
X136368750Y-86452285D01*
X136404464Y-86416571D01*
X136475892Y-86380857D01*
X136690178Y-86380857D01*
X136761607Y-86416571D01*
X136797321Y-86452285D01*
X136833035Y-86523714D01*
X136833035Y-86666571D01*
X136797321Y-86738000D01*
X136333035Y-86130857D02*
X136833035Y-85952285D01*
X136333035Y-85773714D02*
X136833035Y-85952285D01*
X137011607Y-86023714D01*
X137047321Y-86059428D01*
X137083035Y-86130857D01*
X136047321Y-84952285D02*
X137011607Y-85595142D01*
X136047321Y-84166571D02*
X137011607Y-84809428D01*
X136833035Y-83916571D02*
X136083035Y-83916571D01*
X136368750Y-83916571D02*
X136333035Y-83845142D01*
X136333035Y-83702285D01*
X136368750Y-83630857D01*
X136404464Y-83595142D01*
X136475892Y-83559428D01*
X136690178Y-83559428D01*
X136761607Y-83595142D01*
X136797321Y-83630857D01*
X136833035Y-83702285D01*
X136833035Y-83845142D01*
X136797321Y-83916571D01*
X136833035Y-82916571D02*
X136440178Y-82916571D01*
X136368750Y-82952285D01*
X136333035Y-83023714D01*
X136333035Y-83166571D01*
X136368750Y-83238000D01*
X136797321Y-82916571D02*
X136833035Y-82988000D01*
X136833035Y-83166571D01*
X136797321Y-83238000D01*
X136725892Y-83273714D01*
X136654464Y-83273714D01*
X136583035Y-83238000D01*
X136547321Y-83166571D01*
X136547321Y-82988000D01*
X136511607Y-82916571D01*
X136797321Y-82595142D02*
X136833035Y-82523714D01*
X136833035Y-82380857D01*
X136797321Y-82309428D01*
X136725892Y-82273714D01*
X136690178Y-82273714D01*
X136618750Y-82309428D01*
X136583035Y-82380857D01*
X136583035Y-82488000D01*
X136547321Y-82559428D01*
X136475892Y-82595142D01*
X136440178Y-82595142D01*
X136368750Y-82559428D01*
X136333035Y-82488000D01*
X136333035Y-82380857D01*
X136368750Y-82309428D01*
X136797321Y-81666571D02*
X136833035Y-81738000D01*
X136833035Y-81880857D01*
X136797321Y-81952285D01*
X136725892Y-81988000D01*
X136440178Y-81988000D01*
X136368750Y-81952285D01*
X136333035Y-81880857D01*
X136333035Y-81738000D01*
X136368750Y-81666571D01*
X136440178Y-81630857D01*
X136511607Y-81630857D01*
X136583035Y-81988000D01*
X136833035Y-80988000D02*
X136083035Y-80988000D01*
X136797321Y-80988000D02*
X136833035Y-81059428D01*
X136833035Y-81202285D01*
X136797321Y-81273714D01*
X136761607Y-81309428D01*
X136690178Y-81345142D01*
X136475892Y-81345142D01*
X136404464Y-81309428D01*
X136368750Y-81273714D01*
X136333035Y-81202285D01*
X136333035Y-81059428D01*
X136368750Y-80988000D01*
X136833035Y-79952285D02*
X136797321Y-80023714D01*
X136761607Y-80059428D01*
X136690178Y-80095142D01*
X136475892Y-80095142D01*
X136404464Y-80059428D01*
X136368750Y-80023714D01*
X136333035Y-79952285D01*
X136333035Y-79845142D01*
X136368750Y-79773714D01*
X136404464Y-79738000D01*
X136475892Y-79702285D01*
X136690178Y-79702285D01*
X136761607Y-79738000D01*
X136797321Y-79773714D01*
X136833035Y-79845142D01*
X136833035Y-79952285D01*
X136333035Y-79380857D02*
X136833035Y-79380857D01*
X136404464Y-79380857D02*
X136368750Y-79345142D01*
X136333035Y-79273714D01*
X136333035Y-79166571D01*
X136368750Y-79095142D01*
X136440178Y-79059428D01*
X136833035Y-79059428D01*
X136333035Y-78238000D02*
X136333035Y-77952285D01*
X136083035Y-78130857D02*
X136725892Y-78130857D01*
X136797321Y-78095142D01*
X136833035Y-78023714D01*
X136833035Y-77952285D01*
X136833035Y-77702285D02*
X136083035Y-77702285D01*
X136833035Y-77380857D02*
X136440178Y-77380857D01*
X136368750Y-77416571D01*
X136333035Y-77488000D01*
X136333035Y-77595142D01*
X136368750Y-77666571D01*
X136404464Y-77702285D01*
X136797321Y-76738000D02*
X136833035Y-76809428D01*
X136833035Y-76952285D01*
X136797321Y-77023714D01*
X136725892Y-77059428D01*
X136440178Y-77059428D01*
X136368750Y-77023714D01*
X136333035Y-76952285D01*
X136333035Y-76809428D01*
X136368750Y-76738000D01*
X136440178Y-76702285D01*
X136511607Y-76702285D01*
X136583035Y-77059428D01*
X136333035Y-75809428D02*
X137083035Y-75809428D01*
X136368750Y-75809428D02*
X136333035Y-75738000D01*
X136333035Y-75595142D01*
X136368750Y-75523714D01*
X136404464Y-75488000D01*
X136475892Y-75452285D01*
X136690178Y-75452285D01*
X136761607Y-75488000D01*
X136797321Y-75523714D01*
X136833035Y-75595142D01*
X136833035Y-75738000D01*
X136797321Y-75809428D01*
X136833035Y-75130857D02*
X136083035Y-75130857D01*
X136833035Y-74809428D02*
X136440178Y-74809428D01*
X136368750Y-74845142D01*
X136333035Y-74916571D01*
X136333035Y-75023714D01*
X136368750Y-75095142D01*
X136404464Y-75130857D01*
X136833035Y-74130857D02*
X136440178Y-74130857D01*
X136368750Y-74166571D01*
X136333035Y-74238000D01*
X136333035Y-74380857D01*
X136368750Y-74452285D01*
X136797321Y-74130857D02*
X136833035Y-74202285D01*
X136833035Y-74380857D01*
X136797321Y-74452285D01*
X136725892Y-74488000D01*
X136654464Y-74488000D01*
X136583035Y-74452285D01*
X136547321Y-74380857D01*
X136547321Y-74202285D01*
X136511607Y-74130857D01*
X136333035Y-73773714D02*
X136833035Y-73773714D01*
X136404464Y-73773714D02*
X136368750Y-73738000D01*
X136333035Y-73666571D01*
X136333035Y-73559428D01*
X136368750Y-73488000D01*
X136440178Y-73452285D01*
X136833035Y-73452285D01*
X136333035Y-73202285D02*
X136333035Y-72916571D01*
X136083035Y-73095142D02*
X136725892Y-73095142D01*
X136797321Y-73059428D01*
X136833035Y-72988000D01*
X136833035Y-72916571D01*
X136833035Y-72559428D02*
X136797321Y-72630857D01*
X136761607Y-72666571D01*
X136690178Y-72702285D01*
X136475892Y-72702285D01*
X136404464Y-72666571D01*
X136368750Y-72630857D01*
X136333035Y-72559428D01*
X136333035Y-72452285D01*
X136368750Y-72380857D01*
X136404464Y-72345142D01*
X136475892Y-72309428D01*
X136690178Y-72309428D01*
X136761607Y-72345142D01*
X136797321Y-72380857D01*
X136833035Y-72452285D01*
X136833035Y-72559428D01*
X136833035Y-71988000D02*
X136333035Y-71988000D01*
X136404464Y-71988000D02*
X136368750Y-71952285D01*
X136333035Y-71880857D01*
X136333035Y-71773714D01*
X136368750Y-71702285D01*
X136440178Y-71666571D01*
X136833035Y-71666571D01*
X136440178Y-71666571D02*
X136368750Y-71630857D01*
X136333035Y-71559428D01*
X136333035Y-71452285D01*
X136368750Y-71380857D01*
X136440178Y-71345142D01*
X136833035Y-71345142D01*
X136833035Y-70416571D02*
X136083035Y-70416571D01*
X136368750Y-70416571D02*
X136333035Y-70345142D01*
X136333035Y-70202285D01*
X136368750Y-70130857D01*
X136404464Y-70095142D01*
X136475892Y-70059428D01*
X136690178Y-70059428D01*
X136761607Y-70095142D01*
X136797321Y-70130857D01*
X136833035Y-70202285D01*
X136833035Y-70345142D01*
X136797321Y-70416571D01*
X136333035Y-69809428D02*
X136833035Y-69630857D01*
X136333035Y-69452285D02*
X136833035Y-69630857D01*
X137011607Y-69702285D01*
X137047321Y-69738000D01*
X137083035Y-69809428D01*
X136833035Y-68595142D02*
X136083035Y-68595142D01*
X136368750Y-68595142D02*
X136333035Y-68523714D01*
X136333035Y-68380857D01*
X136368750Y-68309428D01*
X136404464Y-68273714D01*
X136475892Y-68238000D01*
X136690178Y-68238000D01*
X136761607Y-68273714D01*
X136797321Y-68309428D01*
X136833035Y-68380857D01*
X136833035Y-68523714D01*
X136797321Y-68595142D01*
X136833035Y-67916571D02*
X136333035Y-67916571D01*
X136475892Y-67916571D02*
X136404464Y-67880857D01*
X136368750Y-67845142D01*
X136333035Y-67773714D01*
X136333035Y-67702285D01*
X136833035Y-67345142D02*
X136797321Y-67416571D01*
X136761607Y-67452285D01*
X136690178Y-67488000D01*
X136475892Y-67488000D01*
X136404464Y-67452285D01*
X136368750Y-67416571D01*
X136333035Y-67345142D01*
X136333035Y-67238000D01*
X136368750Y-67166571D01*
X136404464Y-67130857D01*
X136475892Y-67095142D01*
X136690178Y-67095142D01*
X136761607Y-67130857D01*
X136797321Y-67166571D01*
X136833035Y-67238000D01*
X136833035Y-67345142D01*
X136833035Y-66666571D02*
X136797321Y-66738000D01*
X136761607Y-66773714D01*
X136690178Y-66809428D01*
X136475892Y-66809428D01*
X136404464Y-66773714D01*
X136368750Y-66738000D01*
X136333035Y-66666571D01*
X136333035Y-66559428D01*
X136368750Y-66488000D01*
X136404464Y-66452285D01*
X136475892Y-66416571D01*
X136690178Y-66416571D01*
X136761607Y-66452285D01*
X136797321Y-66488000D01*
X136833035Y-66559428D01*
X136833035Y-66666571D01*
X136833035Y-66095142D02*
X136333035Y-66095142D01*
X136404464Y-66095142D02*
X136368750Y-66059428D01*
X136333035Y-65988000D01*
X136333035Y-65880857D01*
X136368750Y-65809428D01*
X136440178Y-65773714D01*
X136833035Y-65773714D01*
X136440178Y-65773714D02*
X136368750Y-65738000D01*
X136333035Y-65666571D01*
X136333035Y-65559428D01*
X136368750Y-65488000D01*
X136440178Y-65452285D01*
X136833035Y-65452285D01*
X121427631Y-91089264D02*
X121389536Y-91127360D01*
X121275250Y-91203550D01*
X121199060Y-91241645D01*
X121084774Y-91279741D01*
X120894298Y-91317836D01*
X120741917Y-91317836D01*
X120551441Y-91279741D01*
X120437155Y-91241645D01*
X120360965Y-91203550D01*
X120246679Y-91127360D01*
X120208584Y-91089264D01*
X120818107Y-90784502D02*
X120818107Y-90174979D01*
X121427631Y-89870217D02*
X121389536Y-89832121D01*
X121275250Y-89755931D01*
X121199060Y-89717836D01*
X121084774Y-89679741D01*
X120894298Y-89641645D01*
X120741917Y-89641645D01*
X120551441Y-89679741D01*
X120437155Y-89717836D01*
X120360965Y-89755931D01*
X120246679Y-89832121D01*
X120208584Y-89870217D01*
X121427631Y-93289264D02*
X121389536Y-93327360D01*
X121275250Y-93403550D01*
X121199060Y-93441645D01*
X121084774Y-93479741D01*
X120894298Y-93517836D01*
X120741917Y-93517836D01*
X120551441Y-93479741D01*
X120437155Y-93441645D01*
X120360965Y-93403550D01*
X120246679Y-93327360D01*
X120208584Y-93289264D01*
X120818107Y-92984502D02*
X120818107Y-92374979D01*
X121122869Y-92679741D02*
X120513345Y-92679741D01*
X121427631Y-92070217D02*
X121389536Y-92032121D01*
X121275250Y-91955931D01*
X121199060Y-91917836D01*
X121084774Y-91879741D01*
X120894298Y-91841645D01*
X120741917Y-91841645D01*
X120551441Y-91879741D01*
X120437155Y-91917836D01*
X120360965Y-91955931D01*
X120246679Y-92032121D01*
X120208584Y-92070217D01*
D12*
X130257408Y-82301294D02*
X130257408Y-82501294D01*
X130571694Y-82501294D02*
X129971694Y-82501294D01*
X129971694Y-82215579D01*
X129971694Y-82044151D02*
X129971694Y-81644151D01*
X130571694Y-81901294D01*
X137636437Y-65541588D02*
X137636437Y-65198731D01*
X138236437Y-65370160D02*
X137636437Y-65370160D01*
X137636437Y-65055874D02*
X138236437Y-64655874D01*
X137636437Y-64655874D02*
X138236437Y-65055874D01*
X130232421Y-89949564D02*
X130260993Y-89863849D01*
X130289564Y-89835278D01*
X130346707Y-89806707D01*
X130432421Y-89806707D01*
X130489564Y-89835278D01*
X130518136Y-89863849D01*
X130546707Y-89920992D01*
X130546707Y-90149564D01*
X129946707Y-90149564D01*
X129946707Y-89949564D01*
X129975279Y-89892421D01*
X130003850Y-89863849D01*
X130060993Y-89835278D01*
X130118136Y-89835278D01*
X130175279Y-89863849D01*
X130203850Y-89892421D01*
X130232421Y-89949564D01*
X130232421Y-90149564D01*
X130003850Y-89578135D02*
X129975279Y-89549564D01*
X129946707Y-89492421D01*
X129946707Y-89349564D01*
X129975279Y-89292421D01*
X130003850Y-89263849D01*
X130060993Y-89235278D01*
X130118136Y-89235278D01*
X130203850Y-89263849D01*
X130546707Y-89606707D01*
X130546707Y-89235278D01*
X130239215Y-87414669D02*
X130267787Y-87328954D01*
X130296358Y-87300383D01*
X130353501Y-87271812D01*
X130439215Y-87271812D01*
X130496358Y-87300383D01*
X130524930Y-87328954D01*
X130553501Y-87386097D01*
X130553501Y-87614669D01*
X129953501Y-87614669D01*
X129953501Y-87414669D01*
X129982073Y-87357526D01*
X130010644Y-87328954D01*
X130067787Y-87300383D01*
X130124930Y-87300383D01*
X130182073Y-87328954D01*
X130210644Y-87357526D01*
X130239215Y-87414669D01*
X130239215Y-87614669D01*
X129953501Y-87071812D02*
X129953501Y-86700383D01*
X130182073Y-86900383D01*
X130182073Y-86814669D01*
X130210644Y-86757526D01*
X130239215Y-86728954D01*
X130296358Y-86700383D01*
X130439215Y-86700383D01*
X130496358Y-86728954D01*
X130524930Y-86757526D01*
X130553501Y-86814669D01*
X130553501Y-86986097D01*
X130524930Y-87043240D01*
X130496358Y-87071812D01*
X137671844Y-70123115D02*
X137643272Y-70180258D01*
X137643272Y-70265973D01*
X137671844Y-70351687D01*
X137728986Y-70408830D01*
X137786129Y-70437401D01*
X137900415Y-70465973D01*
X137986129Y-70465973D01*
X138100415Y-70437401D01*
X138157558Y-70408830D01*
X138214701Y-70351687D01*
X138243272Y-70265973D01*
X138243272Y-70208830D01*
X138214701Y-70123115D01*
X138186129Y-70094544D01*
X137986129Y-70094544D01*
X137986129Y-70208830D01*
X138243272Y-69837401D02*
X137643272Y-69837401D01*
X138243272Y-69494544D01*
X137643272Y-69494544D01*
X138243272Y-69208830D02*
X137643272Y-69208830D01*
X137643272Y-69065973D01*
X137671844Y-68980258D01*
X137728986Y-68923115D01*
X137786129Y-68894544D01*
X137900415Y-68865973D01*
X137986129Y-68865973D01*
X138100415Y-68894544D01*
X138157558Y-68923115D01*
X138214701Y-68980258D01*
X138243272Y-69065973D01*
X138243272Y-69208830D01*
X130236408Y-77210719D02*
X130236408Y-77410719D01*
X130550694Y-77410719D02*
X129950694Y-77410719D01*
X129950694Y-77125004D01*
X129950694Y-76610719D02*
X129950694Y-76896433D01*
X130236408Y-76925004D01*
X130207837Y-76896433D01*
X130179266Y-76839290D01*
X130179266Y-76696433D01*
X130207837Y-76639290D01*
X130236408Y-76610719D01*
X130293551Y-76582147D01*
X130436408Y-76582147D01*
X130493551Y-76610719D01*
X130522123Y-76639290D01*
X130550694Y-76696433D01*
X130550694Y-76839290D01*
X130522123Y-76896433D01*
X130493551Y-76925004D01*
X138180958Y-77726531D02*
X138209529Y-77640817D01*
X138209529Y-77497960D01*
X138180958Y-77440817D01*
X138152386Y-77412246D01*
X138095243Y-77383674D01*
X138038101Y-77383674D01*
X137980958Y-77412246D01*
X137952386Y-77440817D01*
X137923815Y-77497960D01*
X137895243Y-77612246D01*
X137866672Y-77669388D01*
X137838101Y-77697960D01*
X137780958Y-77726531D01*
X137723815Y-77726531D01*
X137666672Y-77697960D01*
X137638101Y-77669388D01*
X137609529Y-77612246D01*
X137609529Y-77469388D01*
X137638101Y-77383674D01*
X138152386Y-76783674D02*
X138180958Y-76812246D01*
X138209529Y-76897960D01*
X138209529Y-76955103D01*
X138180958Y-77040817D01*
X138123815Y-77097960D01*
X138066672Y-77126531D01*
X137952386Y-77155103D01*
X137866672Y-77155103D01*
X137752386Y-77126531D01*
X137695243Y-77097960D01*
X137638101Y-77040817D01*
X137609529Y-76955103D01*
X137609529Y-76897960D01*
X137638101Y-76812246D01*
X137666672Y-76783674D01*
X138209529Y-76240817D02*
X138209529Y-76526531D01*
X137609529Y-76526531D01*
X130239215Y-84874669D02*
X130267787Y-84788954D01*
X130296358Y-84760383D01*
X130353501Y-84731812D01*
X130439215Y-84731812D01*
X130496358Y-84760383D01*
X130524930Y-84788954D01*
X130553501Y-84846097D01*
X130553501Y-85074669D01*
X129953501Y-85074669D01*
X129953501Y-84874669D01*
X129982073Y-84817526D01*
X130010644Y-84788954D01*
X130067787Y-84760383D01*
X130124930Y-84760383D01*
X130182073Y-84788954D01*
X130210644Y-84817526D01*
X130239215Y-84874669D01*
X130239215Y-85074669D01*
X130553501Y-84160383D02*
X130553501Y-84503240D01*
X130553501Y-84331812D02*
X129953501Y-84331812D01*
X130039215Y-84388954D01*
X130096358Y-84446097D01*
X130124930Y-84503240D01*
X137898050Y-87587624D02*
X137898050Y-87387624D01*
X138212336Y-87301910D02*
X138212336Y-87587624D01*
X137612336Y-87587624D01*
X137612336Y-87301910D01*
X137612336Y-86787624D02*
X137612336Y-86901910D01*
X137640908Y-86959053D01*
X137669479Y-86987624D01*
X137755193Y-87044767D01*
X137869479Y-87073339D01*
X138098050Y-87073339D01*
X138155193Y-87044767D01*
X138183765Y-87016196D01*
X138212336Y-86959053D01*
X138212336Y-86844767D01*
X138183765Y-86787624D01*
X138155193Y-86759053D01*
X138098050Y-86730481D01*
X137955193Y-86730481D01*
X137898050Y-86759053D01*
X137869479Y-86787624D01*
X137840908Y-86844767D01*
X137840908Y-86959053D01*
X137869479Y-87016196D01*
X137898050Y-87044767D01*
X137955193Y-87073339D01*
X138209529Y-79995103D02*
X137609529Y-79995103D01*
X137609529Y-79852246D01*
X137638101Y-79766531D01*
X137695243Y-79709388D01*
X137752386Y-79680817D01*
X137866672Y-79652246D01*
X137952386Y-79652246D01*
X138066672Y-79680817D01*
X138123815Y-79709388D01*
X138180958Y-79766531D01*
X138209529Y-79852246D01*
X138209529Y-79995103D01*
X137809529Y-79137960D02*
X138209529Y-79137960D01*
X137580958Y-79280817D02*
X138009529Y-79423674D01*
X138009529Y-79052246D01*
X130013009Y-67831588D02*
X129984437Y-67888731D01*
X129984437Y-67974446D01*
X130013009Y-68060160D01*
X130070151Y-68117303D01*
X130127294Y-68145874D01*
X130241580Y-68174446D01*
X130327294Y-68174446D01*
X130441580Y-68145874D01*
X130498723Y-68117303D01*
X130555866Y-68060160D01*
X130584437Y-67974446D01*
X130584437Y-67917303D01*
X130555866Y-67831588D01*
X130527294Y-67803017D01*
X130327294Y-67803017D01*
X130327294Y-67917303D01*
X130584437Y-67545874D02*
X129984437Y-67545874D01*
X130584437Y-67203017D01*
X129984437Y-67203017D01*
X130584437Y-66917303D02*
X129984437Y-66917303D01*
X129984437Y-66774446D01*
X130013009Y-66688731D01*
X130070151Y-66631588D01*
X130127294Y-66603017D01*
X130241580Y-66574446D01*
X130327294Y-66574446D01*
X130441580Y-66603017D01*
X130498723Y-66631588D01*
X130555866Y-66688731D01*
X130584437Y-66774446D01*
X130584437Y-66917303D01*
X137891256Y-92491091D02*
X137919828Y-92405376D01*
X137948399Y-92376805D01*
X138005542Y-92348234D01*
X138091256Y-92348234D01*
X138148399Y-92376805D01*
X138176971Y-92405376D01*
X138205542Y-92462519D01*
X138205542Y-92691091D01*
X137605542Y-92691091D01*
X137605542Y-92491091D01*
X137634114Y-92433948D01*
X137662685Y-92405376D01*
X137719828Y-92376805D01*
X137776971Y-92376805D01*
X137834114Y-92405376D01*
X137862685Y-92433948D01*
X137891256Y-92491091D01*
X137891256Y-92691091D01*
X137605542Y-91805376D02*
X137605542Y-92091091D01*
X137891256Y-92119662D01*
X137862685Y-92091091D01*
X137834114Y-92033948D01*
X137834114Y-91891091D01*
X137862685Y-91833948D01*
X137891256Y-91805376D01*
X137948399Y-91776805D01*
X138091256Y-91776805D01*
X138148399Y-91805376D01*
X138176971Y-91833948D01*
X138205542Y-91891091D01*
X138205542Y-92033948D01*
X138176971Y-92091091D01*
X138148399Y-92119662D01*
X129957488Y-72735824D02*
X130557488Y-72535824D01*
X129957488Y-72335824D01*
X130500345Y-71792966D02*
X130528917Y-71821538D01*
X130557488Y-71907252D01*
X130557488Y-71964395D01*
X130528917Y-72050109D01*
X130471774Y-72107252D01*
X130414631Y-72135824D01*
X130300345Y-72164395D01*
X130214631Y-72164395D01*
X130100345Y-72135824D01*
X130043202Y-72107252D01*
X129986060Y-72050109D01*
X129957488Y-71964395D01*
X129957488Y-71907252D01*
X129986060Y-71821538D01*
X130014631Y-71792966D01*
X130500345Y-71192966D02*
X130528917Y-71221538D01*
X130557488Y-71307252D01*
X130557488Y-71364395D01*
X130528917Y-71450109D01*
X130471774Y-71507252D01*
X130414631Y-71535824D01*
X130300345Y-71564395D01*
X130214631Y-71564395D01*
X130100345Y-71535824D01*
X130043202Y-71507252D01*
X129986060Y-71450109D01*
X129957488Y-71364395D01*
X129957488Y-71307252D01*
X129986060Y-71221538D01*
X130014631Y-71192966D01*
X138173386Y-82202821D02*
X138201958Y-82231392D01*
X138230529Y-82317106D01*
X138230529Y-82374249D01*
X138201958Y-82459963D01*
X138144815Y-82517106D01*
X138087672Y-82545678D01*
X137973386Y-82574249D01*
X137887672Y-82574249D01*
X137773386Y-82545678D01*
X137716243Y-82517106D01*
X137659101Y-82459963D01*
X137630529Y-82374249D01*
X137630529Y-82317106D01*
X137659101Y-82231392D01*
X137687672Y-82202821D01*
X137630529Y-81688535D02*
X137630529Y-81802821D01*
X137659101Y-81859963D01*
X137687672Y-81888535D01*
X137773386Y-81945678D01*
X137887672Y-81974249D01*
X138116243Y-81974249D01*
X138173386Y-81945678D01*
X138201958Y-81917106D01*
X138230529Y-81859963D01*
X138230529Y-81745678D01*
X138201958Y-81688535D01*
X138173386Y-81659963D01*
X138116243Y-81631392D01*
X137973386Y-81631392D01*
X137916243Y-81659963D01*
X137887672Y-81688535D01*
X137859101Y-81745678D01*
X137859101Y-81859963D01*
X137887672Y-81917106D01*
X137916243Y-81945678D01*
X137973386Y-81974249D01*
X138212336Y-85076196D02*
X137612336Y-85076196D01*
X137612336Y-84933339D01*
X137640908Y-84847624D01*
X137698050Y-84790481D01*
X137755193Y-84761910D01*
X137869479Y-84733339D01*
X137955193Y-84733339D01*
X138069479Y-84761910D01*
X138126622Y-84790481D01*
X138183765Y-84847624D01*
X138212336Y-84933339D01*
X138212336Y-85076196D01*
X137612336Y-84533339D02*
X137612336Y-84133339D01*
X138212336Y-84390481D01*
X130232421Y-92489564D02*
X130260993Y-92403849D01*
X130289564Y-92375278D01*
X130346707Y-92346707D01*
X130432421Y-92346707D01*
X130489564Y-92375278D01*
X130518136Y-92403849D01*
X130546707Y-92460992D01*
X130546707Y-92689564D01*
X129946707Y-92689564D01*
X129946707Y-92489564D01*
X129975279Y-92432421D01*
X130003850Y-92403849D01*
X130060993Y-92375278D01*
X130118136Y-92375278D01*
X130175279Y-92403849D01*
X130203850Y-92432421D01*
X130232421Y-92489564D01*
X130232421Y-92689564D01*
X129946707Y-91832421D02*
X129946707Y-91946707D01*
X129975279Y-92003849D01*
X130003850Y-92032421D01*
X130089564Y-92089564D01*
X130203850Y-92118135D01*
X130432421Y-92118135D01*
X130489564Y-92089564D01*
X130518136Y-92060992D01*
X130546707Y-92003849D01*
X130546707Y-91889564D01*
X130518136Y-91832421D01*
X130489564Y-91803849D01*
X130432421Y-91775278D01*
X130289564Y-91775278D01*
X130232421Y-91803849D01*
X130203850Y-91832421D01*
X130175279Y-91889564D01*
X130175279Y-92003849D01*
X130203850Y-92060992D01*
X130232421Y-92089564D01*
X130289564Y-92118135D01*
X130236408Y-79750719D02*
X130236408Y-79950719D01*
X130550694Y-79950719D02*
X129950694Y-79950719D01*
X129950694Y-79665004D01*
X129950694Y-79179290D02*
X129950694Y-79293576D01*
X129979266Y-79350719D01*
X130007837Y-79379290D01*
X130093551Y-79436433D01*
X130207837Y-79465004D01*
X130436408Y-79465004D01*
X130493551Y-79436433D01*
X130522123Y-79407861D01*
X130550694Y-79350719D01*
X130550694Y-79236433D01*
X130522123Y-79179290D01*
X130493551Y-79150719D01*
X130436408Y-79122147D01*
X130293551Y-79122147D01*
X130236408Y-79150719D01*
X130207837Y-79179290D01*
X130179266Y-79236433D01*
X130179266Y-79350719D01*
X130207837Y-79407861D01*
X130236408Y-79436433D01*
X130293551Y-79465004D01*
X137891256Y-89951091D02*
X137919828Y-89865376D01*
X137948399Y-89836805D01*
X138005542Y-89808234D01*
X138091256Y-89808234D01*
X138148399Y-89836805D01*
X138176971Y-89865376D01*
X138205542Y-89922519D01*
X138205542Y-90151091D01*
X137605542Y-90151091D01*
X137605542Y-89951091D01*
X137634114Y-89893948D01*
X137662685Y-89865376D01*
X137719828Y-89836805D01*
X137776971Y-89836805D01*
X137834114Y-89865376D01*
X137862685Y-89893948D01*
X137891256Y-89951091D01*
X137891256Y-90151091D01*
X137805542Y-89293948D02*
X138205542Y-89293948D01*
X137576971Y-89436805D02*
X138005542Y-89579662D01*
X138005542Y-89208234D01*
X130584437Y-65698731D02*
X130298723Y-65898731D01*
X130584437Y-66041588D02*
X129984437Y-66041588D01*
X129984437Y-65813017D01*
X130013009Y-65755874D01*
X130041580Y-65727303D01*
X130098723Y-65698731D01*
X130184437Y-65698731D01*
X130241580Y-65727303D01*
X130270151Y-65755874D01*
X130298723Y-65813017D01*
X130298723Y-66041588D01*
X130413009Y-65470160D02*
X130413009Y-65184446D01*
X130584437Y-65527303D02*
X129984437Y-65327303D01*
X130584437Y-65127303D01*
X129984437Y-64984446D02*
X130584437Y-64841588D01*
X130155866Y-64727303D01*
X130584437Y-64613017D01*
X129984437Y-64470160D01*
X138187752Y-75205922D02*
X138216323Y-75120208D01*
X138216323Y-74977351D01*
X138187752Y-74920208D01*
X138159180Y-74891636D01*
X138102037Y-74863065D01*
X138044895Y-74863065D01*
X137987752Y-74891636D01*
X137959180Y-74920208D01*
X137930609Y-74977351D01*
X137902037Y-75091636D01*
X137873466Y-75148779D01*
X137844895Y-75177351D01*
X137787752Y-75205922D01*
X137730609Y-75205922D01*
X137673466Y-75177351D01*
X137644895Y-75148779D01*
X137616323Y-75091636D01*
X137616323Y-74948779D01*
X137644895Y-74863065D01*
X138216323Y-74605922D02*
X137616323Y-74605922D01*
X137616323Y-74463065D01*
X137644895Y-74377351D01*
X137702037Y-74320208D01*
X137759180Y-74291636D01*
X137873466Y-74263065D01*
X137959180Y-74263065D01*
X138073466Y-74291636D01*
X138130609Y-74320208D01*
X138187752Y-74377351D01*
X138216323Y-74463065D01*
X138216323Y-74605922D01*
X138044895Y-74034493D02*
X138044895Y-73748779D01*
X138216323Y-74091636D02*
X137616323Y-73891636D01*
X138216323Y-73691636D01*
X130243202Y-74675824D02*
X130243202Y-74875824D01*
X130557488Y-74875824D02*
X129957488Y-74875824D01*
X129957488Y-74590109D01*
X130157488Y-74104395D02*
X130557488Y-74104395D01*
X129928917Y-74247252D02*
X130357488Y-74390109D01*
X130357488Y-74018681D01*
X137644895Y-72394493D02*
X137616323Y-72451636D01*
X137616323Y-72537351D01*
X137644895Y-72623065D01*
X137702037Y-72680208D01*
X137759180Y-72708779D01*
X137873466Y-72737351D01*
X137959180Y-72737351D01*
X138073466Y-72708779D01*
X138130609Y-72680208D01*
X138187752Y-72623065D01*
X138216323Y-72537351D01*
X138216323Y-72480208D01*
X138187752Y-72394493D01*
X138159180Y-72365922D01*
X137959180Y-72365922D01*
X137959180Y-72480208D01*
X138216323Y-72108779D02*
X137616323Y-72108779D01*
X138216323Y-71765922D01*
X137616323Y-71765922D01*
X138216323Y-71480208D02*
X137616323Y-71480208D01*
X137616323Y-71337351D01*
X137644895Y-71251636D01*
X137702037Y-71194493D01*
X137759180Y-71165922D01*
X137873466Y-71137351D01*
X137959180Y-71137351D01*
X138073466Y-71165922D01*
X138130609Y-71194493D01*
X138187752Y-71251636D01*
X138216323Y-71337351D01*
X138216323Y-71480208D01*
X138243272Y-67475973D02*
X137957558Y-67675973D01*
X138243272Y-67818830D02*
X137643272Y-67818830D01*
X137643272Y-67590258D01*
X137671844Y-67533115D01*
X137700415Y-67504544D01*
X137757558Y-67475973D01*
X137843272Y-67475973D01*
X137900415Y-67504544D01*
X137928986Y-67533115D01*
X137957558Y-67590258D01*
X137957558Y-67818830D01*
X137643272Y-67275973D02*
X138243272Y-66875973D01*
X137643272Y-66875973D02*
X138243272Y-67275973D01*
X130584437Y-69993017D02*
X130298723Y-70193017D01*
X130584437Y-70335874D02*
X129984437Y-70335874D01*
X129984437Y-70107303D01*
X130013009Y-70050160D01*
X130041580Y-70021588D01*
X130098723Y-69993017D01*
X130184437Y-69993017D01*
X130241580Y-70021588D01*
X130270151Y-70050160D01*
X130298723Y-70107303D01*
X130298723Y-70335874D01*
X130555866Y-69764446D02*
X130584437Y-69678731D01*
X130584437Y-69535874D01*
X130555866Y-69478731D01*
X130527294Y-69450160D01*
X130470151Y-69421588D01*
X130413009Y-69421588D01*
X130355866Y-69450160D01*
X130327294Y-69478731D01*
X130298723Y-69535874D01*
X130270151Y-69650160D01*
X130241580Y-69707303D01*
X130213009Y-69735874D01*
X130155866Y-69764446D01*
X130098723Y-69764446D01*
X130041580Y-69735874D01*
X130013009Y-69707303D01*
X129984437Y-69650160D01*
X129984437Y-69507303D01*
X130013009Y-69421588D01*
X129984437Y-69250160D02*
X129984437Y-68907303D01*
X130584437Y-69078731D02*
X129984437Y-69078731D01*
D11*
X87733214Y-65698500D02*
X88733214Y-65698500D01*
X87780833Y-65698500D02*
X87733214Y-65603261D01*
X87733214Y-65412785D01*
X87780833Y-65317547D01*
X87828452Y-65269928D01*
X87923690Y-65222309D01*
X88209404Y-65222309D01*
X88304642Y-65269928D01*
X88352261Y-65317547D01*
X88399880Y-65412785D01*
X88399880Y-65603261D01*
X88352261Y-65698500D01*
X87733214Y-64365166D02*
X88399880Y-64365166D01*
X87733214Y-64793738D02*
X88257023Y-64793738D01*
X88352261Y-64746119D01*
X88399880Y-64650880D01*
X88399880Y-64508023D01*
X88352261Y-64412785D01*
X88304642Y-64365166D01*
X88352261Y-63460404D02*
X88399880Y-63555642D01*
X88399880Y-63746119D01*
X88352261Y-63841357D01*
X88304642Y-63888976D01*
X88209404Y-63936595D01*
X87923690Y-63936595D01*
X87828452Y-63888976D01*
X87780833Y-63841357D01*
X87733214Y-63746119D01*
X87733214Y-63555642D01*
X87780833Y-63460404D01*
X88399880Y-63031833D02*
X87399880Y-63031833D01*
X88018928Y-62936595D02*
X88399880Y-62650880D01*
X87733214Y-62650880D02*
X88114166Y-63031833D01*
X87796714Y-53744500D02*
X87796714Y-53363547D01*
X87463380Y-53601642D02*
X88320523Y-53601642D01*
X88415761Y-53554023D01*
X88463380Y-53458785D01*
X88463380Y-53363547D01*
X88415761Y-52649261D02*
X88463380Y-52744500D01*
X88463380Y-52934976D01*
X88415761Y-53030214D01*
X88320523Y-53077833D01*
X87939571Y-53077833D01*
X87844333Y-53030214D01*
X87796714Y-52934976D01*
X87796714Y-52744500D01*
X87844333Y-52649261D01*
X87939571Y-52601642D01*
X88034809Y-52601642D01*
X88130047Y-53077833D01*
X87796714Y-52173071D02*
X88463380Y-52173071D01*
X87891952Y-52173071D02*
X87844333Y-52125452D01*
X87796714Y-52030214D01*
X87796714Y-51887357D01*
X87844333Y-51792119D01*
X87939571Y-51744500D01*
X88463380Y-51744500D01*
X87796714Y-51411166D02*
X87796714Y-51030214D01*
X87463380Y-51268309D02*
X88320523Y-51268309D01*
X88415761Y-51220690D01*
X88463380Y-51125452D01*
X88463380Y-51030214D01*
X88463380Y-50696880D02*
X87796714Y-50696880D01*
X87463380Y-50696880D02*
X87511000Y-50744500D01*
X87558619Y-50696880D01*
X87511000Y-50649261D01*
X87463380Y-50696880D01*
X87558619Y-50696880D01*
X87796714Y-50220690D02*
X88463380Y-50220690D01*
X87891952Y-50220690D02*
X87844333Y-50173071D01*
X87796714Y-50077833D01*
X87796714Y-49934976D01*
X87844333Y-49839738D01*
X87939571Y-49792119D01*
X88463380Y-49792119D01*
X87796714Y-48887357D02*
X88606238Y-48887357D01*
X88701476Y-48934976D01*
X88749095Y-48982595D01*
X88796714Y-49077833D01*
X88796714Y-49220690D01*
X88749095Y-49315928D01*
X88415761Y-48887357D02*
X88463380Y-48982595D01*
X88463380Y-49173071D01*
X88415761Y-49268309D01*
X88368142Y-49315928D01*
X88272904Y-49363547D01*
X87987190Y-49363547D01*
X87891952Y-49315928D01*
X87844333Y-49268309D01*
X87796714Y-49173071D01*
X87796714Y-48982595D01*
X87844333Y-48887357D01*
D13*
X125249009Y-63064446D02*
X125249009Y-93544446D01*
X140489009Y-93544446D02*
X143029009Y-93544446D01*
X127789009Y-63064446D02*
X127789009Y-93544446D01*
X143029009Y-63064446D02*
X143029009Y-93544446D01*
X140489009Y-63064446D02*
X143029009Y-63064446D01*
X125249009Y-63064446D02*
X127789009Y-63064446D01*
X127789009Y-93544446D02*
X125249009Y-93544446D01*
X140489009Y-63064446D02*
X140489009Y-93544446D01*
D14*
X94765046Y-38879865D02*
G75*
G03*
X90614500Y-37846000I-7008058J-19286185D01*
G01*
X80748955Y-77452135D02*
G75*
G03*
X84899500Y-78486000I7008051J19286154D01*
G01*
X87757000Y-47371000D02*
G75*
G03*
X86628615Y-47430136I-6J-10794921D01*
G01*
X68470866Y-51157952D02*
G75*
G03*
X67437000Y-55308500I19286117J-7008044D01*
G01*
X84899500Y-37846000D02*
G75*
G03*
X80748951Y-38879866I2857492J-20319971D01*
G01*
X86628615Y-68901864D02*
G75*
G03*
X87757000Y-68961000I1128379J10735785D01*
G01*
X88885385Y-47430136D02*
G75*
G03*
X87757000Y-47371000I-1128379J-10735785D01*
G01*
X87757000Y-68961000D02*
G75*
G03*
X88885385Y-68901864I6J10794921D01*
G01*
X108077000Y-55308500D02*
G75*
G03*
X107043136Y-51157956I-20319943J-2857484D01*
G01*
X67437000Y-61023500D02*
G75*
G03*
X68470866Y-65174048I20319983J2857496D01*
G01*
X107043135Y-65174046D02*
G75*
G03*
X108077000Y-61023500I-19286185J7008058D01*
G01*
X90614500Y-78486000D02*
G75*
G03*
X94765045Y-77452135I-2857506J20320019D01*
G01*
D15*
X86979282Y-72690575D02*
X87001985Y-72713438D01*
X87001985Y-72713438D02*
X87036464Y-72748969D01*
X87036464Y-72748969D02*
X87080733Y-72795061D01*
X87080733Y-72795061D02*
X87132800Y-72849607D01*
X87132800Y-72849607D02*
X87190679Y-72910501D01*
X87190679Y-72910501D02*
X87252378Y-72975636D01*
X87252378Y-72975636D02*
X87315911Y-73042906D01*
X87315911Y-73042906D02*
X87379286Y-73110204D01*
X87379286Y-73110204D02*
X87440516Y-73175423D01*
X87440516Y-73175423D02*
X87497612Y-73236458D01*
X87497612Y-73236458D02*
X87548584Y-73291201D01*
X87548584Y-73291201D02*
X87591444Y-73337546D01*
X87591444Y-73337546D02*
X87624202Y-73373386D01*
X87624202Y-73373386D02*
X87644870Y-73396615D01*
X87644870Y-73396615D02*
X87647163Y-73399306D01*
X87647163Y-73399306D02*
X87675464Y-73432941D01*
X87675464Y-73432941D02*
X87055450Y-73432941D01*
X87055450Y-73432941D02*
X86882100Y-73256872D01*
X86882100Y-73256872D02*
X86828358Y-73202129D01*
X86828358Y-73202129D02*
X86778075Y-73150616D01*
X86778075Y-73150616D02*
X86734259Y-73105436D01*
X86734259Y-73105436D02*
X86699913Y-73069690D01*
X86699913Y-73069690D02*
X86678045Y-73046481D01*
X86678045Y-73046481D02*
X86674868Y-73042989D01*
X86674868Y-73042989D02*
X86640986Y-73005174D01*
X86640986Y-73005174D02*
X86802021Y-72843830D01*
X86802021Y-72843830D02*
X86851734Y-72794375D01*
X86851734Y-72794375D02*
X86895958Y-72751050D01*
X86895958Y-72751050D02*
X86932105Y-72716337D01*
X86932105Y-72716337D02*
X86957587Y-72692717D01*
X86957587Y-72692717D02*
X86969816Y-72682669D01*
X86969816Y-72682669D02*
X86970347Y-72682486D01*
X86970347Y-72682486D02*
X86979282Y-72690575D01*
X86979282Y-72690575D02*
X86979282Y-72690575D01*
G36*
X86979282Y-72690575D02*
G01*
X87001985Y-72713438D01*
X87036464Y-72748969D01*
X87080733Y-72795061D01*
X87132800Y-72849607D01*
X87190679Y-72910501D01*
X87252378Y-72975636D01*
X87315911Y-73042906D01*
X87379286Y-73110204D01*
X87440516Y-73175423D01*
X87497612Y-73236458D01*
X87548584Y-73291201D01*
X87591444Y-73337546D01*
X87624202Y-73373386D01*
X87644870Y-73396615D01*
X87647163Y-73399306D01*
X87675464Y-73432941D01*
X87055450Y-73432941D01*
X86882100Y-73256872D01*
X86828358Y-73202129D01*
X86778075Y-73150616D01*
X86734259Y-73105436D01*
X86699913Y-73069690D01*
X86678045Y-73046481D01*
X86674868Y-73042989D01*
X86640986Y-73005174D01*
X86802021Y-72843830D01*
X86851734Y-72794375D01*
X86895958Y-72751050D01*
X86932105Y-72716337D01*
X86957587Y-72692717D01*
X86969816Y-72682669D01*
X86970347Y-72682486D01*
X86979282Y-72690575D01*
G37*
X86979282Y-72690575D02*
X87001985Y-72713438D01*
X87036464Y-72748969D01*
X87080733Y-72795061D01*
X87132800Y-72849607D01*
X87190679Y-72910501D01*
X87252378Y-72975636D01*
X87315911Y-73042906D01*
X87379286Y-73110204D01*
X87440516Y-73175423D01*
X87497612Y-73236458D01*
X87548584Y-73291201D01*
X87591444Y-73337546D01*
X87624202Y-73373386D01*
X87644870Y-73396615D01*
X87647163Y-73399306D01*
X87675464Y-73432941D01*
X87055450Y-73432941D01*
X86882100Y-73256872D01*
X86828358Y-73202129D01*
X86778075Y-73150616D01*
X86734259Y-73105436D01*
X86699913Y-73069690D01*
X86678045Y-73046481D01*
X86674868Y-73042989D01*
X86640986Y-73005174D01*
X86802021Y-72843830D01*
X86851734Y-72794375D01*
X86895958Y-72751050D01*
X86932105Y-72716337D01*
X86957587Y-72692717D01*
X86969816Y-72682669D01*
X86970347Y-72682486D01*
X86979282Y-72690575D01*
X86172502Y-72284044D02*
X86975448Y-71481344D01*
X86975448Y-71481344D02*
X87263816Y-71484438D01*
X87263816Y-71484438D02*
X87552184Y-71487531D01*
X87552184Y-71487531D02*
X86704960Y-72347668D01*
X86704960Y-72347668D02*
X86587035Y-72467391D01*
X86587035Y-72467391D02*
X86472236Y-72583940D01*
X86472236Y-72583940D02*
X86361782Y-72696080D01*
X86361782Y-72696080D02*
X86256890Y-72802573D01*
X86256890Y-72802573D02*
X86158778Y-72902184D01*
X86158778Y-72902184D02*
X86068663Y-72993677D01*
X86068663Y-72993677D02*
X85987764Y-73075814D01*
X85987764Y-73075814D02*
X85917297Y-73147359D01*
X85917297Y-73147359D02*
X85858481Y-73207077D01*
X85858481Y-73207077D02*
X85812534Y-73253731D01*
X85812534Y-73253731D02*
X85780673Y-73286084D01*
X85780673Y-73286084D02*
X85766892Y-73300080D01*
X85766892Y-73300080D02*
X85676048Y-73392356D01*
X85676048Y-73392356D02*
X85676048Y-70650486D01*
X85676048Y-70650486D02*
X86172502Y-70650486D01*
X86172502Y-70650486D02*
X86172502Y-72284044D01*
X86172502Y-72284044D02*
X86172502Y-72284044D01*
G36*
X86172502Y-72284044D02*
G01*
X86975448Y-71481344D01*
X87263816Y-71484438D01*
X87552184Y-71487531D01*
X86704960Y-72347668D01*
X86587035Y-72467391D01*
X86472236Y-72583940D01*
X86361782Y-72696080D01*
X86256890Y-72802573D01*
X86158778Y-72902184D01*
X86068663Y-72993677D01*
X85987764Y-73075814D01*
X85917297Y-73147359D01*
X85858481Y-73207077D01*
X85812534Y-73253731D01*
X85780673Y-73286084D01*
X85766892Y-73300080D01*
X85676048Y-73392356D01*
X85676048Y-70650486D01*
X86172502Y-70650486D01*
X86172502Y-72284044D01*
G37*
X86172502Y-72284044D02*
X86975448Y-71481344D01*
X87263816Y-71484438D01*
X87552184Y-71487531D01*
X86704960Y-72347668D01*
X86587035Y-72467391D01*
X86472236Y-72583940D01*
X86361782Y-72696080D01*
X86256890Y-72802573D01*
X86158778Y-72902184D01*
X86068663Y-72993677D01*
X85987764Y-73075814D01*
X85917297Y-73147359D01*
X85858481Y-73207077D01*
X85812534Y-73253731D01*
X85780673Y-73286084D01*
X85766892Y-73300080D01*
X85676048Y-73392356D01*
X85676048Y-70650486D01*
X86172502Y-70650486D01*
X86172502Y-72284044D01*
X88377536Y-71149827D02*
X88377728Y-71254067D01*
X88377728Y-71254067D02*
X88378217Y-71350812D01*
X88378217Y-71350812D02*
X88378967Y-71437698D01*
X88378967Y-71437698D02*
X88379943Y-71512360D01*
X88379943Y-71512360D02*
X88381112Y-71572435D01*
X88381112Y-71572435D02*
X88382439Y-71615558D01*
X88382439Y-71615558D02*
X88383888Y-71639365D01*
X88383888Y-71639365D02*
X88384796Y-71643395D01*
X88384796Y-71643395D02*
X88397227Y-71637081D01*
X88397227Y-71637081D02*
X88422073Y-71620738D01*
X88422073Y-71620738D02*
X88446207Y-71603536D01*
X88446207Y-71603536D02*
X88560904Y-71532814D01*
X88560904Y-71532814D02*
X88683120Y-71483710D01*
X88683120Y-71483710D02*
X88813503Y-71456034D01*
X88813503Y-71456034D02*
X88952704Y-71449596D01*
X88952704Y-71449596D02*
X88970516Y-71450264D01*
X88970516Y-71450264D02*
X89060151Y-71456816D01*
X89060151Y-71456816D02*
X89136634Y-71468753D01*
X89136634Y-71468753D02*
X89208286Y-71488245D01*
X89208286Y-71488245D02*
X89283424Y-71517462D01*
X89283424Y-71517462D02*
X89353275Y-71550101D01*
X89353275Y-71550101D02*
X89481208Y-71625394D01*
X89481208Y-71625394D02*
X89594128Y-71717374D01*
X89594128Y-71717374D02*
X89691022Y-71824363D01*
X89691022Y-71824363D02*
X89770880Y-71944688D01*
X89770880Y-71944688D02*
X89832690Y-72076673D01*
X89832690Y-72076673D02*
X89875442Y-72218642D01*
X89875442Y-72218642D02*
X89898123Y-72368921D01*
X89898123Y-72368921D02*
X89901684Y-72458591D01*
X89901684Y-72458591D02*
X89891393Y-72611069D01*
X89891393Y-72611069D02*
X89860037Y-72755633D01*
X89860037Y-72755633D02*
X89806892Y-72894869D01*
X89806892Y-72894869D02*
X89749637Y-73001788D01*
X89749637Y-73001788D02*
X89663925Y-73122081D01*
X89663925Y-73122081D02*
X89562312Y-73226930D01*
X89562312Y-73226930D02*
X89446979Y-73315252D01*
X89446979Y-73315252D02*
X89320104Y-73385966D01*
X89320104Y-73385966D02*
X89183868Y-73437989D01*
X89183868Y-73437989D02*
X89040449Y-73470242D01*
X89040449Y-73470242D02*
X88892028Y-73481641D01*
X88892028Y-73481641D02*
X88791782Y-73477158D01*
X88791782Y-73477158D02*
X88647174Y-73452277D01*
X88647174Y-73452277D02*
X88506606Y-73406002D01*
X88506606Y-73406002D02*
X88373433Y-73340023D01*
X88373433Y-73340023D02*
X88251013Y-73256026D01*
X88251013Y-73256026D02*
X88142701Y-73155700D01*
X88142701Y-73155700D02*
X88134307Y-73146534D01*
X88134307Y-73146534D02*
X88053176Y-73042414D01*
X88053176Y-73042414D02*
X87983484Y-72924232D01*
X87983484Y-72924232D02*
X87928318Y-72798369D01*
X87928318Y-72798369D02*
X87890765Y-72671209D01*
X87890765Y-72671209D02*
X87881896Y-72624759D01*
X87881896Y-72624759D02*
X87879283Y-72596364D01*
X87879283Y-72596364D02*
X87876938Y-72546292D01*
X87876938Y-72546292D02*
X87875469Y-72495958D01*
X87875469Y-72495958D02*
X88371807Y-72495958D01*
X88371807Y-72495958D02*
X88382379Y-72593507D01*
X88382379Y-72593507D02*
X88412811Y-72687526D01*
X88412811Y-72687526D02*
X88441465Y-72741671D01*
X88441465Y-72741671D02*
X88508399Y-72829954D01*
X88508399Y-72829954D02*
X88587880Y-72900831D01*
X88587880Y-72900831D02*
X88677312Y-72953324D01*
X88677312Y-72953324D02*
X88774098Y-72986456D01*
X88774098Y-72986456D02*
X88875639Y-72999250D01*
X88875639Y-72999250D02*
X88979340Y-72990729D01*
X88979340Y-72990729D02*
X89052167Y-72971441D01*
X89052167Y-72971441D02*
X89095164Y-72955355D01*
X89095164Y-72955355D02*
X89136069Y-72937995D01*
X89136069Y-72937995D02*
X89152236Y-72930219D01*
X89152236Y-72930219D02*
X89197522Y-72899215D01*
X89197522Y-72899215D02*
X89246845Y-72853021D01*
X89246845Y-72853021D02*
X89294902Y-72797565D01*
X89294902Y-72797565D02*
X89336387Y-72738771D01*
X89336387Y-72738771D02*
X89357875Y-72700444D01*
X89357875Y-72700444D02*
X89378056Y-72656198D01*
X89378056Y-72656198D02*
X89390701Y-72617590D01*
X89390701Y-72617590D02*
X89398058Y-72575298D01*
X89398058Y-72575298D02*
X89402376Y-72519995D01*
X89402376Y-72519995D02*
X89402658Y-72514705D01*
X89402658Y-72514705D02*
X89399290Y-72407460D01*
X89399290Y-72407460D02*
X89376434Y-72309568D01*
X89376434Y-72309568D02*
X89332782Y-72216145D01*
X89332782Y-72216145D02*
X89315012Y-72187616D01*
X89315012Y-72187616D02*
X89250470Y-72109712D01*
X89250470Y-72109712D02*
X89171653Y-72047542D01*
X89171653Y-72047542D02*
X89082017Y-72002046D01*
X89082017Y-72002046D02*
X88985018Y-71974168D01*
X88985018Y-71974168D02*
X88884114Y-71964848D01*
X88884114Y-71964848D02*
X88782762Y-71975030D01*
X88782762Y-71975030D02*
X88684416Y-72005655D01*
X88684416Y-72005655D02*
X88670413Y-72011941D01*
X88670413Y-72011941D02*
X88582461Y-72064890D01*
X88582461Y-72064890D02*
X88508471Y-72133104D01*
X88508471Y-72133104D02*
X88449428Y-72213450D01*
X88449428Y-72213450D02*
X88406315Y-72302797D01*
X88406315Y-72302797D02*
X88380113Y-72398010D01*
X88380113Y-72398010D02*
X88371807Y-72495958D01*
X88371807Y-72495958D02*
X87875469Y-72495958D01*
X87875469Y-72495958D02*
X87874885Y-72475955D01*
X87874885Y-72475955D02*
X87873146Y-72386766D01*
X87873146Y-72386766D02*
X87871743Y-72280137D01*
X87871743Y-72280137D02*
X87870699Y-72157481D01*
X87870699Y-72157481D02*
X87870035Y-72020209D01*
X87870035Y-72020209D02*
X87869774Y-71869735D01*
X87869774Y-71869735D02*
X87869771Y-71857999D01*
X87869771Y-71857999D02*
X87869684Y-71166285D01*
X87869684Y-71166285D02*
X88377388Y-70656259D01*
X88377388Y-70656259D02*
X88377536Y-71149827D01*
X88377536Y-71149827D02*
X88377536Y-71149827D01*
G36*
X87873146Y-72386766D02*
G01*
X87871743Y-72280137D01*
X87870699Y-72157481D01*
X87870035Y-72020209D01*
X87869774Y-71869735D01*
X87869771Y-71857999D01*
X87869684Y-71166285D01*
X88377388Y-70656259D01*
X88377536Y-71149827D01*
X88377728Y-71254067D01*
X88378217Y-71350812D01*
X88378967Y-71437698D01*
X88379943Y-71512360D01*
X88381112Y-71572435D01*
X88382439Y-71615558D01*
X88383888Y-71639365D01*
X88384796Y-71643395D01*
X88397227Y-71637081D01*
X88422073Y-71620738D01*
X88446207Y-71603536D01*
X88560904Y-71532814D01*
X88683120Y-71483710D01*
X88813503Y-71456034D01*
X88952704Y-71449596D01*
X88970516Y-71450264D01*
X89060151Y-71456816D01*
X89136634Y-71468753D01*
X89208286Y-71488245D01*
X89283424Y-71517462D01*
X89353275Y-71550101D01*
X89481208Y-71625394D01*
X89594128Y-71717374D01*
X89691022Y-71824363D01*
X89770880Y-71944688D01*
X89832690Y-72076673D01*
X89875442Y-72218642D01*
X89898123Y-72368921D01*
X89901684Y-72458591D01*
X89891393Y-72611069D01*
X89860037Y-72755633D01*
X89806892Y-72894869D01*
X89749637Y-73001788D01*
X89663925Y-73122081D01*
X89562312Y-73226930D01*
X89446979Y-73315252D01*
X89320104Y-73385966D01*
X89183868Y-73437989D01*
X89040449Y-73470242D01*
X88892028Y-73481641D01*
X88791782Y-73477158D01*
X88647174Y-73452277D01*
X88506606Y-73406002D01*
X88373433Y-73340023D01*
X88251013Y-73256026D01*
X88142701Y-73155700D01*
X88134307Y-73146534D01*
X88053176Y-73042414D01*
X87983484Y-72924232D01*
X87928318Y-72798369D01*
X87890765Y-72671209D01*
X87881896Y-72624759D01*
X87879283Y-72596364D01*
X87876938Y-72546292D01*
X87875469Y-72495958D01*
X88371807Y-72495958D01*
X88382379Y-72593507D01*
X88412811Y-72687526D01*
X88441465Y-72741671D01*
X88508399Y-72829954D01*
X88587880Y-72900831D01*
X88677312Y-72953324D01*
X88774098Y-72986456D01*
X88875639Y-72999250D01*
X88979340Y-72990729D01*
X89052167Y-72971441D01*
X89095164Y-72955355D01*
X89136069Y-72937995D01*
X89152236Y-72930219D01*
X89197522Y-72899215D01*
X89246845Y-72853021D01*
X89294902Y-72797565D01*
X89336387Y-72738771D01*
X89357875Y-72700444D01*
X89378056Y-72656198D01*
X89390701Y-72617590D01*
X89398058Y-72575298D01*
X89402376Y-72519995D01*
X89402658Y-72514705D01*
X89399290Y-72407460D01*
X89376434Y-72309568D01*
X89332782Y-72216145D01*
X89315012Y-72187616D01*
X89250470Y-72109712D01*
X89171653Y-72047542D01*
X89082017Y-72002046D01*
X88985018Y-71974168D01*
X88884114Y-71964848D01*
X88782762Y-71975030D01*
X88684416Y-72005655D01*
X88670413Y-72011941D01*
X88582461Y-72064890D01*
X88508471Y-72133104D01*
X88449428Y-72213450D01*
X88406315Y-72302797D01*
X88380113Y-72398010D01*
X88371807Y-72495958D01*
X87875469Y-72495958D01*
X87874885Y-72475955D01*
X87873146Y-72386766D01*
G37*
X87873146Y-72386766D02*
X87871743Y-72280137D01*
X87870699Y-72157481D01*
X87870035Y-72020209D01*
X87869774Y-71869735D01*
X87869771Y-71857999D01*
X87869684Y-71166285D01*
X88377388Y-70656259D01*
X88377536Y-71149827D01*
X88377728Y-71254067D01*
X88378217Y-71350812D01*
X88378967Y-71437698D01*
X88379943Y-71512360D01*
X88381112Y-71572435D01*
X88382439Y-71615558D01*
X88383888Y-71639365D01*
X88384796Y-71643395D01*
X88397227Y-71637081D01*
X88422073Y-71620738D01*
X88446207Y-71603536D01*
X88560904Y-71532814D01*
X88683120Y-71483710D01*
X88813503Y-71456034D01*
X88952704Y-71449596D01*
X88970516Y-71450264D01*
X89060151Y-71456816D01*
X89136634Y-71468753D01*
X89208286Y-71488245D01*
X89283424Y-71517462D01*
X89353275Y-71550101D01*
X89481208Y-71625394D01*
X89594128Y-71717374D01*
X89691022Y-71824363D01*
X89770880Y-71944688D01*
X89832690Y-72076673D01*
X89875442Y-72218642D01*
X89898123Y-72368921D01*
X89901684Y-72458591D01*
X89891393Y-72611069D01*
X89860037Y-72755633D01*
X89806892Y-72894869D01*
X89749637Y-73001788D01*
X89663925Y-73122081D01*
X89562312Y-73226930D01*
X89446979Y-73315252D01*
X89320104Y-73385966D01*
X89183868Y-73437989D01*
X89040449Y-73470242D01*
X88892028Y-73481641D01*
X88791782Y-73477158D01*
X88647174Y-73452277D01*
X88506606Y-73406002D01*
X88373433Y-73340023D01*
X88251013Y-73256026D01*
X88142701Y-73155700D01*
X88134307Y-73146534D01*
X88053176Y-73042414D01*
X87983484Y-72924232D01*
X87928318Y-72798369D01*
X87890765Y-72671209D01*
X87881896Y-72624759D01*
X87879283Y-72596364D01*
X87876938Y-72546292D01*
X87875469Y-72495958D01*
X88371807Y-72495958D01*
X88382379Y-72593507D01*
X88412811Y-72687526D01*
X88441465Y-72741671D01*
X88508399Y-72829954D01*
X88587880Y-72900831D01*
X88677312Y-72953324D01*
X88774098Y-72986456D01*
X88875639Y-72999250D01*
X88979340Y-72990729D01*
X89052167Y-72971441D01*
X89095164Y-72955355D01*
X89136069Y-72937995D01*
X89152236Y-72930219D01*
X89197522Y-72899215D01*
X89246845Y-72853021D01*
X89294902Y-72797565D01*
X89336387Y-72738771D01*
X89357875Y-72700444D01*
X89378056Y-72656198D01*
X89390701Y-72617590D01*
X89398058Y-72575298D01*
X89402376Y-72519995D01*
X89402658Y-72514705D01*
X89399290Y-72407460D01*
X89376434Y-72309568D01*
X89332782Y-72216145D01*
X89315012Y-72187616D01*
X89250470Y-72109712D01*
X89171653Y-72047542D01*
X89082017Y-72002046D01*
X88985018Y-71974168D01*
X88884114Y-71964848D01*
X88782762Y-71975030D01*
X88684416Y-72005655D01*
X88670413Y-72011941D01*
X88582461Y-72064890D01*
X88508471Y-72133104D01*
X88449428Y-72213450D01*
X88406315Y-72302797D01*
X88380113Y-72398010D01*
X88371807Y-72495958D01*
X87875469Y-72495958D01*
X87874885Y-72475955D01*
X87873146Y-72386766D01*
M02*
