M48
; DRILL file {KiCad 6.0.0-d3dd2cf0fa~116~ubuntu20.04.1} date Sat 08 Jan 2022 10:42:01 AM EST
; FORMAT={-:-/ absolute / inch / decimal}
; #@! TF.CreationDate,2022-01-08T10:42:01-05:00
; #@! TF.GenerationSoftware,Kicad,Pcbnew,6.0.0-d3dd2cf0fa~116~ubuntu20.04.1
; #@! TF.FileFunction,NonPlated,1,2,NPTH
FMAT,2
INCH
; #@! TA.AperFunction,NonPlated,NPTH,ComponentDrill
T1C0.0354
; #@! TA.AperFunction,NonPlated,NPTH,ComponentDrill
T2C0.0670
; #@! TA.AperFunction,NonPlated,NPTH,ComponentDrill
T3C0.1350
%
G90
G05
T1
X5.2223Y-2.4583
X5.2223Y-2.4583
X5.3405Y-2.4583
X5.3405Y-2.4583
T2
X1.2477Y-2.5378
X1.3925Y-3.1913
X1.6705Y-2.4441
X1.8153Y-3.0975
X2.0384Y-1.8904
X2.0967Y-2.5572
X2.1551Y-3.2239
X2.4698Y-1.8527
X2.5282Y-2.5194
X2.5865Y-3.1862
X2.9031Y-1.7483
X2.9031Y-2.4175
X2.9031Y-3.0868
X3.3362Y-1.7483
X3.3362Y-2.4175
X3.3362Y-3.0868
X3.6122Y-1.8809
X3.6122Y-2.5502
X3.6122Y-3.2195
X4.0392Y-4.2375
X4.0452Y-1.8809
X4.0452Y-2.5502
X4.0452Y-3.2195
X4.3208Y-2.2155
X4.3208Y-2.8848
X4.4575Y-4.3496
X4.7539Y-2.2155
X4.7539Y-2.8848
X4.913Y-4.5024
X5.0251Y-4.0841
T3
X1.4591Y-2.491
X1.6039Y-3.1444
X2.2541Y-1.8716
X2.3125Y-2.5383
X2.3708Y-3.205
X3.1197Y-1.7483
X3.1197Y-2.4175
X3.1197Y-3.0868
X3.8287Y-1.8809
X3.8287Y-2.5502
X3.8287Y-3.2195
X4.2483Y-4.2936
X4.5374Y-2.2155
X4.5374Y-2.8848
X4.969Y-4.2932
T0
M30
