G04 #@! TF.GenerationSoftware,KiCad,Pcbnew,6.0.0-d3dd2cf0fa~116~ubuntu20.04.1*
G04 #@! TF.CreationDate,2022-01-08T10:42:03-05:00*
G04 #@! TF.ProjectId,phantoma,7068616e-746f-46d6-912e-6b696361645f,0.1*
G04 #@! TF.SameCoordinates,Original*
G04 #@! TF.FileFunction,Copper,L2,Bot*
G04 #@! TF.FilePolarity,Positive*
%FSLAX46Y46*%
G04 Gerber Fmt 4.6, Leading zero omitted, Abs format (unit mm)*
G04 Created by KiCad (PCBNEW 6.0.0-d3dd2cf0fa~116~ubuntu20.04.1) date 2022-01-08 10:42:03*
%MOMM*%
%LPD*%
G01*
G04 APERTURE LIST*
G04 Aperture macros list*
%AMHorizOval*
0 Thick line with rounded ends*
0 $1 width*
0 $2 $3 position (X,Y) of the first rounded end (center of the circle)*
0 $4 $5 position (X,Y) of the second rounded end (center of the circle)*
0 Add line between two ends*
20,1,$1,$2,$3,$4,$5,0*
0 Add two circle primitives to create the rounded ends*
1,1,$1,$2,$3*
1,1,$1,$4,$5*%
%AMFreePoly0*
4,1,5,0.125000,-0.500000,-0.125000,-0.500000,-0.125000,0.500000,0.125000,0.500000,0.125000,-0.500000,0.125000,-0.500000,$1*%
%AMFreePoly1*
4,1,6,0.600000,0.200000,0.000000,-0.400000,-0.600000,0.200000,-0.600000,0.400000,0.600000,0.400000,0.600000,0.200000,0.600000,0.200000,$1*%
%AMFreePoly2*
4,1,6,0.600000,-0.250000,-0.600000,-0.250000,-0.600000,1.000000,0.000000,0.400000,0.600000,1.000000,0.600000,-0.250000,0.600000,-0.250000,$1*%
G04 Aperture macros list end*
G04 #@! TA.AperFunction,ComponentPad*
%ADD10HorizOval,2.000000X0.244074X0.054110X-0.244074X-0.054110X0*%
G04 #@! TD*
G04 #@! TA.AperFunction,ComponentPad*
%ADD11HorizOval,2.000000X0.249049X0.021789X-0.249049X-0.021789X0*%
G04 #@! TD*
G04 #@! TA.AperFunction,ComponentPad*
%ADD12O,2.500000X2.000000*%
G04 #@! TD*
G04 #@! TA.AperFunction,ComponentPad*
%ADD13HorizOval,2.000000X0.241481X-0.064705X-0.241481X0.064705X0*%
G04 #@! TD*
G04 #@! TA.AperFunction,ComponentPad*
%ADD14HorizOval,2.000000X-0.064705X-0.241481X0.064705X0.241481X0*%
G04 #@! TD*
G04 #@! TA.AperFunction,SMDPad,CuDef*
%ADD15R,2.100000X1.500000*%
G04 #@! TD*
G04 #@! TA.AperFunction,SMDPad,CuDef*
%ADD16FreePoly0,90.000000*%
G04 #@! TD*
G04 #@! TA.AperFunction,ComponentPad*
%ADD17C,1.600000*%
G04 #@! TD*
G04 #@! TA.AperFunction,SMDPad,CuDef*
%ADD18FreePoly0,270.000000*%
G04 #@! TD*
G04 #@! TA.AperFunction,SMDPad,CuDef*
%ADD19FreePoly1,270.000000*%
G04 #@! TD*
G04 #@! TA.AperFunction,SMDPad,CuDef*
%ADD20FreePoly1,90.000000*%
G04 #@! TD*
G04 #@! TA.AperFunction,SMDPad,CuDef*
%ADD21FreePoly2,90.000000*%
G04 #@! TD*
G04 #@! TA.AperFunction,SMDPad,CuDef*
%ADD22FreePoly2,270.000000*%
G04 #@! TD*
G04 #@! TA.AperFunction,SMDPad,CuDef*
%ADD23R,1.000000X0.800000*%
G04 #@! TD*
G04 #@! TA.AperFunction,SMDPad,CuDef*
%ADD24R,0.700000X1.500000*%
G04 #@! TD*
G04 #@! TA.AperFunction,ComponentPad*
%ADD25C,4.400000*%
G04 #@! TD*
G04 #@! TA.AperFunction,ViaPad*
%ADD26C,0.800000*%
G04 #@! TD*
G04 #@! TA.AperFunction,Conductor*
%ADD27C,0.250000*%
G04 #@! TD*
G04 #@! TA.AperFunction,Conductor*
%ADD28C,0.500000*%
G04 #@! TD*
G04 #@! TA.AperFunction,Conductor*
%ADD29C,0.400000*%
G04 #@! TD*
G04 APERTURE END LIST*
D10*
X32925503Y-68182001D03*
X42883722Y-65974317D03*
X38337492Y-69030751D03*
D11*
X52514091Y-51867116D03*
X62675277Y-50978127D03*
X57768996Y-53415011D03*
D12*
X74140000Y-48305728D03*
X84340000Y-48305728D03*
X79240000Y-50305728D03*
X102349010Y-51674444D03*
X92149010Y-51674444D03*
X97249010Y-53674444D03*
X120349006Y-60174447D03*
X110149006Y-60174447D03*
X115249006Y-62174447D03*
D10*
X36604979Y-84779027D03*
X46563198Y-82571343D03*
X42016968Y-85627777D03*
D11*
X64156919Y-67913443D03*
X53995733Y-68802432D03*
X59250638Y-70350327D03*
D12*
X74140000Y-65305728D03*
X84340000Y-65305728D03*
X79240000Y-67305728D03*
X102349010Y-68674441D03*
X92149010Y-68674441D03*
X97249010Y-70674441D03*
X110149010Y-77174446D03*
X120349010Y-77174446D03*
X115249010Y-79174446D03*
D11*
X55477381Y-85737740D03*
X65638567Y-84848751D03*
X60732286Y-87285635D03*
D12*
X74140000Y-82305739D03*
X84340000Y-82305739D03*
X79240000Y-84305739D03*
X92149010Y-85674443D03*
X102349010Y-85674443D03*
X97249010Y-87674443D03*
D13*
X101971662Y-111503864D03*
X111824105Y-114143818D03*
X106380246Y-114755692D03*
D14*
X123766274Y-103112052D03*
X121126320Y-112964495D03*
X120514446Y-107520636D03*
D15*
X123046965Y-92679741D03*
X123046965Y-90479741D03*
D16*
X127789009Y-89734446D03*
D17*
X126519009Y-64334446D03*
D18*
X140489009Y-92274446D03*
D17*
X141759009Y-74494446D03*
D19*
X139981009Y-87194446D03*
D20*
X128297009Y-84654446D03*
D17*
X141759009Y-69414446D03*
D19*
X139981009Y-79574446D03*
D18*
X140489009Y-87194446D03*
D17*
X126519009Y-71954446D03*
X126519009Y-77034446D03*
D20*
X128297009Y-87194446D03*
X128297009Y-74494446D03*
D17*
X141759009Y-79574446D03*
D19*
X139981009Y-66874446D03*
D17*
X141759009Y-92274446D03*
D18*
X140489009Y-74494446D03*
D19*
X139981009Y-84654446D03*
D20*
X128297009Y-79574446D03*
X128297009Y-69414446D03*
D17*
X126519009Y-66874446D03*
X141759009Y-84654446D03*
D20*
X128297009Y-92274446D03*
D16*
X127789009Y-74494446D03*
D19*
X139981009Y-89734446D03*
D18*
X140489009Y-77034446D03*
D17*
X141759009Y-77034446D03*
D20*
X128297009Y-89734446D03*
D17*
X141759009Y-64334446D03*
D20*
X128297009Y-66874446D03*
D17*
X141759009Y-82114446D03*
D18*
X140489009Y-64334446D03*
D17*
X141759009Y-71954446D03*
D16*
X127789009Y-69414446D03*
D17*
X126519009Y-69414446D03*
D16*
X127789009Y-84654446D03*
D18*
X140489009Y-66874446D03*
D17*
X126519009Y-89734446D03*
D20*
X128297009Y-82114446D03*
D17*
X126519009Y-79574446D03*
D18*
X140489009Y-71954446D03*
D19*
X139981009Y-92274446D03*
D16*
X127789009Y-82114446D03*
X127789009Y-87194446D03*
D20*
X128297009Y-77034446D03*
D17*
X126519009Y-87194446D03*
D19*
X139981009Y-64334446D03*
D17*
X141759009Y-66874446D03*
D19*
X139981009Y-82114446D03*
D16*
X127789009Y-77034446D03*
D19*
X139981009Y-77034446D03*
D18*
X140489009Y-82114446D03*
D19*
X139981009Y-74494446D03*
D17*
X126519009Y-74494446D03*
D16*
X127789009Y-64334446D03*
D19*
X139981009Y-69414446D03*
D17*
X126519009Y-84654446D03*
D18*
X140489009Y-79574446D03*
D17*
X126519009Y-92274446D03*
X126519009Y-82114446D03*
D20*
X128297009Y-71954446D03*
D18*
X140489009Y-69414446D03*
D17*
X141759009Y-89734446D03*
D18*
X140489009Y-84654446D03*
D16*
X127789009Y-92274446D03*
X127789009Y-71954446D03*
D20*
X128297009Y-64334446D03*
D17*
X141759009Y-87194446D03*
D16*
X127789009Y-79574446D03*
D19*
X139981009Y-71954446D03*
D16*
X127789009Y-66874446D03*
D18*
X140489009Y-89734446D03*
D21*
X129313009Y-64334446D03*
X129313009Y-66874446D03*
X129313009Y-69414446D03*
X129313009Y-71954446D03*
X129313009Y-74494446D03*
X129313009Y-77034446D03*
X129313009Y-79574446D03*
X129313009Y-82114446D03*
X129313009Y-84654446D03*
X129313009Y-87194446D03*
X129313009Y-89734446D03*
X129313009Y-92274446D03*
D22*
X138965009Y-92274446D03*
X138965009Y-89734446D03*
X138965009Y-87194446D03*
X138965009Y-84654446D03*
X138965009Y-82114446D03*
X138965009Y-79574446D03*
X138965009Y-77034446D03*
X138965009Y-74494446D03*
X138965009Y-71954446D03*
X138965009Y-69414446D03*
X138965009Y-66874446D03*
X138965009Y-64334446D03*
D23*
X137797486Y-61341256D03*
X130497486Y-61341256D03*
X130497486Y-63541256D03*
X137797486Y-63541256D03*
D24*
X131897486Y-64191256D03*
X134897486Y-64191256D03*
X136397486Y-64191256D03*
D25*
X68707000Y-58166000D03*
X87757000Y-39116000D03*
X106807000Y-58166000D03*
X87757000Y-77216000D03*
D26*
X134147489Y-61641258D03*
X130313005Y-92909447D03*
X130313007Y-82749441D03*
X130313007Y-80209443D03*
X130313006Y-77669446D03*
X137965009Y-73859446D03*
X131313009Y-74176946D03*
X137965007Y-86559444D03*
X130313008Y-90369445D03*
X130313007Y-87829443D03*
X130313009Y-85289444D03*
X137965009Y-76399444D03*
X130813009Y-76399446D03*
X137965005Y-84019446D03*
X137965011Y-81479447D03*
X137965007Y-78939446D03*
X137965007Y-89099443D03*
X137965009Y-91639446D03*
X130313008Y-71319445D03*
X137465008Y-68779446D03*
X136965009Y-66874444D03*
X130813008Y-69414444D03*
X137965007Y-70684444D03*
X134147491Y-63041258D03*
X132313009Y-73224443D03*
X123046965Y-90479742D03*
X135419174Y-65864289D03*
X123046964Y-92679742D03*
X134818840Y-67673956D03*
X131313008Y-67509445D03*
X130313007Y-75129443D03*
D27*
X138789272Y-70862328D02*
G75*
G03*
X138965008Y-70438064I-424260J424263D01*
G01*
X138141696Y-71407332D02*
G75*
G03*
X138092545Y-71408957I726341J-22713600D01*
G01*
X130313008Y-71319445D02*
X130402519Y-71408954D01*
X130402519Y-71408954D02*
X138092545Y-71408956D01*
X138141696Y-71407331D02*
X138244269Y-71407331D01*
X138965008Y-70438064D02*
X138965008Y-69414446D01*
X138244269Y-71407331D02*
X138789272Y-70862328D01*
D28*
X117425710Y-112541782D02*
G75*
G03*
X117379674Y-112633318I511212J-314447D01*
G01*
X117425709Y-112541782D02*
X120514446Y-107520636D01*
X104826317Y-110643950D02*
X106380246Y-114755692D01*
X109806157Y-116178874D02*
X106380246Y-114755692D01*
X106258889Y-91048466D02*
X106258888Y-104003649D01*
X116220448Y-115531381D02*
X117379673Y-112633318D01*
X114511146Y-117369427D02*
G75*
G02*
X114063932Y-117475000I-447214J894426D01*
G01*
X115719071Y-116541858D02*
X116186398Y-115607204D01*
X113222582Y-117474999D02*
G75*
G02*
X112851191Y-117403476I4J1000026D01*
G01*
X109906430Y-116225571D02*
G75*
G02*
X109806157Y-116178873I371228J928130D01*
G01*
X115719070Y-116541858D02*
G75*
G02*
X115271858Y-116989070I-894422J447210D01*
G01*
X106218672Y-104284387D02*
G75*
G03*
X106258888Y-104003649I-959767J280737D01*
G01*
X116220448Y-115531381D02*
G75*
G02*
X116186398Y-115607204I-928771J371528D01*
G01*
X114511146Y-117369427D02*
X115271858Y-116989071D01*
X104826317Y-110643950D02*
G75*
G02*
X104775000Y-110327722I948712J316233D01*
G01*
X104775001Y-109363249D02*
G75*
G02*
X104815217Y-109082511I999982J1D01*
G01*
X106218672Y-104284387D02*
X104815216Y-109082511D01*
X104775000Y-109363249D02*
X104775000Y-110327722D01*
X109906430Y-116225572D02*
X112851191Y-117403477D01*
X113222582Y-117475000D02*
X114063932Y-117475000D01*
D27*
X136397488Y-62305390D02*
X136397491Y-64191258D01*
X136086912Y-61787707D02*
X136251043Y-61951840D01*
X134147489Y-61641258D02*
X135733356Y-61641258D01*
X136251043Y-61951840D02*
G75*
G02*
X136397488Y-62305390I-353552J-353551D01*
G01*
X135733356Y-61641259D02*
G75*
G02*
X136086912Y-61787707I-1J-500003D01*
G01*
X130313005Y-92909447D02*
X138122898Y-92909446D01*
X138476451Y-92763000D02*
X138965006Y-92274446D01*
X138476451Y-92763000D02*
G75*
G02*
X138122898Y-92909446I-353553J353556D01*
G01*
X138476456Y-82602997D02*
X138965008Y-82114444D01*
X130313007Y-82749441D02*
X138122902Y-82749444D01*
X138122902Y-82749444D02*
G75*
G03*
X138476456Y-82602997I1J499997D01*
G01*
X138476455Y-80062999D02*
X138965007Y-79574444D01*
X130313007Y-80209443D02*
X138122900Y-80209447D01*
X138476455Y-80062999D02*
G75*
G02*
X138122900Y-80209447I-353556J353556D01*
G01*
X130313006Y-77669446D02*
X138122899Y-77669446D01*
X138476453Y-77522999D02*
X138965008Y-77034444D01*
X138476453Y-77522999D02*
G75*
G02*
X138122899Y-77669446I-353553J353550D01*
G01*
X129313009Y-74494446D02*
X129484063Y-74323392D01*
X137793956Y-74030499D02*
X137965009Y-73859446D01*
X131313009Y-74176946D02*
X137440402Y-74176946D01*
X129837616Y-74176946D02*
X131313009Y-74176946D01*
X137793956Y-74030499D02*
G75*
G02*
X137440402Y-74176946I-353553J353550D01*
G01*
X129484063Y-74323392D02*
G75*
G02*
X129837616Y-74176946I353553J-353556D01*
G01*
X129801560Y-86705891D02*
X129313007Y-87194443D01*
X137965007Y-86559444D02*
X130155113Y-86559445D01*
X130155113Y-86559446D02*
G75*
G03*
X129801560Y-86705891I0J-500001D01*
G01*
X130313008Y-90369445D02*
X138122901Y-90369448D01*
X138476456Y-90223000D02*
X138965009Y-89734442D01*
X138476456Y-90223000D02*
G75*
G02*
X138122901Y-90369448I-353556J353556D01*
G01*
X130313007Y-87829443D02*
X138122901Y-87829445D01*
X138476454Y-87682999D02*
X138965008Y-87194447D01*
X138476454Y-87682999D02*
G75*
G02*
X138122901Y-87829445I-353553J353556D01*
G01*
X138476455Y-85142998D02*
X138965007Y-84654447D01*
X130313009Y-85289444D02*
X138122902Y-85289444D01*
X138122902Y-85289443D02*
G75*
G03*
X138476455Y-85142998I0J500001D01*
G01*
X130813009Y-76399446D02*
X130155116Y-76399446D01*
X130813011Y-76399444D02*
X130813009Y-76399446D01*
X137965009Y-76399444D02*
X130813011Y-76399444D01*
X129801562Y-76545893D02*
X129313009Y-77034446D01*
X129801562Y-76545893D02*
G75*
G02*
X130155116Y-76399446I353553J-353550D01*
G01*
X129801560Y-84165893D02*
X129313008Y-84654447D01*
X137965005Y-84019446D02*
X130155114Y-84019446D01*
X130155114Y-84019446D02*
G75*
G03*
X129801560Y-84165893I-1J-499997D01*
G01*
X129801562Y-81625893D02*
X129313006Y-82114447D01*
X137965011Y-81479447D02*
X130155115Y-81479447D01*
X130155115Y-81479448D02*
G75*
G03*
X129801562Y-81625893I0J-500001D01*
G01*
X129801563Y-79085890D02*
X129313006Y-79574444D01*
X137965007Y-78939446D02*
X130155115Y-78939445D01*
X130155115Y-78939446D02*
G75*
G03*
X129801563Y-79085890I0J-500001D01*
G01*
X137965007Y-89099443D02*
X130155115Y-89099445D01*
X129801562Y-89245891D02*
X129313009Y-89734443D01*
X129801562Y-89245891D02*
G75*
G02*
X130155115Y-89099445I353553J-353556D01*
G01*
X137965009Y-91639446D02*
X130155114Y-91639445D01*
X129801563Y-91785890D02*
X129313004Y-92274443D01*
X129801563Y-91785890D02*
G75*
G02*
X130155114Y-91639445I353552J-353557D01*
G01*
X130982049Y-68543488D02*
X129313008Y-66874446D01*
X137375497Y-68689933D02*
X131335603Y-68689935D01*
X137465008Y-68779446D02*
X137375497Y-68689933D01*
X131335603Y-68689935D02*
G75*
G02*
X130982049Y-68543488I-1J499997D01*
G01*
X136965009Y-66874444D02*
X136875495Y-66784933D01*
X136875495Y-66784933D02*
X131970605Y-66784936D01*
X131617051Y-66638489D02*
X129313008Y-64334444D01*
X131970605Y-66784936D02*
G75*
G02*
X131617051Y-66638489I-1J499997D01*
G01*
D28*
X107137572Y-63402138D02*
X107486583Y-63053125D01*
X81350915Y-66952885D02*
X80027363Y-66952885D01*
D29*
X132286692Y-70059701D02*
X136511836Y-70059700D01*
D28*
X107486577Y-80053130D02*
X107137571Y-80402139D01*
X75282132Y-67480017D02*
X71999197Y-67480017D01*
D29*
X129313008Y-69914445D02*
X129313009Y-71954447D01*
D28*
X122545787Y-66805787D02*
X122728427Y-66988427D01*
X79056175Y-84218589D02*
X83909130Y-83794008D01*
D29*
X130813008Y-69414444D02*
X130872474Y-69473910D01*
D28*
X79237849Y-67283271D02*
X79260306Y-67305728D01*
X45756537Y-69030751D02*
X38337492Y-69030751D01*
X86493468Y-69738620D02*
X84270684Y-67873486D01*
X63914214Y-54610000D02*
X65625786Y-54610000D01*
X60732286Y-87285635D02*
X57273579Y-87285635D01*
X104157489Y-54897058D02*
X102934870Y-53674439D01*
X62597904Y-53707904D02*
X63207107Y-54317107D01*
X105006187Y-71553120D02*
X105380204Y-71927142D01*
X106258886Y-82523462D02*
X106258889Y-74048465D01*
X49237107Y-72097107D02*
X46463644Y-69323644D01*
X86828903Y-84714611D02*
X89241033Y-86738627D01*
X106258887Y-61554887D02*
X104157489Y-59453489D01*
X56566472Y-87578528D02*
X54267893Y-89877107D01*
X75369291Y-67476211D02*
X77574530Y-67283271D01*
X97249007Y-70674444D02*
X102884871Y-70674442D01*
D29*
X130813008Y-69414444D02*
X129813008Y-69414445D01*
D28*
X82629021Y-53674439D02*
X79260310Y-50305728D01*
X75700370Y-84512184D02*
X79056175Y-84218589D01*
X121960000Y-65048427D02*
X121960000Y-65391573D01*
X104157489Y-59453489D02*
X104157489Y-54897058D01*
X115249006Y-62174447D02*
X118257593Y-62174447D01*
X115249002Y-79174443D02*
X109607903Y-79174448D01*
X79260310Y-50305728D02*
X70451202Y-50613012D01*
X121086020Y-63346020D02*
X121374214Y-63634214D01*
X55721780Y-70643220D02*
X54267893Y-72097107D01*
X59250638Y-70350327D02*
X56428887Y-70350327D01*
D29*
X130813008Y-69414444D02*
X130791584Y-69414444D01*
X138264517Y-67782040D02*
X138264519Y-70177826D01*
D28*
X79320256Y-67245778D02*
X79260306Y-67305728D01*
X72984822Y-85925812D02*
X71917892Y-86992742D01*
X106258889Y-74048465D02*
X106258887Y-65523460D01*
X66332893Y-54317107D02*
X69744095Y-50905905D01*
X89064622Y-70674443D02*
X97249013Y-70674441D01*
X130791584Y-69414444D02*
X130122926Y-68745786D01*
X102934870Y-53674439D02*
X82629021Y-53674439D01*
X106258887Y-65523460D02*
X106258887Y-61554887D01*
D29*
X138965008Y-66874448D02*
X138410965Y-67428485D01*
D28*
X105380213Y-88927140D02*
X105006190Y-88553123D01*
X71210785Y-87285635D02*
X60732286Y-87285635D01*
X77574530Y-67283271D02*
X79237849Y-67283271D01*
X125556854Y-68160000D02*
X128708713Y-68160000D01*
D29*
X134751043Y-63644810D02*
X134147491Y-63041258D01*
X137926051Y-70645488D02*
X137965007Y-70684444D01*
D28*
X102884870Y-87674449D02*
X97249009Y-87674447D01*
X53560786Y-72390000D02*
X49944214Y-72390000D01*
X109607905Y-62174445D02*
X115249007Y-62174446D01*
X91812179Y-87674446D02*
X97249009Y-87674447D01*
X50507107Y-89877107D02*
X46550670Y-85920670D01*
X68059888Y-70350327D02*
X59250638Y-70350327D01*
D29*
X138118072Y-70531380D02*
X137965007Y-70684444D01*
D28*
X45843563Y-85627777D02*
X42016968Y-85627777D01*
X57768996Y-53415011D02*
X61890797Y-53415011D01*
X68731055Y-70091633D02*
X71292090Y-67772910D01*
X53560786Y-90170000D02*
X51214214Y-90170000D01*
X106258889Y-91048466D02*
X106258886Y-82523462D01*
D29*
X134897491Y-64191256D02*
X134897490Y-63998361D01*
D28*
X107486583Y-63053125D02*
G75*
G02*
X109607905Y-62174445I2121330J-2121343D01*
G01*
X49237107Y-72097107D02*
G75*
G03*
X49944214Y-72390000I707106J707106D01*
G01*
X66332893Y-54317107D02*
G75*
G02*
X65625786Y-54610000I-707106J707106D01*
G01*
X75700370Y-84512184D02*
G75*
G03*
X72984822Y-85925812I348646J-3984808D01*
G01*
X105006187Y-71553120D02*
G75*
G03*
X102884871Y-70674442I-2121286J-2121243D01*
G01*
D29*
X138264517Y-67782040D02*
G75*
G02*
X138410965Y-67428485I499992J3D01*
G01*
X138118072Y-70531380D02*
G75*
G03*
X138264519Y-70177826I-353550J353553D01*
G01*
D28*
X86828902Y-84714612D02*
G75*
G03*
X83909130Y-83794009I-2571152J-3064176D01*
G01*
X46463644Y-69323644D02*
G75*
G03*
X45756537Y-69030751I-707106J-707106D01*
G01*
X71210785Y-87285634D02*
G75*
G03*
X71917891Y-86992741I3J999993D01*
G01*
X71999197Y-67480018D02*
G75*
G03*
X71292091Y-67772911I-3J-999993D01*
G01*
X121960001Y-65391573D02*
G75*
G03*
X122545788Y-66805786I1999999J0D01*
G01*
X56428887Y-70350328D02*
G75*
G03*
X55721781Y-70643221I-3J-999993D01*
G01*
D29*
X130872474Y-69473910D02*
G75*
G03*
X132286692Y-70059701I1414217J1414206D01*
G01*
D28*
X106258886Y-82523462D02*
G75*
G02*
X107137571Y-80402139I3000000J-3D01*
G01*
X68059888Y-70350326D02*
G75*
G03*
X68731054Y-70091632I0J999999D01*
G01*
D29*
X129813008Y-69414445D02*
G75*
G03*
X129313008Y-69914445I1J-500001D01*
G01*
D28*
X45843563Y-85627778D02*
G75*
G02*
X46550669Y-85920671I3J-999993D01*
G01*
X105380204Y-71927142D02*
G75*
G02*
X106258889Y-74048465I-2121265J-2121305D01*
G01*
X50507107Y-89877107D02*
G75*
G03*
X51214214Y-90170000I707104J707101D01*
G01*
X80027363Y-66952886D02*
G75*
G03*
X79320257Y-67245779I-3J-999993D01*
G01*
X53560786Y-90169999D02*
G75*
G03*
X54267892Y-89877106I3J999993D01*
G01*
X70451202Y-50613013D02*
G75*
G03*
X69744096Y-50905906I-1J-999998D01*
G01*
X56566472Y-87578528D02*
G75*
G02*
X57273579Y-87285635I707104J-707101D01*
G01*
X75282132Y-67480016D02*
G75*
G03*
X75369291Y-67476210I-2J999941D01*
G01*
X130122926Y-68745786D02*
G75*
G03*
X128708713Y-68160000I-1414213J-1414214D01*
G01*
X84270684Y-67873486D02*
G75*
G03*
X81350915Y-66952885I-2571144J-3064159D01*
G01*
D29*
X136511836Y-70059701D02*
G75*
G02*
X137926050Y-70645489I2J-1999994D01*
G01*
X134897489Y-63998361D02*
G75*
G03*
X134751043Y-63644810I-500003J-4D01*
G01*
D28*
X107486577Y-80053130D02*
G75*
G02*
X109607903Y-79174448I2121313J-2121295D01*
G01*
X102884870Y-87674450D02*
G75*
G02*
X105006189Y-88553124I8J-2999993D01*
G01*
X91812179Y-87674445D02*
G75*
G02*
X89241034Y-86738626I-6J3999981D01*
G01*
X105380213Y-88927140D02*
G75*
G02*
X106258889Y-91048466I-2121369J-2121335D01*
G01*
X118257593Y-62174447D02*
G75*
G02*
X121086020Y-63346020I0J-3999999D01*
G01*
X86493468Y-69738620D02*
G75*
G03*
X89064622Y-70674443I2571187J3064274D01*
G01*
X121959999Y-65048427D02*
G75*
G03*
X121374213Y-63634215I-1999999J0D01*
G01*
X107137572Y-63402138D02*
G75*
G03*
X106258887Y-65523460I2121270J-2121307D01*
G01*
X53560786Y-72389999D02*
G75*
G03*
X54267892Y-72097106I3J999993D01*
G01*
X125556854Y-68160000D02*
G75*
G02*
X122728427Y-66988427I0J3999999D01*
G01*
X63914214Y-54609999D02*
G75*
G02*
X63207108Y-54317106I-1J999998D01*
G01*
X62597904Y-53707904D02*
G75*
G03*
X61890797Y-53415011I-707104J-707101D01*
G01*
D29*
X137652409Y-73059934D02*
X132684625Y-73059934D01*
X138005963Y-72913487D02*
X138965007Y-71954443D01*
X132331071Y-73206381D02*
X132313009Y-73224443D01*
X132331071Y-73206381D02*
G75*
G02*
X132684625Y-73059934I353553J-353550D01*
G01*
X137652409Y-73059934D02*
G75*
G03*
X138005963Y-72913487I1J499997D01*
G01*
D27*
X131897486Y-64191256D02*
X133424073Y-65717843D01*
X133777626Y-65864289D02*
X135419174Y-65864289D01*
X133777626Y-65864288D02*
G75*
G02*
X133424073Y-65717843I0J500001D01*
G01*
D29*
X137447681Y-67527512D02*
X138052462Y-66922727D01*
X137094124Y-67673959D02*
X134818843Y-67673959D01*
X138198907Y-66569175D02*
X138198907Y-65307655D01*
X138345354Y-64954101D02*
X138965010Y-64334446D01*
X134818843Y-67673959D02*
X134818840Y-67673956D01*
X131331071Y-67527508D02*
X131313008Y-67509445D01*
X134818840Y-67673956D02*
X131684626Y-67673956D01*
X138198906Y-66569175D02*
G75*
G02*
X138052462Y-66922727I-500001J0D01*
G01*
X138345354Y-64954101D02*
G75*
G03*
X138198907Y-65307655I353550J-353553D01*
G01*
X137094124Y-67673958D02*
G75*
G03*
X137447680Y-67527511I7J499990D01*
G01*
X131684626Y-67673956D02*
G75*
G02*
X131331071Y-67527508I-3J499992D01*
G01*
D27*
X130313007Y-75129443D02*
X138122903Y-75129446D01*
X138476457Y-74982998D02*
X138965009Y-74494444D01*
X138476457Y-74982998D02*
G75*
G02*
X138122903Y-75129446I-353556J353556D01*
G01*
M02*
